<svg xmlns="http://www.w3.org/2000/svg" xmlns:xlink="http://www.w3.org/1999/xlink" width="500" zoomAndPan="magnify" viewBox="0 0 375 374.999991" height="500" preserveAspectRatio="xMidYMid meet" version="1.0"><defs><g/><clipPath id="f51b0cd24d"><path d="M 48.34375 48.34375 L 326.59375 48.34375 L 326.59375 326.59375 L 48.34375 326.59375 Z M 48.34375 48.34375 " clip-rule="nonzero"/></clipPath><clipPath id="c94e9d3f38"><path d="M 117.292969 86.074219 L 286 86.074219 L 286 326.59375 L 117.292969 326.59375 Z M 117.292969 86.074219 " clip-rule="nonzero"/></clipPath><clipPath id="fda4131bea"><path d="M 326.652344 187.445312 C 326.652344 110.601562 264.359375 48.304688 187.511719 48.304688 C 110.664062 48.304688 48.371094 110.601562 48.371094 187.445312 C 48.371094 264.292969 110.664062 326.589844 187.511719 326.589844 C 264.359375 326.589844 326.652344 264.292969 326.652344 187.445312 " clip-rule="nonzero"/></clipPath><clipPath id="88379d1e6b"><path d="M 118.140625 112.300781 L 127.445312 112.300781 L 127.445312 132.605469 L 118.140625 132.605469 Z M 118.140625 112.300781 " clip-rule="nonzero"/></clipPath><clipPath id="5c39a853c7"><path d="M 326.652344 187.445312 C 326.652344 110.601562 264.359375 48.304688 187.511719 48.304688 C 110.664062 48.304688 48.371094 110.601562 48.371094 187.445312 C 48.371094 264.292969 110.664062 326.589844 187.511719 326.589844 C 264.359375 326.589844 326.652344 264.292969 326.652344 187.445312 " clip-rule="nonzero"/></clipPath><clipPath id="f3d0c755d6"><path d="M 166 73.386719 L 173 73.386719 L 173 94.535156 L 166 94.535156 Z M 166 73.386719 " clip-rule="nonzero"/></clipPath><clipPath id="ca5ae18210"><path d="M 326.652344 187.445312 C 326.652344 110.601562 264.359375 48.304688 187.511719 48.304688 C 110.664062 48.304688 48.371094 110.601562 48.371094 187.445312 C 48.371094 264.292969 110.664062 326.589844 187.511719 326.589844 C 264.359375 326.589844 326.652344 264.292969 326.652344 187.445312 " clip-rule="nonzero"/></clipPath><clipPath id="0b2e447dfb"><path d="M 210 74.230469 L 217 74.230469 L 217 96 L 210 96 Z M 210 74.230469 " clip-rule="nonzero"/></clipPath><clipPath id="31624024f8"><path d="M 326.652344 187.445312 C 326.652344 110.601562 264.359375 48.304688 187.511719 48.304688 C 110.664062 48.304688 48.371094 110.601562 48.371094 187.445312 C 48.371094 264.292969 110.664062 326.589844 187.511719 326.589844 C 264.359375 326.589844 326.652344 264.292969 326.652344 187.445312 " clip-rule="nonzero"/></clipPath><clipPath id="b4281adf89"><path d="M 254 118.222656 L 263.652344 118.222656 L 263.652344 139 L 254 139 Z M 254 118.222656 " clip-rule="nonzero"/></clipPath><clipPath id="08cc2e727b"><path d="M 326.652344 187.445312 C 326.652344 110.601562 264.359375 48.304688 187.511719 48.304688 C 110.664062 48.304688 48.371094 110.601562 48.371094 187.445312 C 48.371094 264.292969 110.664062 326.589844 187.511719 326.589844 C 264.359375 326.589844 326.652344 264.292969 326.652344 187.445312 " clip-rule="nonzero"/></clipPath><clipPath id="a45f4b58fd"><path d="M 117.292969 141.066406 L 255 141.066406 L 255 243.433594 L 117.292969 243.433594 Z M 117.292969 141.066406 " clip-rule="nonzero"/></clipPath><clipPath id="b47f3df4f0"><path d="M 326.652344 187.445312 C 326.652344 110.601562 264.359375 48.304688 187.511719 48.304688 C 110.664062 48.304688 48.371094 110.601562 48.371094 187.445312 C 48.371094 264.292969 110.664062 326.589844 187.511719 326.589844 C 264.359375 326.589844 326.652344 264.292969 326.652344 187.445312 " clip-rule="nonzero"/></clipPath><clipPath id="216abedad2"><path d="M 121 187 L 249 187 L 249 326.59375 L 121 326.59375 Z M 121 187 " clip-rule="nonzero"/></clipPath><clipPath id="be0faf59bd"><path d="M 326.652344 187.445312 C 326.652344 110.601562 264.359375 48.304688 187.511719 48.304688 C 110.664062 48.304688 48.371094 110.601562 48.371094 187.445312 C 48.371094 264.292969 110.664062 326.589844 187.511719 326.589844 C 264.359375 326.589844 326.652344 264.292969 326.652344 187.445312 " clip-rule="nonzero"/></clipPath><clipPath id="b1b0a700a6"><path d="M 103 85.230469 L 272 85.230469 L 272 241.738281 L 103 241.738281 Z M 103 85.230469 " clip-rule="nonzero"/></clipPath><clipPath id="a43a3bb2bc"><path d="M 326.652344 187.445312 C 326.652344 110.601562 264.359375 48.304688 187.511719 48.304688 C 110.664062 48.304688 48.371094 110.601562 48.371094 187.445312 C 48.371094 264.292969 110.664062 326.589844 187.511719 326.589844 C 264.359375 326.589844 326.652344 264.292969 326.652344 187.445312 " clip-rule="nonzero"/></clipPath><clipPath id="2f193a371f"><path d="M 145.210938 153 L 229.8125 153 L 229.8125 221.4375 L 145.210938 221.4375 Z M 145.210938 153 " clip-rule="nonzero"/></clipPath><clipPath id="5f5e69c891"><path d="M 326.652344 187.445312 C 326.652344 110.601562 264.359375 48.304688 187.511719 48.304688 C 110.664062 48.304688 48.371094 110.601562 48.371094 187.445312 C 48.371094 264.292969 110.664062 326.589844 187.511719 326.589844 C 264.359375 326.589844 326.652344 264.292969 326.652344 187.445312 " clip-rule="nonzero"/></clipPath><clipPath id="c60cab7eda"><path d="M 193.433594 105.535156 L 228 105.535156 L 228 146 L 193.433594 146 Z M 193.433594 105.535156 " clip-rule="nonzero"/></clipPath><clipPath id="e9b9cc07a0"><path d="M 326.652344 187.445312 C 326.652344 110.601562 264.359375 48.304688 187.511719 48.304688 C 110.664062 48.304688 48.371094 110.601562 48.371094 187.445312 C 48.371094 264.292969 110.664062 326.589844 187.511719 326.589844 C 264.359375 326.589844 326.652344 264.292969 326.652344 187.445312 " clip-rule="nonzero"/></clipPath><clipPath id="d0d3615ea3"><path d="M 223.042969 140.21875 L 251 140.21875 L 251 173.214844 L 223.042969 173.214844 Z M 223.042969 140.21875 " clip-rule="nonzero"/></clipPath><clipPath id="ae1c48967a"><path d="M 326.652344 187.445312 C 326.652344 110.601562 264.359375 48.304688 187.511719 48.304688 C 110.664062 48.304688 48.371094 110.601562 48.371094 187.445312 C 48.371094 264.292969 110.664062 326.589844 187.511719 326.589844 C 264.359375 326.589844 326.652344 264.292969 326.652344 187.445312 " clip-rule="nonzero"/></clipPath><clipPath id="2f5c1abc6c"><path d="M 124 140.21875 L 151.980469 140.21875 L 151.980469 173.214844 L 124 173.214844 Z M 124 140.21875 " clip-rule="nonzero"/></clipPath><clipPath id="ceb358fdd8"><path d="M 326.652344 187.445312 C 326.652344 110.601562 264.359375 48.304688 187.511719 48.304688 C 110.664062 48.304688 48.371094 110.601562 48.371094 187.445312 C 48.371094 264.292969 110.664062 326.589844 187.511719 326.589844 C 264.359375 326.589844 326.652344 264.292969 326.652344 187.445312 " clip-rule="nonzero"/></clipPath><clipPath id="bb8c489f30"><path d="M 154.515625 105.535156 L 188.355469 105.535156 L 188.355469 146 L 154.515625 146 Z M 154.515625 105.535156 " clip-rule="nonzero"/></clipPath><clipPath id="bda856ca9c"><path d="M 326.652344 187.445312 C 326.652344 110.601562 264.359375 48.304688 187.511719 48.304688 C 110.664062 48.304688 48.371094 110.601562 48.371094 187.445312 C 48.371094 264.292969 110.664062 326.589844 187.511719 326.589844 C 264.359375 326.589844 326.652344 264.292969 326.652344 187.445312 " clip-rule="nonzero"/></clipPath><clipPath id="2a50a97979"><path d="M 148 156.292969 L 226.425781 156.292969 L 226.425781 218.898438 L 148 218.898438 Z M 148 156.292969 " clip-rule="nonzero"/></clipPath><clipPath id="df43ca0753"><path d="M 326.652344 187.445312 C 326.652344 110.601562 264.359375 48.304688 187.511719 48.304688 C 110.664062 48.304688 48.371094 110.601562 48.371094 187.445312 C 48.371094 264.292969 110.664062 326.589844 187.511719 326.589844 C 264.359375 326.589844 326.652344 264.292969 326.652344 187.445312 " clip-rule="nonzero"/></clipPath><clipPath id="ee6e88d513"><path d="M 197 108.917969 L 224.734375 108.917969 L 224.734375 142.757812 L 197 142.757812 Z M 197 108.917969 " clip-rule="nonzero"/></clipPath><clipPath id="9884e81d37"><path d="M 326.652344 187.445312 C 326.652344 110.601562 264.359375 48.304688 187.511719 48.304688 C 110.664062 48.304688 48.371094 110.601562 48.371094 187.445312 C 48.371094 264.292969 110.664062 326.589844 187.511719 326.589844 C 264.359375 326.589844 326.652344 264.292969 326.652344 187.445312 " clip-rule="nonzero"/></clipPath><clipPath id="3549656aae"><path d="M 226 143.605469 L 248 143.605469 L 248 170 L 226 170 Z M 226 143.605469 " clip-rule="nonzero"/></clipPath><clipPath id="78cacd160e"><path d="M 326.652344 187.445312 C 326.652344 110.601562 264.359375 48.304688 187.511719 48.304688 C 110.664062 48.304688 48.371094 110.601562 48.371094 187.445312 C 48.371094 264.292969 110.664062 326.589844 187.511719 326.589844 C 264.359375 326.589844 326.652344 264.292969 326.652344 187.445312 " clip-rule="nonzero"/></clipPath><clipPath id="8ba4ff825e"><path d="M 127 143.605469 L 148.59375 143.605469 L 148.59375 170 L 127 170 Z M 127 143.605469 " clip-rule="nonzero"/></clipPath><clipPath id="9f0a35c718"><path d="M 326.652344 187.445312 C 326.652344 110.601562 264.359375 48.304688 187.511719 48.304688 C 110.664062 48.304688 48.371094 110.601562 48.371094 187.445312 C 48.371094 264.292969 110.664062 326.589844 187.511719 326.589844 C 264.359375 326.589844 326.652344 264.292969 326.652344 187.445312 " clip-rule="nonzero"/></clipPath><clipPath id="417a94b3e0"><path d="M 157.054688 109 L 184.972656 109 L 184.972656 142.757812 L 157.054688 142.757812 Z M 157.054688 109 " clip-rule="nonzero"/></clipPath><clipPath id="4896f052ac"><path d="M 326.652344 187.445312 C 326.652344 110.601562 264.359375 48.304688 187.511719 48.304688 C 110.664062 48.304688 48.371094 110.601562 48.371094 187.445312 C 48.371094 264.292969 110.664062 326.589844 187.511719 326.589844 C 264.359375 326.589844 326.652344 264.292969 326.652344 187.445312 " clip-rule="nonzero"/></clipPath><clipPath id="4c72ea2a66"><path d="M 161.285156 164 L 190 164 L 190 186.75 L 161.285156 186.75 Z M 161.285156 164 " clip-rule="nonzero"/></clipPath><clipPath id="1290157a96"><path d="M 326.652344 187.445312 C 326.652344 110.601562 264.359375 48.304688 187.511719 48.304688 C 110.664062 48.304688 48.371094 110.601562 48.371094 187.445312 C 48.371094 264.292969 110.664062 326.589844 187.511719 326.589844 C 264.359375 326.589844 326.652344 264.292969 326.652344 187.445312 " clip-rule="nonzero"/></clipPath><clipPath id="37df57fa01"><path d="M 165.875 186.375 C 164.320312 186.375 163.066406 185.804688 162.195312 184.472656 C 159.546875 180.410156 163.386719 173.207031 170.777344 168.390625 C 174.882812 165.707031 179.21875 164.328125 182.71875 164.328125 C 185.515625 164.328125 187.777344 165.207031 188.953125 167.011719 C 191.605469 171.074219 185.863281 175.902344 178.472656 180.722656 C 173.507812 183.964844 169.0625 186.375 165.875 186.375 " clip-rule="nonzero"/></clipPath><clipPath id="0fc5683046"><path d="M 131.675781 147 L 140 147 L 140 154.601562 L 131.675781 154.601562 Z M 131.675781 147 " clip-rule="nonzero"/></clipPath><clipPath id="33fedd5bfd"><path d="M 326.652344 187.445312 C 326.652344 110.601562 264.359375 48.304688 187.511719 48.304688 C 110.664062 48.304688 48.371094 110.601562 48.371094 187.445312 C 48.371094 264.292969 110.664062 326.589844 187.511719 326.589844 C 264.359375 326.589844 326.652344 264.292969 326.652344 187.445312 " clip-rule="nonzero"/></clipPath><clipPath id="6307ff26c0"><path d="M 230 145.296875 L 238 145.296875 L 238 152.910156 L 230 152.910156 Z M 230 145.296875 " clip-rule="nonzero"/></clipPath><clipPath id="4955275790"><path d="M 326.652344 187.445312 C 326.652344 110.601562 264.359375 48.304688 187.511719 48.304688 C 110.664062 48.304688 48.371094 110.601562 48.371094 187.445312 C 48.371094 264.292969 110.664062 326.589844 187.511719 326.589844 C 264.359375 326.589844 326.652344 264.292969 326.652344 187.445312 " clip-rule="nonzero"/></clipPath><clipPath id="6a60218182"><path d="M 163 112.300781 L 172.28125 112.300781 L 172.28125 120.761719 L 163 120.761719 Z M 163 112.300781 " clip-rule="nonzero"/></clipPath><clipPath id="ea4d218aad"><path d="M 326.652344 187.445312 C 326.652344 110.601562 264.359375 48.304688 187.511719 48.304688 C 110.664062 48.304688 48.371094 110.601562 48.371094 187.445312 C 48.371094 264.292969 110.664062 326.589844 187.511719 326.589844 C 264.359375 326.589844 326.652344 264.292969 326.652344 187.445312 " clip-rule="nonzero"/></clipPath><clipPath id="e27112a333"><path d="M 201.046875 111.457031 L 210.351562 111.457031 L 210.351562 119.914062 L 201.046875 119.914062 Z M 201.046875 111.457031 " clip-rule="nonzero"/></clipPath><clipPath id="b68b1544a9"><path d="M 326.652344 187.445312 C 326.652344 110.601562 264.359375 48.304688 187.511719 48.304688 C 110.664062 48.304688 48.371094 110.601562 48.371094 187.445312 C 48.371094 264.292969 110.664062 326.589844 187.511719 326.589844 C 264.359375 326.589844 326.652344 264.292969 326.652344 187.445312 " clip-rule="nonzero"/></clipPath><clipPath id="1010016d3c"><path d="M 152 187 L 162.976562 187 L 162.976562 197.746094 L 152 197.746094 Z M 152 187 " clip-rule="nonzero"/></clipPath><clipPath id="5a89d8fa85"><path d="M 326.652344 187.445312 C 326.652344 110.601562 264.359375 48.304688 187.511719 48.304688 C 110.664062 48.304688 48.371094 110.601562 48.371094 187.445312 C 48.371094 264.292969 110.664062 326.589844 187.511719 326.589844 C 264.359375 326.589844 326.652344 264.292969 326.652344 187.445312 " clip-rule="nonzero"/></clipPath><clipPath id="5673f2eb3d"><path d="M 157.054688 237 L 211 237 L 211 248 L 157.054688 248 Z M 157.054688 237 " clip-rule="nonzero"/></clipPath><clipPath id="ccc93e442a"><path d="M 326.652344 187.445312 C 326.652344 110.601562 264.359375 48.304688 187.511719 48.304688 C 110.664062 48.304688 48.371094 110.601562 48.371094 187.445312 C 48.371094 264.292969 110.664062 326.589844 187.511719 326.589844 C 264.359375 326.589844 326.652344 264.292969 326.652344 187.445312 " clip-rule="nonzero"/></clipPath></defs><rect x="-37.5" width="450" fill="#ffffff" y="-37.499999" height="449.999989" fill-opacity="1"/><rect x="-37.5" width="450" fill="#ffffff" y="-37.499999" height="449.999989" fill-opacity="1"/><rect x="-37.5" width="450" fill="#fffcf7" y="-37.499999" height="449.999989" fill-opacity="1"/><g clip-path="url(#f51b0cd24d)"><path fill="#31aec0" d="M 326.652344 187.445312 C 326.652344 110.601562 264.359375 48.304688 187.511719 48.304688 C 110.664062 48.304688 48.371094 110.601562 48.371094 187.445312 C 48.371094 264.292969 110.664062 326.589844 187.511719 326.589844 C 264.359375 326.589844 326.652344 264.292969 326.652344 187.445312 " fill-opacity="1" fill-rule="nonzero"/></g><g clip-path="url(#c94e9d3f38)"><g clip-path="url(#fda4131bea)"><path fill="#069db3" d="M 284.035156 159.917969 C 282.394531 154.933594 279.429688 149.847656 275.429688 145.566406 C 278.078125 138.003906 278.699219 128.972656 274.78125 132.117188 C 272.53125 133.925781 270.921875 137.597656 269.875 140.796875 C 267.207031 138.90625 264.320312 137.296875 261.105469 136.308594 C 261.078125 135.871094 261.128906 135.445312 261.082031 135.015625 C 260.746094 131.636719 259.988281 128.339844 258.863281 125.320312 C 254.773438 114.078125 244.621094 102.125 231 99.148438 C 230.664062 91.980469 228.605469 85.382812 226.179688 89.15625 C 224.691406 91.464844 224.308594 95.191406 224.292969 98.449219 C 222.089844 98.46875 219.890625 98.703125 217.753906 99.191406 C 213.226562 100.234375 209.125 102.351562 205.492188 105.128906 C 201.644531 102.078125 197.117188 99.804688 191.753906 98.914062 C 190.160156 98.648438 188.578125 98.542969 187.003906 98.519531 C 186.753906 91.140625 184.660156 84.089844 182.167969 87.964844 C 180.375 90.746094 180.179688 95.558594 180.3125 99.15625 C 169.417969 101.285156 159.613281 108.816406 154.320312 119.667969 C 152.195312 124.046875 150.601562 129.355469 149.996094 135 C 146.640625 135.082031 143.527344 135.832031 140.609375 136.9375 C 138.703125 129.460938 134.722656 122.324219 133.152344 126.871094 C 131.867188 130.585938 133.425781 136.554688 134.535156 139.957031 C 127.171875 144.808594 121.902344 152.511719 119.476562 159.886719 C 118.527344 162.753906 117.949219 165.738281 117.753906 168.695312 C 117.21875 176.53125 119.300781 184.257812 123.617188 190.449219 C 126.105469 194.035156 129.339844 196.878906 132.949219 199.085938 C 132.605469 201.171875 132.097656 203.222656 132.097656 205.378906 C 132.097656 218.410156 138.847656 230.171875 149.617188 239.195312 L 135.398438 342.53125 L 262.929688 342.53125 L 249.214844 242.816406 C 251.496094 240.695312 253.582031 238.390625 255.378906 235.835938 C 263.933594 227.3125 269.175781 216.84375 269.175781 205.378906 C 269.175781 203.640625 268.71875 201.996094 268.488281 200.300781 C 272.96875 198.003906 276.921875 194.722656 279.878906 190.464844 C 284.195312 184.257812 286.28125 176.53125 285.753906 168.753906 C 285.550781 165.738281 284.96875 162.753906 284.035156 159.917969 " fill-opacity="1" fill-rule="nonzero"/></g></g><g clip-path="url(#88379d1e6b)"><g clip-path="url(#5c39a853c7)"><path fill="#d2d5d8" d="M 121.210938 129.523438 C 121.210938 129.523438 117.039062 119.21875 118.90625 113.8125 C 120.777344 108.410156 126.082031 119.496094 127.214844 128.0625 C 128.347656 136.628906 121.210938 129.523438 121.210938 129.523438 " fill-opacity="1" fill-rule="nonzero"/></g></g><g clip-path="url(#f3d0c755d6)"><g clip-path="url(#ca5ae18210)"><path fill="#d2d5d8" d="M 166.449219 90.710938 C 166.449219 90.710938 164.832031 79.71875 167.925781 74.90625 C 171.015625 70.09375 173.550781 82.125 172.625 90.710938 C 171.703125 99.304688 166.449219 90.710938 166.449219 90.710938 " fill-opacity="1" fill-rule="nonzero"/></g></g><g clip-path="url(#0b2e447dfb)"><g clip-path="url(#31624024f8)"><path fill="#d2d5d8" d="M 210.460938 91.90625 C 210.460938 91.90625 208.84375 80.910156 211.9375 76.097656 C 215.03125 71.285156 217.5625 83.316406 216.640625 91.90625 C 215.714844 100.496094 210.460938 91.90625 210.460938 91.90625 " fill-opacity="1" fill-rule="nonzero"/></g></g><g clip-path="url(#b4281adf89)"><g clip-path="url(#08cc2e727b)"><path fill="#d2d5d8" d="M 254.121094 133.578125 C 254.121094 133.578125 256.078125 122.640625 260.539062 119.054688 C 265 115.476562 263.582031 127.6875 259.976562 135.539062 C 256.375 143.394531 254.121094 133.578125 254.121094 133.578125 " fill-opacity="1" fill-rule="nonzero"/></g></g><g clip-path="url(#a45f4b58fd)"><g clip-path="url(#b47f3df4f0)"><path fill="#725f63" d="M 254.933594 192.320312 C 254.933594 220.539062 224.25 243.414062 186.394531 243.414062 C 148.542969 243.414062 117.855469 220.539062 117.855469 192.320312 C 117.855469 164.097656 148.542969 141.222656 186.394531 141.222656 C 224.25 141.222656 254.933594 164.097656 254.933594 192.320312 " fill-opacity="1" fill-rule="nonzero"/></g></g><g clip-path="url(#216abedad2)"><g clip-path="url(#be0faf59bd)"><path fill="#725f63" d="M 248.691406 329.472656 L 121.15625 329.472656 L 140.695312 187.445312 L 229.152344 187.445312 L 248.691406 329.472656 " fill-opacity="1" fill-rule="nonzero"/></g></g><g clip-path="url(#b1b0a700a6)"><g clip-path="url(#a43a3bb2bc)"><path fill="#725f63" d="M 269.792969 146.863281 C 266.566406 137.058594 258.316406 126.777344 246.859375 123.246094 C 246.832031 122.8125 246.886719 122.386719 246.839844 121.953125 C 246.503906 118.578125 245.746094 115.28125 244.621094 112.265625 C 239.914062 99.308594 227.152344 85.363281 210.304688 85.363281 C 208.015625 85.363281 205.726562 85.625 203.507812 86.132812 C 198.984375 87.175781 194.878906 89.292969 191.25 92.074219 C 187.402344 89.019531 182.875 86.746094 177.511719 85.855469 C 175.753906 85.5625 174.007812 85.421875 172.273438 85.421875 C 158.984375 85.421875 146.359375 93.726562 140.078125 106.609375 C 137.953125 110.988281 136.359375 116.296875 135.757812 121.941406 C 120.324219 122.3125 109.128906 135 105.234375 146.828125 C 104.285156 149.699219 103.703125 152.683594 103.515625 155.640625 C 102.972656 163.472656 105.054688 171.203125 109.375 177.390625 C 113.527344 183.378906 119.605469 187.542969 126.410156 189.566406 C 125.992188 192.128906 125.761719 194.730469 125.761719 197.382812 C 125.761719 221.835938 145.671875 241.726562 170.121094 241.726562 C 176.144531 241.726562 182.058594 240.492188 187.496094 238.167969 C 192.941406 240.492188 198.851562 241.726562 204.875 241.726562 C 229.328125 241.726562 249.234375 221.835938 249.234375 197.382812 C 249.234375 194.734375 249.003906 192.132812 248.589844 189.570312 C 255.398438 187.550781 261.480469 183.386719 265.636719 177.402344 C 269.957031 171.203125 272.039062 163.472656 271.511719 155.699219 C 271.308594 152.683594 270.726562 149.699219 269.792969 146.863281 " fill-opacity="1" fill-rule="nonzero"/></g></g><g clip-path="url(#2f193a371f)"><g clip-path="url(#5f5e69c891)"><path fill="#665155" d="M 204.019531 221.394531 C 197.949219 221.394531 192.132812 219.269531 187.5 215.378906 C 182.867188 219.269531 177.054688 221.394531 170.980469 221.394531 C 156.808594 221.394531 145.28125 209.871094 145.28125 195.707031 C 145.28125 190.285156 145.28125 175.882812 173.570312 157.613281 C 177.734375 154.914062 182.546875 153.496094 187.5 153.496094 C 192.464844 153.496094 197.289062 154.921875 201.457031 157.617188 C 229.722656 175.898438 229.722656 190.285156 229.722656 195.707031 C 229.722656 209.871094 218.195312 221.394531 204.019531 221.394531 " fill-opacity="1" fill-rule="nonzero"/></g></g><g clip-path="url(#c60cab7eda)"><g clip-path="url(#e9b9cc07a0)"><path fill="#665155" d="M 210.902344 145.730469 C 207.914062 145.730469 205.046875 144.871094 202.589844 143.238281 C 195.476562 138.519531 193.402344 129.265625 193.804688 122.773438 C 194.226562 115.78125 198.703125 107.78125 206.425781 106.007812 C 207.324219 105.800781 208.25 105.691406 209.175781 105.691406 C 216.84375 105.691406 223.726562 113.285156 226.324219 120.433594 C 226.929688 122.039062 227.339844 123.8125 227.535156 125.675781 C 227.984375 130.214844 226.964844 134.660156 224.679688 138.195312 C 221.65625 142.84375 216.382812 145.730469 210.902344 145.730469 " fill-opacity="1" fill-rule="nonzero"/></g></g><g clip-path="url(#d0d3615ea3)"><g clip-path="url(#ae1c48967a)"><path fill="#665155" d="M 237.105469 173.175781 C 234.507812 173.175781 232.007812 172.382812 229.886719 170.894531 C 224.191406 166.851562 222.734375 159.285156 223.210938 154.027344 C 223.75 148.316406 227.636719 141.871094 234.054688 140.597656 C 234.699219 140.464844 235.355469 140.398438 236.0625 140.398438 C 242.507812 140.398438 248.101562 146.8125 250.085938 152.835938 C 250.546875 154.222656 250.828125 155.667969 250.921875 157.144531 C 251.179688 160.871094 250.222656 164.480469 248.257812 167.316406 C 245.75 170.929688 241.476562 173.175781 237.105469 173.175781 " fill-opacity="1" fill-rule="nonzero"/></g></g><g clip-path="url(#2f5c1abc6c)"><g clip-path="url(#ceb358fdd8)"><path fill="#665155" d="M 137.90625 173.175781 C 133.535156 173.175781 129.261719 170.925781 126.753906 167.3125 C 124.789062 164.480469 123.835938 160.871094 124.09375 157.144531 C 124.183594 155.667969 124.464844 154.222656 124.929688 152.832031 C 126.910156 146.804688 132.503906 140.398438 138.953125 140.398438 C 139.660156 140.398438 140.3125 140.464844 140.972656 140.597656 C 147.375 141.871094 151.261719 148.316406 151.800781 154.019531 C 152.28125 159.285156 150.824219 166.851562 145.125 170.894531 C 143.003906 172.382812 140.507812 173.175781 137.90625 173.175781 " fill-opacity="1" fill-rule="nonzero"/></g></g><g clip-path="url(#bb8c489f30)"><g clip-path="url(#bda856ca9c)"><path fill="#665155" d="M 170.457031 145.570312 C 165.195312 145.570312 160.371094 143.074219 157.554688 138.886719 C 152.765625 131.839844 154.402344 122.480469 157.242188 116.613281 C 159.878906 111.203125 165.785156 105.75 173.027344 105.75 C 173.785156 105.75 174.535156 105.808594 175.292969 105.9375 C 184.757812 107.511719 188.527344 119.128906 188.183594 126.878906 C 188.121094 128.660156 187.820312 130.449219 187.292969 132.179688 C 185.980469 136.550781 183.34375 140.277344 179.871094 142.660156 C 177.105469 144.566406 173.851562 145.570312 170.457031 145.570312 " fill-opacity="1" fill-rule="nonzero"/></g></g><g clip-path="url(#2a50a97979)"><g clip-path="url(#df43ca0753)"><path fill="#febfcb" d="M 187.507812 156.785156 C 191.738281 156.785156 195.972656 157.980469 199.664062 160.386719 C 226.421875 177.683594 226.421875 190.78125 226.421875 195.707031 C 226.421875 208.078125 216.386719 218.105469 204.023438 218.105469 C 197.476562 218.105469 191.597656 215.292969 187.507812 210.824219 C 183.402344 215.292969 177.523438 218.105469 170.972656 218.105469 C 158.613281 218.105469 148.578125 208.078125 148.578125 195.707031 C 148.578125 190.773438 148.578125 177.679688 175.351562 160.375 C 179.054688 157.980469 183.273438 156.785156 187.507812 156.785156 " fill-opacity="1" fill-rule="nonzero"/></g></g><g clip-path="url(#ee6e88d513)"><g clip-path="url(#9884e81d37)"><path fill="#febfcb" d="M 224.253906 126.007812 C 224.613281 129.636719 223.886719 133.363281 221.90625 136.40625 C 218.167969 142.160156 210.25 144.367188 204.410156 140.496094 C 198.90625 136.847656 196.707031 129.257812 197.089844 122.964844 C 197.445312 117.132812 201.101562 110.613281 207.152344 109.214844 C 214.492188 107.523438 221.019531 115.480469 223.238281 121.5625 C 223.761719 122.988281 224.101562 124.492188 224.253906 126.007812 " fill-opacity="1" fill-rule="nonzero"/></g></g><g clip-path="url(#3549656aae)"><g clip-path="url(#78cacd160e)"><path fill="#febfcb" d="M 247.644531 157.367188 C 247.839844 160.210938 247.179688 163.101562 245.5625 165.429688 C 242.496094 169.835938 236.257812 171.371094 231.789062 168.203125 C 227.578125 165.21875 226.046875 159.234375 226.496094 154.332031 C 226.914062 149.78125 229.929688 144.773438 234.691406 143.828125 C 240.46875 142.683594 245.375 149.058594 246.960938 153.863281 C 247.332031 154.996094 247.5625 156.175781 247.644531 157.367188 " fill-opacity="1" fill-rule="nonzero"/></g></g><g clip-path="url(#8ba4ff825e)"><g clip-path="url(#9f0a35c718)"><path fill="#febfcb" d="M 127.367188 157.367188 C 127.175781 160.210938 127.835938 163.101562 129.449219 165.429688 C 132.515625 169.835938 138.753906 171.371094 143.222656 168.203125 C 147.433594 165.21875 148.96875 159.234375 148.515625 154.332031 C 148.097656 149.78125 145.085938 144.773438 140.320312 143.828125 C 134.546875 142.683594 129.636719 149.058594 128.054688 153.863281 C 127.679688 154.996094 127.453125 156.175781 127.367188 157.367188 " fill-opacity="1" fill-rule="nonzero"/></g></g><g clip-path="url(#417a94b3e0)"><g clip-path="url(#4896f052ac)"><path fill="#febfcb" d="M 184.144531 131.234375 C 183.09375 134.722656 180.996094 137.890625 178.007812 139.949219 C 172.355469 143.835938 164.191406 142.855469 160.277344 137.046875 C 156.578125 131.570312 157.449219 123.714844 160.203125 118.046875 C 162.757812 112.789062 168.625 108.160156 174.753906 109.183594 C 182.183594 110.417969 185.179688 120.265625 184.90625 126.738281 C 184.839844 128.253906 184.582031 129.773438 184.144531 131.234375 " fill-opacity="1" fill-rule="nonzero"/></g></g><g clip-path="url(#4c72ea2a66)"><g clip-path="url(#1290157a96)"><g clip-path="url(#37df57fa01)"><path fill="#fed8df" d="M 159.546875 186.375 L 191.605469 186.375 L 191.605469 164.328125 L 159.546875 164.328125 Z M 159.546875 186.375 " fill-opacity="1" fill-rule="nonzero"/></g></g></g><g clip-path="url(#0fc5683046)"><g clip-path="url(#33fedd5bfd)"><path fill="#fed8df" d="M 134.554688 154.054688 C 133.597656 154.054688 132.746094 153.699219 132.234375 152.996094 C 131.230469 151.613281 131.90625 149.410156 133.746094 148.066406 C 134.652344 147.414062 135.667969 147.085938 136.582031 147.085938 C 137.539062 147.085938 138.390625 147.441406 138.902344 148.144531 C 139.90625 149.527344 139.230469 151.734375 137.390625 153.070312 C 136.484375 153.730469 135.46875 154.054688 134.554688 154.054688 " fill-opacity="1" fill-rule="nonzero"/></g></g><g clip-path="url(#6307ff26c0)"><g clip-path="url(#4955275790)"><path fill="#fed8df" d="M 233.007812 152.683594 C 232.046875 152.683594 231.199219 152.324219 230.6875 151.621094 C 229.683594 150.238281 230.359375 148.035156 232.199219 146.695312 C 233.105469 146.039062 234.117188 145.710938 235.035156 145.710938 C 235.992188 145.710938 236.84375 146.066406 237.355469 146.769531 C 238.359375 148.152344 237.683594 150.359375 235.839844 151.695312 C 234.9375 152.355469 233.921875 152.683594 233.007812 152.683594 " fill-opacity="1" fill-rule="nonzero"/></g></g><g clip-path="url(#6a60218182)"><g clip-path="url(#ea4d218aad)"><path fill="#fed8df" d="M 165.636719 120.234375 C 164.722656 120.234375 163.953125 119.933594 163.503906 119.320312 C 162.5 117.9375 163.507812 115.492188 165.753906 113.859375 C 167 112.953125 168.367188 112.488281 169.507812 112.488281 C 170.421875 112.488281 171.191406 112.789062 171.640625 113.402344 C 172.648438 114.785156 171.640625 117.226562 169.390625 118.863281 C 168.144531 119.765625 166.777344 120.234375 165.636719 120.234375 " fill-opacity="1" fill-rule="nonzero"/></g></g><g clip-path="url(#e27112a333)"><g clip-path="url(#b68b1544a9)"><path fill="#fed8df" d="M 203.613281 119.378906 C 202.691406 119.378906 201.921875 119.078125 201.476562 118.460938 C 200.472656 117.082031 201.480469 114.632812 203.726562 113 C 204.972656 112.09375 206.339844 111.628906 207.480469 111.628906 C 208.398438 111.628906 209.167969 111.929688 209.613281 112.542969 C 210.617188 113.925781 209.609375 116.371094 207.367188 118.003906 C 206.117188 118.90625 204.75 119.378906 203.613281 119.378906 " fill-opacity="1" fill-rule="nonzero"/></g></g><g clip-path="url(#1010016d3c)"><g clip-path="url(#5a89d8fa85)"><path fill="#fed8df" d="M 156.308594 197.429688 C 155.171875 197.429688 154.09375 197.039062 153.292969 196.238281 C 151.480469 194.425781 151.769531 191.203125 153.933594 189.039062 C 155.136719 187.832031 156.675781 187.210938 158.113281 187.210938 C 159.253906 187.210938 160.328125 187.601562 161.128906 188.402344 C 162.941406 190.214844 162.65625 193.433594 160.492188 195.601562 C 159.285156 196.804688 157.746094 197.429688 156.308594 197.429688 " fill-opacity="1" fill-rule="nonzero"/></g></g><g clip-path="url(#5673f2eb3d)"><g clip-path="url(#ccc93e442a)"><path fill="#665155" d="M 210.695312 242.703125 C 210.695312 245.621094 198.859375 247.988281 184.253906 247.988281 C 169.648438 247.988281 157.8125 245.621094 157.8125 242.703125 C 157.8125 239.785156 169.648438 237.425781 184.253906 237.425781 C 198.859375 237.425781 210.695312 239.785156 210.695312 242.703125 " fill-opacity="1" fill-rule="nonzero"/></g></g><g fill="#e16e17" fill-opacity="1"><g transform="translate(56.449978, 320.141182)"><g><path d="M 9.363281 -19.730469 C 9.480469 -21.804688 9.421875 -23.699219 9.894531 -25.539062 C 10.074219 -26.191406 10.25 -26.902344 10.429688 -27.550781 C 10.605469 -28.144531 10.84375 -28.679688 11.082031 -29.269531 C 11.4375 -30.160156 11.910156 -31.046875 12.621094 -31.757812 C 13.984375 -33.003906 15.582031 -33.773438 17.480469 -33.773438 C 18.546875 -33.773438 19.492188 -33.300781 20.265625 -32.53125 C 20.5 -32.234375 20.796875 -31.9375 21.035156 -31.699219 C 21.566406 -31.226562 22.21875 -30.988281 22.871094 -31.167969 C 23.464844 -31.285156 24.054688 -31.464844 24.589844 -31.820312 C 25.300781 -32.292969 26.070312 -32.824219 26.664062 -33.535156 C 26.902344 -33.890625 27.136719 -34.246094 27.136719 -34.722656 C 27.195312 -36.027344 26.902344 -37.152344 25.714844 -37.980469 C 25.242188 -38.335938 24.769531 -38.75 24.292969 -39.105469 C 22.8125 -40.292969 21.210938 -41.179688 19.375 -41.59375 C 18.25 -41.890625 17.066406 -41.949219 15.878906 -41.773438 C 15.347656 -41.714844 14.8125 -41.535156 14.339844 -41.359375 C 12.5625 -40.707031 10.84375 -39.996094 9.363281 -38.808594 C 8.058594 -37.742188 6.8125 -36.558594 5.808594 -35.136719 C 4.917969 -33.953125 4.324219 -32.589844 3.792969 -31.226562 C 3.496094 -30.457031 3.257812 -29.6875 3.023438 -28.914062 C 2.667969 -27.847656 2.371094 -26.78125 2.191406 -25.65625 C 2.074219 -24.886719 2.074219 -24.117188 1.835938 -23.40625 C 1.71875 -23.226562 1.660156 -22.988281 1.660156 -22.8125 C 1.539062 -21.449219 1.183594 -20.144531 1.246094 -18.84375 C 1.246094 -18.011719 1.304688 -17.183594 1.421875 -16.355469 C 1.480469 -15.523438 1.660156 -14.636719 1.835938 -13.804688 C 1.957031 -13.273438 2.015625 -12.738281 2.132812 -12.207031 C 2.371094 -11.375 2.667969 -10.605469 2.902344 -9.777344 C 3.023438 -9.480469 3.140625 -9.125 3.257812 -8.828125 C 3.910156 -7.703125 4.5625 -6.636719 5.15625 -5.570312 C 5.628906 -4.679688 6.222656 -3.851562 6.875 -3.140625 C 7.703125 -2.25 8.589844 -1.480469 9.65625 -0.890625 C 9.953125 -0.710938 10.308594 -0.59375 10.605469 -0.472656 C 11.375 -0.179688 12.085938 0.0585938 12.796875 0.238281 C 13.628906 0.472656 14.457031 0.652344 15.347656 0.710938 C 16.058594 0.710938 16.828125 0.710938 17.539062 0.710938 C 18.722656 0.652344 19.851562 0.535156 20.976562 0.238281 C 22.574219 -0.117188 23.996094 -0.828125 25.417969 -1.71875 C 25.835938 -1.957031 26.25 -2.25 26.605469 -2.546875 C 26.960938 -2.902344 27.257812 -3.257812 27.550781 -3.613281 C 28.027344 -4.148438 28.261719 -4.800781 28.324219 -5.570312 C 28.382812 -6.28125 28.144531 -6.933594 27.492188 -7.40625 C 26.839844 -7.878906 26.25 -8.414062 25.480469 -8.710938 C 24.707031 -9.007812 23.878906 -9.125 23.109375 -8.886719 C 22.398438 -8.652344 21.804688 -8.296875 21.273438 -7.761719 C 21.152344 -7.585938 20.917969 -7.464844 20.738281 -7.464844 C 20.207031 -7.40625 19.789062 -7.230469 19.257812 -7.050781 C 18.960938 -6.992188 18.605469 -6.933594 18.25 -6.875 C 17.539062 -6.8125 16.828125 -6.992188 16.175781 -7.230469 C 15.761719 -7.347656 15.347656 -7.523438 14.992188 -7.761719 C 14.457031 -8.117188 13.925781 -8.53125 13.332031 -8.945312 C 12.738281 -9.363281 12.207031 -9.835938 11.910156 -10.546875 C 11.671875 -10.960938 11.375 -11.375 11.140625 -11.792969 C 10.785156 -12.679688 10.429688 -13.570312 10.132812 -14.457031 C 9.894531 -15.109375 9.65625 -15.703125 9.597656 -16.355469 C 9.480469 -17.539062 9.421875 -18.722656 9.363281 -19.730469 Z M 9.363281 -19.730469 "/></g></g></g><g fill="#e16e17" fill-opacity="1"><g transform="translate(88.08454, 320.141182)"><g><path d="M 23.9375 0.769531 C 23.9375 0.769531 24.054688 0.769531 24.117188 0.769531 C 24.945312 0.710938 25.714844 0.652344 26.546875 0.535156 C 26.664062 0.535156 26.839844 0.535156 26.960938 0.535156 C 27.730469 0.414062 28.5 0.238281 29.269531 0.117188 C 29.566406 0.0585938 29.804688 -0.0585938 29.921875 -0.296875 C 30.21875 -0.949219 30.457031 -1.601562 30.277344 -2.371094 C 30.101562 -3.316406 29.863281 -4.265625 29.625 -5.273438 C 29.507812 -5.925781 29.269531 -6.636719 29.152344 -7.347656 C 28.855469 -8.589844 28.679688 -9.894531 28.382812 -11.199219 C 28.085938 -12.441406 27.730469 -13.746094 27.433594 -15.050781 C 26.664062 -17.894531 25.894531 -20.796875 25.125 -23.640625 C 24.648438 -25.417969 24.175781 -27.257812 23.582031 -28.972656 C 22.871094 -31.109375 22.21875 -33.300781 21.804688 -35.550781 C 21.566406 -36.855469 21.152344 -38.039062 20.855469 -39.285156 C 20.621094 -40.234375 20.027344 -40.765625 19.199219 -41.0625 C 18.488281 -41.300781 17.835938 -41.359375 17.125 -41.238281 C 15.878906 -41.121094 14.636719 -40.824219 13.332031 -40.824219 C 13.152344 -40.824219 12.976562 -40.765625 12.859375 -40.707031 C 11.910156 -40.234375 11.375 -39.460938 11.140625 -38.453125 C 10.785156 -37.03125 10.488281 -35.609375 10.132812 -34.1875 C 9.777344 -32.824219 9.363281 -31.523438 8.945312 -30.21875 C 8.355469 -28.144531 7.761719 -26.128906 7.167969 -24.054688 C 6.339844 -21.273438 5.511719 -18.425781 4.738281 -15.644531 C 4.382812 -14.339844 4.148438 -12.976562 3.910156 -11.671875 C 3.671875 -10.488281 3.4375 -9.363281 3.082031 -8.234375 C 2.488281 -6.398438 1.957031 -4.621094 1.421875 -2.785156 C 1.125 -1.71875 1.363281 -0.769531 2.3125 -0.0585938 C 2.371094 0 2.429688 0.0585938 2.488281 0.117188 C 2.785156 0.355469 3.082031 0.472656 3.4375 0.414062 C 4.917969 0.355469 6.398438 0.296875 7.941406 0.238281 C 8.175781 0.238281 8.414062 0.238281 8.652344 0.238281 C 9.421875 0.117188 10.074219 -0.117188 10.371094 -0.949219 C 10.605469 -1.71875 10.902344 -2.429688 11.140625 -3.140625 C 11.375 -3.792969 11.851562 -4.207031 12.5625 -4.382812 C 13.035156 -4.503906 13.570312 -4.5625 14.042969 -4.5625 C 15.109375 -4.621094 16.175781 -4.738281 17.242188 -4.800781 C 17.894531 -4.800781 18.605469 -4.859375 19.257812 -4.859375 C 20.027344 -4.917969 20.621094 -4.503906 20.855469 -3.671875 C 21.035156 -2.546875 21.449219 -1.480469 21.984375 -0.472656 C 22.277344 0.238281 23.109375 0.769531 23.9375 0.769531 Z M 15.109375 -14.101562 C 14.933594 -14.101562 14.753906 -14.042969 14.574219 -14.101562 C 14.042969 -14.101562 13.6875 -14.398438 13.746094 -14.933594 C 13.746094 -15.464844 13.804688 -16 13.925781 -16.53125 C 14.398438 -18.84375 14.871094 -21.152344 15.347656 -23.464844 C 15.40625 -23.699219 15.523438 -23.9375 15.582031 -24.117188 C 15.761719 -24.351562 16.058594 -24.351562 16.234375 -24.117188 C 16.292969 -24.054688 16.355469 -23.9375 16.414062 -23.820312 C 16.769531 -22.753906 17.125 -21.6875 17.480469 -20.5625 C 17.953125 -19.375 18.191406 -18.070312 18.488281 -16.769531 C 18.546875 -16.472656 18.664062 -16.117188 18.78125 -15.761719 C 18.84375 -15.40625 18.84375 -15.109375 18.664062 -14.753906 C 18.546875 -14.457031 18.308594 -14.28125 18.011719 -14.28125 C 17.480469 -14.21875 16.886719 -14.160156 16.355469 -14.160156 C 15.9375 -14.101562 15.523438 -14.101562 15.109375 -14.042969 C 15.109375 -14.042969 15.109375 -14.042969 15.109375 -14.101562 Z M 15.109375 -14.101562 "/></g></g></g><g fill="#e16e17" fill-opacity="1"><g transform="translate(120.726171, 320.141182)"><g><path d="M 10.960938 -4.800781 C 10.960938 -5.332031 10.960938 -5.925781 10.960938 -6.457031 C 11.019531 -7.050781 11.019531 -7.644531 11.140625 -8.234375 C 11.257812 -8.886719 11.4375 -9.539062 11.730469 -10.132812 C 11.910156 -10.488281 12.207031 -10.726562 12.5625 -10.84375 C 13.214844 -11.082031 13.863281 -11.019531 14.457031 -10.785156 C 14.753906 -10.726562 14.933594 -10.488281 15.050781 -10.25 C 15.644531 -8.945312 16.292969 -7.703125 16.828125 -6.398438 C 17.539062 -4.859375 18.191406 -3.378906 19.019531 -1.957031 C 19.433594 -1.246094 19.789062 -0.414062 20.621094 0 C 21.210938 0.355469 21.863281 0.535156 22.515625 0.710938 C 22.632812 0.710938 22.8125 0.710938 22.929688 0.652344 C 23.40625 0.59375 23.9375 0.59375 24.410156 0.472656 C 25.0625 0.414062 25.65625 0.355469 26.25 0.238281 C 26.605469 0.117188 27.019531 -0.0585938 27.257812 -0.355469 C 28.144531 -1.183594 28.261719 -2.3125 28.027344 -3.378906 C 27.90625 -4.207031 27.492188 -4.976562 27.195312 -5.746094 C 26.78125 -6.636719 26.308594 -7.523438 25.953125 -8.414062 C 25.417969 -9.894531 24.707031 -11.257812 23.996094 -12.621094 C 23.878906 -12.976562 23.699219 -13.273438 23.640625 -13.628906 C 23.523438 -14.160156 23.582031 -14.753906 24.117188 -15.109375 C 24.234375 -15.289062 24.410156 -15.40625 24.53125 -15.582031 C 25.359375 -16.710938 26.191406 -17.894531 26.664062 -19.257812 C 27.433594 -21.210938 27.847656 -23.285156 27.789062 -25.417969 C 27.789062 -26.664062 27.730469 -27.90625 27.550781 -29.152344 C 27.433594 -30.335938 27.257812 -31.464844 27.019531 -32.648438 C 27.019531 -32.945312 26.902344 -33.242188 26.78125 -33.535156 C 26.484375 -34.367188 26.128906 -35.195312 25.835938 -36.027344 C 25.417969 -37.03125 24.707031 -37.863281 23.9375 -38.632812 C 22.632812 -39.9375 20.917969 -40.46875 19.136719 -40.824219 C 19.019531 -40.824219 18.902344 -40.824219 18.78125 -40.824219 C 18.25 -40.882812 17.65625 -40.882812 17.125 -40.882812 C 15.644531 -40.945312 14.101562 -41.003906 12.621094 -41.0625 C 10.960938 -41.0625 9.363281 -41.0625 7.761719 -41.121094 C 7.050781 -41.121094 6.339844 -41.179688 5.628906 -41.121094 C 4.5625 -41.121094 3.792969 -40.589844 3.257812 -39.640625 C 2.902344 -38.929688 2.785156 -38.160156 2.726562 -37.328125 C 2.726562 -35.730469 2.667969 -34.128906 2.667969 -32.53125 C 2.605469 -30.929688 2.546875 -29.328125 2.546875 -27.730469 C 2.488281 -23.40625 2.546875 -19.078125 2.546875 -14.695312 C 2.546875 -10.664062 2.667969 -6.578125 2.371094 -2.546875 C 2.371094 -2.3125 2.429688 -2.015625 2.488281 -1.777344 C 2.667969 -1.363281 2.84375 -0.949219 3.082031 -0.535156 C 3.316406 -0.179688 3.671875 0.179688 4.148438 0.355469 C 4.859375 0.59375 5.570312 0.828125 6.28125 0.828125 C 7.167969 0.828125 8.117188 0.710938 9.007812 0.652344 C 9.421875 0.652344 9.777344 0.472656 10.074219 0.238281 C 10.429688 -0.117188 10.785156 -0.472656 10.785156 -1.066406 C 10.785156 -2.3125 10.902344 -3.554688 10.960938 -4.800781 Z M 11.082031 -25.773438 C 11.082031 -27.671875 11.082031 -29.566406 11.019531 -31.402344 C 11.019531 -31.9375 11.199219 -32.410156 11.496094 -32.886719 C 11.671875 -33.0625 11.851562 -33.179688 12.148438 -33.179688 C 13.273438 -33.179688 14.398438 -33.242188 15.523438 -33.179688 C 16.355469 -33.121094 17.125 -32.886719 17.894531 -32.53125 C 18.25 -32.351562 18.546875 -32.054688 18.722656 -31.699219 C 19.136719 -30.691406 19.375 -29.6875 19.375 -28.617188 C 19.375 -27.550781 19.375 -26.546875 19.316406 -25.480469 C 19.257812 -24.054688 18.902344 -22.753906 18.25 -21.507812 C 18.132812 -21.210938 18.011719 -20.976562 17.894531 -20.738281 C 17.65625 -20.144531 17.242188 -19.789062 16.710938 -19.554688 C 16 -19.257812 15.226562 -19.078125 14.398438 -19.019531 C 13.746094 -18.960938 13.09375 -18.902344 12.441406 -18.902344 C 11.730469 -18.902344 11.375 -19.199219 11.199219 -19.730469 C 11.199219 -19.910156 11.199219 -20.027344 11.199219 -20.207031 C 11.199219 -22.042969 11.199219 -23.878906 11.199219 -25.773438 C 11.140625 -25.773438 11.140625 -25.773438 11.082031 -25.773438 Z M 11.082031 -25.773438 "/></g></g></g><g fill="#e16e17" fill-opacity="1"><g transform="translate(153.071595, 320.141182)"><g><path d="M 29.507812 -10.371094 C 29.449219 -10.371094 29.449219 -10.371094 29.390625 -10.371094 C 29.390625 -11.792969 29.390625 -13.273438 29.390625 -14.753906 C 29.390625 -16.058594 29.390625 -17.359375 29.390625 -18.605469 C 29.390625 -19.257812 29.152344 -19.851562 28.679688 -20.265625 C 27.96875 -20.796875 27.195312 -21.210938 26.308594 -21.210938 C 25.300781 -21.152344 24.351562 -21.09375 23.40625 -21.09375 C 21.863281 -21.09375 20.382812 -21.09375 18.902344 -20.976562 C 18.546875 -20.917969 18.25 -20.917969 17.953125 -20.855469 C 17.003906 -20.679688 16.472656 -20.207031 16.292969 -19.257812 C 16.234375 -19.078125 16.234375 -18.902344 16.234375 -18.78125 C 16.234375 -17.359375 16.234375 -15.9375 16.292969 -14.515625 C 16.292969 -14.160156 16.472656 -13.925781 16.769531 -13.863281 C 17.066406 -13.804688 17.300781 -13.746094 17.597656 -13.746094 C 18.425781 -13.628906 19.316406 -13.570312 20.207031 -13.570312 C 20.679688 -13.507812 20.976562 -13.273438 21.152344 -12.859375 C 21.273438 -12.621094 21.332031 -12.324219 21.332031 -12.027344 C 21.390625 -11.671875 21.390625 -11.316406 21.390625 -10.960938 C 21.332031 -10.132812 21.210938 -9.300781 20.679688 -8.589844 C 20.265625 -8.117188 19.789062 -7.703125 19.199219 -7.464844 C 17.65625 -6.933594 16.117188 -6.695312 14.457031 -7.167969 C 13.390625 -7.464844 12.382812 -7.941406 11.730469 -8.945312 C 11.496094 -9.363281 11.199219 -9.777344 10.960938 -10.191406 C 10.726562 -10.605469 10.546875 -11.082031 10.371094 -11.554688 C 10.308594 -11.671875 10.308594 -11.851562 10.308594 -11.96875 C 10.25 -12.324219 10.191406 -12.679688 10.074219 -12.976562 C 9.835938 -13.746094 9.71875 -14.574219 9.71875 -15.347656 C 9.65625 -17.125 9.65625 -18.84375 9.894531 -20.621094 C 10.074219 -21.863281 10.074219 -23.167969 10.132812 -24.410156 C 10.132812 -24.648438 10.191406 -24.828125 10.191406 -25.0625 C 10.371094 -25.894531 10.546875 -26.78125 10.785156 -27.613281 C 11.140625 -28.796875 11.4375 -30.042969 12.148438 -31.046875 C 12.859375 -32.175781 13.746094 -33.179688 15.050781 -33.773438 C 16.175781 -34.246094 17.300781 -34.605469 18.546875 -34.542969 C 19.375 -34.484375 20.144531 -34.246094 20.917969 -33.890625 C 20.976562 -33.832031 21.035156 -33.773438 21.152344 -33.714844 C 21.628906 -33.242188 21.863281 -32.707031 21.921875 -31.996094 C 21.984375 -31.464844 22.101562 -30.871094 22.160156 -30.335938 C 22.21875 -29.746094 22.339844 -29.152344 22.753906 -28.617188 C 23.109375 -28.144531 23.582031 -27.847656 24.234375 -27.847656 C 25.242188 -27.96875 26.25 -28.027344 27.257812 -28.144531 C 27.613281 -28.144531 27.90625 -28.203125 28.203125 -28.324219 C 28.558594 -28.441406 28.796875 -28.738281 28.855469 -29.09375 C 28.914062 -29.449219 29.035156 -29.804688 29.035156 -30.160156 C 28.972656 -31.046875 28.972656 -31.996094 28.914062 -32.945312 C 28.796875 -34.128906 28.679688 -35.316406 28.382812 -36.5 C 28.144531 -37.625 27.492188 -38.453125 26.78125 -39.34375 C 26.722656 -39.460938 26.605469 -39.523438 26.484375 -39.582031 C 25.835938 -39.9375 25.183594 -40.292969 24.53125 -40.648438 C 24.292969 -40.765625 24.117188 -40.824219 23.878906 -40.945312 C 23.699219 -40.945312 23.582031 -41.003906 23.40625 -41.121094 C 22.929688 -41.476562 22.339844 -41.65625 21.746094 -41.773438 C 20.976562 -41.949219 20.207031 -42.128906 19.375 -42.070312 C 18.84375 -42.011719 18.367188 -42.070312 17.894531 -42.070312 C 17.480469 -42.070312 17.125 -42.070312 16.710938 -42.070312 C 15.167969 -41.949219 13.628906 -41.535156 12.207031 -40.824219 C 11.199219 -40.292969 10.308594 -39.757812 9.300781 -39.226562 C 9.183594 -39.164062 9.125 -39.046875 9.007812 -38.988281 C 8.058594 -38.160156 7.167969 -37.210938 6.339844 -36.261719 C 6.164062 -36.085938 6.042969 -35.847656 5.984375 -35.671875 C 5.808594 -35.253906 5.628906 -34.839844 5.332031 -34.484375 C 4.917969 -33.953125 4.621094 -33.359375 4.503906 -32.707031 C 4.089844 -31.167969 3.613281 -29.566406 3.257812 -27.96875 C 2.902344 -26.191406 2.667969 -24.351562 2.605469 -22.515625 C 2.546875 -20.621094 2.429688 -18.722656 2.429688 -16.828125 C 2.429688 -15.582031 2.371094 -14.339844 2.546875 -13.09375 C 2.667969 -12.207031 2.785156 -11.316406 2.960938 -10.429688 C 3.023438 -9.835938 3.140625 -9.242188 3.316406 -8.652344 C 3.378906 -8.296875 3.554688 -7.941406 3.671875 -7.585938 C 3.910156 -6.578125 4.382812 -5.6875 4.976562 -4.859375 C 5.273438 -4.5625 5.570312 -4.207031 5.808594 -3.910156 C 6.339844 -3.257812 6.8125 -2.546875 7.40625 -1.957031 C 7.703125 -1.601562 8.058594 -1.246094 8.472656 -1.007812 C 9.066406 -0.652344 9.71875 -0.355469 10.308594 -0.0585938 C 10.546875 0.117188 10.84375 0.238281 11.140625 0.296875 C 12.503906 0.59375 13.984375 0.769531 15.40625 0.890625 C 16.472656 1.007812 17.539062 0.710938 18.546875 0.414062 C 19.316406 0.238281 20.085938 -0.0585938 20.855469 -0.238281 C 21.152344 -0.355469 21.449219 -0.414062 21.6875 -0.179688 C 22.042969 0.296875 22.515625 0.414062 23.050781 0.355469 C 24.707031 0.355469 26.367188 0.238281 27.96875 0.238281 C 28.382812 0.179688 28.679688 0.0585938 28.855469 -0.296875 C 29.152344 -0.890625 29.390625 -1.480469 29.390625 -2.132812 C 29.390625 -4.859375 29.449219 -7.585938 29.507812 -10.371094 Z M 29.507812 -10.371094 "/></g></g></g><g fill="#e16e17" fill-opacity="1"><g transform="translate(185.239329, 320.141182)"><g><path d="M 23.9375 0.769531 C 23.9375 0.769531 24.054688 0.769531 24.117188 0.769531 C 24.945312 0.710938 25.714844 0.652344 26.546875 0.535156 C 26.664062 0.535156 26.839844 0.535156 26.960938 0.535156 C 27.730469 0.414062 28.5 0.238281 29.269531 0.117188 C 29.566406 0.0585938 29.804688 -0.0585938 29.921875 -0.296875 C 30.21875 -0.949219 30.457031 -1.601562 30.277344 -2.371094 C 30.101562 -3.316406 29.863281 -4.265625 29.625 -5.273438 C 29.507812 -5.925781 29.269531 -6.636719 29.152344 -7.347656 C 28.855469 -8.589844 28.679688 -9.894531 28.382812 -11.199219 C 28.085938 -12.441406 27.730469 -13.746094 27.433594 -15.050781 C 26.664062 -17.894531 25.894531 -20.796875 25.125 -23.640625 C 24.648438 -25.417969 24.175781 -27.257812 23.582031 -28.972656 C 22.871094 -31.109375 22.21875 -33.300781 21.804688 -35.550781 C 21.566406 -36.855469 21.152344 -38.039062 20.855469 -39.285156 C 20.621094 -40.234375 20.027344 -40.765625 19.199219 -41.0625 C 18.488281 -41.300781 17.835938 -41.359375 17.125 -41.238281 C 15.878906 -41.121094 14.636719 -40.824219 13.332031 -40.824219 C 13.152344 -40.824219 12.976562 -40.765625 12.859375 -40.707031 C 11.910156 -40.234375 11.375 -39.460938 11.140625 -38.453125 C 10.785156 -37.03125 10.488281 -35.609375 10.132812 -34.1875 C 9.777344 -32.824219 9.363281 -31.523438 8.945312 -30.21875 C 8.355469 -28.144531 7.761719 -26.128906 7.167969 -24.054688 C 6.339844 -21.273438 5.511719 -18.425781 4.738281 -15.644531 C 4.382812 -14.339844 4.148438 -12.976562 3.910156 -11.671875 C 3.671875 -10.488281 3.4375 -9.363281 3.082031 -8.234375 C 2.488281 -6.398438 1.957031 -4.621094 1.421875 -2.785156 C 1.125 -1.71875 1.363281 -0.769531 2.3125 -0.0585938 C 2.371094 0 2.429688 0.0585938 2.488281 0.117188 C 2.785156 0.355469 3.082031 0.472656 3.4375 0.414062 C 4.917969 0.355469 6.398438 0.296875 7.941406 0.238281 C 8.175781 0.238281 8.414062 0.238281 8.652344 0.238281 C 9.421875 0.117188 10.074219 -0.117188 10.371094 -0.949219 C 10.605469 -1.71875 10.902344 -2.429688 11.140625 -3.140625 C 11.375 -3.792969 11.851562 -4.207031 12.5625 -4.382812 C 13.035156 -4.503906 13.570312 -4.5625 14.042969 -4.5625 C 15.109375 -4.621094 16.175781 -4.738281 17.242188 -4.800781 C 17.894531 -4.800781 18.605469 -4.859375 19.257812 -4.859375 C 20.027344 -4.917969 20.621094 -4.503906 20.855469 -3.671875 C 21.035156 -2.546875 21.449219 -1.480469 21.984375 -0.472656 C 22.277344 0.238281 23.109375 0.769531 23.9375 0.769531 Z M 15.109375 -14.101562 C 14.933594 -14.101562 14.753906 -14.042969 14.574219 -14.101562 C 14.042969 -14.101562 13.6875 -14.398438 13.746094 -14.933594 C 13.746094 -15.464844 13.804688 -16 13.925781 -16.53125 C 14.398438 -18.84375 14.871094 -21.152344 15.347656 -23.464844 C 15.40625 -23.699219 15.523438 -23.9375 15.582031 -24.117188 C 15.761719 -24.351562 16.058594 -24.351562 16.234375 -24.117188 C 16.292969 -24.054688 16.355469 -23.9375 16.414062 -23.820312 C 16.769531 -22.753906 17.125 -21.6875 17.480469 -20.5625 C 17.953125 -19.375 18.191406 -18.070312 18.488281 -16.769531 C 18.546875 -16.472656 18.664062 -16.117188 18.78125 -15.761719 C 18.84375 -15.40625 18.84375 -15.109375 18.664062 -14.753906 C 18.546875 -14.457031 18.308594 -14.28125 18.011719 -14.28125 C 17.480469 -14.21875 16.886719 -14.160156 16.355469 -14.160156 C 15.9375 -14.101562 15.523438 -14.101562 15.109375 -14.042969 C 15.109375 -14.042969 15.109375 -14.042969 15.109375 -14.101562 Z M 15.109375 -14.101562 "/></g></g></g><g fill="#e16e17" fill-opacity="1"><g transform="translate(217.88096, 320.141182)"><g><path d="M 2.371094 -20.265625 C 2.429688 -19.078125 2.488281 -17.953125 2.488281 -16.886719 C 2.546875 -13.6875 2.546875 -10.546875 2.546875 -7.347656 C 2.546875 -5.867188 2.488281 -4.324219 2.488281 -2.84375 C 2.488281 -2.015625 2.667969 -1.246094 3.082031 -0.59375 C 3.316406 -0.117188 3.734375 0.238281 4.324219 0.238281 C 5.332031 0.238281 6.28125 0.238281 7.230469 0.296875 C 7.761719 0.355469 8.234375 0.238281 8.769531 0.0585938 C 8.945312 -0.0585938 9.125 -0.179688 9.183594 -0.355469 C 9.597656 -1.007812 9.777344 -1.71875 9.777344 -2.429688 C 9.777344 -3.316406 9.71875 -4.207031 9.71875 -5.097656 C 9.71875 -7.347656 9.777344 -9.539062 9.777344 -11.792969 C 9.835938 -14.101562 9.835938 -16.472656 9.894531 -18.78125 C 9.894531 -18.960938 9.894531 -19.078125 9.894531 -19.257812 C 9.953125 -19.554688 10.132812 -19.613281 10.429688 -19.613281 C 10.785156 -19.613281 10.960938 -19.433594 11.140625 -19.136719 C 11.671875 -18.308594 12.207031 -17.421875 12.679688 -16.53125 C 13.6875 -14.871094 14.636719 -13.152344 15.703125 -11.496094 C 16.472656 -10.25 17.359375 -9.066406 18.132812 -7.820312 C 18.546875 -7.230469 18.84375 -6.519531 19.257812 -5.925781 C 19.789062 -5.097656 20.441406 -4.207031 21.09375 -3.378906 C 21.628906 -2.667969 22.21875 -1.894531 22.8125 -1.183594 C 23.285156 -0.59375 23.878906 -0.179688 24.648438 0 C 25.300781 0.238281 26.011719 0.179688 26.722656 0.0585938 C 27.550781 -0.0585938 28.203125 -0.535156 28.679688 -1.246094 C 28.855469 -1.421875 28.972656 -1.660156 29.035156 -1.835938 C 29.152344 -2.667969 29.390625 -3.496094 29.390625 -4.324219 C 29.269531 -6.695312 29.152344 -9.125 29.152344 -11.496094 C 29.09375 -17.65625 29.09375 -23.761719 29.09375 -29.863281 C 29.035156 -31.402344 28.972656 -32.945312 28.855469 -34.484375 C 28.796875 -36.085938 28.679688 -37.625 28.617188 -39.226562 C 28.617188 -40.589844 27.433594 -41.476562 26.367188 -41.59375 C 25.417969 -41.65625 24.410156 -41.65625 23.40625 -41.714844 C 22.8125 -41.773438 22.339844 -41.417969 22.042969 -40.945312 C 21.6875 -40.292969 21.390625 -39.523438 21.390625 -38.75 C 21.390625 -38.335938 21.390625 -37.921875 21.390625 -37.507812 C 21.332031 -36.738281 21.332031 -36.027344 21.332031 -35.253906 C 21.390625 -34.011719 21.507812 -32.765625 21.566406 -31.523438 C 21.628906 -27.96875 21.628906 -24.410156 21.6875 -20.855469 C 21.6875 -20.5625 21.566406 -20.324219 21.507812 -20.085938 C 21.449219 -19.730469 21.210938 -19.554688 20.855469 -19.492188 C 20.5625 -19.433594 20.382812 -19.613281 20.144531 -19.851562 C 20.144531 -19.910156 20.085938 -19.96875 20.027344 -20.027344 C 19.492188 -21.035156 19.019531 -22.042969 18.425781 -23.109375 C 17.65625 -24.53125 16.828125 -26.011719 16.058594 -27.492188 C 14.871094 -29.804688 13.746094 -32.054688 12.621094 -34.367188 C 11.910156 -35.730469 11.316406 -37.210938 10.664062 -38.574219 C 10.429688 -39.105469 10.191406 -39.640625 9.953125 -40.113281 C 9.777344 -40.527344 9.480469 -40.765625 9.066406 -40.945312 C 8.058594 -41.359375 7.050781 -41.535156 5.984375 -41.59375 C 5.453125 -41.59375 4.976562 -41.535156 4.445312 -41.476562 C 3.96875 -41.417969 3.4375 -41.238281 3.199219 -40.765625 C 2.902344 -40.171875 2.546875 -39.582031 2.488281 -38.871094 C 2.429688 -38.277344 2.371094 -37.625 2.371094 -37.03125 C 2.371094 -35.847656 2.371094 -34.722656 2.371094 -33.535156 C 2.371094 -29.09375 2.371094 -24.589844 2.371094 -20.265625 Z M 2.371094 -20.265625 "/></g></g></g><g fill="#e16e17" fill-opacity="1"><g transform="translate(250.285625, 320.141182)"><g><path d="M 11.96875 0.117188 C 12.796875 0.117188 13.628906 0.117188 14.457031 0.117188 C 15.347656 0.117188 16.234375 0.117188 17.066406 -0.0585938 C 17.539062 -0.179688 18.011719 -0.179688 18.425781 -0.296875 C 18.78125 -0.355469 19.078125 -0.414062 19.433594 -0.535156 C 19.671875 -0.59375 19.910156 -0.769531 20.144531 -0.890625 C 21.984375 -1.660156 23.582031 -2.785156 25.003906 -4.148438 C 25.359375 -4.503906 25.65625 -4.976562 26.011719 -5.390625 C 27.019531 -6.457031 27.671875 -7.703125 28.144531 -9.066406 C 28.558594 -10.191406 28.972656 -11.316406 29.269531 -12.441406 C 29.6875 -14.398438 30.160156 -16.292969 30.277344 -18.25 C 30.335938 -19.375 30.398438 -20.441406 30.335938 -21.566406 C 30.335938 -22.8125 30.21875 -24.054688 30.101562 -25.300781 C 30.101562 -25.714844 30.042969 -26.128906 29.980469 -26.546875 C 29.863281 -27.613281 29.625 -28.679688 29.566406 -29.804688 C 29.449219 -30.988281 29.152344 -32.175781 28.617188 -33.300781 C 28.027344 -34.542969 27.257812 -35.671875 26.367188 -36.796875 C 25.835938 -37.625 25.125 -38.277344 24.292969 -38.75 C 23.226562 -39.402344 22.277344 -40.234375 21.152344 -40.882812 C 20.441406 -41.238281 19.730469 -41.535156 18.960938 -41.59375 C 17.894531 -41.59375 16.828125 -41.714844 15.820312 -41.832031 C 15.464844 -41.832031 15.167969 -41.832031 14.871094 -41.832031 C 13.332031 -41.832031 11.792969 -41.773438 10.191406 -41.773438 C 9.421875 -41.773438 8.652344 -41.773438 7.878906 -41.773438 C 6.933594 -41.832031 5.984375 -41.832031 5.035156 -41.59375 C 4.382812 -41.417969 3.792969 -41.121094 3.4375 -40.410156 C 3.316406 -40.054688 3.140625 -39.640625 3.023438 -39.285156 C 2.902344 -38.632812 2.785156 -37.980469 2.726562 -37.269531 C 2.605469 -36.617188 2.605469 -35.90625 2.605469 -35.195312 C 2.605469 -34.070312 2.667969 -32.945312 2.667969 -31.820312 C 2.605469 -30.988281 2.546875 -30.160156 2.488281 -29.328125 C 2.429688 -25.539062 2.371094 -21.746094 2.488281 -17.953125 C 2.546875 -15.9375 2.546875 -13.984375 2.605469 -12.027344 C 2.605469 -10.371094 2.605469 -8.769531 2.726562 -7.167969 C 2.84375 -5.570312 2.902344 -3.96875 3.023438 -2.429688 C 3.082031 -1.660156 3.4375 -1.066406 4.027344 -0.652344 C 4.5625 -0.296875 5.035156 -0.0585938 5.6875 -0.0585938 C 6.28125 -0.0585938 6.933594 0 7.523438 0.0585938 C 8.117188 0.0585938 8.710938 0.117188 9.300781 0.117188 C 10.191406 0.117188 11.082031 0.117188 11.96875 0.117188 Z M 21.273438 -19.199219 C 21.273438 -18.488281 21.273438 -17.835938 21.273438 -17.125 C 21.273438 -16.710938 21.152344 -16.355469 21.035156 -16 C 20.855469 -15.167969 20.621094 -14.28125 20.324219 -13.449219 C 19.554688 -11.375 18.011719 -10.015625 15.878906 -9.480469 C 15.167969 -9.242188 14.398438 -9.183594 13.6875 -9.066406 C 12.917969 -9.007812 12.382812 -9.300781 12.148438 -10.015625 C 11.792969 -10.960938 11.613281 -11.910156 11.613281 -12.976562 C 11.613281 -14.101562 11.613281 -15.226562 11.613281 -16.414062 C 11.613281 -18.722656 11.671875 -21.09375 11.671875 -23.40625 C 11.671875 -24.589844 11.554688 -25.773438 11.554688 -26.960938 C 11.554688 -27.789062 11.554688 -28.679688 11.613281 -29.566406 C 11.613281 -30.21875 11.792969 -30.8125 12.085938 -31.34375 C 12.324219 -31.820312 12.738281 -32.113281 13.273438 -32.113281 C 14.042969 -32.175781 14.753906 -32.234375 15.464844 -32.054688 C 15.9375 -31.9375 16.414062 -31.757812 16.769531 -31.402344 C 17.003906 -31.167969 17.300781 -30.988281 17.539062 -30.8125 C 18.546875 -30.21875 19.199219 -29.328125 19.554688 -28.261719 C 19.96875 -26.960938 20.382812 -25.65625 20.679688 -24.351562 C 21.035156 -22.929688 21.273438 -21.507812 21.210938 -20.085938 C 21.152344 -19.789062 21.210938 -19.492188 21.273438 -19.199219 Z M 21.273438 -19.199219 "/></g></g></g><g fill="#e16e17" fill-opacity="1"><g transform="translate(282.216394, 320.141182)"><g><path d="M 2.371094 -19.136719 C 2.429688 -18.191406 2.488281 -17.183594 2.605469 -16.175781 C 2.605469 -15.644531 2.785156 -15.050781 2.785156 -14.457031 C 2.902344 -12.324219 3.316406 -10.191406 4.089844 -8.175781 C 4.738281 -6.578125 5.628906 -5.035156 6.695312 -3.613281 C 7.585938 -2.488281 8.710938 -1.660156 9.835938 -0.828125 C 10.960938 -0.117188 12.207031 0.0585938 13.449219 0.296875 C 14.753906 0.535156 16.117188 0.59375 17.421875 0.535156 C 18.308594 0.472656 19.199219 0.414062 20.027344 0 C 20.441406 -0.179688 20.855469 -0.355469 21.273438 -0.535156 C 21.566406 -0.710938 21.921875 -0.890625 22.21875 -1.125 C 22.515625 -1.304688 22.8125 -1.480469 23.050781 -1.71875 C 24.054688 -2.371094 25.003906 -3.140625 25.65625 -4.148438 C 26.425781 -5.332031 27.195312 -6.519531 27.730469 -7.820312 C 27.90625 -8.296875 28.085938 -8.710938 28.324219 -9.183594 C 29.269531 -11.316406 29.804688 -13.628906 30.277344 -15.9375 C 30.574219 -17.125 30.515625 -18.367188 30.8125 -19.554688 C 30.871094 -19.613281 30.871094 -19.671875 30.871094 -19.730469 C 30.871094 -21.09375 30.871094 -22.515625 30.8125 -23.878906 C 30.691406 -26.425781 30.101562 -28.914062 29.625 -31.402344 C 29.152344 -33.65625 28.261719 -35.671875 26.839844 -37.507812 C 26.191406 -38.335938 25.539062 -39.164062 24.589844 -39.816406 C 23.640625 -40.410156 22.574219 -40.882812 21.566406 -41.417969 C 21.566406 -41.417969 21.507812 -41.417969 21.507812 -41.417969 C 20.738281 -41.65625 19.96875 -41.832031 19.257812 -41.890625 C 18.070312 -42.070312 16.886719 -42.011719 15.761719 -41.949219 C 14.574219 -41.949219 13.390625 -41.714844 12.265625 -41.238281 C 11.4375 -40.882812 10.605469 -40.46875 9.894531 -39.9375 C 8.414062 -38.929688 7.109375 -37.804688 6.164062 -36.320312 C 5.390625 -35.136719 4.800781 -33.832031 4.324219 -32.46875 C 3.613281 -30.398438 3.199219 -28.261719 2.960938 -26.070312 C 2.84375 -25.183594 2.84375 -24.234375 2.726562 -23.34375 C 2.546875 -21.984375 2.429688 -20.5625 2.371094 -19.136719 Z M 22.632812 -21.09375 C 22.574219 -19.199219 22.515625 -17.300781 22.160156 -15.464844 C 21.863281 -13.804688 21.507812 -12.207031 20.917969 -10.605469 C 20.679688 -9.777344 20.207031 -9.125 19.492188 -8.710938 C 18.664062 -8.234375 17.777344 -7.878906 16.828125 -8 C 16 -8.058594 15.167969 -8.234375 14.398438 -8.414062 C 13.09375 -8.769531 12.207031 -9.597656 11.613281 -10.785156 C 11.019531 -11.96875 10.726562 -13.214844 10.488281 -14.515625 C 10.015625 -17.183594 9.953125 -19.910156 10.132812 -22.632812 C 10.191406 -23.640625 10.25 -24.648438 10.546875 -25.65625 C 11.082031 -27.847656 11.910156 -29.980469 13.390625 -31.757812 C 14.21875 -32.707031 15.289062 -33.242188 16.53125 -33.300781 C 17.777344 -33.300781 18.84375 -32.945312 19.851562 -32.175781 C 19.910156 -32.113281 20.027344 -31.996094 20.085938 -31.9375 C 20.738281 -31.046875 21.210938 -30.042969 21.507812 -29.035156 C 22.101562 -27.136719 22.457031 -25.183594 22.632812 -23.226562 C 22.695312 -22.515625 22.632812 -21.804688 22.632812 -21.09375 Z M 22.632812 -21.09375 "/></g></g></g><g fill="#e16e17" fill-opacity="1"><g transform="translate(315.865125, 320.141182)"><g><path d="M 6.398438 -7.347656 C 6.28125 -7.347656 6.164062 -7.347656 6.042969 -7.347656 C 5.035156 -7.40625 4.265625 -7.050781 3.792969 -6.222656 C 3.378906 -5.628906 3.023438 -5.035156 2.726562 -4.382812 C 2.3125 -3.496094 2.3125 -2.605469 2.546875 -1.660156 C 2.726562 -1.007812 3.082031 -0.535156 3.613281 -0.117188 C 4.679688 0.710938 5.925781 1.066406 7.289062 0.828125 C 8.886719 0.59375 9.71875 -0.296875 10.132812 -1.777344 C 10.429688 -2.84375 10.308594 -3.96875 10.015625 -5.035156 C 9.835938 -5.6875 9.480469 -6.101562 9.007812 -6.519531 C 8.234375 -7.167969 7.347656 -7.40625 6.398438 -7.347656 Z M 6.398438 -7.347656 "/></g></g></g><g fill="#e16e17" fill-opacity="1"><g transform="translate(328.601894, 320.141182)"><g><path d="M 6.398438 -7.347656 C 6.28125 -7.347656 6.164062 -7.347656 6.042969 -7.347656 C 5.035156 -7.40625 4.265625 -7.050781 3.792969 -6.222656 C 3.378906 -5.628906 3.023438 -5.035156 2.726562 -4.382812 C 2.3125 -3.496094 2.3125 -2.605469 2.546875 -1.660156 C 2.726562 -1.007812 3.082031 -0.535156 3.613281 -0.117188 C 4.679688 0.710938 5.925781 1.066406 7.289062 0.828125 C 8.886719 0.59375 9.71875 -0.296875 10.132812 -1.777344 C 10.429688 -2.84375 10.308594 -3.96875 10.015625 -5.035156 C 9.835938 -5.6875 9.480469 -6.101562 9.007812 -6.519531 C 8.234375 -7.167969 7.347656 -7.40625 6.398438 -7.347656 Z M 6.398438 -7.347656 "/></g></g></g><g fill="#e16e17" fill-opacity="1"><g transform="translate(341.338663, 320.141182)"><g><path d="M 6.398438 -7.347656 C 6.28125 -7.347656 6.164062 -7.347656 6.042969 -7.347656 C 5.035156 -7.40625 4.265625 -7.050781 3.792969 -6.222656 C 3.378906 -5.628906 3.023438 -5.035156 2.726562 -4.382812 C 2.3125 -3.496094 2.3125 -2.605469 2.546875 -1.660156 C 2.726562 -1.007812 3.082031 -0.535156 3.613281 -0.117188 C 4.679688 0.710938 5.925781 1.066406 7.289062 0.828125 C 8.886719 0.59375 9.71875 -0.296875 10.132812 -1.777344 C 10.429688 -2.84375 10.308594 -3.96875 10.015625 -5.035156 C 9.835938 -5.6875 9.480469 -6.101562 9.007812 -6.519531 C 8.234375 -7.167969 7.347656 -7.40625 6.398438 -7.347656 Z M 6.398438 -7.347656 "/></g></g></g></svg>