<svg xmlns="http://www.w3.org/2000/svg" xmlns:xlink="http://www.w3.org/1999/xlink" width="500" zoomAndPan="magnify" viewBox="0 0 375 374.999991" height="500" preserveAspectRatio="xMidYMid meet" version="1.0"><defs><clipPath id="ec2b13a825"><path d="M 6.027344 6.804688 L 369.027344 6.804688 L 369.027344 369.804688 L 6.027344 369.804688 Z M 6.027344 6.804688 " clip-rule="nonzero"/></clipPath><clipPath id="c0339b65ee"><path d="M 96 57 L 316 57 L 316 369.804688 L 96 369.804688 Z M 96 57 " clip-rule="nonzero"/></clipPath><clipPath id="ef3a9d2088"><path d="M 369.101562 188.277344 C 369.101562 88.023438 287.835938 6.75 187.582031 6.75 C 87.328125 6.75 6.0625 88.023438 6.0625 188.277344 C 6.0625 288.527344 87.328125 369.796875 187.582031 369.796875 C 287.835938 369.796875 369.101562 288.527344 369.101562 188.277344 " clip-rule="nonzero"/></clipPath><clipPath id="efdca5ffe3"><path d="M 97.082031 90.242188 L 109.222656 90.242188 L 109.222656 116.730469 L 97.082031 116.730469 Z M 97.082031 90.242188 " clip-rule="nonzero"/></clipPath><clipPath id="3328cdccba"><path d="M 369.101562 188.277344 C 369.101562 88.023438 287.835938 6.75 187.582031 6.75 C 87.328125 6.75 6.0625 88.023438 6.0625 188.277344 C 6.0625 288.527344 87.328125 369.796875 187.582031 369.796875 C 287.835938 369.796875 369.101562 288.527344 369.101562 188.277344 " clip-rule="nonzero"/></clipPath><clipPath id="a055a19e68"><path d="M 159 40 L 168.820312 40 L 168.820312 67.066406 L 159 67.066406 Z M 159 40 " clip-rule="nonzero"/></clipPath><clipPath id="5e9c2458d0"><path d="M 369.101562 188.277344 C 369.101562 88.023438 287.835938 6.75 187.582031 6.75 C 87.328125 6.75 6.0625 88.023438 6.0625 188.277344 C 6.0625 288.527344 87.328125 369.796875 187.582031 369.796875 C 287.835938 369.796875 369.101562 288.527344 369.101562 188.277344 " clip-rule="nonzero"/></clipPath><clipPath id="cbc3010982"><path d="M 216.277344 41 L 226 41 L 226 69 L 216.277344 69 Z M 216.277344 41 " clip-rule="nonzero"/></clipPath><clipPath id="1fad3dcf90"><path d="M 369.101562 188.277344 C 369.101562 88.023438 287.835938 6.75 187.582031 6.75 C 87.328125 6.75 6.0625 88.023438 6.0625 188.277344 C 6.0625 288.527344 87.328125 369.796875 187.582031 369.796875 C 287.835938 369.796875 369.101562 288.527344 369.101562 188.277344 " clip-rule="nonzero"/></clipPath><clipPath id="fbf21df726"><path d="M 274 98 L 286.914062 98 L 286.914062 125 L 274 125 Z M 274 98 " clip-rule="nonzero"/></clipPath><clipPath id="6f01e7b935"><path d="M 369.101562 188.277344 C 369.101562 88.023438 287.835938 6.75 187.582031 6.75 C 87.328125 6.75 6.0625 88.023438 6.0625 188.277344 C 6.0625 288.527344 87.328125 369.796875 187.582031 369.796875 C 287.835938 369.796875 369.101562 288.527344 369.101562 188.277344 " clip-rule="nonzero"/></clipPath><clipPath id="d1d78eaf02"><path d="M 96 127.769531 L 275.875 127.769531 L 275.875 261.3125 L 96 261.3125 Z M 96 127.769531 " clip-rule="nonzero"/></clipPath><clipPath id="57f00a53a1"><path d="M 369.101562 188.277344 C 369.101562 88.023438 287.835938 6.75 187.582031 6.75 C 87.328125 6.75 6.0625 88.023438 6.0625 188.277344 C 6.0625 288.527344 87.328125 369.796875 187.582031 369.796875 C 287.835938 369.796875 369.101562 288.527344 369.101562 188.277344 " clip-rule="nonzero"/></clipPath><clipPath id="25d7bc2a78"><path d="M 101 188 L 268 188 L 268 369.804688 L 101 369.804688 Z M 101 188 " clip-rule="nonzero"/></clipPath><clipPath id="e5c41bfd08"><path d="M 369.101562 188.277344 C 369.101562 88.023438 287.835938 6.75 187.582031 6.75 C 87.328125 6.75 6.0625 88.023438 6.0625 188.277344 C 6.0625 288.527344 87.328125 369.796875 187.582031 369.796875 C 287.835938 369.796875 369.101562 288.527344 369.101562 188.277344 " clip-rule="nonzero"/></clipPath><clipPath id="030c8085d2"><path d="M 77.214844 55 L 297.949219 55 L 297.949219 259.105469 L 77.214844 259.105469 Z M 77.214844 55 " clip-rule="nonzero"/></clipPath><clipPath id="9ad9ff678f"><path d="M 369.101562 188.277344 C 369.101562 88.023438 287.835938 6.75 187.582031 6.75 C 87.328125 6.75 6.0625 88.023438 6.0625 188.277344 C 6.0625 288.527344 87.328125 369.796875 187.582031 369.796875 C 287.835938 369.796875 369.101562 288.527344 369.101562 188.277344 " clip-rule="nonzero"/></clipPath><clipPath id="e0a76b12d3"><path d="M 132.398438 143.21875 L 242.765625 143.21875 L 242.765625 232.617188 L 132.398438 232.617188 Z M 132.398438 143.21875 " clip-rule="nonzero"/></clipPath><clipPath id="2f9c87e87c"><path d="M 369.101562 188.277344 C 369.101562 88.023438 287.835938 6.75 187.582031 6.75 C 87.328125 6.75 6.0625 88.023438 6.0625 188.277344 C 6.0625 288.527344 87.328125 369.796875 187.582031 369.796875 C 287.835938 369.796875 369.101562 288.527344 369.101562 188.277344 " clip-rule="nonzero"/></clipPath><clipPath id="aca3c95621"><path d="M 195.308594 81.414062 L 240 81.414062 L 240 134 L 195.308594 134 Z M 195.308594 81.414062 " clip-rule="nonzero"/></clipPath><clipPath id="f631eca836"><path d="M 369.101562 188.277344 C 369.101562 88.023438 287.835938 6.75 187.582031 6.75 C 87.328125 6.75 6.0625 88.023438 6.0625 188.277344 C 6.0625 288.527344 87.328125 369.796875 187.582031 369.796875 C 287.835938 369.796875 369.101562 288.527344 369.101562 188.277344 " clip-rule="nonzero"/></clipPath><clipPath id="5b91f4af97"><path d="M 234 126.664062 L 271 126.664062 L 271 169.707031 L 234 169.707031 Z M 234 126.664062 " clip-rule="nonzero"/></clipPath><clipPath id="c12893b039"><path d="M 369.101562 188.277344 C 369.101562 88.023438 287.835938 6.75 187.582031 6.75 C 87.328125 6.75 6.0625 88.023438 6.0625 188.277344 C 6.0625 288.527344 87.328125 369.796875 187.582031 369.796875 C 287.835938 369.796875 369.101562 288.527344 369.101562 188.277344 " clip-rule="nonzero"/></clipPath><clipPath id="1473f36edb"><path d="M 104 126.664062 L 141.226562 126.664062 L 141.226562 169.707031 L 104 169.707031 Z M 104 126.664062 " clip-rule="nonzero"/></clipPath><clipPath id="146eb743be"><path d="M 369.101562 188.277344 C 369.101562 88.023438 287.835938 6.75 187.582031 6.75 C 87.328125 6.75 6.0625 88.023438 6.0625 188.277344 C 6.0625 288.527344 87.328125 369.796875 187.582031 369.796875 C 287.835938 369.796875 369.101562 288.527344 369.101562 188.277344 " clip-rule="nonzero"/></clipPath><clipPath id="0e16f84262"><path d="M 144.539062 81.414062 L 188.6875 81.414062 L 188.6875 134 L 144.539062 134 Z M 144.539062 81.414062 " clip-rule="nonzero"/></clipPath><clipPath id="67434929fc"><path d="M 369.101562 188.277344 C 369.101562 88.023438 287.835938 6.75 187.582031 6.75 C 87.328125 6.75 6.0625 88.023438 6.0625 188.277344 C 6.0625 288.527344 87.328125 369.796875 187.582031 369.796875 C 287.835938 369.796875 369.101562 288.527344 369.101562 188.277344 " clip-rule="nonzero"/></clipPath><clipPath id="53805af702"><path d="M 136 148 L 238.351562 148 L 238.351562 229 L 136 229 Z M 136 148 " clip-rule="nonzero"/></clipPath><clipPath id="7f98d00a4c"><path d="M 369.101562 188.277344 C 369.101562 88.023438 287.835938 6.75 187.582031 6.75 C 87.328125 6.75 6.0625 88.023438 6.0625 188.277344 C 6.0625 288.527344 87.328125 369.796875 187.582031 369.796875 C 287.835938 369.796875 369.101562 288.527344 369.101562 188.277344 " clip-rule="nonzero"/></clipPath><clipPath id="5692c08f12"><path d="M 200 85.828125 L 236 85.828125 L 236 129.976562 L 200 129.976562 Z M 200 85.828125 " clip-rule="nonzero"/></clipPath><clipPath id="15ba7bc4cb"><path d="M 369.101562 188.277344 C 369.101562 88.023438 287.835938 6.75 187.582031 6.75 C 87.328125 6.75 6.0625 88.023438 6.0625 188.277344 C 6.0625 288.527344 87.328125 369.796875 187.582031 369.796875 C 287.835938 369.796875 369.101562 288.527344 369.101562 188.277344 " clip-rule="nonzero"/></clipPath><clipPath id="b3600fa36b"><path d="M 238 131.078125 L 267 131.078125 L 267 166 L 238 166 Z M 238 131.078125 " clip-rule="nonzero"/></clipPath><clipPath id="5c7c8537df"><path d="M 369.101562 188.277344 C 369.101562 88.023438 287.835938 6.75 187.582031 6.75 C 87.328125 6.75 6.0625 88.023438 6.0625 188.277344 C 6.0625 288.527344 87.328125 369.796875 187.582031 369.796875 C 287.835938 369.796875 369.101562 288.527344 369.101562 188.277344 " clip-rule="nonzero"/></clipPath><clipPath id="c215233671"><path d="M 109 131.078125 L 136.8125 131.078125 L 136.8125 166 L 109 166 Z M 109 131.078125 " clip-rule="nonzero"/></clipPath><clipPath id="5cb1463e29"><path d="M 369.101562 188.277344 C 369.101562 88.023438 287.835938 6.75 187.582031 6.75 C 87.328125 6.75 6.0625 88.023438 6.0625 188.277344 C 6.0625 288.527344 87.328125 369.796875 187.582031 369.796875 C 287.835938 369.796875 369.101562 288.527344 369.101562 188.277344 " clip-rule="nonzero"/></clipPath><clipPath id="81bc049925"><path d="M 148 85.828125 L 184.273438 85.828125 L 184.273438 129.976562 L 148 129.976562 Z M 148 85.828125 " clip-rule="nonzero"/></clipPath><clipPath id="01c652546e"><path d="M 369.101562 188.277344 C 369.101562 88.023438 287.835938 6.75 187.582031 6.75 C 87.328125 6.75 6.0625 88.023438 6.0625 188.277344 C 6.0625 288.527344 87.328125 369.796875 187.582031 369.796875 C 287.835938 369.796875 369.101562 288.527344 369.101562 188.277344 " clip-rule="nonzero"/></clipPath><clipPath id="758a5f6968"><path d="M 153.367188 158 L 190.894531 158 L 190.894531 187 L 153.367188 187 Z M 153.367188 158 " clip-rule="nonzero"/></clipPath><clipPath id="64b727b952"><path d="M 369.101562 188.277344 C 369.101562 88.023438 287.835938 6.75 187.582031 6.75 C 87.328125 6.75 6.0625 88.023438 6.0625 188.277344 C 6.0625 288.527344 87.328125 369.796875 187.582031 369.796875 C 287.835938 369.796875 369.101562 288.527344 369.101562 188.277344 " clip-rule="nonzero"/></clipPath><clipPath id="7282c69c29"><path d="M 159.355469 186.878906 C 157.332031 186.878906 155.691406 186.132812 154.558594 184.394531 C 151.101562 179.097656 156.109375 169.699219 165.75 163.414062 C 171.109375 159.917969 176.765625 158.113281 181.332031 158.113281 C 184.980469 158.113281 187.925781 159.261719 189.460938 161.617188 C 192.925781 166.917969 185.429688 173.210938 175.792969 179.503906 C 169.3125 183.730469 163.511719 186.878906 159.355469 186.878906 " clip-rule="nonzero"/></clipPath><clipPath id="18272f7297"><path d="M 114.738281 135.492188 L 125 135.492188 L 125 145 L 114.738281 145 Z M 114.738281 135.492188 " clip-rule="nonzero"/></clipPath><clipPath id="9ad2207f8c"><path d="M 369.101562 188.277344 C 369.101562 88.023438 287.835938 6.75 187.582031 6.75 C 87.328125 6.75 6.0625 88.023438 6.0625 188.277344 C 6.0625 288.527344 87.328125 369.796875 187.582031 369.796875 C 287.835938 369.796875 369.101562 288.527344 369.101562 188.277344 " clip-rule="nonzero"/></clipPath><clipPath id="e1f1306819"><path d="M 243 133.285156 L 253.804688 133.285156 L 253.804688 143 L 243 143 Z M 243 133.285156 " clip-rule="nonzero"/></clipPath><clipPath id="507383b8e6"><path d="M 369.101562 188.277344 C 369.101562 88.023438 287.835938 6.75 187.582031 6.75 C 87.328125 6.75 6.0625 88.023438 6.0625 188.277344 C 6.0625 288.527344 87.328125 369.796875 187.582031 369.796875 C 287.835938 369.796875 369.101562 288.527344 369.101562 188.277344 " clip-rule="nonzero"/></clipPath><clipPath id="e3abc23e6c"><path d="M 155.574219 90.242188 L 167.714844 90.242188 L 167.714844 101 L 155.574219 101 Z M 155.574219 90.242188 " clip-rule="nonzero"/></clipPath><clipPath id="51c76c9a09"><path d="M 369.101562 188.277344 C 369.101562 88.023438 287.835938 6.75 187.582031 6.75 C 87.328125 6.75 6.0625 88.023438 6.0625 188.277344 C 6.0625 288.527344 87.328125 369.796875 187.582031 369.796875 C 287.835938 369.796875 369.101562 288.527344 369.101562 188.277344 " clip-rule="nonzero"/></clipPath><clipPath id="bb16fc9d7e"><path d="M 205.242188 89.140625 L 217 89.140625 L 217 100 L 205.242188 100 Z M 205.242188 89.140625 " clip-rule="nonzero"/></clipPath><clipPath id="0cba8758fa"><path d="M 369.101562 188.277344 C 369.101562 88.023438 287.835938 6.75 187.582031 6.75 C 87.328125 6.75 6.0625 88.023438 6.0625 188.277344 C 6.0625 288.527344 87.328125 369.796875 187.582031 369.796875 C 287.835938 369.796875 369.101562 288.527344 369.101562 188.277344 " clip-rule="nonzero"/></clipPath><clipPath id="d25a425193"><path d="M 141.226562 187.367188 L 155 187.367188 L 155 201.714844 L 141.226562 201.714844 Z M 141.226562 187.367188 " clip-rule="nonzero"/></clipPath><clipPath id="f3dc211610"><path d="M 369.101562 188.277344 C 369.101562 88.023438 287.835938 6.75 187.582031 6.75 C 87.328125 6.75 6.0625 88.023438 6.0625 188.277344 C 6.0625 288.527344 87.328125 369.796875 187.582031 369.796875 C 287.835938 369.796875 369.101562 288.527344 369.101562 188.277344 " clip-rule="nonzero"/></clipPath><clipPath id="185f6919f3"><path d="M 148 253 L 218 253 L 218 267.933594 L 148 267.933594 Z M 148 253 " clip-rule="nonzero"/></clipPath><clipPath id="2f0fb3100e"><path d="M 369.101562 188.277344 C 369.101562 88.023438 287.835938 6.75 187.582031 6.75 C 87.328125 6.75 6.0625 88.023438 6.0625 188.277344 C 6.0625 288.527344 87.328125 369.796875 187.582031 369.796875 C 287.835938 369.796875 369.101562 288.527344 369.101562 188.277344 " clip-rule="nonzero"/></clipPath></defs><g clip-path="url(#ec2b13a825)"><path fill="#31aec0" d="M 369.101562 188.277344 C 369.101562 88.023438 287.835938 6.75 187.582031 6.75 C 87.328125 6.75 6.0625 88.023438 6.0625 188.277344 C 6.0625 288.527344 87.328125 369.796875 187.582031 369.796875 C 287.835938 369.796875 369.101562 288.527344 369.101562 188.277344 " fill-opacity="1" fill-rule="nonzero"/></g><g clip-path="url(#c0339b65ee)"><g clip-path="url(#ef3a9d2088)"><path fill="#069db3" d="M 313.503906 152.363281 C 311.367188 145.863281 307.5 139.226562 302.277344 133.640625 C 305.738281 123.777344 306.542969 111.992188 301.433594 116.09375 C 298.496094 118.453125 296.398438 123.242188 295.03125 127.417969 C 291.550781 124.949219 287.789062 122.851562 283.59375 121.558594 C 283.554688 120.992188 283.625 120.433594 283.5625 119.875 C 283.125 115.46875 282.132812 111.164062 280.667969 107.230469 C 275.332031 92.5625 262.085938 76.96875 244.320312 73.085938 C 243.878906 63.734375 241.191406 55.125 238.027344 60.046875 C 236.089844 63.058594 235.589844 67.917969 235.566406 72.171875 C 232.691406 72.195312 229.824219 72.503906 227.035156 73.140625 C 221.132812 74.5 215.777344 77.261719 211.039062 80.886719 C 206.023438 76.902344 200.117188 73.9375 193.117188 72.777344 C 191.035156 72.433594 188.976562 72.296875 186.921875 72.265625 C 186.59375 62.636719 183.863281 53.4375 180.609375 58.496094 C 178.273438 62.121094 178.015625 68.402344 178.191406 73.09375 C 163.976562 75.871094 151.1875 85.695312 144.285156 99.851562 C 141.507812 105.566406 139.429688 112.492188 138.640625 119.851562 C 134.265625 119.960938 130.203125 120.9375 126.394531 122.382812 C 123.910156 112.625 118.714844 103.320312 116.667969 109.25 C 114.988281 114.097656 117.023438 121.882812 118.46875 126.324219 C 108.863281 132.652344 101.992188 142.703125 98.828125 152.320312 C 97.589844 156.0625 96.832031 159.957031 96.582031 163.8125 C 95.878906 174.035156 98.59375 184.117188 104.230469 192.195312 C 107.476562 196.871094 111.691406 200.582031 116.402344 203.460938 C 115.953125 206.179688 115.292969 208.859375 115.292969 211.667969 C 115.292969 228.667969 124.09375 244.011719 138.144531 255.785156 L 119.597656 390.59375 L 285.972656 390.59375 L 268.082031 260.511719 C 271.058594 257.742188 273.777344 254.734375 276.121094 251.40625 C 287.28125 240.28125 294.121094 226.625 294.121094 211.667969 C 294.121094 209.402344 293.523438 207.253906 293.226562 205.046875 C 299.066406 202.046875 304.226562 197.765625 308.085938 192.210938 C 313.714844 184.117188 316.4375 174.035156 315.746094 163.890625 C 315.484375 159.957031 314.726562 156.0625 313.503906 152.363281 " fill-opacity="1" fill-rule="nonzero"/></g></g><g clip-path="url(#efdca5ffe3)"><g clip-path="url(#3328cdccba)"><path fill="#d2d5d8" d="M 101.089844 112.707031 C 101.089844 112.707031 95.644531 99.265625 98.082031 92.214844 C 100.519531 85.164062 107.441406 99.628906 108.917969 110.804688 C 110.398438 121.976562 101.089844 112.707031 101.089844 112.707031 " fill-opacity="1" fill-rule="nonzero"/></g></g><g clip-path="url(#a055a19e68)"><g clip-path="url(#5e9c2458d0)"><path fill="#d2d5d8" d="M 160.105469 62.078125 C 160.105469 62.078125 157.996094 47.734375 162.03125 41.457031 C 166.066406 35.179688 169.371094 50.871094 168.164062 62.078125 C 166.960938 73.285156 160.105469 62.078125 160.105469 62.078125 " fill-opacity="1" fill-rule="nonzero"/></g></g><g clip-path="url(#cbc3010982)"><g clip-path="url(#1fad3dcf90)"><path fill="#d2d5d8" d="M 217.523438 63.632812 C 217.523438 63.632812 215.410156 49.289062 219.445312 43.011719 C 223.480469 36.734375 226.785156 52.429688 225.582031 63.632812 C 224.378906 74.84375 217.523438 63.632812 217.523438 63.632812 " fill-opacity="1" fill-rule="nonzero"/></g></g><g clip-path="url(#fbf21df726)"><g clip-path="url(#6f01e7b935)"><path fill="#d2d5d8" d="M 274.480469 118 C 274.480469 118 277.03125 103.726562 282.851562 99.054688 C 288.671875 94.386719 286.824219 110.316406 282.121094 120.558594 C 277.421875 130.808594 274.480469 118 274.480469 118 " fill-opacity="1" fill-rule="nonzero"/></g></g><g clip-path="url(#d1d78eaf02)"><g clip-path="url(#57f00a53a1)"><path fill="#725f63" d="M 275.539062 194.636719 C 275.539062 231.449219 235.511719 261.292969 186.125 261.292969 C 136.746094 261.292969 96.710938 231.449219 96.710938 194.636719 C 96.710938 157.816406 136.746094 127.976562 186.125 127.976562 C 235.511719 127.976562 275.539062 157.816406 275.539062 194.636719 " fill-opacity="1" fill-rule="nonzero"/></g></g><g clip-path="url(#25d7bc2a78)"><g clip-path="url(#e5c41bfd08)"><path fill="#725f63" d="M 267.398438 373.5625 L 101.015625 373.5625 L 126.507812 188.277344 L 241.910156 188.277344 L 267.398438 373.5625 " fill-opacity="1" fill-rule="nonzero"/></g></g><g clip-path="url(#030c8085d2)"><g clip-path="url(#9ad9ff678f)"><path fill="#725f63" d="M 294.929688 135.328125 C 290.714844 122.542969 279.957031 109.125 265.007812 104.523438 C 264.972656 103.957031 265.042969 103.402344 264.980469 102.835938 C 264.542969 98.429688 263.554688 94.132812 262.089844 90.195312 C 255.945312 73.292969 239.296875 55.097656 217.316406 55.097656 C 214.332031 55.097656 211.347656 55.441406 208.453125 56.101562 C 202.550781 57.464844 197.195312 60.226562 192.457031 63.855469 C 187.441406 59.871094 181.535156 56.902344 174.535156 55.738281 C 172.242188 55.359375 169.96875 55.175781 167.703125 55.175781 C 150.367188 55.175781 133.894531 66.007812 125.703125 82.816406 C 122.929688 88.53125 120.847656 95.457031 120.0625 102.820312 C 99.929688 103.300781 85.324219 119.855469 80.246094 135.285156 C 79.007812 139.027344 78.25 142.921875 78.003906 146.78125 C 77.296875 157 80.011719 167.082031 85.648438 175.15625 C 91.066406 182.96875 98.996094 188.402344 107.871094 191.039062 C 107.324219 194.386719 107.027344 197.777344 107.027344 201.234375 C 107.027344 233.140625 132.996094 259.089844 164.898438 259.089844 C 172.757812 259.089844 180.46875 257.476562 187.566406 254.445312 C 194.664062 257.476562 202.378906 259.089844 210.234375 259.089844 C 242.136719 259.089844 268.109375 233.140625 268.109375 201.234375 C 268.109375 197.78125 267.804688 194.390625 267.261719 191.042969 C 276.148438 188.410156 284.082031 182.976562 289.503906 175.175781 C 295.140625 167.082031 297.855469 157 297.164062 146.859375 C 296.902344 142.921875 296.144531 139.027344 294.929688 135.328125 " fill-opacity="1" fill-rule="nonzero"/></g></g><g clip-path="url(#e0a76b12d3)"><g clip-path="url(#2f9c87e87c)"><path fill="#665155" d="M 209.117188 232.566406 C 201.199219 232.566406 193.609375 229.789062 187.570312 224.714844 C 181.523438 229.789062 173.941406 232.566406 166.019531 232.566406 C 147.527344 232.566406 132.488281 217.53125 132.488281 199.054688 C 132.488281 191.980469 132.488281 173.191406 169.394531 149.355469 C 174.828125 145.835938 181.105469 143.984375 187.570312 143.984375 C 194.046875 143.984375 200.339844 145.84375 205.777344 149.359375 C 242.648438 173.207031 242.648438 191.980469 242.648438 199.054688 C 242.648438 217.53125 227.613281 232.566406 209.117188 232.566406 " fill-opacity="1" fill-rule="nonzero"/></g></g><g clip-path="url(#aca3c95621)"><g clip-path="url(#f631eca836)"><path fill="#665155" d="M 218.097656 133.855469 C 214.199219 133.855469 210.457031 132.730469 207.253906 130.605469 C 197.972656 124.449219 195.269531 112.371094 195.792969 103.90625 C 196.34375 94.78125 202.183594 84.34375 212.253906 82.03125 C 213.429688 81.761719 214.640625 81.621094 215.847656 81.621094 C 225.847656 81.621094 234.828125 91.527344 238.21875 100.851562 C 239.007812 102.949219 239.542969 105.257812 239.796875 107.691406 C 240.382812 113.613281 239.054688 119.414062 236.070312 124.027344 C 232.125 130.085938 225.246094 133.855469 218.097656 133.855469 " fill-opacity="1" fill-rule="nonzero"/></g></g><g clip-path="url(#5b91f4af97)"><g clip-path="url(#c12893b039)"><path fill="#665155" d="M 252.28125 169.660156 C 248.894531 169.660156 245.632812 168.625 242.867188 166.679688 C 235.433594 161.410156 233.535156 151.535156 234.15625 144.675781 C 234.859375 137.226562 239.929688 128.820312 248.300781 127.15625 C 249.144531 126.984375 250 126.898438 250.921875 126.898438 C 259.332031 126.898438 266.628906 135.265625 269.214844 143.125 C 269.820312 144.929688 270.1875 146.820312 270.308594 148.746094 C 270.644531 153.605469 269.398438 158.3125 266.832031 162.015625 C 263.558594 166.730469 257.984375 169.660156 252.28125 169.660156 " fill-opacity="1" fill-rule="nonzero"/></g></g><g clip-path="url(#1473f36edb)"><g clip-path="url(#146eb743be)"><path fill="#665155" d="M 122.871094 169.660156 C 117.167969 169.660156 111.59375 166.722656 108.320312 162.007812 C 105.753906 158.3125 104.511719 153.605469 104.851562 148.742188 C 104.964844 146.820312 105.332031 144.929688 105.941406 143.117188 C 108.523438 135.257812 115.820312 126.898438 124.234375 126.898438 C 125.15625 126.898438 126.007812 126.984375 126.867188 127.15625 C 135.222656 128.820312 140.292969 137.226562 140.996094 144.667969 C 141.621094 151.535156 139.722656 161.410156 132.285156 166.679688 C 129.519531 168.625 126.265625 169.660156 122.871094 169.660156 " fill-opacity="1" fill-rule="nonzero"/></g></g><g clip-path="url(#0e16f84262)"><g clip-path="url(#67434929fc)"><path fill="#665155" d="M 165.332031 133.644531 C 158.46875 133.644531 152.175781 130.390625 148.5 124.925781 C 142.253906 115.730469 144.386719 103.523438 148.097656 95.867188 C 151.535156 88.8125 159.242188 81.695312 168.6875 81.695312 C 169.679688 81.695312 170.652344 81.769531 171.644531 81.9375 C 183.992188 83.996094 188.910156 99.148438 188.457031 109.261719 C 188.375 111.582031 187.988281 113.914062 187.296875 116.175781 C 185.585938 121.878906 182.144531 126.738281 177.613281 129.851562 C 174.007812 132.332031 169.765625 133.644531 165.332031 133.644531 " fill-opacity="1" fill-rule="nonzero"/></g></g><g clip-path="url(#53805af702)"><g clip-path="url(#7f98d00a4c)"><path fill="#febfcb" d="M 187.578125 148.277344 C 193.097656 148.277344 198.621094 149.835938 203.433594 152.972656 C 238.34375 175.539062 238.34375 192.625 238.34375 199.054688 C 238.34375 215.191406 225.253906 228.273438 209.125 228.273438 C 200.582031 228.273438 192.910156 224.601562 187.578125 218.773438 C 182.222656 224.601562 174.554688 228.273438 166.007812 228.273438 C 149.886719 228.273438 136.792969 215.191406 136.792969 199.054688 C 136.792969 192.617188 136.792969 175.53125 171.71875 152.957031 C 176.550781 149.835938 182.054688 148.277344 187.578125 148.277344 " fill-opacity="1" fill-rule="nonzero"/></g></g><g clip-path="url(#5692c08f12)"><g clip-path="url(#15ba7bc4cb)"><path fill="#febfcb" d="M 235.515625 108.125 C 235.984375 112.859375 235.035156 117.71875 232.453125 121.6875 C 227.578125 129.195312 217.25 132.074219 209.628906 127.027344 C 202.449219 122.265625 199.582031 112.363281 200.078125 104.15625 C 200.542969 96.546875 205.308594 88.039062 213.207031 86.214844 C 222.78125 84.007812 231.296875 94.390625 234.191406 102.324219 C 234.871094 104.183594 235.316406 106.148438 235.515625 108.125 " fill-opacity="1" fill-rule="nonzero"/></g></g><g clip-path="url(#b3600fa36b)"><g clip-path="url(#5c7c8537df)"><path fill="#febfcb" d="M 266.03125 149.035156 C 266.285156 152.742188 265.425781 156.515625 263.3125 159.554688 C 259.316406 165.300781 251.179688 167.300781 245.347656 163.171875 C 239.851562 159.277344 237.855469 151.472656 238.441406 145.074219 C 238.984375 139.136719 242.921875 132.605469 249.132812 131.371094 C 256.671875 129.878906 263.074219 138.195312 265.136719 144.464844 C 265.625 145.941406 265.925781 147.480469 266.03125 149.035156 " fill-opacity="1" fill-rule="nonzero"/></g></g><g clip-path="url(#c215233671)"><g clip-path="url(#5cb1463e29)"><path fill="#febfcb" d="M 109.121094 149.035156 C 108.867188 152.742188 109.730469 156.515625 111.839844 159.554688 C 115.835938 165.300781 123.972656 167.300781 129.804688 163.171875 C 135.300781 159.277344 137.300781 151.472656 136.710938 145.074219 C 136.167969 139.136719 132.234375 132.605469 126.019531 131.371094 C 118.484375 129.878906 112.078125 138.195312 110.015625 144.464844 C 109.527344 145.941406 109.230469 147.480469 109.121094 149.035156 " fill-opacity="1" fill-rule="nonzero"/></g></g><g clip-path="url(#81bc049925)"><g clip-path="url(#01c652546e)"><path fill="#febfcb" d="M 183.1875 114.941406 C 181.820312 119.496094 179.085938 123.625 175.183594 126.3125 C 167.8125 131.378906 157.164062 130.101562 152.054688 122.527344 C 147.230469 115.382812 148.363281 105.132812 151.957031 97.738281 C 155.292969 90.882812 162.945312 84.839844 170.941406 86.171875 C 180.632812 87.785156 184.542969 100.632812 184.183594 109.074219 C 184.097656 111.054688 183.761719 113.035156 183.1875 114.941406 " fill-opacity="1" fill-rule="nonzero"/></g></g><g clip-path="url(#758a5f6968)"><g clip-path="url(#64b727b952)"><g clip-path="url(#7282c69c29)"><path fill="#fed8df" d="M 151.101562 186.878906 L 192.925781 186.878906 L 192.925781 158.113281 L 151.101562 158.113281 Z M 151.101562 186.878906 " fill-opacity="1" fill-rule="nonzero"/></g></g></g><g clip-path="url(#18272f7297)"><g clip-path="url(#9ad2207f8c)"><path fill="#fed8df" d="M 118.496094 144.710938 C 117.25 144.710938 116.136719 144.25 115.46875 143.332031 C 114.15625 141.53125 115.042969 138.652344 117.441406 136.902344 C 118.625 136.050781 119.949219 135.625 121.140625 135.625 C 122.386719 135.625 123.5 136.085938 124.167969 137.003906 C 125.480469 138.804688 124.59375 141.683594 122.195312 143.429688 C 121.011719 144.289062 119.6875 144.710938 118.496094 144.710938 " fill-opacity="1" fill-rule="nonzero"/></g></g><g clip-path="url(#e1f1306819)"><g clip-path="url(#507383b8e6)"><path fill="#fed8df" d="M 246.933594 142.921875 C 245.683594 142.921875 244.578125 142.457031 243.910156 141.539062 C 242.597656 139.734375 243.480469 136.859375 245.882812 135.109375 C 247.066406 134.257812 248.382812 133.828125 249.582031 133.828125 C 250.828125 133.828125 251.941406 134.289062 252.609375 135.210938 C 253.917969 137.011719 253.035156 139.890625 250.628906 141.636719 C 249.453125 142.496094 248.128906 142.921875 246.933594 142.921875 " fill-opacity="1" fill-rule="nonzero"/></g></g><g clip-path="url(#e3abc23e6c)"><g clip-path="url(#51c76c9a09)"><path fill="#fed8df" d="M 159.046875 100.59375 C 157.851562 100.59375 156.847656 100.203125 156.261719 99.398438 C 154.953125 97.59375 156.265625 94.40625 159.199219 92.273438 C 160.824219 91.09375 162.609375 90.484375 164.09375 90.484375 C 165.289062 90.484375 166.292969 90.875 166.878906 91.679688 C 168.191406 93.480469 166.875 96.667969 163.945312 98.800781 C 162.320312 99.980469 160.535156 100.59375 159.046875 100.59375 " fill-opacity="1" fill-rule="nonzero"/></g></g><g clip-path="url(#bb16fc9d7e)"><g clip-path="url(#0cba8758fa)"><path fill="#fed8df" d="M 208.585938 99.472656 C 207.386719 99.472656 206.382812 99.082031 205.800781 98.277344 C 204.492188 96.476562 205.804688 93.285156 208.738281 91.152344 C 210.363281 89.972656 212.144531 89.363281 213.636719 89.363281 C 214.828125 89.363281 215.835938 89.753906 216.417969 90.558594 C 217.726562 92.359375 216.410156 95.550781 213.484375 97.679688 C 211.855469 98.859375 210.074219 99.472656 208.585938 99.472656 " fill-opacity="1" fill-rule="nonzero"/></g></g><g clip-path="url(#d25a425193)"><g clip-path="url(#f3dc211610)"><path fill="#fed8df" d="M 146.875 201.300781 C 145.394531 201.300781 143.988281 200.789062 142.945312 199.746094 C 140.578125 197.382812 140.953125 193.179688 143.777344 190.355469 C 145.351562 188.777344 147.355469 187.964844 149.230469 187.964844 C 150.71875 187.964844 152.117188 188.480469 153.164062 189.523438 C 155.527344 191.886719 155.15625 196.089844 152.332031 198.914062 C 150.761719 200.484375 148.75 201.300781 146.875 201.300781 " fill-opacity="1" fill-rule="nonzero"/></g></g><g clip-path="url(#185f6919f3)"><g clip-path="url(#2f0fb3100e)"><path fill="#665155" d="M 217.832031 260.363281 C 217.832031 264.171875 202.386719 267.257812 183.332031 267.257812 C 164.28125 267.257812 148.835938 264.171875 148.835938 260.363281 C 148.835938 256.558594 164.28125 253.476562 183.332031 253.476562 C 202.386719 253.476562 217.832031 256.558594 217.832031 260.363281 " fill-opacity="1" fill-rule="nonzero"/></g></g></svg>