<svg xmlns="http://www.w3.org/2000/svg" xmlns:xlink="http://www.w3.org/1999/xlink" width="500" zoomAndPan="magnify" viewBox="0 0 375 374.999991" height="500" preserveAspectRatio="xMidYMid meet" version="1.0"><path fill="#e5854b" d="M 187.5 375 C 83.945312 375 0 291.054688 0 187.5 C 0 83.945312 83.945312 0 187.5 0 C 291.054688 0 375 83.945312 375 187.5 C 375 291.054688 291.054688 375 187.5 375 Z M 187.5 375 " fill-opacity="1" fill-rule="nonzero"/><path fill="#ffffff" d="M 213.390625 88.855469 L 199.394531 287.550781 C 182.605469 266.5625 132.230469 280.550781 91.648438 280.550781 C 51.0625 280.550781 41.273438 252.566406 38.472656 232.980469 C 35.671875 213.390625 51.0625 204.996094 63.65625 202.195312 C 76.246094 199.394531 77.652344 193.800781 80.445312 165.816406 C 83.238281 137.832031 91.640625 112.640625 133.621094 91.65625 C 175.597656 70.667969 213.390625 88.855469 213.390625 88.855469 Z M 214.085938 60.164062 L 214.085938 113.339844 L 288.246094 113.339844 L 288.246094 60.164062 Z M 275.789062 188.894531 L 264.320312 188.894531 C 262.851562 188.894531 261.660156 187.703125 261.660156 186.238281 L 261.660156 174.765625 C 261.660156 173.300781 260.46875 172.109375 259 172.109375 L 239.136719 172.109375 C 237.671875 172.109375 236.476562 173.300781 236.476562 174.765625 L 236.476562 186.238281 C 236.476562 187.703125 235.285156 188.894531 233.816406 188.894531 L 222.347656 188.894531 C 220.882812 188.894531 219.6875 190.089844 219.6875 191.554688 L 219.6875 211.421875 C 219.6875 212.886719 220.882812 214.078125 222.347656 214.078125 L 233.816406 214.078125 C 235.285156 214.078125 236.476562 215.273438 236.476562 216.738281 L 236.476562 228.207031 C 236.476562 229.675781 237.671875 230.867188 239.136719 230.867188 L 259 230.867188 C 260.46875 230.867188 261.660156 229.675781 261.660156 228.207031 L 261.660156 216.738281 C 261.660156 215.273438 262.851562 214.078125 264.320312 214.078125 L 275.789062 214.078125 C 277.257812 214.078125 278.449219 212.886719 278.449219 211.421875 L 278.449219 191.554688 C 278.449219 190.089844 277.257812 188.894531 275.789062 188.894531 Z M 275.789062 188.894531 " fill-opacity="1" fill-rule="nonzero"/><path fill="#fdf5d8" d="M 288.246094 62.613281 L 288.246094 113.339844 L 214.085938 113.339844 L 214.085938 108.59375 L 270.644531 108.59375 C 275.726562 108.59375 279.855469 104.472656 279.855469 99.382812 L 279.855469 62.613281 Z M 198.695312 237.875 C 195.894531 271.460938 138.53125 257.464844 114.742188 263.058594 C 97.546875 267.105469 68.644531 267.488281 53.960938 267.394531 C 61.921875 275.128906 73.808594 280.542969 91.65625 280.542969 C 132.230469 280.542969 182.605469 266.546875 199.402344 287.542969 L 203.191406 233.707031 C 200.976562 229.933594 199.316406 230.40625 198.695312 237.875 Z M 236.476562 212.496094 C 236.476562 211.058594 235.308594 209.890625 233.871094 209.890625 L 219.6875 209.890625 L 219.6875 211.429688 C 219.6875 212.894531 220.882812 214.085938 222.347656 214.085938 L 233.816406 214.085938 C 235.285156 214.085938 236.476562 215.28125 236.476562 216.746094 Z M 259 172.109375 L 257.464844 172.109375 L 257.464844 186.222656 C 257.464844 187.65625 258.632812 188.824219 260.066406 188.824219 L 263.730469 188.824219 C 262.546875 188.558594 261.660156 187.5 261.660156 186.238281 L 261.660156 174.765625 C 261.660156 173.300781 260.46875 172.109375 259 172.109375 Z M 275.789062 188.894531 L 270.832031 188.894531 C 271.992188 189.164062 272.855469 190.191406 272.855469 191.429688 L 272.855469 207.277344 C 272.855469 208.714844 271.6875 209.882812 270.25 209.882812 L 260.066406 209.882812 C 258.632812 209.882812 257.464844 211.050781 257.464844 212.488281 L 257.464844 224.066406 C 257.464844 225.503906 256.292969 226.671875 254.859375 226.671875 L 236.476562 226.671875 L 236.476562 228.207031 C 236.476562 229.675781 237.671875 230.867188 239.136719 230.867188 L 259 230.867188 C 260.46875 230.867188 261.660156 229.675781 261.660156 228.207031 L 261.660156 216.738281 C 261.660156 215.273438 262.851562 214.078125 264.320312 214.078125 L 275.789062 214.078125 C 277.257812 214.078125 278.449219 212.886719 278.449219 211.421875 L 278.449219 191.554688 C 278.449219 190.089844 277.257812 188.894531 275.789062 188.894531 Z M 275.789062 188.894531 " fill-opacity="1" fill-rule="nonzero"/><path fill="#ffffff" d="M 291.238281 121.035156 C 289.195312 121.035156 287.550781 119.386719 287.550781 117.347656 L 287.550781 113.339844 L 214.085938 113.339844 L 214.085938 62.441406 C 213.648438 63.050781 213.390625 63.796875 213.390625 64.605469 L 213.390625 117.347656 C 213.390625 119.386719 211.742188 121.035156 209.703125 121.035156 L 208.304688 121.035156 C 203.386719 121.035156 199.402344 125.019531 199.402344 129.941406 L 199.402344 288.4375 C 199.402344 293.355469 203.386719 297.339844 208.304688 297.339844 L 291.238281 297.339844 C 296.15625 297.339844 300.140625 293.355469 300.140625 288.4375 L 300.140625 129.941406 C 300.140625 125.019531 296.15625 121.035156 291.238281 121.035156 Z M 278.449219 211.429688 C 278.449219 212.894531 277.257812 214.085938 275.789062 214.085938 L 264.320312 214.085938 C 262.851562 214.085938 261.660156 215.28125 261.660156 216.746094 L 261.660156 228.214844 C 261.660156 229.683594 260.46875 230.875 259 230.875 L 239.136719 230.875 C 237.671875 230.875 236.476562 229.683594 236.476562 228.214844 L 236.476562 216.746094 C 236.476562 215.28125 235.285156 214.085938 233.816406 214.085938 L 222.347656 214.085938 C 220.882812 214.085938 219.6875 212.894531 219.6875 211.429688 L 219.6875 191.5625 C 219.6875 190.097656 220.882812 188.902344 222.347656 188.902344 L 233.816406 188.902344 C 235.285156 188.902344 236.476562 187.710938 236.476562 186.246094 L 236.476562 174.773438 C 236.476562 173.308594 237.667969 172.117188 239.136719 172.117188 L 259 172.117188 C 260.46875 172.117188 261.660156 173.308594 261.660156 174.773438 L 261.660156 186.246094 C 261.660156 187.710938 262.851562 188.902344 264.320312 188.902344 L 275.789062 188.902344 C 277.257812 188.902344 278.449219 190.097656 278.449219 191.5625 Z M 278.449219 211.429688 " fill-opacity="1" fill-rule="nonzero"/><path fill="#995d1f" d="M 101.445312 191 C 101.445312 194.867188 98.316406 197.996094 94.449219 197.996094 C 90.582031 197.996094 87.449219 194.867188 87.449219 191 C 87.449219 187.132812 90.582031 184 94.449219 184 C 98.316406 184 101.445312 187.132812 101.445312 191 Z M 302.941406 129.941406 L 302.941406 288.4375 C 302.941406 294.894531 297.695312 300.140625 291.238281 300.140625 L 208.296875 300.140625 C 201.894531 300.140625 196.6875 294.980469 196.601562 288.601562 C 185.25 275.703125 157.804688 278.261719 128.769531 280.992188 C 116.390625 282.152344 103.597656 283.351562 91.648438 283.351562 C 59.71875 283.351562 40.378906 266.070312 35.703125 233.378906 C 33.289062 216.488281 43.515625 203.808594 63.050781 199.464844 C 73.453125 197.148438 74.820312 193.980469 77.667969 165.535156 C 80.765625 134.554688 91.253906 109.707031 132.371094 89.144531 C 167.628906 71.515625 199.589844 80.539062 210.582031 84.664062 L 210.582031 64.605469 C 210.582031 61.003906 213.515625 58.070312 217.117188 58.070312 L 283.800781 58.070312 C 287.402344 58.070312 290.335938 61.003906 290.335938 64.605469 L 290.335938 117.347656 C 290.335938 117.835938 290.734375 118.234375 291.222656 118.234375 C 297.6875 118.234375 302.941406 123.492188 302.941406 129.941406 Z M 196.59375 207.558594 C 140.53125 196.492188 137.683594 120.605469 138.59375 92.394531 C 137.363281 92.941406 136.113281 93.53125 134.875 94.148438 C 95.914062 113.628906 86.234375 136.113281 83.238281 166.082031 C 80.492188 193.5625 79.039062 201.636719 64.269531 204.917969 C 61.773438 205.472656 58.265625 206.46875 54.726562 208.210938 C 55.417969 214.730469 54.5625 226.453125 41.179688 231.980469 C 41.203125 232.179688 41.21875 232.375 41.242188 232.570312 C 45.527344 262.546875 62.480469 277.742188 91.640625 277.742188 C 103.320312 277.742188 115.992188 276.550781 128.238281 275.40625 C 155.820312 272.816406 182.039062 270.367188 196.578125 281.046875 L 196.578125 207.558594 Z M 216.183594 114.039062 L 284.75 114.039062 L 284.75 64.605469 C 284.75 64.085938 284.324219 63.664062 283.808594 63.664062 L 217.125 63.664062 C 216.605469 63.664062 216.183594 64.085938 216.183594 64.605469 Z M 297.339844 253.265625 L 202.195312 253.265625 L 202.195312 288.4375 C 202.195312 291.800781 204.933594 294.539062 208.296875 294.539062 L 291.238281 294.539062 C 294.601562 294.539062 297.339844 291.800781 297.339844 288.4375 Z M 261.660156 186.238281 L 261.660156 174.765625 C 261.660156 173.300781 260.46875 172.109375 259 172.109375 L 239.136719 172.109375 C 237.671875 172.109375 236.476562 173.300781 236.476562 174.765625 L 236.476562 186.238281 C 236.476562 187.703125 235.285156 188.894531 233.816406 188.894531 L 222.347656 188.894531 C 220.882812 188.894531 219.6875 190.089844 219.6875 191.554688 L 219.6875 211.421875 C 219.6875 212.886719 220.882812 214.078125 222.347656 214.078125 L 233.816406 214.078125 C 235.285156 214.078125 236.476562 215.273438 236.476562 216.738281 L 236.476562 228.207031 C 236.476562 229.675781 237.671875 230.867188 239.136719 230.867188 L 259 230.867188 C 260.46875 230.867188 261.660156 229.675781 261.660156 228.207031 L 261.660156 216.738281 C 261.660156 215.273438 262.851562 214.078125 264.320312 214.078125 L 275.789062 214.078125 C 277.257812 214.078125 278.449219 212.886719 278.449219 211.421875 L 278.449219 191.554688 C 278.449219 190.089844 277.257812 188.894531 275.789062 188.894531 L 264.320312 188.894531 C 262.851562 188.894531 261.660156 187.710938 261.660156 186.238281 Z M 297.339844 129.941406 C 297.339844 126.574219 294.601562 123.835938 291.238281 123.835938 C 288.46875 123.835938 286.113281 122.085938 285.1875 119.640625 L 215.75 119.640625 C 214.824219 122.085938 212.472656 123.835938 209.703125 123.835938 L 208.304688 123.835938 C 204.941406 123.835938 202.203125 126.574219 202.203125 129.941406 L 202.203125 156.714844 L 297.347656 156.714844 L 297.347656 129.941406 Z M 297.339844 129.941406 " fill-opacity="1" fill-rule="nonzero"/></svg>