<svg xmlns="http://www.w3.org/2000/svg" xmlns:xlink="http://www.w3.org/1999/xlink" width="500" zoomAndPan="magnify" viewBox="0 0 375 374.999991" height="500" preserveAspectRatio="xMidYMid meet" version="1.0"><defs><clipPath id="46a24a38fc"><path d="M 0 0 L 370.5 0 L 370.5 370.5 L 0 370.5 Z M 0 0 " clip-rule="nonzero"/></clipPath><clipPath id="7c872db194"><path d="M 15.625 21.128906 L 356.632812 21.128906 L 356.632812 337.609375 L 15.625 337.609375 Z M 15.625 21.128906 " clip-rule="nonzero"/></clipPath></defs><g clip-path="url(#46a24a38fc)"><path fill="#31aec0" d="M 185.25 0 C 82.9375 0 0 82.9375 0 185.25 C 0 287.5625 82.9375 370.5 185.25 370.5 C 287.5625 370.5 370.5 287.5625 370.5 185.25 C 370.5 82.9375 287.5625 0 185.25 0 " fill-opacity="1" fill-rule="nonzero"/></g><g clip-path="url(#7c872db194)"><path fill="#fffcf7" d="M 207.601562 131.53125 C 204.316406 129.121094 200.367188 127.898438 196.378906 127.910156 C 195.050781 127.910156 193.714844 128.042969 192.390625 128.292969 C 189.109375 128.914062 186.3125 130.191406 184.125 131.886719 C 180.820312 134.433594 179.019531 137.761719 178.089844 140.644531 C 177.15625 143.550781 177.007812 146.097656 177 147.683594 C 177.003906 148.617188 177.0625 149.21875 177.074219 149.363281 L 185.441406 148.472656 L 186.953125 148.34375 C 186.949219 148.308594 186.929688 148.066406 186.929688 147.683594 C 186.914062 146.511719 187.152344 144.101562 188.144531 142.238281 C 188.636719 141.292969 189.273438 140.46875 190.183594 139.761719 C 191.101562 139.0625 192.332031 138.433594 194.257812 138.058594 C 194.992188 137.917969 195.699219 137.851562 196.378906 137.851562 C 198.421875 137.859375 200.175781 138.425781 201.746094 139.5625 C 203.308594 140.707031 204.742188 142.496094 205.78125 145.253906 L 215.078125 141.765625 C 213.46875 137.457031 210.894531 133.933594 207.601562 131.53125 Z M 188.957031 252.011719 C 188.871094 252.09375 184.257812 256.289062 178.277344 262.933594 L 185.65625 269.589844 C 188.488281 266.4375 191.003906 263.863281 192.800781 262.085938 C 193.699219 261.199219 194.421875 260.511719 194.90625 260.046875 C 195.152344 259.816406 195.339844 259.644531 195.460938 259.53125 C 195.523438 259.472656 195.566406 259.433594 195.597656 259.40625 C 195.625 259.378906 195.628906 259.375 195.628906 259.375 L 188.960938 252.011719 Z M 169.1875 273.867188 C 164.734375 279.710938 160.328125 286.324219 156.976562 293.308594 C 153.632812 300.296875 151.28125 307.675781 151.265625 315.148438 C 151.269531 315.878906 151.289062 316.609375 151.339844 317.347656 L 161.246094 316.6875 C 161.210938 316.183594 161.195312 315.671875 161.195312 315.148438 C 161.179688 309.84375 162.96875 303.742188 165.921875 297.617188 C 168.859375 291.492188 172.90625 285.367188 177.078125 279.902344 Z M 281.855469 320.960938 C 276.71875 301.070312 267.226562 282.527344 254.027344 266.71875 C 249.441406 261.234375 245.363281 256.300781 242.796875 252.070312 C 241.296875 249.597656 240.710938 247.230469 240.699219 244.660156 C 240.691406 241.648438 241.609375 238.3125 243.269531 234.863281 C 245.746094 229.695312 249.875 224.410156 254.109375 219.871094 C 258.347656 215.320312 262.644531 211.507812 265.507812 208.960938 C 270.394531 204.605469 275.488281 199.128906 279.421875 194.695312 C 280.316406 193.6875 281.148438 192.738281 281.902344 191.867188 C 284.78125 197.164062 285.9375 204.203125 285.921875 211.351562 C 285.929688 220.125 284.25 228.925781 282.867188 234.5625 C 282.738281 235.089844 282.664062 235.652344 282.664062 236.21875 C 282.652344 238.207031 283.574219 240.039062 284.839844 241.1875 C 286.109375 242.355469 287.726562 243.015625 289.519531 243.023438 C 291.269531 243.054688 293.214844 242.257812 294.503906 240.84375 C 305.300781 229.285156 311.488281 215.710938 315.058594 205.03125 C 318.441406 194.871094 319.449219 187.289062 319.566406 186.355469 C 320.589844 179.269531 321.0625 172.710938 321.0625 166.632812 C 321.066406 150.867188 317.867188 138.339844 312.914062 128.53125 C 305.484375 113.796875 294.234375 105.421875 284.976562 100.855469 C 279.171875 97.992188 274.117188 96.554688 271.054688 95.871094 C 269.058594 91.085938 265.964844 86.953125 262.386719 83.390625 C 258.089844 79.125 253.0625 75.628906 248.015625 72.738281 C 234.394531 64.945312 218.988281 61.105469 203.460938 61.105469 C 200.808594 61.105469 198.148438 61.21875 195.492188 61.441406 C 170.585938 63.527344 151.285156 71.957031 136.714844 83.871094 C 125.78125 92.792969 117.515625 103.613281 111.273438 115.011719 C 101.910156 132.125 97.0625 150.558594 94.5 166.429688 C 91.945312 182.292969 91.695312 195.636719 91.691406 202.5 C 91.691406 204.199219 91.710938 205.503906 91.710938 206.277344 C 91.703125 214.5625 89.320312 221.972656 85.464844 228.855469 C 79.695312 239.167969 70.515625 248.113281 61.804688 255.722656 C 57.449219 259.535156 53.230469 263.015625 49.59375 266.269531 C 48.210938 267.519531 46.90625 268.722656 45.707031 269.917969 C 32.863281 246.796875 25.554688 220.203125 25.550781 191.859375 C 25.546875 103.179688 97.261719 31.25 185.785156 31.070312 L 185.808594 31.070312 C 185.902344 31.070312 186.007812 31.070312 186.132812 31.070312 C 274.277344 31.078125 345.546875 101.441406 346.691406 189.738281 C 346.699219 190.445312 346.703125 191.152344 346.703125 191.859375 C 346.703125 244.746094 321.214844 291.644531 281.855469 320.960938 Z M 231.691406 237.652344 C 228.441406 238.472656 225.082031 238.875 221.636719 238.875 C 213.910156 238.878906 205.769531 236.863281 197.914062 233.1875 C 186.125 227.691406 175.035156 218.460938 167.023438 207.332031 C 158.988281 196.191406 154.058594 183.230469 154.070312 170.242188 C 154.078125 154.554688 157.613281 142.730469 162.648438 133.621094 C 167.6875 124.519531 174.285156 118.085938 180.648438 113.496094 C 190.65625 106.277344 202.230469 102.359375 213.242188 102.363281 C 224.179688 102.386719 234.527344 106.113281 242.976562 114.410156 C 243.453125 114.878906 243.875 115.296875 244.253906 115.675781 C 240.3125 123.132812 237.9375 132.351562 237.710938 143.351562 C 237.710938 143.359375 237.710938 143.363281 237.710938 143.371094 L 237.710938 143.351562 C 237.710938 143.519531 237.707031 143.667969 237.707031 143.800781 C 237.703125 146.816406 238.386719 149.679688 239.539062 152.238281 C 239.597656 152.367188 239.664062 152.492188 239.722656 152.617188 C 239.476562 153.179688 239.214844 153.832031 238.949219 154.558594 C 238.03125 157.097656 237.066406 160.558594 237.058594 164.519531 C 237.058594 166.648438 237.351562 168.933594 238.148438 171.226562 C 238.941406 173.515625 240.265625 175.800781 242.179688 177.796875 C 247.140625 182.964844 253.921875 188.226562 259.554688 192.328125 C 261.4375 193.703125 263.191406 194.933594 264.695312 195.96875 C 262.75 197.953125 260.777344 199.871094 258.914062 201.53125 C 255.085938 204.941406 248.246094 210.964844 242.253906 218.371094 C 239.253906 222.082031 236.445312 226.15625 234.328125 230.546875 C 233.234375 232.824219 232.320312 235.195312 231.691406 237.652344 Z M 247.175781 162.1875 C 247.65625 162.625 248.140625 163.054688 248.636719 163.484375 C 254.253906 168.257812 260.972656 172.347656 267.050781 176.777344 C 270.1875 179.054688 273.128906 181.402344 275.660156 183.882812 C 274.539062 185.203125 273.125 186.835938 271.539062 188.613281 C 269.632812 187.3125 267.105469 185.554688 264.359375 183.535156 C 259.199219 179.746094 253.230469 174.988281 249.347656 170.917969 C 248.4375 169.964844 247.894531 169.007812 247.523438 167.953125 C 247.15625 166.902344 246.988281 165.742188 246.988281 164.519531 C 246.984375 163.753906 247.054688 162.964844 247.175781 162.1875 Z M 247.636719 143.644531 L 247.636719 143.578125 C 247.875 132.496094 250.503906 124.167969 254.410156 117.925781 C 258.027344 112.167969 262.761719 108.117188 268.085938 105.398438 C 271.445312 106.082031 280.523438 108.453125 289.289062 115.164062 C 294.761719 119.34375 300.160156 125.152344 304.246094 133.40625 C 308.328125 141.664062 311.128906 152.421875 311.132812 166.632812 C 311.132812 172.203125 310.699219 178.300781 309.734375 184.972656 L 309.726562 185.039062 L 309.71875 185.101562 C 309.71875 185.101562 309.71875 185.101562 309.710938 185.148438 C 309.632812 185.800781 308.636719 193.175781 305.328125 202.808594 C 303.070312 209.394531 299.726562 217.011719 294.921875 224.285156 C 295.472656 220.253906 295.847656 215.859375 295.851562 211.351562 C 295.835938 202.910156 294.566406 193.96875 290.15625 186.285156 C 286.890625 180.652344 282.316406 176.160156 277.488281 172.25 C 270.230469 166.40625 262.257812 161.726562 256.476562 157.070312 C 253.582031 154.757812 251.269531 152.476562 249.804688 150.296875 C 248.332031 148.09375 247.652344 146.128906 247.636719 143.800781 C 247.636719 143.71875 247.636719 143.652344 247.636719 143.601562 Z M 356.617188 189.613281 C 355.421875 95.898438 279.679688 21.117188 186.132812 21.125 C 186.019531 21.125 185.886719 21.125 185.738281 21.128906 L 185.765625 21.128906 C 91.765625 21.328125 15.625 97.6875 15.625 191.859375 C 15.625 224.546875 24.804688 255.125 40.738281 281.089844 L 44.914062 287.898438 L 49.164062 281.140625 C 49.882812 279.988281 51.257812 278.382812 53.109375 276.574219 C 56.351562 273.382812 61.007812 269.539062 66.117188 265.136719 C 73.792969 258.511719 82.539062 250.59375 89.5 240.9375 C 96.449219 231.308594 101.644531 219.742188 101.636719 206.277344 C 101.636719 205.390625 101.621094 204.144531 101.621094 202.5 C 101.601562 190.816406 102.449219 159.40625 114.808594 130.476562 C 120.976562 116.007812 129.953125 102.214844 142.992188 91.574219 C 156.042969 80.941406 173.179688 73.320312 196.328125 71.351562 C 198.707031 71.148438 201.085938 71.046875 203.460938 71.046875 C 217.359375 71.046875 231.054688 74.484375 243.089844 81.371094 C 247.597656 83.949219 251.941406 87.007812 255.390625 90.445312 C 257.753906 92.796875 259.683594 95.292969 261.058594 97.925781 C 256.996094 100.328125 253.203125 103.445312 249.914062 107.304688 C 239.59375 97.113281 226.453125 92.398438 213.242188 92.421875 C 199.886719 92.429688 186.40625 97.105469 174.847656 105.429688 C 167.558594 110.679688 159.832031 118.195312 153.964844 128.800781 C 148.089844 139.398438 144.128906 153.046875 144.140625 170.242188 C 144.140625 180.585938 146.734375 190.660156 151.121094 199.914062 C 157.71875 213.800781 168.320312 225.90625 180.742188 234.652344 C 193.164062 243.375 207.460938 248.800781 221.636719 248.816406 L 221.644531 248.816406 C 224.78125 248.816406 227.910156 248.546875 230.996094 247.976562 C 231.425781 251.128906 232.503906 254.292969 234.324219 257.253906 C 237.5 262.445312 241.824219 267.589844 246.410156 273.089844 C 260.164062 289.566406 269.582031 309.234375 273.8125 330.289062 L 275.277344 337.609375 L 281.457031 333.429688 C 326.800781 302.765625 356.632812 250.78125 356.632812 191.859375 C 356.632812 191.109375 356.628906 190.363281 356.617188 189.613281 " fill-opacity="1" fill-rule="nonzero"/></g></svg>