<svg xmlns="http://www.w3.org/2000/svg" xmlns:xlink="http://www.w3.org/1999/xlink" width="500" zoomAndPan="magnify" viewBox="0 0 375 374.999991" height="500" preserveAspectRatio="xMidYMid meet" version="1.0"><path fill="#31aec0" d="M 187.5 375 C 83.949219 375 0 291.050781 0 187.5 C 0 83.949219 83.949219 0 187.5 0 C 291.050781 0 375 83.949219 375 187.5 C 375 291.050781 291.050781 375 187.5 375 Z M 187.5 375 " fill-opacity="1" fill-rule="nonzero"/><path fill="#e5854b" d="M 347.511719 235.25 C 347.511719 254.960938 335.386719 265.566406 318.703125 254.960938 C 302.023438 244.355469 279.289062 212.519531 279.289062 212.519531 C 279.289062 212.519531 256.550781 235.257812 233.808594 244.355469 C 233.808594 244.355469 250.484375 261.027344 238.355469 268.613281 C 226.230469 276.191406 206.519531 264.066406 197.425781 254.96875 C 197.425781 254.96875 144.367188 256.488281 106.464844 244.355469 C 68.5625 232.222656 53.40625 217.066406 53.40625 214.035156 C 53.40625 211.007812 59.472656 206.460938 59.472656 206.460938 C 59.472656 206.460938 53.40625 200.390625 53.40625 197.363281 C 53.40625 194.332031 74.628906 150.371094 165.589844 138.238281 C 165.589844 138.238281 173.167969 121.566406 198.945312 121.566406 C 224.722656 121.566406 239.875 138.238281 226.230469 150.371094 C 226.230469 150.371094 256.550781 159.46875 280.808594 180.691406 C 280.808594 180.691406 324.769531 135.210938 341.445312 141.277344 C 358.117188 147.34375 350.539062 188.265625 330.828125 200.398438 C 330.835938 200.386719 347.511719 215.546875 347.511719 235.25 Z M 42.375 144.769531 L 54.59375 137.300781 C 57.117188 135.75 57.792969 132.382812 56.039062 129.988281 C 54.484375 127.863281 51.554688 127.28125 49.308594 128.65625 L 37.089844 136.125 C 34.5625 137.671875 33.890625 141.042969 35.640625 143.4375 C 37.199219 145.566406 40.117188 146.148438 42.375 144.769531 Z M 36.980469 160.523438 C 38.082031 158.128906 37.152344 155.292969 34.859375 153.996094 L 22.375 146.976562 C 19.796875 145.523438 16.519531 146.589844 15.285156 149.289062 C 14.1875 151.679688 15.117188 154.515625 17.410156 155.8125 L 29.890625 162.832031 C 32.472656 164.289062 35.75 163.21875 36.980469 160.523438 Z M 54.523438 166.371094 C 52.964844 164.25 50.035156 163.667969 47.789062 165.039062 L 35.570312 172.507812 C 33.046875 174.058594 32.371094 177.425781 34.121094 179.820312 C 35.679688 181.945312 38.609375 182.527344 40.855469 181.15625 L 53.074219 173.683594 C 55.605469 172.144531 56.273438 168.765625 54.523438 166.371094 Z M 54.523438 166.371094 " fill-opacity="1" fill-rule="nonzero"/><path fill="#ffffff" d="M 350.191406 165.960938 C 345.488281 183.089844 328.425781 193.90625 283.265625 178.21875 C 292.703125 168.859375 327.132812 136.0625 341.453125 141.269531 C 349.207031 144.089844 351.710938 154.453125 350.191406 165.960938 Z M 198.953125 121.558594 C 173.183594 121.558594 165.597656 138.230469 165.597656 138.230469 C 94.035156 147.769531 65.640625 177.015625 56.785156 190.53125 C 95.058594 170.554688 180.914062 136.417969 269.699219 173.058594 C 270.8125 173.515625 271.882812 173.933594 272.96875 174.367188 C 250.492188 157.648438 226.238281 150.355469 226.238281 150.355469 C 239.882812 138.230469 224.722656 121.558594 198.953125 121.558594 Z M 198.953125 121.558594 " fill-opacity="1" fill-rule="nonzero"/><path fill="#e5854b" d="M 330.835938 200.386719 C 330.835938 200.386719 347.511719 215.546875 347.511719 235.25 C 347.511719 254.960938 335.386719 265.566406 318.703125 254.960938 C 302.023438 244.355469 279.289062 212.519531 279.289062 212.519531 C 279.289062 212.519531 256.550781 235.257812 233.808594 244.355469 C 233.808594 244.355469 250.484375 261.027344 238.355469 268.613281 C 226.230469 276.191406 206.519531 264.066406 197.425781 254.96875 C 197.425781 254.96875 144.367188 256.488281 106.464844 244.355469 C 86.476562 237.953125 72.816406 230.71875 64.363281 224.859375 L 64.578125 224.835938 C 64.578125 224.835938 187.570312 276.957031 286.109375 189.027344 C 320.804688 158.066406 339.707031 157.367188 349.578125 169.523438 C 347.144531 181.734375 340.4375 194.480469 330.835938 200.386719 Z M 330.835938 200.386719 " fill-opacity="1" fill-rule="nonzero"/><path fill="#995d1f" d="M 353.445312 155.65625 C 352.539062 146.777344 348.648438 140.65625 342.480469 138.417969 C 326.054688 132.433594 290.253906 166.851562 280.628906 176.535156 C 261.910156 160.902344 240.636719 152.207031 231.554688 148.945312 C 234.492188 144.730469 235.1875 139.957031 233.4375 135.347656 C 229.609375 125.285156 215.757812 118.527344 198.953125 118.527344 C 175.972656 118.527344 166.378906 130.972656 163.683594 135.433594 C 74.355469 147.800781 50.386719 191.824219 50.386719 197.355469 C 50.386719 200.136719 52.894531 203.648438 55.078125 206.171875 C 52.839844 208.242188 50.386719 211.171875 50.386719 214.027344 C 50.386719 218.683594 59.945312 225.558594 64.050781 228.300781 C 71.496094 233.257812 84.738281 240.574219 105.550781 247.238281 C 140.671875 258.472656 187.679688 258.167969 196.222656 258.023438 C 204.074219 265.492188 217.578125 274.019531 229.453125 274.011719 C 233.199219 274.011719 236.777344 273.167969 239.96875 271.175781 C 243.339844 269.070312 245.332031 266.070312 245.734375 262.507812 C 246.453125 256.15625 242.023438 249.398438 238.859375 245.476562 C 256.292969 237.414062 272.71875 222.890625 278.894531 217.113281 C 284.945312 225.253906 302.882812 248.492188 317.085938 257.527344 C 325.132812 262.648438 333.007812 263.578125 339.257812 260.152344 C 346.433594 256.214844 350.554688 247.144531 350.554688 235.265625 C 350.554688 219.1875 340.445312 206.195312 335.507812 200.820312 C 348.089844 190.746094 354.925781 170.144531 353.445312 155.65625 Z M 56.527344 213.84375 C 57 212.75 59.171875 210.480469 61.300781 208.867188 C 62.007812 208.34375 62.441406 207.535156 62.503906 206.660156 C 62.566406 205.785156 62.246094 204.925781 61.628906 204.304688 C 59.15625 201.832031 56.785156 198.65625 56.484375 197.488281 C 57.179688 195.253906 62.695312 184.5 78.539062 172.625 C 93.152344 161.675781 120.1875 147.34375 166.007812 141.230469 C 166.417969 141.175781 166.804688 141.011719 167.152344 140.804688 C 175.707031 141.609375 197.796875 144.359375 224.558594 152.859375 C 224.804688 153.03125 225.078125 153.167969 225.371094 153.261719 C 225.667969 153.355469 255.371094 162.441406 278.824219 182.960938 C 279.203125 183.292969 279.652344 183.503906 280.117188 183.609375 C 283.636719 188.707031 287.835938 198.53125 279.148438 209.496094 C 278.414062 209.535156 277.703125 209.835938 277.167969 210.363281 C 276.941406 210.589844 254.589844 232.769531 232.710938 241.527344 C 232.53125 241.597656 232.375 241.695312 232.222656 241.796875 C 223.816406 244.996094 209.203125 250.058594 196.503906 251.941406 C 189.601562 252.0625 141.808594 252.457031 107.417969 241.449219 C 73.589844 230.640625 58.480469 217.328125 56.527344 213.84375 Z M 119.644531 163.890625 C 119.867188 164.242188 141.625 199.253906 119.675781 235.3125 C 119.101562 236.25 118.101562 236.769531 117.078125 236.769531 C 116.542969 236.769531 116.003906 236.628906 115.507812 236.328125 C 114.074219 235.460938 113.625 233.59375 114.492188 232.160156 C 134.441406 199.378906 115.34375 168.441406 114.523438 167.136719 C 113.632812 165.726562 114.050781 163.851562 115.460938 162.953125 C 116.878906 162.0625 118.746094 162.480469 119.644531 163.890625 Z M 191.078125 193.730469 C 191.917969 206.023438 187.988281 217.320312 181.0625 222.519531 C 178.078125 224.761719 174.570312 225.636719 170.878906 225.636719 C 157.515625 225.636719 141.871094 214.042969 141.035156 213.425781 C 139.695312 212.417969 139.425781 210.519531 140.429688 209.179688 C 141.4375 207.839844 143.335938 207.566406 144.675781 208.566406 C 150.921875 213.246094 168.988281 223.992188 177.417969 217.664062 C 182.578125 213.789062 185.710938 204.121094 185.027344 194.140625 C 184.425781 185.339844 181.148438 178.464844 176.25 175.746094 C 166.695312 170.4375 150.449219 183.433594 145.003906 188.886719 C 143.816406 190.070312 141.894531 190.070312 140.71875 188.886719 C 139.53125 187.703125 139.53125 185.789062 140.71875 184.601562 C 141.648438 183.664062 163.738281 161.855469 179.203125 170.453125 C 185.894531 174.171875 190.34375 182.875 191.078125 193.730469 Z M 90.558594 195.078125 C 90.558594 199.261719 87.164062 202.65625 82.980469 202.65625 C 78.796875 202.65625 75.402344 199.261719 75.402344 195.078125 C 75.402344 190.894531 78.796875 187.5 82.980469 187.5 C 87.164062 187.5 90.558594 190.894531 90.558594 195.078125 Z M 34.882812 166.117188 C 37.027344 165.417969 38.800781 163.835938 39.738281 161.785156 C 41.476562 157.988281 39.988281 153.402344 36.34375 151.355469 L 23.863281 144.335938 C 21.894531 143.226562 19.53125 142.996094 17.386719 143.691406 C 15.238281 144.390625 13.464844 145.972656 12.527344 148.023438 C 10.792969 151.820312 12.28125 156.40625 15.921875 158.453125 L 28.402344 165.472656 C 29.628906 166.164062 31 166.511719 32.378906 166.511719 C 33.222656 166.519531 34.066406 166.386719 34.882812 166.117188 Z M 31.371094 160.1875 L 18.890625 153.167969 C 17.976562 152.65625 17.601562 151.503906 18.039062 150.550781 C 18.363281 149.84375 18.945312 149.566406 19.261719 149.457031 C 19.410156 149.410156 19.632812 149.355469 19.898438 149.355469 C 20.191406 149.355469 20.53125 149.417969 20.886719 149.621094 L 33.371094 156.640625 C 34.285156 157.152344 34.65625 158.304688 34.222656 159.257812 C 33.898438 159.964844 33.316406 160.242188 33.007812 160.34375 C 32.6875 160.453125 32.054688 160.566406 31.371094 160.1875 Z M 58.378906 170.933594 C 58.824219 168.71875 58.304688 166.402344 56.96875 164.582031 C 54.5 161.210938 49.773438 160.28125 46.207031 162.457031 L 33.988281 169.925781 C 32.0625 171.105469 30.703125 173.050781 30.269531 175.265625 C 29.828125 177.480469 30.347656 179.796875 31.679688 181.621094 C 33.253906 183.757812 35.734375 184.917969 38.242188 184.917969 C 39.683594 184.917969 41.140625 184.539062 42.433594 183.742188 L 54.652344 176.273438 C 56.582031 175.09375 57.9375 173.152344 58.378906 170.933594 Z M 52.429688 169.757812 C 52.367188 170.082031 52.160156 170.695312 51.492188 171.097656 L 39.273438 178.566406 C 38.375 179.117188 37.191406 178.875 36.570312 178.03125 C 36.113281 177.40625 36.152344 176.761719 36.214844 176.4375 C 36.277344 176.109375 36.484375 175.5 37.152344 175.09375 L 49.371094 167.625 C 49.695312 167.425781 50.058594 167.332031 50.421875 167.332031 C 51.058594 167.332031 51.679688 167.625 52.074219 168.160156 C 52.53125 168.789062 52.492188 169.433594 52.429688 169.757812 Z M 39.753906 148.535156 C 41.195312 148.535156 42.652344 148.15625 43.945312 147.359375 L 56.164062 139.890625 C 58.09375 138.710938 59.449219 136.765625 59.882812 134.550781 C 60.324219 132.335938 59.804688 130.019531 58.472656 128.199219 C 56.011719 124.828125 51.285156 123.890625 47.710938 126.066406 L 35.492188 133.535156 C 33.5625 134.714844 32.207031 136.65625 31.773438 138.875 C 31.339844 141.089844 31.851562 143.40625 33.183594 145.226562 C 34.765625 147.375 37.246094 148.535156 39.753906 148.535156 Z M 37.734375 140.058594 C 37.792969 139.734375 38.003906 139.121094 38.671875 138.71875 L 50.886719 131.25 C 51.214844 131.046875 51.578125 130.957031 51.941406 130.957031 C 52.578125 130.957031 53.199219 131.25 53.59375 131.785156 C 54.050781 132.414062 54.011719 133.054688 53.949219 133.378906 C 53.886719 133.707031 53.675781 134.316406 53.011719 134.722656 L 40.792969 142.191406 C 39.894531 142.738281 38.707031 142.5 38.089844 141.65625 C 37.625 141.027344 37.664062 140.386719 37.734375 140.058594 Z M 37.734375 140.058594 " fill-opacity="1" fill-rule="nonzero"/></svg>