<svg xmlns="http://www.w3.org/2000/svg" xmlns:xlink="http://www.w3.org/1999/xlink" width="500" zoomAndPan="magnify" viewBox="0 0 375 374.999991" height="500" preserveAspectRatio="xMidYMid meet" version="1.0"><defs><clipPath id="bbe1bd8f42"><path d="M 37.5 238 L 108 238 L 108 255 L 37.5 255 Z M 37.5 238 " clip-rule="nonzero"/></clipPath><clipPath id="e3f26946c6"><path d="M 267 238 L 337.5 238 L 337.5 255 L 267 255 Z M 267 238 " clip-rule="nonzero"/></clipPath><clipPath id="3dfd916f3d"><path d="M 209 303 L 222 303 L 222 321.75 L 209 321.75 Z M 209 303 " clip-rule="nonzero"/></clipPath><clipPath id="6bc141d4fc"><path d="M 153 302 L 166 302 L 166 321.75 L 153 321.75 Z M 153 302 " clip-rule="nonzero"/></clipPath><clipPath id="06fbcf1ad4"><path d="M 209 53.25 L 222 53.25 L 222 73 L 209 73 Z M 209 53.25 " clip-rule="nonzero"/></clipPath><clipPath id="510f445e23"><path d="M 153 53.25 L 166 53.25 L 166 73 L 153 73 Z M 153 53.25 " clip-rule="nonzero"/></clipPath></defs><path fill="#febfcb" d="M 187.5 0 C 83.945312 0 0 83.945312 0 187.5 C 0 291.054688 83.945312 375 187.5 375 C 291.054688 375 375 291.054688 375 187.5 C 375 83.945312 291.054688 0 187.5 0 " fill-opacity="1" fill-rule="nonzero"/><path fill="#fffcf7" d="M 161.375 181.335938 C 161.375 182.253906 161.285156 183.164062 161.105469 184.066406 C 160.925781 184.96875 160.660156 185.84375 160.308594 186.691406 C 159.957031 187.542969 159.523438 188.347656 159.015625 189.113281 C 158.503906 189.875 157.921875 190.582031 157.273438 191.234375 C 156.625 191.882812 155.917969 192.464844 155.152344 192.972656 C 154.386719 193.484375 153.582031 193.914062 152.734375 194.265625 C 151.882812 194.617188 151.007812 194.882812 150.105469 195.0625 C 149.207031 195.242188 148.296875 195.332031 147.375 195.332031 C 146.457031 195.332031 145.546875 195.242188 144.644531 195.0625 C 143.746094 194.882812 142.871094 194.617188 142.019531 194.265625 C 141.171875 193.914062 140.363281 193.484375 139.601562 192.972656 C 138.835938 192.464844 138.128906 191.882812 137.480469 191.234375 C 136.832031 190.582031 136.25 189.875 135.738281 189.113281 C 135.230469 188.347656 134.796875 187.542969 134.445312 186.691406 C 134.09375 185.84375 133.828125 184.96875 133.648438 184.066406 C 133.46875 183.164062 133.378906 182.253906 133.378906 181.335938 C 133.378906 180.417969 133.46875 179.507812 133.648438 178.605469 C 133.828125 177.703125 134.09375 176.828125 134.445312 175.980469 C 134.796875 175.132812 135.230469 174.324219 135.738281 173.558594 C 136.25 172.796875 136.832031 172.089844 137.480469 171.4375 C 138.128906 170.789062 138.835938 170.210938 139.601562 169.699219 C 140.363281 169.1875 141.171875 168.757812 142.019531 168.40625 C 142.871094 168.054688 143.746094 167.789062 144.644531 167.609375 C 145.546875 167.429688 146.457031 167.339844 147.375 167.339844 C 148.296875 167.339844 149.207031 167.429688 150.105469 167.609375 C 151.007812 167.789062 151.882812 168.054688 152.734375 168.40625 C 153.582031 168.757812 154.386719 169.1875 155.152344 169.699219 C 155.917969 170.210938 156.625 170.789062 157.273438 171.4375 C 157.921875 172.089844 158.503906 172.796875 159.015625 173.558594 C 159.523438 174.324219 159.957031 175.132812 160.308594 175.980469 C 160.660156 176.828125 160.925781 177.703125 161.105469 178.605469 C 161.285156 179.507812 161.375 180.417969 161.375 181.335938 Z M 161.375 181.335938 " fill-opacity="1" fill-rule="nonzero"/><path fill="#fffcf7" d="M 241.621094 181.335938 C 241.621094 182.253906 241.53125 183.164062 241.351562 184.066406 C 241.171875 184.96875 240.90625 185.84375 240.554688 186.691406 C 240.203125 187.542969 239.769531 188.347656 239.261719 189.113281 C 238.75 189.875 238.167969 190.582031 237.519531 191.234375 C 236.871094 191.882812 236.164062 192.464844 235.398438 192.972656 C 234.636719 193.484375 233.828125 193.914062 232.980469 194.265625 C 232.128906 194.617188 231.253906 194.882812 230.355469 195.0625 C 229.453125 195.242188 228.542969 195.332031 227.625 195.332031 C 226.703125 195.332031 225.792969 195.242188 224.890625 195.0625 C 223.992188 194.882812 223.117188 194.617188 222.265625 194.265625 C 221.417969 193.914062 220.609375 193.484375 219.847656 192.972656 C 219.082031 192.464844 218.375 191.882812 217.726562 191.234375 C 217.078125 190.582031 216.496094 189.875 215.984375 189.113281 C 215.476562 188.347656 215.042969 187.542969 214.691406 186.691406 C 214.339844 185.84375 214.074219 184.96875 213.894531 184.066406 C 213.714844 183.164062 213.625 182.253906 213.625 181.335938 C 213.625 180.417969 213.714844 179.507812 213.894531 178.605469 C 214.074219 177.703125 214.339844 176.828125 214.691406 175.980469 C 215.042969 175.132812 215.476562 174.324219 215.984375 173.558594 C 216.496094 172.796875 217.078125 172.089844 217.726562 171.4375 C 218.375 170.789062 219.082031 170.210938 219.847656 169.699219 C 220.609375 169.1875 221.417969 168.757812 222.265625 168.40625 C 223.117188 168.054688 223.992188 167.789062 224.890625 167.609375 C 225.792969 167.429688 226.703125 167.339844 227.625 167.339844 C 228.542969 167.339844 229.453125 167.429688 230.355469 167.609375 C 231.253906 167.789062 232.128906 168.054688 232.980469 168.40625 C 233.828125 168.757812 234.636719 169.1875 235.398438 169.699219 C 236.164062 170.210938 236.871094 170.789062 237.519531 171.4375 C 238.167969 172.089844 238.75 172.796875 239.261719 173.558594 C 239.769531 174.324219 240.203125 175.132812 240.554688 175.980469 C 240.90625 176.828125 241.171875 177.703125 241.351562 178.605469 C 241.53125 179.507812 241.621094 180.417969 241.621094 181.335938 Z M 241.621094 181.335938 " fill-opacity="1" fill-rule="nonzero"/><path fill="#fffcf7" d="M 165.460938 260.738281 C 167.691406 262.914062 171.140625 263.367188 173.855469 261.835938 L 186.152344 254.90625 C 186.984375 254.441406 188.015625 254.441406 188.847656 254.90625 L 201.144531 261.835938 C 202.222656 262.4375 203.410156 262.734375 204.59375 262.734375 C 206.398438 262.734375 208.191406 262.050781 209.539062 260.734375 L 214.175781 256.207031 C 215.023438 255.375 215.042969 254.007812 214.210938 253.160156 C 213.378906 252.308594 212.011719 252.289062 211.164062 253.121094 L 206.527344 257.648438 C 205.660156 258.496094 204.316406 258.671875 203.257812 258.074219 L 190.960938 251.144531 C 190.542969 250.910156 190.097656 250.734375 189.648438 250.589844 L 189.648438 238.292969 C 191.238281 237.871094 192.679688 236.988281 193.78125 235.71875 L 201.535156 226.765625 C 203.6875 224.28125 204.179688 220.867188 202.808594 217.871094 C 201.433594 214.871094 198.539062 213.011719 195.246094 213.011719 L 179.734375 213.011719 C 176.441406 213.011719 173.539062 214.871094 172.171875 217.871094 C 170.804688 220.867188 171.292969 224.273438 173.449219 226.765625 L 181.199219 235.71875 C 182.296875 236.988281 183.742188 237.871094 185.332031 238.292969 L 185.332031 250.589844 C 184.882812 250.734375 184.441406 250.910156 184.019531 251.144531 L 171.722656 258.074219 C 170.664062 258.671875 169.324219 258.492188 168.453125 257.648438 L 163.816406 253.121094 C 162.96875 252.289062 161.601562 252.308594 160.769531 253.160156 C 159.9375 254.007812 159.957031 255.375 160.808594 256.207031 Z M 184.476562 232.90625 L 176.722656 223.953125 C 175.671875 222.734375 175.441406 221.132812 176.109375 219.667969 C 176.773438 218.203125 178.140625 217.328125 179.746094 217.328125 L 195.257812 217.328125 C 196.871094 217.328125 198.234375 218.203125 198.898438 219.667969 C 199.5625 221.132812 199.335938 222.734375 198.28125 223.953125 L 190.53125 232.90625 C 189.765625 233.785156 188.664062 234.292969 187.507812 234.292969 C 186.347656 234.292969 185.234375 233.785156 184.476562 232.90625 Z M 184.476562 232.90625 " fill-opacity="1" fill-rule="nonzero"/><g clip-path="url(#bbe1bd8f42)"><path fill="#fffcf7" d="M 84.070312 253.472656 C 84.46875 254.167969 85.195312 254.558594 85.941406 254.558594 C 86.304688 254.558594 86.675781 254.464844 87.011719 254.273438 C 88.046875 253.683594 88.40625 252.363281 87.8125 251.328125 C 86.496094 249.027344 85.296875 246.636719 84.222656 244.207031 L 105.5 242.914062 C 106.6875 242.839844 107.59375 241.816406 107.519531 240.628906 C 107.445312 239.441406 106.429688 238.535156 105.234375 238.609375 L 39.585938 242.597656 C 38.398438 242.671875 37.492188 243.695312 37.566406 244.882812 C 37.636719 246.027344 38.582031 246.910156 39.714844 246.910156 C 39.761719 246.910156 39.804688 246.910156 39.851562 246.902344 L 79.667969 244.484375 C 80.941406 247.5625 82.414062 250.578125 84.070312 253.472656 Z M 84.070312 253.472656 " fill-opacity="1" fill-rule="nonzero"/></g><path fill="#fffcf7" d="M 76.261719 205.695312 C 77.4375 205.863281 78.527344 205.035156 78.695312 203.859375 C 82.027344 180 93.867188 158.152344 112.042969 142.339844 C 130.214844 126.527344 153.492188 117.820312 177.585938 117.820312 L 197.421875 117.820312 C 221.507812 117.820312 244.785156 126.527344 262.960938 142.339844 C 281.132812 158.152344 292.980469 180 296.3125 203.859375 C 296.464844 204.9375 297.382812 205.71875 298.441406 205.71875 C 298.539062 205.71875 298.644531 205.714844 298.742188 205.703125 C 299.921875 205.535156 300.746094 204.445312 300.578125 203.269531 C 297.738281 182.949219 288.984375 164.035156 275.546875 148.792969 L 280.09375 127.082031 C 283.65625 110.042969 281.421875 92.304688 273.738281 76.6875 C 272.316406 73.792969 268.875 72.523438 265.910156 73.792969 L 264.992188 74.1875 C 248.535156 81.242188 234.894531 93.597656 226.238281 109.285156 L 222.246094 116.519531 C 218.492188 115.597656 214.671875 114.882812 210.820312 114.382812 L 220.007812 99.335938 C 229.015625 84.585938 242.082031 73.003906 257.796875 65.84375 C 266.328125 61.957031 276.410156 65.085938 281.257812 73.117188 C 288.683594 85.429688 291.839844 100.078125 290.152344 114.359375 L 285.566406 153.175781 C 285.425781 154.359375 286.273438 155.429688 287.449219 155.574219 C 287.535156 155.585938 287.625 155.585938 287.710938 155.585938 C 288.785156 155.585938 289.714844 154.777344 289.847656 153.683594 L 294.433594 114.863281 C 296.230469 99.636719 292.863281 84.015625 284.949219 70.886719 C 278.976562 60.980469 266.535156 57.117188 256.011719 61.914062 C 239.507812 69.433594 225.789062 81.59375 216.328125 97.082031 L 206.101562 113.828125 C 206.097656 113.84375 206.089844 113.855469 206.082031 113.875 C 203.214844 113.632812 200.328125 113.511719 197.425781 113.511719 L 177.59375 113.511719 C 174.691406 113.511719 171.804688 113.640625 168.933594 113.875 C 168.929688 113.859375 168.921875 113.847656 168.917969 113.828125 L 158.6875 97.082031 C 149.230469 81.59375 135.511719 69.433594 119.007812 61.914062 C 108.484375 57.117188 96.039062 60.980469 90.066406 70.886719 C 82.148438 84.015625 78.78125 99.636719 80.585938 114.863281 L 85.171875 153.683594 C 85.300781 154.777344 86.230469 155.585938 87.308594 155.585938 C 87.394531 155.585938 87.480469 155.578125 87.566406 155.574219 C 88.75 155.429688 89.59375 154.359375 89.453125 153.175781 L 84.863281 114.359375 C 83.175781 100.074219 86.335938 85.425781 93.761719 73.117188 C 98.609375 65.078125 108.695312 61.953125 117.222656 65.84375 C 132.9375 73.003906 146.003906 84.582031 155.011719 99.335938 L 164.199219 114.382812 C 160.34375 114.882812 156.535156 115.601562 152.769531 116.519531 L 148.78125 109.285156 C 140.125 93.597656 126.484375 81.242188 110.023438 74.1875 L 109.105469 73.792969 C 106.144531 72.523438 102.703125 73.792969 101.28125 76.6875 C 93.597656 92.304688 91.355469 110.042969 94.925781 127.082031 L 99.46875 148.792969 C 86.035156 164.035156 77.277344 182.949219 74.441406 203.269531 C 74.261719 204.441406 75.078125 205.53125 76.261719 205.695312 Z M 76.261719 205.695312 " fill-opacity="1" fill-rule="nonzero"/><path fill="#fffcf7" d="M 54.59375 209.265625 L 73.675781 216.257812 C 73.785156 220.800781 74.285156 225.339844 75.171875 229.777344 C 75.375 230.800781 76.273438 231.507812 77.285156 231.507812 C 77.425781 231.507812 77.566406 231.496094 77.710938 231.464844 C 78.878906 231.230469 79.628906 230.097656 79.402344 228.929688 C 78.675781 225.289062 78.226562 221.578125 78.046875 217.851562 L 109.976562 229.539062 C 110.222656 229.628906 110.46875 229.667969 110.714844 229.667969 C 111.59375 229.667969 112.421875 229.125 112.738281 228.25 C 113.148438 227.136719 112.574219 225.894531 111.460938 225.488281 L 56.078125 205.210938 C 54.964844 204.804688 53.726562 205.375 53.3125 206.488281 C 52.898438 207.625 53.472656 208.859375 54.59375 209.265625 Z M 54.59375 209.265625 " fill-opacity="1" fill-rule="nonzero"/><path fill="#fffcf7" d="M 262.261719 228.261719 C 262.578125 229.136719 263.40625 229.679688 264.285156 229.679688 C 264.53125 229.679688 264.785156 229.636719 265.023438 229.550781 L 296.953125 217.863281 C 296.78125 221.589844 296.324219 225.300781 295.597656 228.941406 C 295.363281 230.109375 296.121094 231.242188 297.289062 231.476562 C 297.433594 231.507812 297.574219 231.519531 297.714844 231.519531 C 298.71875 231.519531 299.625 230.8125 299.828125 229.789062 C 300.714844 225.351562 301.214844 220.8125 301.324219 216.269531 L 320.40625 209.265625 C 321.527344 208.859375 322.101562 207.625 321.6875 206.503906 C 321.273438 205.382812 320.035156 204.808594 318.921875 205.222656 L 263.539062 225.5 C 262.425781 225.90625 261.851562 227.144531 262.261719 228.261719 Z M 262.261719 228.261719 " fill-opacity="1" fill-rule="nonzero"/><g clip-path="url(#e3f26946c6)"><path fill="#fffcf7" d="M 335.414062 242.605469 L 269.765625 238.613281 C 268.570312 238.539062 267.554688 239.445312 267.480469 240.632812 C 267.40625 241.824219 268.3125 242.84375 269.5 242.917969 L 290.777344 244.210938 C 289.703125 246.644531 288.511719 249.035156 287.1875 251.335938 C 286.59375 252.371094 286.953125 253.6875 287.988281 254.28125 C 288.324219 254.46875 288.695312 254.5625 289.058594 254.5625 C 289.804688 254.5625 290.53125 254.175781 290.929688 253.480469 C 292.585938 250.585938 294.058594 247.5625 295.339844 244.488281 L 335.152344 246.910156 C 335.195312 246.910156 335.238281 246.914062 335.289062 246.914062 C 336.421875 246.914062 337.371094 246.035156 337.4375 244.890625 C 337.507812 243.695312 336.601562 242.671875 335.414062 242.605469 Z M 335.414062 242.605469 " fill-opacity="1" fill-rule="nonzero"/></g><path fill="#fffcf7" d="M 315.707031 274.496094 L 265.078125 254.488281 C 263.972656 254.050781 262.722656 254.59375 262.285156 255.703125 C 261.847656 256.808594 262.390625 258.058594 263.496094 258.496094 L 277.726562 264.121094 C 264.5625 279.359375 243.097656 289.082031 222.15625 289.082031 L 152.851562 289.082031 C 131.464844 289.082031 111.3125 280.042969 97.105469 264.1875 L 111.507812 258.496094 C 112.617188 258.058594 113.160156 256.808594 112.722656 255.703125 C 112.285156 254.59375 111.035156 254.050781 109.925781 254.488281 L 59.296875 274.496094 C 58.191406 274.933594 57.648438 276.183594 58.085938 277.289062 C 58.417969 278.140625 59.230469 278.652344 60.09375 278.652344 C 60.355469 278.652344 60.621094 278.601562 60.886719 278.496094 L 92.855469 265.867188 C 107.929688 283.375 129.710938 293.394531 152.863281 293.394531 L 222.160156 293.394531 C 244.828125 293.394531 268.101562 282.597656 281.964844 265.789062 L 314.136719 278.496094 C 314.398438 278.601562 314.667969 278.652344 314.933594 278.652344 C 315.789062 278.652344 316.601562 278.132812 316.941406 277.289062 C 317.359375 276.183594 316.808594 274.933594 315.707031 274.496094 Z M 315.707031 274.496094 " fill-opacity="1" fill-rule="nonzero"/><g clip-path="url(#3dfd916f3d)"><path fill="#fffcf7" d="M 213.664062 304.191406 C 213.128906 303.132812 211.828125 302.710938 210.761719 303.246094 C 209.703125 303.78125 209.28125 305.078125 209.816406 306.140625 L 217.070312 320.4375 C 217.449219 321.1875 218.207031 321.621094 218.988281 321.621094 C 219.316406 321.621094 219.648438 321.546875 219.964844 321.386719 C 221.023438 320.851562 221.445312 319.550781 220.910156 318.492188 Z M 213.664062 304.191406 " fill-opacity="1" fill-rule="nonzero"/></g><g clip-path="url(#6bc141d4fc)"><path fill="#fffcf7" d="M 163.855469 302.796875 C 162.777344 302.277344 161.496094 302.734375 160.980469 303.8125 L 154.058594 318.277344 C 153.546875 319.347656 153.996094 320.632812 155.074219 321.152344 C 155.375 321.292969 155.691406 321.359375 156.003906 321.359375 C 156.808594 321.359375 157.578125 320.910156 157.949219 320.136719 L 164.871094 305.671875 C 165.382812 304.59375 164.933594 303.304688 163.855469 302.796875 Z M 163.855469 302.796875 " fill-opacity="1" fill-rule="nonzero"/></g><g clip-path="url(#06fbcf1ad4)"><path fill="#fffcf7" d="M 210.769531 72.03125 C 211.082031 72.191406 211.417969 72.265625 211.742188 72.265625 C 212.53125 72.265625 213.289062 71.835938 213.664062 71.082031 L 220.917969 56.785156 C 221.453125 55.726562 221.027344 54.425781 219.96875 53.890625 C 218.902344 53.351562 217.609375 53.773438 217.070312 54.839844 L 209.816406 69.136719 C 209.28125 70.195312 209.703125 71.488281 210.769531 72.03125 Z M 210.769531 72.03125 " fill-opacity="1" fill-rule="nonzero"/></g><g clip-path="url(#510f445e23)"><path fill="#fffcf7" d="M 160.984375 71.472656 C 161.355469 72.246094 162.125 72.695312 162.929688 72.695312 C 163.246094 72.695312 163.558594 72.628906 163.859375 72.488281 C 164.933594 71.976562 165.386719 70.691406 164.875 69.613281 L 157.957031 55.148438 C 157.445312 54.078125 156.15625 53.621094 155.078125 54.132812 C 154.007812 54.644531 153.554688 55.929688 154.0625 57.007812 Z M 160.984375 71.472656 " fill-opacity="1" fill-rule="nonzero"/></g></svg>