<svg xmlns="http://www.w3.org/2000/svg" xmlns:xlink="http://www.w3.org/1999/xlink" width="500" zoomAndPan="magnify" viewBox="0 0 375 374.999991" height="500" preserveAspectRatio="xMidYMid meet" version="1.0"><defs><clipPath id="235332ded6"><path d="M 37.5 54 L 150 54 L 150 172 L 37.5 172 Z M 37.5 54 " clip-rule="nonzero"/></clipPath><clipPath id="eb0f7c87a0"><path d="M 101 46.164062 L 295 46.164062 L 295 49 L 101 49 Z M 101 46.164062 " clip-rule="nonzero"/></clipPath><clipPath id="4626be25a9"><path d="M 247 52 L 359.25 52 L 359.25 165 L 247 165 Z M 247 52 " clip-rule="nonzero"/></clipPath><clipPath id="1f67c99a71"><path d="M 156 301 L 185 301 L 185 328.914062 L 156 328.914062 Z M 156 301 " clip-rule="nonzero"/></clipPath><clipPath id="96bb48b257"><path d="M 177.316406 24.984375 L 219.316406 24.984375 L 219.316406 66.984375 L 177.316406 66.984375 Z M 177.316406 24.984375 " clip-rule="nonzero"/></clipPath></defs><path fill="#31aec0" d="M 187.5 0 C 83.945312 0 0 83.945312 0 187.5 C 0 291.054688 83.945312 375 187.5 375 C 291.054688 375 375 291.054688 375 187.5 C 375 83.945312 291.054688 0 187.5 0 " fill-opacity="1" fill-rule="nonzero"/><path fill="#ffffff" d="M 99.265625 236.792969 L 83.871094 221.921875 L 79.949219 225.851562 C 79.941406 225.859375 79.9375 225.863281 79.933594 225.871094 C 77.386719 228.421875 75.980469 231.816406 75.980469 235.429688 C 75.980469 239.042969 77.382812 242.4375 79.933594 244.988281 C 85.191406 250.25 93.738281 250.257812 99.003906 245.007812 C 99.011719 245.003906 99.015625 244.996094 99.023438 244.988281 C 99.023438 244.988281 99.027344 244.988281 99.027344 244.984375 L 103.257812 240.75 Z M 99.265625 236.792969 " fill-opacity="1" fill-rule="nonzero"/><path fill="#ffffff" d="M 137.789062 274.96875 L 133.378906 279.386719 C 133.378906 279.386719 133.375 279.390625 133.375 279.390625 C 130.824219 281.941406 129.421875 285.335938 129.421875 288.949219 C 129.421875 292.5625 130.828125 295.957031 133.375 298.511719 C 138.636719 303.78125 147.203125 303.78125 152.464844 298.511719 C 152.464844 298.507812 152.464844 298.507812 152.46875 298.507812 L 156.980469 293.988281 Z M 137.789062 274.96875 " fill-opacity="1" fill-rule="nonzero"/><g clip-path="url(#235332ded6)"><path fill="#ffffff" d="M 149.476562 66.921875 C 149.390625 63.539062 147.996094 60.390625 145.550781 58.058594 C 143.1875 55.808594 140.09375 54.570312 136.835938 54.570312 C 133.335938 54.570312 130.082031 55.96875 127.671875 58.507812 L 41.113281 149.648438 C 38.785156 152.101562 37.550781 155.3125 37.632812 158.695312 C 37.71875 162.078125 39.113281 165.222656 41.5625 167.554688 C 43.921875 169.804688 47.015625 171.042969 50.273438 171.042969 C 53.773438 171.042969 57.027344 169.644531 59.441406 167.105469 L 146 75.964844 C 148.328125 73.511719 149.5625 70.300781 149.476562 66.921875 Z M 149.476562 66.921875 " fill-opacity="1" fill-rule="nonzero"/></g><path fill="#ffffff" d="M 110.925781 248.347656 L 106.664062 252.617188 C 106.660156 252.621094 106.65625 252.628906 106.652344 252.632812 C 106.648438 252.636719 106.640625 252.640625 106.636719 252.644531 C 104.097656 255.195312 102.699219 258.582031 102.699219 262.1875 C 102.699219 265.800781 104.105469 269.195312 106.652344 271.746094 C 111.914062 277.019531 120.480469 277.019531 125.742188 271.75 C 125.746094 271.746094 125.75 271.746094 125.75 271.742188 L 130.117188 267.367188 Z M 110.925781 248.347656 " fill-opacity="1" fill-rule="nonzero"/><g clip-path="url(#eb0f7c87a0)"><path fill="#ffffff" d="M 198.289062 -173.3125 C 145.082031 -173.3125 101.789062 -129.957031 101.789062 -76.671875 C 101.789062 -37.085938 126.542969 -0.875 163.371094 13.445312 C 164.0625 13.714844 164.699219 14.125 165.226562 14.65625 L 199.25 48.738281 L 234.597656 13.335938 C 235.085938 12.851562 235.65625 12.460938 236.292969 12.191406 C 271.824219 -3.066406 294.789062 -37.949219 294.789062 -76.671875 C 294.789062 -129.957031 251.496094 -173.3125 198.289062 -173.3125 Z M 198.289062 9.199219 C 151.015625 9.199219 112.546875 -29.316406 112.546875 -76.671875 C 112.546875 -124.011719 151.015625 -162.539062 198.289062 -162.539062 C 245.574219 -162.539062 284.03125 -124.011719 284.03125 -76.671875 C 284.03125 -29.316406 245.574219 9.199219 198.289062 9.199219 Z M 198.289062 9.199219 " fill-opacity="1" fill-rule="nonzero"/></g><g clip-path="url(#4626be25a9)"><path fill="#ffffff" d="M 268.191406 55.890625 C 265.855469 53.550781 262.75 52.261719 259.445312 52.261719 C 256.144531 52.261719 253.039062 53.550781 250.703125 55.890625 C 245.882812 60.71875 245.882812 68.574219 250.703125 73.402344 L 338.121094 160.945312 C 340.457031 163.285156 343.5625 164.574219 346.863281 164.574219 C 350.167969 164.574219 353.273438 163.285156 355.609375 160.949219 C 357.941406 158.609375 359.226562 155.5 359.226562 152.191406 C 359.226562 148.882812 357.941406 145.773438 355.605469 143.433594 Z M 268.191406 55.890625 " fill-opacity="1" fill-rule="nonzero"/></g><path fill="#ffffff" d="M 324.472656 162.5625 L 244.722656 82.695312 L 179.277344 93.316406 C 174.601562 94.078125 170.71875 97.511719 169.386719 102.0625 L 148.09375 174.78125 C 147.164062 177.957031 147.523438 181.304688 149.105469 184.207031 C 150.691406 187.109375 153.308594 189.21875 156.476562 190.148438 C 159.648438 191.082031 162.992188 190.71875 165.890625 189.132812 C 168.785156 187.546875 170.894531 184.925781 171.820312 181.75 L 188.570312 126.054688 C 189.167969 124.074219 190.835938 122.609375 192.871094 122.277344 L 238.980469 114.792969 C 241.917969 114.308594 244.6875 116.316406 245.167969 119.261719 C 245.644531 122.207031 243.648438 124.984375 240.703125 125.460938 L 230.84375 127.058594 L 310.898438 204.625 L 312.488281 203.03125 L 324.480469 191.019531 C 332.3125 183.175781 332.3125 170.417969 324.484375 162.578125 C 324.480469 162.574219 324.476562 162.566406 324.472656 162.5625 Z M 324.472656 162.5625 " fill-opacity="1" fill-rule="nonzero"/><g clip-path="url(#1f67c99a71)"><path fill="#ffffff" d="M 160.097656 306.148438 C 160.097656 306.148438 160.097656 306.152344 160.09375 306.152344 C 157.546875 308.703125 156.144531 312.097656 156.144531 315.710938 C 156.144531 319.324219 157.546875 322.71875 160.097656 325.269531 C 162.644531 327.820312 166.035156 329.226562 169.640625 329.226562 C 173.25 329.226562 176.636719 327.820312 179.1875 325.269531 C 179.1875 325.265625 179.195312 325.265625 179.199219 325.261719 L 184.347656 320.105469 L 164.777344 301.464844 Z M 160.097656 306.148438 " fill-opacity="1" fill-rule="nonzero"/></g><path fill="#ffffff" d="M 197.929688 132.40625 L 182.167969 184.828125 C 180.4375 190.734375 176.492188 195.644531 171.066406 198.617188 C 167.613281 200.507812 163.824219 201.46875 159.996094 201.46875 C 157.804688 201.46875 155.601562 201.152344 153.441406 200.519531 C 147.507812 198.777344 142.605469 194.824219 139.640625 189.390625 C 136.671875 183.957031 135.996094 177.6875 137.738281 171.742188 L 159.03125 99.019531 C 159.78125 96.464844 160.964844 94.101562 162.484375 92 L 149.398438 88.066406 L 73.230469 168.269531 C 73.21875 168.277344 73.214844 168.289062 73.207031 168.296875 C 65.421875 176.496094 65.746094 189.511719 73.929688 197.308594 L 87.597656 210.511719 C 87.605469 210.519531 87.613281 210.523438 87.621094 210.53125 C 87.625 210.535156 87.628906 210.542969 87.632812 210.546875 L 106.808594 229.066406 L 114.6875 236.875 C 114.699219 236.886719 114.714844 236.894531 114.726562 236.90625 C 114.734375 236.917969 114.742188 236.929688 114.753906 236.9375 L 165.839844 287.566406 L 202.886719 322.847656 C 208.707031 328.382812 217.9375 328.148438 223.472656 322.320312 C 229 316.503906 228.78125 307.277344 223 301.726562 L 212.21875 291.457031 C 210.058594 289.398438 209.972656 285.980469 212.027344 283.816406 C 214.082031 281.65625 217.496094 281.570312 219.65625 283.628906 L 230.371094 293.835938 C 230.378906 293.84375 230.390625 293.851562 230.398438 293.859375 C 230.414062 293.875 230.425781 293.890625 230.441406 293.90625 L 236.050781 299.246094 C 241.871094 304.792969 251.109375 304.5625 256.648438 298.734375 C 262.183594 292.902344 261.953125 283.648438 256.132812 278.097656 C 256.125 278.09375 256.125 278.089844 256.121094 278.082031 L 245.867188 268.316406 C 243.710938 266.257812 243.625 262.839844 245.679688 260.679688 C 247.730469 258.515625 251.144531 258.429688 253.304688 260.488281 L 269.699219 276.109375 C 275.679688 281.800781 285.324219 281.765625 290.769531 276.039062 C 293.394531 273.273438 294.738281 269.535156 294.546875 265.515625 C 294.359375 261.515625 292.625 257.667969 289.785156 254.964844 C 289.765625 254.945312 289.746094 254.925781 289.738281 254.917969 L 277.644531 243.402344 C 275.484375 241.347656 275.398438 237.929688 277.453125 235.765625 C 279.503906 233.601562 282.917969 233.515625 285.078125 235.574219 L 297.21875 247.132812 C 297.234375 247.148438 297.289062 247.199219 297.304688 247.214844 L 304.757812 254.316406 C 310.582031 259.859375 319.820312 259.625 325.355469 253.800781 C 328.042969 250.972656 329.46875 247.273438 329.371094 243.378906 C 329.273438 239.480469 327.664062 235.855469 324.84375 233.171875 L 217.554688 129.21875 Z M 197.929688 132.40625 " fill-opacity="1" fill-rule="nonzero"/><g clip-path="url(#96bb48b257)"><path fill="#31aec0" d="M 198.316406 24.984375 C 186.71875 24.984375 177.316406 34.386719 177.316406 45.984375 C 177.316406 57.582031 186.71875 66.984375 198.316406 66.984375 C 209.914062 66.984375 219.316406 57.582031 219.316406 45.984375 C 219.316406 34.386719 209.914062 24.984375 198.316406 24.984375 " fill-opacity="1" fill-rule="nonzero"/></g></svg>