<svg xmlns="http://www.w3.org/2000/svg" xmlns:xlink="http://www.w3.org/1999/xlink" width="500" zoomAndPan="magnify" viewBox="0 0 375 374.999991" height="500" preserveAspectRatio="xMidYMid meet" version="1.0"><defs><clipPath id="e839d01ae5"><path d="M 37.5 53 L 333.75 53 L 333.75 335 L 37.5 335 Z M 37.5 53 " clip-rule="nonzero"/></clipPath></defs><path fill="#e5854b" d="M 187.5 0 C 83.945312 0 0 83.945312 0 187.5 C 0 291.054688 83.945312 375 187.5 375 C 291.054688 375 375 291.054688 375 187.5 C 375 83.945312 291.054688 0 187.5 0 " fill-opacity="1" fill-rule="nonzero"/><g clip-path="url(#e839d01ae5)"><path fill="#ffffff" d="M 160.246094 136.105469 C 156.394531 127.292969 154.851562 117.9375 154.851562 107.785156 C 154.851562 77.644531 179.347656 53.152344 209.46875 53.152344 C 222.460938 53.152344 234.707031 57.75 244.339844 65.761719 C 253.972656 57.75 266.21875 53.152344 279.210938 53.152344 C 309.332031 53.152344 333.828125 77.644531 333.828125 107.785156 C 333.828125 126.179688 328.761719 141.964844 314.085938 156.636719 C 307.738281 162.984375 295.800781 172.285156 279.921875 183.722656 C 278.289062 184.894531 276.648438 186.070312 275.003906 187.238281 L 242.089844 255.542969 C 240.027344 259.792969 235.835938 262.480469 231.25 262.496094 L 110.582031 262.496094 C 104.921875 262.695312 99.871094 258.820312 98.402344 253.140625 L 64.785156 123.46875 L 49.679688 123.46875 C 42.953125 123.46875 37.5 117.808594 37.5 110.828125 C 37.5 103.847656 42.953125 98.1875 49.679688 98.1875 L 74.042969 98.1875 C 79.703125 97.988281 84.753906 101.863281 86.222656 107.542969 L 93.289062 136.105469 Z M 101.1875 327.652344 C 91.675781 317.859375 93.039062 300.574219 104.234375 289.046875 C 115.429688 277.519531 132.214844 276.117188 141.730469 285.914062 C 151.242188 295.707031 149.878906 312.992188 138.683594 324.519531 C 127.488281 336.042969 110.703125 337.449219 101.1875 327.652344 Z M 178.222656 327.652344 C 168.707031 317.859375 170.070312 300.574219 181.265625 289.046875 C 192.460938 277.519531 209.25 276.117188 218.761719 285.914062 C 228.277344 295.707031 226.914062 312.992188 215.71875 324.519531 C 204.523438 336.042969 187.734375 337.449219 178.222656 327.652344 Z M 244.339844 192.457031 C 245.894531 192.457031 247.457031 192.003906 248.8125 191.085938 C 250.589844 189.882812 292.6875 161.363281 305.769531 148.285156 C 320.363281 133.695312 322.050781 118.1875 322.050781 107.785156 C 322.050781 84.167969 302.835938 64.953125 279.210938 64.953125 C 264.847656 64.953125 252.128906 72.054688 244.339844 82.929688 C 236.550781 72.054688 223.832031 64.953125 209.46875 64.953125 C 185.84375 64.953125 166.628906 84.167969 166.628906 107.785156 C 166.628906 118.1875 168.316406 133.695312 182.910156 148.285156 C 195.964844 161.363281 238.074219 189.882812 239.867188 191.085938 C 241.222656 192.003906 242.785156 192.457031 244.339844 192.457031 Z M 244.339844 192.457031 " fill-opacity="1" fill-rule="nonzero"/></g></svg>