<svg xmlns="http://www.w3.org/2000/svg" xmlns:xlink="http://www.w3.org/1999/xlink" width="500" zoomAndPan="magnify" viewBox="0 0 375 374.999991" height="500" preserveAspectRatio="xMidYMid meet" version="1.0"><path fill="#31aec0" d="M 187.5 375 C 83.945312 375 0 291.054688 0 187.5 C 0 83.945312 83.945312 0 187.5 0 C 291.054688 0 375 83.945312 375 187.5 C 375 291.054688 291.054688 375 187.5 375 Z M 187.5 375 " fill-opacity="1" fill-rule="nonzero"/><path fill="#ffffff" d="M 243.878906 226 C 244.167969 224.242188 244.8125 220.023438 245.324219 214.183594 C 244.8125 220.03125 244.167969 224.25 243.878906 226 Z M 121.152344 220.402344 C 121.53125 221.210938 121.917969 222.03125 122.3125 222.839844 C 121.917969 222.03125 121.53125 221.210938 121.152344 220.402344 Z M 124.394531 226.902344 C 123.824219 225.847656 123.289062 224.796875 122.757812 223.742188 C 123.289062 224.804688 123.832031 225.855469 124.394531 226.902344 Z M 243.816406 226.378906 C 243.832031 226.28125 243.855469 226.167969 243.878906 226.039062 C 243.855469 226.160156 243.832031 226.273438 243.816406 226.378906 Z M 222.046875 123.644531 C 222.546875 124.523438 223.074219 125.402344 223.628906 126.28125 C 223.074219 125.402344 222.546875 124.523438 222.046875 123.644531 Z M 243.734375 226.847656 C 243.75 226.773438 243.773438 226.628906 243.8125 226.425781 C 243.773438 226.628906 243.75 226.773438 243.734375 226.847656 Z M 243.726562 226.902344 C 243.726562 226.902344 243.726562 226.878906 243.734375 226.847656 C 243.726562 226.886719 243.726562 226.902344 243.726562 226.902344 Z M 225.523438 129.113281 C 225.066406 128.460938 224.621094 127.804688 224.195312 127.152344 C 224.628906 127.804688 225.066406 128.460938 225.523438 129.113281 Z M 256.945312 269.183594 C 257.484375 269.925781 258.015625 270.675781 258.546875 271.425781 C 258.015625 270.675781 257.476562 269.925781 256.945312 269.183594 Z M 260.453125 274.105469 C 259.96875 273.417969 259.476562 272.71875 258.984375 272.03125 C 259.476562 272.726562 259.96875 273.417969 260.453125 274.105469 Z M 119.402344 216.4375 C 119.839844 217.492188 120.304688 218.546875 120.78125 219.589844 C 120.304688 218.546875 119.839844 217.492188 119.402344 216.4375 Z M 260.644531 274.378906 C 261.175781 275.136719 261.703125 275.886719 262.226562 276.636719 C 261.710938 275.886719 261.183594 275.136719 260.644531 274.378906 Z M 114.605469 202.742188 C 114.855469 203.613281 115.113281 204.484375 115.378906 205.355469 C 115.113281 204.476562 114.855469 203.605469 114.605469 202.742188 Z M 115.574219 205.976562 C 115.910156 207.039062 116.257812 208.105469 116.628906 209.167969 C 116.257812 208.105469 115.910156 207.046875 115.574219 205.976562 Z M 119.195312 215.945312 C 118.824219 215.046875 118.460938 214.136719 118.113281 213.234375 C 118.460938 214.144531 118.824219 215.046875 119.195312 215.945312 Z M 116.8125 209.695312 C 117.121094 210.582031 117.445312 211.476562 117.78125 212.363281 C 117.445312 211.46875 117.121094 210.582031 116.8125 209.695312 Z M 213.0625 96.683594 C 213.175781 97.394531 213.296875 98.113281 213.417969 98.832031 C 213.296875 98.113281 213.175781 97.394531 213.0625 96.683594 Z M 210.453125 75.183594 C 210.347656 74.445312 210.234375 73.71875 210.113281 72.992188 C 210.234375 73.71875 210.347656 74.445312 210.453125 75.183594 Z M 210.773438 77.546875 C 210.703125 77.039062 210.636719 76.523438 210.566406 76.015625 C 210.644531 76.523438 210.703125 77.039062 210.773438 77.546875 Z M 212.226562 90.507812 C 211.726562 86.273438 211.347656 82.136719 210.847656 78.097656 C 211.339844 82.136719 211.726562 86.28125 212.226562 90.507812 Z M 212.582031 93.386719 C 212.460938 92.476562 212.347656 91.566406 212.242188 90.660156 C 212.347656 91.566406 212.460938 92.476562 212.582031 93.386719 Z M 212.597656 93.476562 C 212.71875 94.371094 212.847656 95.273438 212.984375 96.175781 C 212.839844 95.265625 212.710938 94.371094 212.597656 93.476562 Z M 118.78125 114.597656 C 118.78125 114.597656 101.621094 156 114.386719 201.96875 C 114.097656 200.925781 113.816406 199.878906 113.554688 198.832031 L 114.332031 193.175781 C 114.332031 193.175781 171.460938 219.855469 185.128906 177.75 C 195.402344 146.113281 229.175781 190.273438 245.316406 214.175781 C 247.039062 194.621094 247.339844 156.917969 228.273438 132.839844 C 227.539062 131.910156 226.847656 130.984375 226.183594 130.0625 C 226.824219 130.953125 227.492188 131.855469 228.203125 132.75 L 193.871094 130.726562 C 193.871094 130.726562 205.105469 119.710938 208.613281 67.660156 C 208.644531 67.195312 208.6875 66.765625 208.726562 66.324219 C 206.703125 58.507812 203.160156 51.167969 195.984375 44.386719 C 170.710938 20.523438 118.773438 30.347656 114.5625 73.871094 C 114.5625 73.871094 90.695312 89.3125 90.695312 94.933594 C 90.703125 100.554688 118.78125 114.597656 118.78125 114.597656 Z M 209.21875 68.347656 C 209.304688 68.71875 209.378906 69.097656 209.460938 69.476562 C 209.386719 69.097656 209.304688 68.71875 209.21875 68.347656 Z M 209.6875 70.628906 C 209.765625 71.023438 209.839844 71.417969 209.910156 71.8125 C 209.839844 71.417969 209.765625 71.023438 209.6875 70.628906 Z M 220.546875 120.855469 C 220.886719 121.515625 221.242188 122.183594 221.605469 122.847656 C 221.234375 122.183594 220.886719 121.523438 220.546875 120.855469 Z M 216.667969 111.726562 C 216.886719 112.371094 217.121094 113.015625 217.363281 113.660156 C 217.121094 113.015625 216.886719 112.371094 216.667969 111.726562 Z M 262.660156 277.25 C 263.152344 277.960938 263.644531 278.667969 264.128906 279.371094 C 263.652344 278.667969 263.160156 277.960938 262.660156 277.25 Z M 220.0625 119.902344 C 219.695312 119.167969 219.355469 118.433594 219.023438 117.703125 C 219.355469 118.433594 219.695312 119.167969 220.0625 119.902344 Z M 216.386719 110.910156 C 216.097656 110.046875 215.832031 109.1875 215.582031 108.324219 C 215.832031 109.1875 216.105469 110.054688 216.386719 110.910156 Z M 217.703125 114.566406 C 218.046875 115.4375 218.402344 116.3125 218.78125 117.183594 C 218.402344 116.304688 218.046875 115.433594 217.703125 114.566406 Z M 213.539062 99.515625 C 213.695312 100.386719 213.863281 101.265625 214.046875 102.144531 C 213.863281 101.265625 213.695312 100.394531 213.539062 99.515625 Z M 215.402344 107.644531 C 215.210938 106.960938 215.03125 106.289062 214.855469 105.613281 C 215.023438 106.289062 215.203125 106.96875 215.402344 107.644531 Z M 214.121094 102.46875 C 214.289062 103.234375 214.460938 104 214.644531 104.773438 C 214.460938 104 214.289062 103.234375 214.121094 102.46875 Z M 246.128906 254.402344 C 245.6875 253.8125 245.265625 253.242188 244.847656 252.6875 C 245.265625 253.242188 245.6875 253.816406 246.128906 254.402344 Z M 161.710938 276.574219 C 161.628906 276.167969 161.539062 275.757812 161.453125 275.355469 C 161.539062 275.765625 161.628906 276.167969 161.710938 276.574219 Z M 163.332031 284.210938 C 163.265625 283.902344 163.195312 283.582031 163.128906 283.273438 C 163.195312 283.582031 163.265625 283.902344 163.332031 284.210938 Z M 163.878906 286.757812 C 163.804688 286.425781 163.734375 286.089844 163.667969 285.757812 C 163.734375 286.089844 163.8125 286.425781 163.878906 286.757812 Z M 162.304688 279.378906 C 162.226562 279.023438 162.152344 278.667969 162.074219 278.3125 C 162.152344 278.667969 162.226562 279.023438 162.304688 279.378906 Z M 162.804688 281.71875 C 162.734375 281.410156 162.667969 281.089844 162.605469 280.78125 C 162.667969 281.089844 162.734375 281.402344 162.804688 281.71875 Z M 165.703125 295.121094 C 165.636719 294.8125 165.566406 294.507812 165.5 294.195312 C 165.566406 294.507812 165.636719 294.8125 165.703125 295.121094 Z M 166.054688 296.6875 C 166.121094 297.007812 166.195312 297.332031 166.265625 297.652344 C 166.195312 297.332031 166.121094 297.015625 166.054688 296.6875 Z M 164.417969 289.234375 C 164.363281 288.976562 164.304688 288.71875 164.25 288.460938 C 164.304688 288.710938 164.355469 288.96875 164.417969 289.234375 Z M 164.945312 291.683594 C 165 291.933594 165.054688 292.183594 165.113281 292.425781 C 165.0625 292.183594 165 291.933594 164.945312 291.683594 Z M 158.847656 262.816406 C 158.757812 262.386719 158.675781 261.96875 158.589844 261.5625 C 158.675781 261.96875 158.757812 262.386719 158.847656 262.816406 Z M 158.984375 263.476562 C 159.160156 264.339844 159.347656 265.234375 159.539062 266.167969 C 159.347656 265.234375 159.160156 264.339844 158.984375 263.476562 Z M 158.53125 261.257812 C 158.4375 260.8125 158.355469 260.386719 158.265625 259.96875 C 158.347656 260.386719 158.4375 260.8125 158.53125 261.257812 Z M 159.566406 266.304688 C 159.660156 266.75 159.757812 267.203125 159.847656 267.660156 C 159.75 267.203125 159.660156 266.742188 159.566406 266.304688 Z M 264.242188 279.53125 C 264.757812 280.273438 265.257812 281.007812 265.75 281.734375 C 265.257812 281.007812 264.757812 280.273438 264.242188 279.53125 Z M 159.984375 268.324219 C 160.074219 268.75 160.160156 269.183594 160.25 269.613281 C 160.167969 269.183594 160.074219 268.75 159.984375 268.324219 Z M 160.925781 272.816406 C 160.992188 273.152344 161.0625 273.476562 161.136719 273.816406 C 161.0625 273.484375 160.992188 273.152344 160.925781 272.816406 Z M 160.675781 271.628906 C 160.589844 271.226562 160.507812 270.839844 160.433594 270.445312 C 160.507812 270.832031 160.589844 271.226562 160.675781 271.628906 Z M 254.8125 266.226562 C 254.28125 265.492188 253.75 264.765625 253.226562 264.046875 C 253.75 264.765625 254.28125 265.492188 254.8125 266.226562 Z M 246.304688 254.636719 C 246.765625 255.257812 247.25 255.910156 247.734375 256.566406 C 247.242188 255.910156 246.765625 255.265625 246.304688 254.636719 Z M 251.566406 261.773438 C 252.015625 262.378906 252.460938 262.992188 252.917969 263.613281 C 252.460938 263 252.015625 262.386719 251.566406 261.773438 Z M 248.074219 257.03125 C 248.484375 257.582031 248.902344 258.144531 249.324219 258.71875 C 248.902344 258.152344 248.484375 257.582031 248.074219 257.03125 Z M 166.824219 300.167969 C 166.757812 299.847656 166.683594 299.539062 166.613281 299.21875 C 166.683594 299.53125 166.757812 299.847656 166.824219 300.167969 Z M 255.25 266.832031 C 255.710938 267.46875 256.175781 268.113281 256.636719 268.757812 C 256.175781 268.113281 255.710938 267.46875 255.25 266.832031 Z M 266.128906 282.289062 C 266.628906 283.023438 267.113281 283.75 267.589844 284.460938 C 267.113281 283.75 266.628906 283.023438 266.128906 282.289062 Z M 323.460938 248.523438 L 310.355469 240.410156 C 304.945312 237.0625 303.96875 229.582031 308.339844 224.960938 L 318.894531 213.789062 C 321.597656 210.925781 321.53125 206.4375 318.75 203.652344 L 317.660156 202.5625 C 314.816406 199.71875 310.210938 199.71875 307.378906 202.5625 L 283.039062 226.902344 L 253.554688 226.902344 C 253.894531 227.453125 254.082031 227.765625 254.082031 227.765625 L 109.582031 227.765625 L 109.703125 226.902344 L 47.183594 226.902344 L 47.183594 243.75 L 132.816406 243.75 C 132.816406 243.75 139.839844 252.175781 156.683594 252.175781 C 156.683594 252.175781 157.265625 255.082031 158.21875 259.765625 C 157.839844 257.917969 157.523438 256.347656 157.273438 255.121094 C 173.894531 252.628906 172.824219 242.695312 172.824219 242.695312 L 192.339844 242.695312 C 192.339844 242.695312 193.878906 244.453125 196.074219 246.433594 C 198.265625 248.410156 235.984375 246.773438 235.984375 246.773438 C 235.984375 246.773438 237.878906 247 240.933594 247.484375 C 241.605469 248.378906 242.394531 249.425781 243.257812 250.574219 C 240.136719 246.417969 238.105469 243.757812 238.105469 243.757812 L 287.242188 243.757812 L 315.894531 260.945312 C 319.417969 263.0625 323.992188 261.832031 325.992188 258.242188 C 327.878906 254.839844 326.765625 250.566406 323.460938 248.523438 Z M 249.660156 259.175781 C 250.152344 259.839844 250.652344 260.53125 251.167969 261.21875 C 250.652344 260.523438 250.152344 259.839844 249.660156 259.175781 Z M 168.03125 305.445312 C 167.992188 305.28125 167.953125 305.113281 167.917969 304.945312 C 167.953125 305.113281 167.992188 305.28125 168.03125 305.445312 Z M 244.660156 252.4375 C 244.210938 251.839844 243.773438 251.257812 243.363281 250.703125 C 243.773438 251.25 244.203125 251.832031 244.660156 252.4375 Z M 167.363281 302.5625 C 167.316406 302.347656 167.265625 302.128906 167.21875 301.910156 C 167.273438 302.128906 167.316406 302.347656 167.363281 302.5625 Z M 168.453125 307.296875 C 168.515625 307.554688 168.574219 307.804688 168.628906 308.0625 C 168.574219 307.804688 168.515625 307.554688 168.453125 307.296875 Z M 168.992188 309.597656 C 169.054688 309.863281 169.121094 310.128906 169.183594 310.394531 C 169.121094 310.128906 169.054688 309.871094 168.992188 309.597656 Z M 170.074219 314.113281 C 170.128906 314.316406 170.175781 314.53125 170.226562 314.726562 C 170.175781 314.523438 170.121094 314.316406 170.074219 314.113281 Z M 169.523438 311.847656 C 169.582031 312.105469 169.644531 312.363281 169.703125 312.613281 C 169.652344 312.355469 169.589844 312.105469 169.523438 311.847656 Z M 169.523438 311.847656 " fill-opacity="1" fill-rule="nonzero"/><path fill="#e5854b" d="M 244.582031 222.796875 C 244.582031 222.796875 184.765625 210.054688 183.355469 166.539062 C 181.953125 123.015625 221.0625 121.039062 221.0625 121.039062 C 221.0625 121.039062 232.492188 130.039062 242.316406 162.1875 C 252.152344 194.355469 244.582031 222.796875 244.582031 222.796875 Z M 130.613281 94.355469 C 128.605469 78.089844 114.476562 72.539062 108.910156 76.71875 C 103.339844 80.902344 90.703125 94.9375 90.703125 94.9375 C 90.703125 94.9375 106.363281 108.082031 111.167969 110.636719 C 115.96875 113.1875 132.621094 110.621094 130.613281 94.355469 Z M 240.175781 224.378906 C 236.007812 223.394531 220.5 215.675781 220.5 215.675781 L 198.113281 219.96875 C 189.675781 227.605469 190.289062 248.257812 199.8125 248.460938 C 209.332031 248.667969 236.007812 252.878906 238.8125 244.453125 C 241.621094 236.03125 244.339844 225.363281 240.175781 224.378906 Z M 174.1875 224.378906 C 170.023438 223.394531 154.515625 215.675781 154.515625 215.675781 L 132.128906 219.96875 C 123.6875 227.605469 124.304688 248.257812 133.824219 248.460938 C 143.347656 248.667969 170.023438 252.878906 172.824219 244.453125 C 175.636719 236.03125 178.363281 225.363281 174.1875 224.378906 Z M 174.1875 224.378906 " fill-opacity="1" fill-rule="nonzero"/><path fill="#e3c943" d="M 244.582031 222.796875 C 244.582031 222.796875 195.242188 212.289062 185.136719 177.75 C 201.46875 188.234375 226.902344 200.992188 247.355469 195.355469 C 247.554688 211.621094 244.582031 222.796875 244.582031 222.796875 Z M 217.75 238.832031 C 202.3125 238.832031 195.289062 238.832031 195.289062 238.832031 C 195.289062 238.832031 193.886719 252.871094 209.757812 252.1875 C 225.628906 251.507812 226.175781 255.683594 235.984375 246.765625 C 245.796875 237.847656 238.804688 226.203125 238.804688 226.203125 C 238.804688 226.203125 233.195312 238.832031 217.75 238.832031 Z M 153.175781 238.832031 C 137.734375 238.832031 130.710938 238.832031 130.710938 238.832031 C 130.710938 238.832031 129.3125 252.871094 145.183594 252.1875 C 161.054688 251.507812 161.597656 255.683594 171.410156 246.765625 C 181.21875 237.847656 174.226562 226.203125 174.226562 226.203125 C 174.226562 226.203125 168.613281 238.832031 153.175781 238.832031 Z M 153.175781 238.832031 " fill-opacity="1" fill-rule="nonzero"/><path fill="#995d1f" d="M 329.582031 252.136719 C 328.953125 248.5 326.933594 245.347656 323.886719 243.265625 L 314.3125 236.71875 C 313.074219 235.878906 312.289062 234.539062 312.152344 233.046875 C 312.015625 231.554688 312.539062 230.089844 313.597656 229.039062 L 322.652344 219.984375 C 325.265625 217.371094 326.710938 213.75 326.613281 210.0625 C 326.515625 206.371094 324.886719 202.824219 322.136719 200.347656 L 321.910156 200.144531 C 316.554688 195.324219 308.371094 195.539062 303.28125 200.636719 L 281.265625 222.644531 L 248.695312 222.644531 C 250.8125 207.074219 254.902344 159.605469 231.621094 130.203125 C 219 114.257812 217.386719 99.039062 215.824219 84.316406 C 214.1875 68.871094 212.644531 54.28125 198.917969 41.3125 C 184.660156 27.839844 161.953125 23.710938 142.425781 31.046875 C 124.605469 37.726562 113.089844 52.371094 110.566406 71.410156 C 94.5625 81.9375 86.445312 89.855469 86.445312 94.9375 C 86.445312 96.902344 86.445312 102.710938 113.460938 116.667969 C 108.839844 129.953125 95.71875 176.167969 117.492188 222.636719 L 47.1875 222.636719 C 44.832031 222.636719 42.933594 224.546875 42.933594 226.894531 L 42.933594 243.742188 C 42.933594 246.097656 44.839844 248 47.1875 248 L 128.902344 248 C 132.167969 249.78125 142.433594 254.847656 155.136719 256.121094 C 155.621094 256.3125 156.144531 256.425781 156.6875 256.425781 C 156.71875 256.425781 156.855469 256.425781 157.0625 256.417969 C 158.242188 267.378906 161.902344 298.992188 166.589844 317.773438 C 168.46875 325.289062 172.355469 330.78125 178.128906 334.082031 C 185.683594 338.410156 194.394531 337.652344 198.703125 336.871094 C 202.152344 340.25 210.226562 346.265625 224.066406 346.265625 C 234.605469 346.265625 240.183594 341.460938 243 337.433594 C 243.992188 336.015625 244.710938 334.597656 245.234375 333.316406 C 251.976562 335.054688 264.953125 337.023438 274.355469 329.96875 C 286.515625 320.847656 285.339844 303.394531 271.136719 282.082031 C 263.644531 270.839844 252.953125 256.378906 246.667969 247.992188 L 285.789062 247.992188 L 307.96875 265.152344 C 310.886719 267.410156 314.507812 268.363281 318.167969 267.839844 C 321.816406 267.316406 325.023438 265.386719 327.195312 262.402344 C 329.363281 259.417969 330.210938 255.773438 329.582031 252.136719 Z M 197.445312 240.9375 L 197.445312 227.507812 C 197.976562 225.863281 200.257812 219.933594 205.816406 219.933594 L 220.160156 219.933594 C 227.886719 224.695312 234.824219 228.054688 238.945312 229.902344 L 234.257812 241.894531 C 233.660156 242.816406 229.871094 247.910156 218.453125 247.910156 C 204.515625 247.917969 197.445312 245.566406 197.445312 240.9375 Z M 179.195312 239.492188 L 179.195312 231.167969 L 188.925781 231.167969 L 188.925781 239.492188 Z M 158.167969 247.832031 C 143.976562 247.015625 132.324219 240.167969 132.203125 240.097656 C 132.144531 240.0625 132.074219 240.03125 132.007812 240 C 131.976562 239.984375 131.945312 239.953125 131.917969 239.9375 C 126.683594 237.324219 128.539062 227.910156 128.554688 227.832031 C 128.5625 227.789062 128.582031 227.695312 128.589844 227.652344 C 128.8125 226.5 129.863281 222.742188 134.21875 222.742188 L 166.507812 222.742188 C 168.589844 222.742188 169.917969 223.605469 170.757812 224.628906 C 170.695312 224.910156 170.667969 225.203125 170.667969 225.5 L 170.667969 240.644531 C 169.757812 246.289062 161.582031 247.554688 158.167969 247.832031 Z M 240.273438 221.113281 C 226.121094 214.445312 190.378906 194.910156 188.304688 166.925781 C 185.894531 134.371094 213.894531 124.71875 217.203125 123.695312 C 219.265625 127.582031 221.796875 131.523438 224.9375 135.484375 C 245.75 161.773438 242.183594 206.242188 240.273438 221.113281 Z M 95.234375 94.789062 C 97.136719 91.855469 105.378906 85.121094 114.703125 78.902344 C 121.039062 82.816406 124.546875 87.273438 125.128906 92.1875 C 125.960938 99.25 120.863281 106.082031 117.917969 109.378906 C 107.152344 103.78125 97.554688 97.605469 95.234375 94.789062 Z M 122.410156 117.023438 C 125.3125 114.160156 135.03125 103.574219 133.597656 91.226562 C 132.710938 83.574219 127.847656 76.992188 119.152344 71.628906 C 121.5 56.25 130.945312 44.445312 145.410156 39.023438 C 161.96875 32.8125 181.121094 36.21875 193.0625 47.5 C 204.5 58.304688 205.816406 70.773438 207.347656 85.210938 C 208.363281 94.757812 209.453125 105.113281 213.652344 115.925781 C 206.539062 118.5 177.128906 131.386719 179.804688 167.554688 C 180.9375 182.933594 190.621094 198 207.847656 211.410156 L 205.816406 211.410156 C 197.386719 211.410156 192.425781 217.621094 190.183594 222.644531 L 179.417969 222.644531 C 177.613281 218.675781 173.683594 214.21875 166.507812 214.21875 L 134.21875 214.21875 C 129.984375 214.21875 126.878906 215.78125 124.675781 217.871094 C 103.523438 171.167969 119.902344 123.695312 122.410156 117.023438 Z M 51.445312 231.167969 L 119.652344 231.167969 C 119.613281 233.832031 119.96875 236.765625 121 239.492188 L 51.445312 239.492188 Z M 182.324219 326.683594 C 178.613281 324.539062 176.167969 320.953125 174.863281 315.71875 C 170.304688 297.476562 166.628906 265.5625 165.5 255.152344 C 165.863281 255.054688 166.21875 254.945312 166.582031 254.824219 C 171.074219 253.386719 174.484375 251.046875 176.636719 248.007812 L 179.097656 248.007812 C 179.097656 248.265625 179.121094 248.53125 179.175781 248.796875 L 195.175781 328.789062 C 191.742188 329.167969 186.605469 329.152344 182.324219 326.683594 Z M 224.066406 337.757812 C 211.9375 337.757812 205.847656 332.152344 204.175781 330.304688 L 187.71875 248.007812 L 190.960938 248.007812 C 194.492188 253.273438 202.015625 255.242188 208.621094 255.984375 C 208.5625 256.652344 208.628906 257.339844 208.902344 258.007812 L 237.917969 328.46875 C 237.332031 330.976562 234.78125 337.757812 224.066406 337.757812 Z M 264.046875 286.824219 C 280.644531 311.71875 272.21875 320.9375 269.242188 323.167969 C 261.8125 328.742188 249.878906 325.878906 245.515625 324.554688 L 217.460938 256.433594 C 217.8125 256.433594 218.144531 256.433594 218.445312 256.433594 C 228.273438 256.433594 234.316406 253.304688 237.8125 250.417969 C 243.5 257.953125 255.765625 274.410156 264.046875 286.824219 Z M 320.296875 257.386719 C 319.492188 258.492188 318.304688 259.203125 316.953125 259.402344 C 315.597656 259.597656 314.257812 259.242188 313.183594 258.410156 L 289.855469 240.378906 C 289.113281 239.804688 288.195312 239.492188 287.25 239.492188 L 244.355469 239.492188 L 247.613281 231.167969 L 283.039062 231.167969 C 284.167969 231.167969 285.25 230.71875 286.054688 229.917969 L 309.3125 206.660156 C 311.195312 204.773438 314.226562 204.695312 316.210938 206.484375 L 316.4375 206.6875 C 317.46875 207.621094 318.0625 208.894531 318.097656 210.28125 C 318.136719 211.667969 317.613281 212.976562 316.628906 213.953125 L 307.574219 223.007812 C 304.71875 225.863281 303.296875 229.8125 303.675781 233.832031 C 304.046875 237.855469 306.175781 241.46875 309.507812 243.75 L 319.082031 250.296875 C 320.210938 251.066406 320.960938 252.234375 321.1875 253.582031 C 321.417969 254.933594 321.105469 256.28125 320.296875 257.386719 Z M 135.628906 74.582031 C 135.628906 71.871094 137.824219 69.667969 140.546875 69.667969 C 143.257812 69.667969 145.460938 71.863281 145.460938 74.582031 C 145.460938 77.296875 143.265625 79.5 140.546875 79.5 C 137.824219 79.5 135.628906 77.296875 135.628906 74.582031 Z M 135.628906 74.582031 " fill-opacity="1" fill-rule="nonzero"/></svg>