<svg xmlns="http://www.w3.org/2000/svg" xmlns:xlink="http://www.w3.org/1999/xlink" width="500" zoomAndPan="magnify" viewBox="0 0 375 374.999991" height="500" preserveAspectRatio="xMidYMid meet" version="1.0"><path fill="#469469" d="M 187.5 375 C 83.945312 375 0 291.054688 0 187.5 C 0 83.945312 83.945312 0 187.5 0 C 291.054688 0 375 83.945312 375 187.5 C 375 291.054688 291.054688 375 187.5 375 Z M 187.5 375 " fill-opacity="1" fill-rule="nonzero"/><path fill="#e5854b" d="M 171.675781 137.582031 C 169.238281 164.367188 144.890625 200.894531 98.621094 219.15625 C 52.355469 237.417969 14.609375 193.585938 43.832031 150.976562 C 73.050781 108.367188 116.882812 91.320312 116.882812 91.320312 C 144.882812 81.574219 174.105469 110.796875 171.675781 137.582031 Z M 325.90625 150.976562 C 296.683594 108.359375 252.855469 91.320312 252.855469 91.320312 C 224.847656 81.582031 195.625 110.804688 198.0625 137.589844 C 200.5 164.375 224.847656 200.902344 271.113281 219.164062 C 317.382812 237.417969 355.128906 193.585938 325.90625 150.976562 Z M 325.90625 150.976562 " fill-opacity="1" fill-rule="nonzero"/><path fill="#ffffff" d="M 64.527344 142.453125 C 44.0625 164.785156 39.234375 189.945312 38.097656 200.574219 C 31.101562 186.941406 31.574219 168.855469 43.832031 150.976562 C 70.546875 112.019531 109.445312 94.445312 115.929688 91.710938 L 121.046875 91.734375 C 121.046875 91.734375 91.3125 113.234375 64.527344 142.453125 Z M 289.773438 181.414062 C 277.597656 168.015625 277.597656 159.5 273.949219 138.796875 C 272.320312 129.59375 266.847656 114.859375 255.808594 101.328125 L 256.957031 101.144531 C 256.957031 101.144531 282.210938 115.480469 310.378906 131.808594 C 283.3125 103.175781 252.855469 91.3125 252.855469 91.3125 C 249.953125 90.304688 247.042969 89.726562 244.15625 89.511719 C 230.375 78 211.160156 69.394531 185.0625 69.394531 C 122.972656 69.394531 101.050781 110.789062 101.050781 146.097656 C 101.050781 181.40625 59.65625 180.191406 59.65625 242.285156 C 59.65625 304.375 135.144531 322.636719 194.800781 322.636719 C 254.457031 322.636719 300.726562 292.203125 310.464844 252.019531 C 320.207031 211.847656 301.949219 194.800781 289.773438 181.414062 Z M 289.773438 181.414062 " fill-opacity="1" fill-rule="nonzero"/><path fill="#ffffff" d="M 185.675781 69.410156 C 247.308594 69.730469 270.304688 118.175781 273.949219 138.804688 C 277.597656 159.5 277.597656 168.023438 289.773438 181.421875 C 301.949219 194.816406 320.207031 211.855469 310.472656 252.035156 C 300.734375 292.21875 254.464844 322.652344 194.808594 322.652344 C 191.800781 322.652344 188.753906 322.605469 185.675781 322.507812 Z M 185.675781 69.410156 " fill-opacity="1" fill-rule="nonzero"/><path fill="#995d1f" d="M 196.800781 209.585938 L 188.949219 219.578125 C 187.882812 220.9375 185.84375 220.984375 184.710938 219.667969 L 176.152344 209.679688 C 174.628906 207.898438 175.890625 205.15625 178.226562 205.15625 L 194.632812 205.15625 C 196.933594 205.15625 198.214844 207.792969 196.800781 209.585938 Z M 151.582031 171.0625 C 146.875 171.0625 143.058594 174.882812 143.058594 179.585938 C 143.058594 184.292969 146.875 188.109375 151.582031 188.109375 C 156.285156 188.109375 160.105469 184.292969 160.105469 179.585938 C 160.105469 174.875 156.292969 171.0625 151.582031 171.0625 Z M 330.601562 209.992188 C 326.769531 214.804688 322.117188 218.644531 316.917969 221.515625 C 318.078125 230.292969 317.621094 240.625 314.609375 253.039062 C 304.0625 296.53125 254.800781 326.914062 194.800781 326.914062 C 127.410156 326.914062 55.394531 304.683594 55.394531 242.300781 C 55.394531 235.324219 55.90625 229.101562 56.824219 223.503906 C 49.988281 220.53125 43.921875 216.019531 39.132812 210 C 25.5625 192.96875 26.011719 169.429688 40.316406 148.570312 C 69.945312 105.367188 113.5 88.066406 115.339844 87.351562 L 115.484375 87.296875 C 117.839844 86.480469 120.230469 85.90625 122.640625 85.554688 C 136.625 73.296875 156.910156 65.140625 185.0625 65.140625 C 211.710938 65.140625 231.445312 73.769531 245.742188 85.394531 C 248.613281 85.707031 251.464844 86.328125 254.242188 87.296875 L 254.390625 87.351562 C 256.230469 88.066406 299.785156 105.367188 329.410156 148.570312 C 343.71875 169.421875 344.175781 192.960938 330.601562 209.992188 Z M 58.640625 214.925781 C 63.574219 196.253906 73.265625 185.558594 81.523438 176.457031 C 90.054688 167.0625 96.789062 159.636719 96.789062 146.105469 C 96.789062 130.171875 101.011719 113.117188 110.894531 98.777344 C 97.347656 105.601562 68.316406 122.804688 47.34375 153.382812 C 35.238281 171.035156 34.652344 190.691406 45.792969 204.675781 C 49.316406 209.097656 53.699219 212.511719 58.640625 214.925781 Z M 288.597656 186.4375 C 287.925781 185.707031 287.261719 184.988281 286.621094 184.277344 C 275.125 171.628906 273.652344 162.785156 270.96875 146.722656 C 270.597656 144.492188 270.199219 142.109375 269.746094 139.535156 C 266.515625 121.214844 244.996094 73.65625 185.0625 73.65625 C 157.949219 73.65625 137.046875 81.628906 122.949219 97.355469 C 111.574219 110.03125 105.320312 127.339844 105.320312 146.105469 C 105.320312 162.929688 96.828125 172.285156 87.839844 182.183594 C 76.625 194.535156 63.925781 208.535156 63.925781 242.292969 C 63.925781 268.5625 78.308594 288.613281 106.671875 301.894531 C 137.320312 316.246094 175.050781 318.382812 194.808594 318.382812 C 250.859375 318.382812 296.714844 290.683594 306.332031 251.019531 C 315.023438 215.171875 300.367188 199.238281 288.597656 186.4375 Z M 322.386719 153.382812 C 301.632812 123.125 272.980469 105.953125 259.253906 98.980469 C 270.894531 113.410156 276.539062 128.972656 278.140625 138.054688 C 278.601562 140.660156 279.003906 143.066406 279.378906 145.316406 C 281.945312 160.722656 283.121094 167.75 292.925781 178.542969 C 293.5625 179.234375 294.210938 179.945312 294.875 180.664062 C 302.125 188.539062 310.914062 198.125 315.089844 212.6875 C 318.414062 210.535156 321.40625 207.871094 323.945312 204.675781 C 335.085938 190.691406 334.492188 171.035156 322.386719 153.382812 Z M 222.195312 171.0625 C 217.492188 171.0625 213.671875 174.882812 213.671875 179.585938 C 213.671875 184.292969 217.492188 188.109375 222.195312 188.109375 C 226.902344 188.109375 230.71875 184.292969 230.71875 179.585938 C 230.71875 174.875 226.910156 171.0625 222.195312 171.0625 Z M 222.195312 171.0625 " fill-opacity="1" fill-rule="nonzero"/></svg>