<svg xmlns="http://www.w3.org/2000/svg" xmlns:xlink="http://www.w3.org/1999/xlink" width="500" zoomAndPan="magnify" viewBox="0 0 375 374.999991" height="500" preserveAspectRatio="xMidYMid meet" version="1.0"><defs><clipPath id="1f7d54d129"><path d="M 43.875 48.117188 L 309 48.117188 L 309 337.617188 L 43.875 337.617188 Z M 43.875 48.117188 " clip-rule="nonzero"/></clipPath><clipPath id="5eb39487ca"><path d="M 300 248 L 320.625 248 L 320.625 255 L 300 255 Z M 300 248 " clip-rule="nonzero"/></clipPath></defs><path fill="#995d1f" d="M 187.5 0 C 83.945312 0 0 83.945312 0 187.5 C 0 291.054688 83.945312 375 187.5 375 C 291.054688 375 375 291.054688 375 187.5 C 375 83.945312 291.054688 0 187.5 0 " fill-opacity="1" fill-rule="nonzero"/><path fill="#fffcf7" d="M 269.78125 191.453125 C 274.105469 191.453125 277.613281 187.945312 277.613281 183.613281 C 277.613281 179.285156 274.109375 175.769531 269.78125 175.769531 C 265.460938 175.769531 261.953125 179.277344 261.953125 183.613281 C 261.957031 187.945312 265.460938 191.453125 269.78125 191.453125 Z M 269.78125 191.453125 " fill-opacity="1" fill-rule="nonzero"/><path fill="#fffcf7" d="M 232.574219 136.988281 L 232.3125 134.773438 C 229.757812 113.195312 218.160156 93.726562 200.410156 81.234375 C 195.546875 77.808594 188.777344 80.546875 187.644531 86.394531 C 184.574219 102.300781 188.929688 118.734375 199.480469 131.011719 L 212.082031 145.683594 C 214.414062 148.398438 218.1875 149.355469 221.527344 148.078125 L 227.175781 145.917969 C 230.808594 144.527344 233.03125 140.847656 232.574219 136.988281 Z M 232.574219 136.988281 " fill-opacity="1" fill-rule="nonzero"/><g clip-path="url(#1f7d54d129)"><path fill="#fffcf7" d="M 308.269531 214.0625 C 308.269531 198.527344 303.765625 183.445312 295.246094 170.460938 C 288.070312 159.519531 278.0625 151.160156 266.457031 146.101562 C 270.996094 113.628906 262.113281 80.214844 242.011719 54.308594 C 238.886719 50.285156 234.003906 48.148438 228.929688 48.585938 C 223.863281 49.027344 219.410156 51.972656 217.019531 56.472656 C 214.347656 61.511719 212.191406 66.820312 210.570312 72.289062 C 206.097656 67.972656 201.277344 63.96875 196.132812 60.347656 C 191.972656 57.414062 186.671875 56.808594 181.953125 58.714844 C 177.234375 60.621094 173.84375 64.75 172.878906 69.746094 C 167.90625 95.472656 174.847656 121.625 191.910156 141.488281 L 217.773438 171.589844 C 218.183594 172.0625 218.765625 172.3125 219.34375 172.3125 C 219.824219 172.3125 220.304688 172.148438 220.695312 171.808594 C 221.5625 171.058594 221.664062 169.75 220.914062 168.875 L 195.054688 138.773438 C 178.816406 119.882812 172.21875 95.011719 176.949219 70.53125 C 177.648438 66.914062 180.097656 63.941406 183.507812 62.5625 C 186.914062 61.1875 190.746094 61.625 193.75 63.746094 C 221.070312 82.976562 238.988281 113.054688 242.917969 146.265625 L 244.546875 160.039062 C 244.683594 161.179688 245.714844 161.996094 246.855469 161.859375 C 247.992188 161.722656 248.804688 160.6875 248.667969 159.546875 L 247.039062 145.773438 C 247.015625 145.558594 246.980469 145.347656 246.957031 145.132812 C 265.3125 147.210938 281.578125 157.195312 291.769531 172.730469 C 298.773438 183.410156 302.910156 195.585938 303.882812 208.25 C 294.445312 210.683594 287.054688 218.171875 284.804688 227.777344 L 284.234375 230.21875 C 284.007812 230.171875 283.785156 230.125 283.5625 230.070312 L 267.617188 226.027344 C 265.886719 225.589844 264.121094 226.183594 263.007812 227.582031 C 261.894531 228.984375 261.703125 230.835938 262.515625 232.425781 C 274.132812 255.28125 272.382812 282.640625 257.9375 303.816406 L 254.363281 309.058594 L 235.789062 309.058594 C 234.644531 309.058594 233.714844 309.992188 233.714844 311.136719 C 233.714844 312.285156 234.644531 313.214844 235.789062 313.214844 L 257.773438 313.214844 C 267.566406 313.214844 275.53125 321.195312 275.53125 331.003906 L 275.53125 333.496094 L 213.707031 333.496094 L 213.707031 331.003906 C 213.707031 318.902344 203.878906 309.058594 191.804688 309.058594 L 182.339844 309.03125 C 188.609375 301.246094 192.019531 291.628906 192.019531 281.488281 C 192.019531 264.929688 182.871094 249.9375 168.152344 242.367188 C 167.132812 241.84375 165.882812 242.246094 165.363281 243.269531 C 164.839844 244.289062 165.242188 245.542969 166.261719 246.066406 C 179.59375 252.917969 187.871094 266.496094 187.871094 281.488281 C 187.871094 292.113281 183.738281 302.105469 176.234375 309.625 C 175.640625 310.21875 175.464844 311.109375 175.78125 311.886719 C 176.101562 312.664062 176.855469 313.167969 177.691406 313.175781 L 191.800781 313.214844 C 201.589844 313.214844 209.558594 321.195312 209.558594 331.003906 L 209.558594 333.496094 L 128.390625 333.496094 C 127.273438 333.496094 126.164062 333.457031 125.066406 333.382812 C 120.152344 332.691406 116.359375 328.460938 116.359375 323.351562 C 116.359375 322.203125 115.429688 321.273438 114.285156 321.273438 C 113.140625 321.273438 112.210938 322.203125 112.210938 323.351562 C 112.210938 326.457031 113.207031 329.335938 114.894531 331.679688 C 93.148438 325.730469 77.113281 305.769531 77.113281 282.121094 C 77.113281 276.71875 77.683594 271.421875 78.761719 266.300781 C 78.777344 266.226562 78.796875 266.15625 78.808594 266.078125 C 84.402344 239.796875 103.53125 218.046875 129.890625 209.527344 L 191.058594 189.773438 C 199.796875 186.953125 206.511719 179.632812 208.59375 170.679688 C 208.851562 169.5625 208.160156 168.449219 207.039062 168.1875 C 205.917969 167.925781 204.808594 168.621094 204.550781 169.742188 C 202.800781 177.28125 197.140625 183.445312 189.785156 185.828125 L 128.617188 205.578125 C 101.683594 214.277344 81.90625 236.078125 75.335938 262.640625 C 72.425781 261.277344 69.246094 260.558594 65.992188 260.558594 C 53.839844 260.558594 43.960938 270.457031 43.960938 282.628906 C 43.960938 294.796875 53.839844 304.695312 65.992188 304.695312 C 69.757812 304.695312 73.378906 303.757812 76.621094 301.964844 C 84.167969 321.664062 102.617188 335.996094 124.535156 337.515625 C 125.171875 337.605469 125.820312 337.652344 126.484375 337.652344 L 277.617188 337.652344 C 278.761719 337.652344 279.691406 336.722656 279.691406 335.574219 L 279.691406 331.003906 C 279.691406 319.433594 270.707031 309.933594 259.355469 309.117188 L 261.378906 306.15625 C 276.675781 283.71875 278.53125 254.746094 266.226562 230.539062 C 266.195312 230.484375 266.125 230.34375 266.261719 230.171875 C 266.398438 230 266.550781 230.039062 266.609375 230.050781 L 282.554688 234.097656 C 288.773438 235.667969 295.246094 234.316406 300.308594 230.367188 C 305.367188 226.4375 308.269531 220.488281 308.269531 214.0625 Z M 262.484375 144.519531 C 257.351562 142.667969 251.945312 141.453125 246.363281 140.910156 C 242.425781 116.253906 231.023438 93.503906 213.945312 75.671875 C 215.527344 69.695312 217.792969 63.894531 220.691406 58.425781 C 222.414062 55.175781 225.628906 53.046875 229.292969 52.730469 C 232.953125 52.417969 236.480469 53.960938 238.738281 56.863281 C 257.949219 81.617188 266.550781 113.46875 262.484375 144.519531 Z M 65.992188 300.5625 C 56.128906 300.5625 48.109375 292.53125 48.109375 282.652344 C 48.109375 272.769531 56.128906 264.738281 65.992188 264.738281 C 68.949219 264.738281 71.835938 265.46875 74.421875 266.851562 C 73.46875 271.820312 72.964844 276.9375 72.964844 282.152344 C 72.964844 287.648438 73.769531 292.957031 75.257812 297.976562 C 72.472656 299.671875 69.292969 300.5625 65.992188 300.5625 Z M 65.992188 300.5625 " fill-opacity="1" fill-rule="nonzero"/></g><path fill="#fffcf7" d="M 63.886719 218.078125 L 78.28125 223.671875 C 78.53125 223.765625 78.777344 223.8125 79.03125 223.8125 C 79.863281 223.8125 80.652344 223.308594 80.964844 222.488281 C 81.378906 221.421875 80.847656 220.214844 79.78125 219.800781 L 65.386719 214.207031 C 64.320312 213.789062 63.117188 214.324219 62.703125 215.394531 C 62.289062 216.460938 62.820312 217.667969 63.886719 218.078125 Z M 63.886719 218.078125 " fill-opacity="1" fill-rule="nonzero"/><path fill="#fffcf7" d="M 112.285156 191.195312 C 112.554688 192.101562 113.378906 192.691406 114.277344 192.691406 C 114.472656 192.691406 114.667969 192.660156 114.867188 192.605469 C 115.960938 192.285156 116.597656 191.128906 116.269531 190.03125 L 111.929688 175.191406 C 111.609375 174.09375 110.457031 173.460938 109.359375 173.785156 C 108.261719 174.105469 107.628906 175.265625 107.953125 176.363281 Z M 112.285156 191.195312 " fill-opacity="1" fill-rule="nonzero"/><g clip-path="url(#5eb39487ca)"><path fill="#fffcf7" d="M 320.441406 250.164062 C 320.308594 249.023438 319.277344 248.203125 318.140625 248.332031 L 302.804688 250.089844 C 301.667969 250.222656 300.847656 251.25 300.980469 252.394531 C 301.097656 253.457031 302 254.234375 303.035156 254.234375 C 303.113281 254.234375 303.195312 254.230469 303.273438 254.222656 L 318.609375 252.464844 C 319.75 252.335938 320.570312 251.300781 320.441406 250.164062 Z M 320.441406 250.164062 " fill-opacity="1" fill-rule="nonzero"/></g><path fill="#fffcf7" d="M 287.796875 294.699219 C 287.003906 293.871094 285.6875 293.855469 284.863281 294.648438 C 284.039062 295.445312 284.019531 296.761719 284.816406 297.589844 L 295.550781 308.699219 C 295.957031 309.117188 296.496094 309.332031 297.042969 309.332031 C 297.566406 309.332031 298.082031 309.136719 298.484375 308.746094 C 299.308594 307.949219 299.324219 306.632812 298.53125 305.804688 Z M 287.796875 294.699219 " fill-opacity="1" fill-rule="nonzero"/></svg>