<svg xmlns="http://www.w3.org/2000/svg" xmlns:xlink="http://www.w3.org/1999/xlink" width="500" zoomAndPan="magnify" viewBox="0 0 375 374.999991" height="500" preserveAspectRatio="xMidYMid meet" version="1.0"><defs><clipPath id="fbe3146fa7"><path d="M 176 60.203125 L 311.90625 60.203125 L 311.90625 312 L 176 312 Z M 176 60.203125 " clip-rule="nonzero"/></clipPath><clipPath id="e340715f25"><path d="M 276 60.203125 L 285 60.203125 L 285 65 L 276 65 Z M 276 60.203125 " clip-rule="nonzero"/></clipPath><clipPath id="521c1cee37"><path d="M 250 60.203125 L 260 60.203125 L 260 65 L 250 65 Z M 250 60.203125 " clip-rule="nonzero"/></clipPath><clipPath id="6fdf7dcea0"><path d="M 263 60.203125 L 272 60.203125 L 272 65 L 263 65 Z M 263 60.203125 " clip-rule="nonzero"/></clipPath><clipPath id="4a91b2a166"><path d="M 225 60.203125 L 234 60.203125 L 234 65 L 225 65 Z M 225 60.203125 " clip-rule="nonzero"/></clipPath><clipPath id="56a8e521f1"><path d="M 238 60.203125 L 247 60.203125 L 247 65 L 238 65 Z M 238 60.203125 " clip-rule="nonzero"/></clipPath><clipPath id="742ca87a48"><path d="M 212 60.203125 L 222 60.203125 L 222 65 L 212 65 Z M 212 60.203125 " clip-rule="nonzero"/></clipPath><clipPath id="1db07bbf69"><path d="M 62.90625 79 L 224 79 L 224 314.453125 L 62.90625 314.453125 Z M 62.90625 79 " clip-rule="nonzero"/></clipPath></defs><path fill="#e5854b" d="M 187.5 0 C 83.945312 0 0 83.945312 0 187.5 C 0 291.054688 83.945312 375 187.5 375 C 291.054688 375 375 291.054688 375 187.5 C 375 83.945312 291.054688 0 187.5 0 " fill-opacity="1" fill-rule="nonzero"/><path fill="#ffffff" d="M 208.445312 254.457031 L 199.996094 254.457031 C 195.351562 254.457031 191.550781 258.257812 191.550781 262.898438 C 191.550781 267.542969 195.351562 271.339844 199.996094 271.339844 L 208.445312 271.339844 C 213.089844 271.339844 216.890625 267.542969 216.890625 262.898438 C 216.890625 258.257812 213.089844 254.457031 208.445312 254.457031 Z M 208.445312 254.457031 " fill-opacity="1" fill-rule="nonzero"/><path fill="#ffffff" d="M 242.226562 254.457031 L 233.78125 254.457031 C 229.136719 254.457031 225.335938 258.257812 225.335938 262.898438 C 225.335938 267.542969 229.136719 271.339844 233.78125 271.339844 L 242.226562 271.339844 C 246.875 271.339844 250.675781 267.542969 250.675781 262.898438 C 250.675781 258.257812 246.875 254.457031 242.226562 254.457031 Z M 242.226562 254.457031 " fill-opacity="1" fill-rule="nonzero"/><path fill="#ffffff" d="M 276.011719 254.457031 L 267.566406 254.457031 C 262.921875 254.457031 259.121094 258.257812 259.121094 262.898438 C 259.121094 267.542969 262.921875 271.339844 267.566406 271.339844 L 276.011719 271.339844 C 280.65625 271.339844 284.457031 267.542969 284.457031 262.898438 C 284.457031 258.257812 280.65625 254.457031 276.011719 254.457031 Z M 276.011719 254.457031 " fill-opacity="1" fill-rule="nonzero"/><path fill="#ffffff" d="M 276.011719 220.695312 L 267.566406 220.695312 C 262.921875 220.695312 259.121094 224.492188 259.121094 229.136719 C 259.121094 233.777344 262.921875 237.578125 267.566406 237.578125 L 276.011719 237.578125 C 280.65625 237.578125 284.457031 233.777344 284.457031 229.136719 C 284.457031 224.492188 280.65625 220.695312 276.011719 220.695312 Z M 276.011719 220.695312 " fill-opacity="1" fill-rule="nonzero"/><path fill="#ffffff" d="M 276.011719 186.933594 L 267.566406 186.933594 C 262.921875 186.933594 259.121094 190.730469 259.121094 195.375 C 259.121094 200.015625 262.921875 203.8125 267.566406 203.8125 L 276.011719 203.8125 C 280.65625 203.8125 284.457031 200.015625 284.457031 195.375 C 284.457031 190.730469 280.65625 186.933594 276.011719 186.933594 Z M 276.011719 186.933594 " fill-opacity="1" fill-rule="nonzero"/><path fill="#ffffff" d="M 208.445312 186.933594 L 199.996094 186.933594 C 195.351562 186.933594 191.550781 190.730469 191.550781 195.375 C 191.550781 200.015625 195.351562 203.8125 199.996094 203.8125 L 208.445312 203.8125 C 213.089844 203.8125 216.890625 200.015625 216.890625 195.375 C 216.890625 190.730469 213.089844 186.933594 208.445312 186.933594 Z M 208.445312 186.933594 " fill-opacity="1" fill-rule="nonzero"/><path fill="#ffffff" d="M 242.226562 186.933594 L 233.78125 186.933594 C 229.136719 186.933594 225.335938 190.730469 225.335938 195.375 C 225.335938 200.015625 229.136719 203.8125 233.78125 203.8125 L 242.226562 203.8125 C 246.875 203.8125 250.675781 200.015625 250.675781 195.375 C 250.675781 190.730469 246.875 186.933594 242.226562 186.933594 Z M 242.226562 186.933594 " fill-opacity="1" fill-rule="nonzero"/><path fill="#ffffff" d="M 208.445312 220.695312 L 199.996094 220.695312 C 195.351562 220.695312 191.550781 224.492188 191.550781 229.136719 C 191.550781 233.777344 195.351562 237.578125 199.996094 237.578125 L 208.445312 237.578125 C 213.089844 237.578125 216.890625 233.777344 216.890625 229.136719 C 216.890625 224.492188 213.089844 220.695312 208.445312 220.695312 Z M 208.445312 220.695312 " fill-opacity="1" fill-rule="nonzero"/><path fill="#ffffff" d="M 242.226562 220.695312 L 233.78125 220.695312 C 229.136719 220.695312 225.335938 224.492188 225.335938 229.136719 C 225.335938 233.777344 229.136719 237.578125 233.78125 237.578125 L 242.226562 237.578125 C 246.875 237.578125 250.675781 233.777344 250.675781 229.136719 C 250.675781 224.492188 246.875 220.695312 242.226562 220.695312 Z M 242.226562 220.695312 " fill-opacity="1" fill-rule="nonzero"/><path fill="#ffffff" d="M 72.199219 144.308594 C 70.035156 133.542969 72.199219 122.570312 78.269531 113.445312 C 84.394531 104.320312 93.628906 98.09375 104.398438 95.929688 L 103.554688 91.816406 C 91.675781 94.191406 81.4375 101.046875 74.734375 111.125 C 68.027344 121.199219 65.652344 133.28125 68.027344 145.152344 Z M 72.199219 144.308594 " fill-opacity="1" fill-rule="nonzero"/><path fill="#ffffff" d="M 105.613281 131.644531 C 104.398438 133.492188 103.976562 135.707031 104.398438 137.871094 L 108.515625 137.027344 C 108.304688 135.972656 108.515625 134.863281 109.097656 133.96875 C 109.679688 133.070312 110.628906 132.4375 111.683594 132.226562 L 110.839844 128.109375 C 108.726562 128.53125 106.878906 129.800781 105.613281 131.644531 Z M 105.613281 131.644531 " fill-opacity="1" fill-rule="nonzero"/><path fill="#ffffff" d="M 90.199219 121.359375 C 86.242188 127.320312 84.816406 134.441406 86.242188 141.457031 L 90.359375 140.613281 C 89.144531 134.707031 90.359375 128.691406 93.683594 123.679688 C 97.007812 118.667969 102.128906 115.238281 108.042969 114.027344 L 107.195312 109.910156 C 100.230469 111.335938 94.160156 115.398438 90.199219 121.359375 Z M 90.199219 121.359375 " fill-opacity="1" fill-rule="nonzero"/><g clip-path="url(#fbe3146fa7)"><path fill="#ffffff" d="M 301.351562 79.3125 L 290.792969 79.3125 L 290.792969 70.871094 C 290.792969 67.390625 293.644531 64.542969 297.128906 64.542969 C 300.613281 64.542969 303.460938 67.390625 303.460938 70.871094 L 307.683594 70.871094 C 307.683594 65.070312 302.933594 60.320312 297.128906 60.320312 C 291.320312 60.320312 286.570312 65.070312 286.570312 70.871094 L 286.570312 79.3125 L 189.441406 79.3125 L 189.441406 70.871094 C 189.441406 67.390625 192.289062 64.542969 195.773438 64.542969 L 208.390625 64.542969 L 208.390625 60.320312 L 195.773438 60.320312 C 189.96875 60.320312 185.21875 65.070312 185.21875 70.871094 L 185.21875 79.523438 C 182.523438 80.050781 180.148438 81.632812 178.566406 83.957031 L 182.050781 86.328125 C 183.210938 84.589844 185.21875 83.535156 187.328125 83.535156 L 288.679688 83.535156 C 292.164062 83.535156 295.015625 86.382812 295.015625 89.863281 L 295.015625 300.882812 C 295.015625 304.363281 292.164062 307.210938 288.679688 307.210938 L 282.347656 307.210938 L 282.347656 300.882812 C 282.347656 295.078125 277.597656 290.332031 271.789062 290.332031 L 204.222656 290.332031 C 198.414062 290.332031 193.664062 295.078125 193.664062 300.882812 L 193.664062 307.210938 L 187.328125 307.210938 C 183.84375 307.210938 180.996094 304.363281 180.996094 300.882812 L 180.996094 225.125 L 176.769531 225.125 L 176.769531 300.882812 C 176.769531 306.683594 181.523438 311.433594 187.328125 311.433594 L 301.351562 311.433594 C 307.15625 311.433594 311.90625 306.683594 311.90625 300.882812 L 311.90625 89.863281 C 311.90625 84.0625 307.15625 79.3125 301.351562 79.3125 Z M 301.351562 79.3125 " fill-opacity="1" fill-rule="nonzero"/></g><path fill="#ffffff" d="M 286.570312 165.832031 L 286.570312 98.304688 C 286.570312 97.144531 285.621094 96.195312 284.457031 96.195312 L 204.167969 96.195312 L 204.167969 100.414062 L 282.347656 100.414062 L 282.347656 163.71875 L 206.703125 163.71875 L 206.703125 167.941406 L 284.457031 167.941406 C 285.621094 167.941406 286.570312 166.992188 286.570312 165.832031 Z M 286.570312 165.832031 " fill-opacity="1" fill-rule="nonzero"/><path fill="#ffffff" d="M 216.519531 145.46875 C 221.007812 152.640625 228.925781 157.390625 238.003906 157.390625 C 251.992188 157.390625 263.34375 146.046875 263.34375 132.066406 C 263.34375 118.085938 251.992188 106.746094 238.003906 106.746094 C 232.882812 106.746094 228.082031 108.277344 224.070312 110.914062 C 227.660156 115.292969 228.554688 121.570312 225.863281 126.949219 Z M 233.78125 137.5 L 249.195312 122.097656 L 252.207031 125.105469 L 235.3125 141.984375 C 234.890625 142.40625 234.363281 142.617188 233.835938 142.617188 C 233.308594 142.617188 232.777344 142.40625 232.355469 141.984375 L 223.910156 133.542969 L 226.917969 130.539062 Z M 233.78125 137.5 " fill-opacity="1" fill-rule="nonzero"/><g clip-path="url(#e340715f25)"><path fill="#ffffff" d="M 276.011719 60.320312 L 284.457031 60.320312 L 284.457031 64.542969 L 276.011719 64.542969 Z M 276.011719 60.320312 " fill-opacity="1" fill-rule="nonzero"/></g><g clip-path="url(#521c1cee37)"><path fill="#ffffff" d="M 250.675781 60.320312 L 259.121094 60.320312 L 259.121094 64.542969 L 250.675781 64.542969 Z M 250.675781 60.320312 " fill-opacity="1" fill-rule="nonzero"/></g><g clip-path="url(#6fdf7dcea0)"><path fill="#ffffff" d="M 263.34375 60.320312 L 271.789062 60.320312 L 271.789062 64.542969 L 263.34375 64.542969 Z M 263.34375 60.320312 " fill-opacity="1" fill-rule="nonzero"/></g><g clip-path="url(#4a91b2a166)"><path fill="#ffffff" d="M 225.335938 60.320312 L 233.78125 60.320312 L 233.78125 64.542969 L 225.335938 64.542969 Z M 225.335938 60.320312 " fill-opacity="1" fill-rule="nonzero"/></g><g clip-path="url(#56a8e521f1)"><path fill="#ffffff" d="M 238.003906 60.320312 L 246.453125 60.320312 L 246.453125 64.542969 L 238.003906 64.542969 Z M 238.003906 60.320312 " fill-opacity="1" fill-rule="nonzero"/></g><g clip-path="url(#742ca87a48)"><path fill="#ffffff" d="M 212.667969 60.320312 L 221.113281 60.320312 L 221.113281 64.542969 L 212.667969 64.542969 Z M 212.667969 60.320312 " fill-opacity="1" fill-rule="nonzero"/></g><g clip-path="url(#1db07bbf69)"><path fill="#ffffff" d="M 217.417969 110.859375 L 157.082031 80.421875 C 151.910156 77.785156 145.519531 79.894531 142.882812 85.0625 L 110.785156 148.632812 L 88.351562 163.191406 C 80.328125 168.414062 74.308594 175.90625 70.933594 184.875 C 67.605469 193.84375 67.238281 203.445312 69.875 212.675781 L 83.390625 259.363281 L 62.90625 312.804688 L 66.867188 314.335938 L 87.613281 260.261719 C 87.769531 259.839844 87.824219 259.363281 87.664062 258.941406 L 73.992188 211.570312 C 71.566406 203.234375 71.933594 194.527344 74.945312 186.40625 C 77.953125 178.28125 83.441406 171.476562 90.675781 166.78125 L 107.039062 156.175781 L 89.671875 190.625 C 88.40625 193.15625 88.195312 196.007812 89.089844 198.695312 C 89.988281 201.386719 91.835938 203.550781 94.371094 204.816406 L 108.886719 212.148438 L 123.5625 238.050781 C 123.984375 238.738281 124.722656 239.160156 125.515625 239.105469 C 126.304688 239.054688 127.046875 238.578125 127.363281 237.839844 L 147.683594 189.886719 C 148.636719 187.671875 150.378906 186.035156 152.59375 185.191406 C 154.8125 184.347656 157.238281 184.503906 159.402344 185.5625 C 163.363281 187.566406 165.15625 192.207031 163.523438 196.324219 L 149.957031 230.613281 C 149.847656 230.878906 149.796875 231.140625 149.796875 231.40625 C 149.742188 248.128906 140.664062 263.585938 126.09375 271.867188 L 124.246094 272.921875 C 123.667969 273.238281 123.296875 273.820312 123.191406 274.453125 L 117.648438 313.226562 L 121.820312 313.808594 L 127.152344 276.035156 L 128.101562 275.507812 C 142.988281 267.066406 152.59375 251.664062 153.808594 234.78125 L 154.652344 235.203125 C 156.183594 235.992188 157.769531 236.3125 159.402344 236.3125 C 163.257812 236.3125 167.003906 234.199219 168.851562 230.507812 L 222.117188 125 C 224.703125 119.828125 222.644531 113.5 217.417969 110.859375 Z M 125.09375 232.25 L 115.644531 215.578125 L 129.261719 222.4375 Z M 127.414062 195.480469 C 126.359375 197.535156 123.824219 198.378906 121.765625 197.324219 L 114.21875 193.527344 C 112.160156 192.472656 111.316406 189.9375 112.371094 187.882812 L 115.222656 182.238281 L 130.316406 189.832031 Z M 135.015625 180.390625 L 132.164062 186.035156 L 117.070312 178.4375 L 119.917969 172.792969 C 120.976562 170.738281 123.507812 169.894531 125.566406 170.949219 L 133.117188 174.746094 C 135.226562 175.800781 136.070312 178.332031 135.015625 180.390625 Z M 169.117188 155.015625 L 172.863281 156.914062 L 167.164062 168.203125 L 163.417969 166.304688 Z M 159.5625 183.292969 L 155.816406 181.394531 L 161.515625 170.105469 L 165.261719 172.003906 Z M 168.957031 192.789062 L 165.210938 190.890625 L 176.613281 168.257812 L 180.359375 170.15625 Z M 174.765625 153.167969 L 171.015625 151.269531 L 176.71875 139.980469 L 180.464844 141.878906 Z M 182.367188 138.082031 L 178.617188 136.183594 L 184.320312 124.894531 L 188.066406 126.792969 Z M 182.367188 138.082031 " fill-opacity="1" fill-rule="nonzero"/></g></svg>