<svg xmlns="http://www.w3.org/2000/svg" xmlns:xlink="http://www.w3.org/1999/xlink" width="500" zoomAndPan="magnify" viewBox="0 0 375 374.999991" height="500" preserveAspectRatio="xMidYMid meet" version="1.0"><defs><clipPath id="29f22da841"><path d="M 39 71.625 L 336 71.625 L 336 303.375 L 39 303.375 Z M 39 71.625 " clip-rule="nonzero"/></clipPath></defs><path fill="#e5854b" d="M 187.5 0 C 83.945312 0 0 83.945312 0 187.5 C 0 291.054688 83.945312 375 187.5 375 C 291.054688 375 375 291.054688 375 187.5 C 375 83.945312 291.054688 0 187.5 0 " fill-opacity="1" fill-rule="nonzero"/><g clip-path="url(#29f22da841)"><path fill="#fffcf7" d="M 187.5 294.839844 C 102.734375 294.839844 48.550781 279.101562 48.550781 268.441406 L 48.550781 129.046875 C 70.789062 146.179688 130.527344 155.441406 187.5 155.441406 C 244.472656 155.441406 304.210938 146.179688 326.449219 129.046875 L 326.449219 268.441406 C 326.449219 279.101562 272.265625 294.839844 187.5 294.839844 Z M 187.5 80.863281 C 273.632812 80.863281 326.449219 99.863281 326.449219 113.285156 C 326.449219 126.730469 273.632812 145.703125 187.5 145.703125 C 101.339844 145.703125 48.550781 126.730469 48.550781 113.285156 C 48.550781 99.863281 101.339844 80.863281 187.5 80.863281 Z M 187.5 71.597656 C 115.710938 71.597656 39.289062 86.441406 39.289062 113.285156 L 39.289062 267.96875 C 39.289062 294.390625 127.761719 303.652344 187.5 303.652344 C 247.238281 303.652344 335.710938 293.917969 335.710938 267.96875 L 335.710938 113.757812 C 335.710938 86.414062 259.289062 71.597656 187.5 71.597656 " fill-opacity="1" fill-rule="nonzero"/></g><path fill="#fffcf7" d="M 187.5 102.179688 C 259.738281 102.179688 288.921875 109.125 291.265625 113.757812 C 289.394531 118.390625 259.738281 125.808594 187.5 125.808594 C 115.261719 125.808594 86.078125 118.863281 83.761719 114.230469 C 86.078125 109.125 115.261719 102.179688 187.5 102.179688 Z M 187.5 134.597656 C 300.054688 134.597656 300.054688 119.308594 300.054688 113.757812 C 300.054688 108.203125 300.054688 92.914062 187.5 92.914062 C 74.945312 92.914062 74.945312 107.730469 74.945312 113.757812 C 74.945312 119.785156 74.945312 134.597656 187.5 134.597656 " fill-opacity="1" fill-rule="nonzero"/><path fill="#fffcf7" d="M 265.765625 233.257812 C 270.871094 236.941406 273.183594 239.257812 274.554688 240.652344 C 270.871094 240.207031 262.078125 237.417969 248.632812 230.46875 C 245.84375 229.074219 242.605469 229.074219 239.84375 230.46875 C 213.421875 242.96875 179.15625 257.785156 168.5 257.785156 C 156.472656 257.785156 144.894531 254.074219 135.15625 248.996094 C 139.316406 241.574219 142.105469 233.707031 142.105469 224.917969 C 142.105469 216.574219 139.789062 208.230469 135.15625 200.835938 C 145.339844 195.730469 156.472656 192.019531 168.5 192.019531 C 186.578125 192.019531 217.132812 205.914062 239.367188 218.890625 C 242.132812 220.730469 245.84375 220.730469 249.105469 218.890625 C 260.210938 213.335938 269.921875 209.152344 275.027344 208.707031 C 273.632812 210.101562 271.34375 212.863281 266.238281 216.101562 C 263 218.890625 261.605469 222.125 261.605469 224.917969 C 261.605469 228.152344 263 231.390625 265.765625 233.257812 Z M 126.367188 205.46875 C 130.078125 211.46875 131.921875 217.96875 131.921875 224.917969 C 131.921875 231.863281 130.078125 238.335938 126.367188 244.363281 C 114.789062 237.417969 105.972656 229.074219 101.339844 224.917969 C 105.523438 220.730469 114.789062 212.863281 126.367188 205.46875 Z M 284.289062 205.914062 C 283.816406 204.074219 281.976562 200.363281 275.5 200.363281 C 267.160156 200.363281 252.34375 207.3125 244.472656 211.46875 L 243.554688 211.46875 C 231.949219 204.519531 193.050781 183.230469 168.050781 183.230469 C 126.367188 183.230469 93.023438 220.285156 91.628906 222.125 C 90.234375 223.996094 90.234375 226.3125 91.628906 228.152344 C 93.023438 229.546875 126.367188 267.046875 168.050781 267.046875 C 182.867188 267.046875 225.472656 247.152344 243.554688 238.8125 L 244.472656 238.8125 C 271.789062 253.152344 278.265625 250.390625 280.605469 249.46875 C 282.894531 248.523438 284.289062 246.679688 284.765625 244.835938 C 286.160156 239.730469 282.449219 233.707031 271.34375 225.835938 L 270.871094 225.363281 C 270.871094 225.363281 270.871094 224.917969 271.34375 224.917969 C 281.976562 217.019531 286.160156 211.019531 284.289062 205.914062 " fill-opacity="1" fill-rule="nonzero"/></svg>