<svg xmlns="http://www.w3.org/2000/svg" xmlns:xlink="http://www.w3.org/1999/xlink" width="500" zoomAndPan="magnify" viewBox="0 0 375 374.999991" height="500" preserveAspectRatio="xMidYMid meet" version="1.0"><defs><clipPath id="87be2ab912"><path d="M 168 71.746094 L 337.332031 71.746094 L 337.332031 302 L 168 302 Z M 168 71.746094 " clip-rule="nonzero"/></clipPath><clipPath id="8284fbd757"><path d="M 42.582031 71.746094 L 132 71.746094 L 132 193 L 42.582031 193 Z M 42.582031 71.746094 " clip-rule="nonzero"/></clipPath><clipPath id="eff5a0d23f"><path d="M 48 199 L 215 199 L 215 303.496094 L 48 303.496094 Z M 48 199 " clip-rule="nonzero"/></clipPath></defs><path fill="#31aec0" d="M 187.5 0 C 83.945312 0 0 83.945312 0 187.5 C 0 291.054688 83.945312 375 187.5 375 C 291.054688 375 375 291.054688 375 187.5 C 375 83.945312 291.054688 0 187.5 0 " fill-opacity="1" fill-rule="nonzero"/><path fill="#ffffff" d="M 252.941406 210.523438 C 223.128906 210.523438 198.878906 186.230469 198.878906 156.367188 C 198.878906 126.519531 223.128906 102.238281 252.941406 102.238281 C 282.757812 102.238281 307.015625 126.519531 307.015625 156.367188 C 307.015625 186.230469 282.757812 210.523438 252.941406 210.523438 Z M 252.941406 112.3125 C 228.675781 112.3125 208.933594 132.074219 208.933594 156.367188 C 208.933594 180.675781 228.675781 200.453125 252.941406 200.453125 C 277.214844 200.453125 296.960938 180.675781 296.960938 156.367188 C 296.960938 132.074219 277.214844 112.3125 252.941406 112.3125 Z M 252.941406 112.3125 " fill-opacity="1" fill-rule="nonzero"/><g clip-path="url(#87be2ab912)"><path fill="#ffffff" d="M 252.9375 301.804688 L 185.929688 207.738281 C 174.40625 191.550781 168.5625 174.265625 168.5625 156.371094 C 168.5625 109.769531 206.414062 71.855469 252.9375 71.855469 C 299.472656 71.855469 337.332031 109.769531 337.332031 156.371094 C 337.332031 174.03125 331.324219 191.792969 319.960938 207.734375 Z M 252.9375 81.929688 C 211.957031 81.929688 178.617188 115.324219 178.617188 156.371094 C 178.617188 172.128906 183.832031 187.445312 194.117188 201.890625 L 252.9375 284.464844 L 311.777344 201.882812 C 322.0625 187.457031 327.277344 172.140625 327.277344 156.367188 C 327.277344 115.320312 293.929688 81.929688 252.9375 81.929688 Z M 252.9375 81.929688 " fill-opacity="1" fill-rule="nonzero"/></g><g clip-path="url(#8284fbd757)"><path fill="#ffffff" d="M 86.847656 192.5 L 51.640625 143.074219 C 45.628906 134.628906 42.582031 125.585938 42.582031 116.195312 C 42.582031 91.746094 62.4375 71.855469 86.847656 71.855469 C 111.261719 71.855469 131.121094 91.746094 131.121094 116.195312 C 131.121094 125.464844 127.988281 134.761719 122.058594 143.074219 Z M 86.847656 81.929688 C 67.984375 81.929688 52.636719 97.300781 52.636719 116.195312 C 52.636719 123.449219 55.058594 130.523438 59.824219 137.230469 L 86.84375 175.160156 L 113.875 137.222656 C 118.648438 130.535156 121.066406 123.460938 121.066406 116.195312 C 121.066406 97.300781 105.714844 81.929688 86.847656 81.929688 Z M 86.847656 81.929688 " fill-opacity="1" fill-rule="nonzero"/></g><path fill="#ffffff" d="M 86.847656 138.941406 C 74.324219 138.941406 64.136719 128.738281 64.136719 116.195312 C 64.136719 103.65625 74.324219 93.457031 86.847656 93.457031 C 99.371094 93.457031 109.558594 103.65625 109.558594 116.195312 C 109.558594 128.738281 99.371094 138.941406 86.847656 138.941406 Z M 86.847656 103.53125 C 79.867188 103.53125 74.195312 109.210938 74.195312 116.195312 C 74.195312 123.183594 79.867188 128.871094 86.847656 128.871094 C 93.824219 128.871094 99.503906 123.183594 99.503906 116.195312 C 99.503906 109.210938 93.824219 103.53125 86.847656 103.53125 Z M 86.847656 103.53125 " fill-opacity="1" fill-rule="nonzero"/><g clip-path="url(#eff5a0d23f)"><path fill="#ffffff" d="M 204.46875 303.53125 L 204.46875 293.460938 L 214.382812 293.460938 L 214.382812 303.53125 Z M 182.410156 303.53125 L 182.410156 293.460938 L 192.324219 293.460938 L 192.324219 303.53125 Z M 160.351562 303.53125 L 160.351562 293.460938 L 170.265625 293.460938 L 170.265625 303.53125 Z M 138.296875 303.53125 L 138.296875 293.460938 L 148.207031 293.460938 L 148.207031 303.53125 Z M 116.234375 303.53125 L 116.234375 293.460938 L 126.148438 293.460938 L 126.148438 303.53125 Z M 94.179688 303.53125 L 94.179688 293.460938 L 104.089844 293.460938 L 104.089844 303.53125 Z M 82.03125 303.53125 C 78.070312 303.507812 74.199219 302.808594 70.515625 301.453125 L 74.132812 292.058594 C 76.660156 292.964844 79.3125 293.4375 82.03125 293.460938 Z M 58.679688 294.054688 C 55.816406 291.308594 53.472656 288.125 51.714844 284.578125 L 60.792969 280.238281 C 62 282.632812 63.585938 284.789062 65.515625 286.667969 Z M 48.203125 271.035156 C 48.175781 270.496094 48.167969 269.949219 48.167969 269.402344 C 48.167969 265.984375 48.671875 262.605469 49.664062 259.355469 L 59.230469 262.472656 C 58.558594 264.710938 58.222656 267.039062 58.222656 269.398438 C 58.222656 269.734375 58.230469 270.066406 58.242188 270.398438 Z M 56.417969 247.128906 C 59.007812 244.117188 62.066406 241.609375 65.507812 239.660156 L 70.304688 248.515625 C 67.980469 249.847656 65.910156 251.550781 64.144531 253.578125 Z M 78.816406 235.441406 C 79.945312 235.328125 81.09375 235.269531 82.242188 235.269531 L 89.304688 235.269531 L 89.304688 245.339844 L 82.242188 245.339844 C 81.476562 245.339844 80.71875 245.375 79.980469 245.445312 Z M 145.570312 245.339844 L 145.570312 235.269531 L 145.636719 235.269531 C 147.972656 235.269531 150.234375 234.644531 152.21875 233.453125 L 157.757812 241.863281 C 154.125 244.140625 149.949219 245.339844 145.640625 245.339844 Z M 123.511719 245.339844 L 123.511719 235.269531 L 133.425781 235.269531 L 133.425781 245.339844 Z M 101.453125 245.339844 L 101.453125 235.269531 L 111.363281 235.269531 L 111.363281 245.339844 Z M 157.808594 226.550781 C 158.261719 225.222656 158.488281 223.828125 158.488281 222.40625 C 158.488281 221.53125 158.402344 220.664062 158.230469 219.824219 L 167.996094 217.394531 C 168.359375 219.039062 168.542969 220.71875 168.542969 222.402344 C 168.542969 225.089844 168.082031 227.722656 167.171875 230.226562 Z M 153.578125 212.277344 C 151.777344 210.859375 149.660156 209.960938 147.390625 209.648438 L 148.308594 199.617188 C 152.667969 200.121094 156.734375 201.847656 160.132812 204.640625 Z M 125.796875 209.53125 L 125.796875 199.460938 L 135.707031 199.460938 L 135.707031 209.53125 Z M 103.742188 209.53125 L 103.742188 199.460938 L 113.652344 199.460938 L 113.652344 209.53125 Z M 81.679688 209.53125 L 81.679688 199.460938 L 91.59375 199.460938 L 91.59375 209.53125 Z M 81.679688 209.53125 " fill-opacity="1" fill-rule="nonzero"/></g></svg>