<svg xmlns="http://www.w3.org/2000/svg" xmlns:xlink="http://www.w3.org/1999/xlink" width="500" zoomAndPan="magnify" viewBox="0 0 375 374.999991" height="500" preserveAspectRatio="xMidYMid meet" version="1.0"><defs><clipPath id="f5692a20b2"><path d="M 55.980469 55.980469 L 319.230469 55.980469 L 319.230469 319.230469 L 55.980469 319.230469 Z M 55.980469 55.980469 " clip-rule="nonzero"/></clipPath></defs><path fill="#e5854b" d="M 187.5 0 C 83.945312 0 0 83.945312 0 187.5 C 0 291.054688 83.945312 375 187.5 375 C 291.054688 375 375 291.054688 375 187.5 C 375 83.945312 291.054688 0 187.5 0 " fill-opacity="1" fill-rule="nonzero"/><g clip-path="url(#f5692a20b2)"><path fill="#ffffff" d="M 306.066406 187.605469 C 306.066406 166.171875 300.34375 146.054688 290.347656 128.691406 C 290.347656 128.691406 290.347656 128.683594 290.34375 128.683594 C 290.304688 128.578125 290.25 128.472656 290.191406 128.375 C 290.132812 128.269531 290.0625 128.167969 289.988281 128.074219 C 279.652344 110.355469 264.855469 95.554688 247.136719 85.222656 C 247.042969 85.140625 246.941406 85.070312 246.835938 85.011719 C 246.730469 84.949219 246.625 84.898438 246.519531 84.863281 C 246.511719 84.855469 246.507812 84.855469 246.5 84.847656 C 229.140625 74.867188 209.03125 69.144531 187.605469 69.144531 C 166.179688 69.144531 146.066406 74.867188 128.710938 84.847656 C 128.703125 84.855469 128.695312 84.855469 128.691406 84.863281 C 128.585938 84.898438 128.480469 84.949219 128.375 85.011719 C 128.269531 85.070312 128.167969 85.140625 128.074219 85.222656 C 110.367188 95.550781 95.566406 110.34375 85.234375 128.050781 C 85.152344 128.148438 85.078125 128.257812 85.011719 128.375 C 84.949219 128.480469 84.898438 128.585938 84.859375 128.691406 C 84.855469 128.699219 84.855469 128.703125 84.847656 128.710938 C 74.863281 146.066406 69.144531 166.179688 69.144531 187.605469 C 69.144531 209.03125 74.863281 229.148438 84.855469 246.507812 C 84.855469 246.511719 84.855469 246.519531 84.859375 246.519531 C 84.898438 246.628906 84.953125 246.730469 85.011719 246.835938 C 85.070312 246.941406 85.140625 247.042969 85.222656 247.136719 C 95.554688 264.855469 110.355469 279.65625 128.074219 289.988281 C 128.167969 290.0625 128.269531 290.132812 128.375 290.191406 C 128.472656 290.25 128.578125 290.304688 128.683594 290.34375 C 128.683594 290.351562 128.691406 290.351562 128.691406 290.351562 C 146.050781 300.34375 166.171875 306.066406 187.605469 306.066406 C 209.039062 306.066406 229.160156 300.34375 246.519531 290.351562 C 246.519531 290.351562 246.523438 290.351562 246.523438 290.34375 C 246.628906 290.304688 246.734375 290.25 246.835938 290.191406 C 246.941406 290.132812 247.042969 290.070312 247.136719 289.988281 C 264.855469 279.65625 279.652344 264.855469 289.988281 247.136719 C 290.0625 247.042969 290.132812 246.941406 290.191406 246.835938 C 290.25 246.742188 290.292969 246.644531 290.335938 246.542969 C 290.34375 246.539062 290.34375 246.53125 290.347656 246.519531 C 300.34375 229.152344 306.066406 209.039062 306.066406 187.605469 Z M 187.605469 55.980469 C 260.183594 55.980469 319.230469 115.023438 319.230469 187.605469 C 319.230469 260.183594 260.183594 319.230469 187.605469 319.230469 C 115.023438 319.230469 55.980469 260.183594 55.980469 187.605469 C 55.980469 115.023438 115.023438 55.980469 187.605469 55.980469 " fill-opacity="1" fill-rule="nonzero"/></g><path fill="#ffffff" d="M 195.71875 187.605469 C 195.71875 192.078125 192.078125 195.71875 187.605469 195.71875 C 183.128906 195.71875 179.492188 192.078125 179.492188 187.605469 C 179.492188 183.128906 183.128906 179.492188 187.605469 179.492188 C 192.078125 179.492188 195.71875 183.128906 195.71875 187.605469 " fill-opacity="1" fill-rule="nonzero"/><path fill="#ffffff" d="M 230.941406 187.605469 C 230.941406 186.285156 229.871094 185.210938 228.550781 185.210938 L 200.28125 185.210938 C 199.300781 180.015625 195.195312 175.910156 189.996094 174.929688 L 189.996094 128.339844 C 189.996094 127.015625 188.925781 125.945312 187.605469 125.945312 C 186.28125 125.945312 185.210938 127.015625 185.210938 128.339844 L 185.210938 174.929688 C 179.234375 176.058594 174.703125 181.3125 174.703125 187.605469 C 174.703125 194.714844 180.492188 200.503906 187.605469 200.503906 C 193.898438 200.503906 199.152344 195.976562 200.28125 190 L 228.550781 190 C 229.871094 190 230.941406 188.925781 230.941406 187.605469 Z M 301.257812 185.210938 L 271.714844 185.210938 C 270.394531 185.210938 269.324219 186.285156 269.324219 187.605469 C 269.324219 188.925781 270.394531 190 271.714844 190 L 301.257812 190 C 300.863281 208.9375 295.816406 226.753906 287.207031 242.351562 L 275.480469 235.578125 C 274.339844 234.914062 272.875 235.308594 272.210938 236.453125 C 271.550781 237.601562 271.945312 239.0625 273.085938 239.726562 L 284.808594 246.496094 C 275.296875 262.128906 262.125 275.304688 246.488281 284.816406 L 239.71875 273.085938 C 239.058594 271.945312 237.59375 271.550781 236.453125 272.214844 C 235.304688 272.875 234.914062 274.339844 235.574219 275.480469 L 242.34375 287.207031 C 226.75 295.816406 208.9375 300.863281 189.996094 301.257812 L 189.996094 271.714844 C 189.996094 270.394531 188.925781 269.324219 187.605469 269.324219 C 186.28125 269.324219 185.210938 270.394531 185.210938 271.714844 L 185.210938 301.257812 C 166.269531 300.863281 148.453125 295.816406 132.859375 287.207031 L 139.636719 275.480469 C 140.296875 274.339844 139.894531 272.875 138.757812 272.214844 C 137.609375 271.550781 136.144531 271.945312 135.484375 273.085938 L 128.714844 284.808594 C 113.082031 275.300781 99.910156 262.128906 90.398438 246.496094 L 102.125 239.726562 C 103.265625 239.0625 103.65625 237.601562 102.996094 236.453125 C 102.335938 235.308594 100.871094 234.914062 99.730469 235.578125 L 88 242.351562 C 79.394531 226.753906 74.347656 208.9375 73.953125 190 L 103.492188 190 C 104.816406 190 105.886719 188.925781 105.886719 187.605469 C 105.886719 186.285156 104.816406 185.210938 103.492188 185.210938 L 73.953125 185.210938 C 74.347656 166.269531 79.394531 148.460938 88 132.867188 L 99.730469 139.636719 C 100.105469 139.847656 100.515625 139.953125 100.921875 139.953125 C 101.75 139.953125 102.554688 139.523438 102.996094 138.757812 C 103.65625 137.609375 103.265625 136.152344 102.125 135.484375 L 90.398438 128.71875 C 99.910156 113.082031 113.082031 99.910156 128.714844 90.402344 L 135.484375 102.125 C 135.933594 102.890625 136.738281 103.320312 137.558594 103.320312 C 137.972656 103.320312 138.378906 103.214844 138.757812 102.996094 C 139.902344 102.335938 140.296875 100.871094 139.636719 99.730469 L 132.867188 88 C 148.460938 79.394531 166.269531 74.347656 185.210938 73.953125 L 185.210938 103.496094 C 185.210938 104.816406 186.28125 105.886719 187.605469 105.886719 C 188.925781 105.886719 189.996094 104.816406 189.996094 103.496094 L 189.996094 73.953125 C 208.9375 74.347656 226.753906 79.394531 242.351562 88 L 235.578125 99.730469 C 234.914062 100.871094 235.304688 102.335938 236.453125 102.996094 C 236.828125 103.214844 237.238281 103.320312 237.648438 103.320312 C 238.472656 103.320312 239.277344 102.890625 239.722656 102.125 L 246.496094 90.402344 C 262.128906 99.910156 275.296875 113.082031 284.808594 128.71875 L 273.085938 135.484375 C 271.945312 136.144531 271.550781 137.609375 272.210938 138.757812 C 272.65625 139.523438 273.460938 139.953125 274.289062 139.953125 C 274.695312 139.953125 275.105469 139.847656 275.480469 139.636719 L 287.207031 132.859375 C 295.816406 148.453125 300.863281 166.269531 301.257812 185.210938 " fill-opacity="1" fill-rule="nonzero"/></svg>