<svg xmlns="http://www.w3.org/2000/svg" xmlns:xlink="http://www.w3.org/1999/xlink" width="500" zoomAndPan="magnify" viewBox="0 0 375 374.999991" height="500" preserveAspectRatio="xMidYMid meet" version="1.0"><path fill="#febfcb" d="M 187.5 375 C 83.945312 375 0 291.054688 0 187.5 C 0 83.945312 83.945312 0 187.5 0 C 291.054688 0 375 83.945312 375 187.5 C 375 291.054688 291.054688 375 187.5 375 Z M 187.5 375 " fill-opacity="1" fill-rule="nonzero"/><path fill="#ffffff" d="M 334.082031 197.296875 C 334.082031 258.464844 268.183594 308.050781 186.890625 308.050781 C 105.59375 308.050781 39.703125 258.464844 39.703125 197.296875 C 39.703125 168.617188 54.191406 142.484375 77.960938 122.8125 C 69.425781 104.738281 76.554688 75.773438 82.019531 70.832031 C 87.617188 65.769531 119.335938 73.398438 134.042969 93.914062 C 150.449219 89.164062 168.261719 86.550781 186.890625 86.550781 C 205.792969 86.550781 223.863281 89.234375 240.472656 94.121094 C 255.109375 73.445312 287.019531 65.753906 292.640625 70.832031 C 298.160156 75.828125 305.382812 105.316406 296.449219 123.355469 C 319.847656 142.957031 334.082031 168.875 334.082031 197.296875 Z M 334.082031 197.296875 " fill-opacity="1" fill-rule="nonzero"/><path fill="#ffffff" d="M 188.320312 86.574219 C 206.707031 86.707031 224.289062 89.359375 240.472656 94.121094 C 255.109375 73.445312 287.019531 65.753906 292.640625 70.832031 C 298.160156 75.828125 305.382812 105.316406 296.449219 123.355469 C 319.839844 142.964844 334.082031 168.882812 334.082031 197.304688 C 334.082031 258.109375 268.957031 307.460938 188.320312 308.042969 Z M 188.320312 86.574219 " fill-opacity="1" fill-rule="nonzero"/><path fill="#e5854b" d="M 140.558594 92.15625 C 148.894531 90.078125 157.5625 88.539062 166.484375 87.601562 C 165.347656 97.390625 161.605469 122.179688 152.914062 122.179688 C 145.367188 122.179688 141.941406 103.492188 140.558594 92.15625 Z M 173.289062 87.023438 C 174.734375 100.230469 178.808594 126.007812 188.550781 126.007812 C 198.207031 126.007812 202.816406 100.6875 204.570312 87.378906 C 198.773438 86.851562 192.875 86.558594 186.890625 86.558594 C 182.304688 86.550781 177.765625 86.707031 173.289062 87.023438 Z M 211.585938 88.128906 C 212.613281 98.382812 215.898438 121.949219 224.367188 121.949219 C 231.625 121.949219 235.429688 104.613281 237.15625 93.207031 C 228.941406 90.957031 220.398438 89.25 211.585938 88.128906 Z M 211.585938 88.128906 " fill-opacity="1" fill-rule="nonzero"/><path fill="#995d1f" d="M 302.488281 121.949219 C 309.8125 102.207031 303.054688 73.5 295.996094 67.113281 C 293.34375 64.714844 288.859375 63.851562 282.648438 64.539062 C 271.398438 65.777344 251.050781 73.136719 238.570312 88.375 C 222.023438 83.84375 204.65625 81.550781 186.898438 81.550781 C 169.40625 81.550781 152.28125 83.785156 135.941406 88.191406 C 123.394531 73.011719 103.097656 65.738281 91.902344 64.53125 C 85.753906 63.875 81.300781 64.738281 78.671875 67.121094 C 73.988281 71.359375 70.964844 82.746094 69.789062 91.214844 C 68.851562 97.980469 68.027344 110.3125 71.960938 121.359375 C 47.898438 142.40625 34.699219 169.246094 34.699219 197.304688 C 34.699219 261.132812 102.972656 313.058594 186.890625 313.058594 C 270.8125 313.058594 339.078125 261.132812 339.078125 197.304688 C 339.085938 169.53125 326.117188 142.910156 302.488281 121.949219 Z M 186.890625 303.046875 C 108.488281 303.046875 44.699219 255.609375 44.699219 197.296875 C 44.699219 171.199219 57.640625 146.109375 81.148438 126.664062 L 84.140625 124.191406 L 82.484375 120.679688 C 74.683594 104.15625 81.84375 78.222656 85.261719 74.652344 C 89.828125 72.5625 116.714844 78.316406 129.972656 96.828125 L 132.03125 99.703125 L 135.425781 98.722656 C 151.839844 93.964844 169.152344 91.554688 186.890625 91.554688 C 204.890625 91.554688 222.449219 94.035156 239.058594 98.921875 L 242.488281 99.929688 L 244.554688 97.011719 C 257.777344 78.339844 284.792969 72.542969 289.398438 74.652344 C 292.917969 78.300781 300.15625 104.597656 291.972656 121.128906 L 290.226562 124.65625 L 293.242188 127.183594 C 316.351562 146.558594 329.078125 171.457031 329.078125 197.296875 C 329.078125 255.609375 265.292969 303.046875 186.890625 303.046875 Z M 177.773438 189.148438 C 176.109375 187.277344 176.953125 184.292969 179.359375 183.609375 C 183.570312 182.421875 189.972656 181.421875 196.390625 183.488281 C 198.65625 184.222656 199.539062 186.957031 198.078125 188.84375 L 190.996094 197.953125 C 189.6875 199.632812 187.175781 199.714844 185.761719 198.125 Z M 141.164062 170.859375 C 141.164062 174.804688 137.960938 178.003906 134.019531 178.003906 C 130.074219 178.003906 126.875 174.804688 126.875 170.859375 C 126.875 166.917969 130.074219 163.714844 134.019531 163.714844 C 137.960938 163.714844 141.164062 166.917969 141.164062 170.859375 Z M 242.621094 170.859375 C 242.621094 174.804688 239.421875 178.003906 235.476562 178.003906 C 231.535156 178.003906 228.332031 174.804688 228.332031 170.859375 C 228.332031 166.917969 231.535156 163.714844 235.476562 163.714844 C 239.421875 163.714844 242.621094 166.917969 242.621094 170.859375 Z M 236.96875 219.585938 C 238.863281 221.597656 238.777344 224.761719 236.769531 226.664062 C 228.921875 234.078125 220.792969 237.820312 212.574219 237.820312 C 211.492188 237.820312 210.417969 237.757812 209.335938 237.625 C 200.480469 236.566406 193.699219 231.339844 189.535156 227.109375 C 185.058594 233.441406 179.449219 237.316406 172.808594 238.648438 C 171.101562 238.988281 169.398438 239.140625 167.730469 239.140625 C 154.390625 239.140625 142.761719 229.453125 142.222656 228.988281 C 140.109375 227.203125 139.847656 224.050781 141.632812 221.9375 C 143.421875 219.835938 146.566406 219.570312 148.679688 221.34375 C 148.832031 221.472656 160.335938 230.96875 170.882812 228.828125 C 175.808594 227.828125 179.984375 224.257812 183.324219 218.203125 L 183.324219 206.589844 C 183.324219 203.828125 185.566406 201.585938 188.328125 201.585938 C 191.085938 201.585938 193.328125 203.828125 193.328125 206.589844 L 193.328125 216.148438 C 194.226562 217.429688 200.945312 226.578125 210.585938 227.699219 C 216.789062 228.417969 223.308594 225.625 229.910156 219.386719 C 231.914062 217.484375 235.074219 217.578125 236.96875 219.585938 Z M 97.351562 183.125 C 96.679688 185.265625 94.707031 186.632812 92.582031 186.632812 C 92.085938 186.632812 91.585938 186.5625 91.089844 186.402344 L 75.261719 181.453125 C 72.625 180.625 71.15625 177.828125 71.976562 175.191406 C 72.804688 172.554688 75.601562 171.085938 78.238281 171.90625 L 94.066406 176.851562 C 96.703125 177.679688 98.171875 180.488281 97.351562 183.125 Z M 97.351562 215.761719 C 98.171875 218.398438 96.703125 221.203125 94.066406 222.023438 L 78.238281 226.972656 C 77.746094 227.125 77.242188 227.203125 76.746094 227.203125 C 74.621094 227.203125 72.640625 225.835938 71.976562 223.691406 C 71.15625 221.058594 72.625 218.25 75.261719 217.429688 L 91.089844 212.480469 C 93.726562 211.65625 96.527344 213.125 97.351562 215.761719 Z M 73.285156 203.945312 C 70.523438 203.945312 68.28125 201.703125 68.28125 198.941406 C 68.28125 196.183594 70.523438 193.941406 73.285156 193.941406 L 90.101562 193.941406 C 92.859375 193.941406 95.101562 196.183594 95.101562 198.941406 C 95.101562 201.703125 92.859375 203.945312 90.101562 203.945312 Z M 272.859375 183.125 C 272.042969 180.488281 273.511719 177.679688 276.148438 176.859375 L 291.972656 171.914062 C 294.609375 171.09375 297.417969 172.5625 298.238281 175.199219 C 299.058594 177.835938 297.585938 180.640625 294.949219 181.460938 L 279.125 186.410156 C 278.628906 186.5625 278.125 186.640625 277.632812 186.640625 C 275.503906 186.632812 273.527344 185.265625 272.859375 183.125 Z M 298.238281 223.683594 C 297.570312 225.828125 295.59375 227.195312 293.464844 227.195312 C 292.972656 227.195312 292.46875 227.117188 291.972656 226.964844 L 276.148438 222.015625 C 273.511719 221.195312 272.042969 218.390625 272.859375 215.753906 C 273.679688 213.117188 276.488281 211.648438 279.125 212.464844 L 294.949219 217.414062 C 297.59375 218.242188 299.0625 221.050781 298.238281 223.683594 Z M 301.925781 198.949219 C 301.925781 201.710938 299.683594 203.953125 296.921875 203.953125 L 280.105469 203.953125 C 277.34375 203.953125 275.101562 201.710938 275.101562 198.949219 C 275.101562 196.191406 277.34375 193.949219 280.105469 193.949219 L 296.921875 193.949219 C 299.691406 193.949219 301.925781 196.183594 301.925781 198.949219 Z M 301.925781 198.949219 " fill-opacity="1" fill-rule="nonzero"/></svg>