<svg xmlns="http://www.w3.org/2000/svg" xmlns:xlink="http://www.w3.org/1999/xlink" width="500" zoomAndPan="magnify" viewBox="0 0 375 374.999991" height="500" preserveAspectRatio="xMidYMid meet" version="1.0"><defs><clipPath id="f43ec63662"><path d="M 36.519531 105 L 338.769531 105 L 338.769531 276.984375 L 36.519531 276.984375 Z M 36.519531 105 " clip-rule="nonzero"/></clipPath></defs><path fill="#469469" d="M 187.5 0 C 83.945312 0 0 83.945312 0 187.5 C 0 291.054688 83.945312 375 187.5 375 C 291.054688 375 375 291.054688 375 187.5 C 375 83.945312 291.054688 0 187.5 0 " fill-opacity="1" fill-rule="nonzero"/><g clip-path="url(#f43ec63662)"><path fill="#fffcf7" d="M 171.789062 232.394531 L 166.144531 229.375 C 164.125 233.128906 161.132812 234.953125 157 234.953125 C 151.675781 234.953125 146.917969 233.046875 144.582031 229.980469 C 143.972656 229.1875 143.035156 228.71875 142.03125 228.71875 C 142.019531 228.71875 142.007812 228.71875 141.996094 228.71875 C 140.988281 228.730469 140.039062 229.214844 139.441406 230.03125 C 137.253906 233.023438 132.527344 234.957031 127.40625 234.957031 C 123.519531 234.957031 120.6875 233.144531 118.765625 229.425781 L 113.074219 232.351562 C 115.222656 236.519531 118.355469 239.265625 122.246094 240.53125 L 122.246094 256.296875 C 122.246094 267.402344 131.304688 276.441406 142.441406 276.441406 C 153.578125 276.441406 162.636719 267.40625 162.636719 256.296875 L 162.636719 240.417969 C 166.492188 239.113281 169.613281 236.425781 171.789062 232.394531 Z M 145.648438 269.632812 L 145.648438 251.253906 L 139.242188 251.253906 L 139.242188 269.628906 C 133.1875 268.179688 128.65625 262.765625 128.65625 256.285156 L 128.65625 241.238281 C 133.863281 240.992188 138.671875 239.3125 142.0625 236.496094 C 145.636719 239.429688 150.683594 241.128906 156.242188 241.273438 L 156.242188 256.285156 C 156.234375 262.769531 151.707031 268.183594 145.648438 269.632812 Z M 124.105469 212.652344 C 124.105469 218.644531 131.992188 223.164062 142.445312 223.164062 C 152.898438 223.164062 160.78125 218.644531 160.78125 212.652344 C 160.78125 206.660156 152.898438 202.140625 142.445312 202.140625 C 131.992188 202.140625 124.105469 206.65625 124.105469 212.652344 Z M 154.375 212.652344 C 154.375 213.851562 150.191406 216.777344 142.445312 216.777344 C 134.691406 216.777344 130.515625 213.851562 130.515625 212.652344 C 130.515625 211.457031 134.699219 208.53125 142.445312 208.53125 C 150.195312 208.527344 154.375 211.457031 154.375 212.652344 Z M 123.007812 168.136719 C 118.425781 168.136719 114.699219 171.636719 114.699219 175.941406 C 114.699219 180.246094 118.429688 183.742188 123.007812 183.742188 C 127.59375 183.742188 131.320312 180.246094 131.320312 175.941406 C 131.320312 171.636719 127.597656 168.136719 123.007812 168.136719 Z M 123.007812 177.351562 C 121.976562 177.351562 121.105469 176.707031 121.105469 175.941406 C 121.105469 175.171875 121.976562 174.53125 123.007812 174.53125 C 124.046875 174.53125 124.917969 175.171875 124.917969 175.941406 C 124.917969 176.707031 124.046875 177.351562 123.007812 177.351562 Z M 165.859375 183.742188 C 170.445312 183.742188 174.167969 180.246094 174.167969 175.941406 C 174.167969 171.636719 170.441406 168.136719 165.859375 168.136719 C 161.277344 168.136719 157.546875 171.636719 157.546875 175.941406 C 157.546875 180.246094 161.277344 183.742188 165.859375 183.742188 Z M 165.859375 174.523438 C 166.894531 174.523438 167.765625 175.167969 167.765625 175.9375 C 167.765625 176.703125 166.894531 177.347656 165.859375 177.347656 C 164.824219 177.347656 163.953125 176.703125 163.953125 175.9375 C 163.953125 175.171875 164.824219 174.523438 165.859375 174.523438 Z M 193.292969 155.894531 C 190.988281 150.15625 188.816406 144.738281 186.703125 140.050781 C 179.769531 124.722656 167.335938 119.0625 158.636719 116.984375 C 192.675781 105.113281 214.664062 114.699219 227.800781 147.078125 L 233.738281 144.683594 C 219.324219 109.144531 193.027344 97.90625 155.621094 111.273438 C 152.824219 112.273438 150.460938 114.007812 148.167969 115.683594 L 148.144531 115.695312 C 144.664062 115.085938 139.746094 115.4375 137.398438 115.671875 C 135.113281 114 132.753906 112.273438 129.964844 111.273438 C 109.367188 103.910156 91.964844 104.003906 78.246094 111.542969 C 54.195312 124.761719 46.984375 156.9375 42.210938 178.234375 C 40.617188 185.339844 39.113281 192.046875 37.648438 194.101562 C 36.582031 195.585938 36.832031 197.609375 38.226562 198.796875 C 39.46875 199.847656 43.546875 200.300781 48.703125 200.300781 C 58.941406 200.300781 73.375 198.511719 78.167969 196.113281 C 76.667969 202.039062 75.539062 207.28125 75.015625 210.984375 C 73.335938 222.882812 75.847656 233.4375 82.273438 241.507812 C 89.464844 250.546875 101.328125 256.222656 115.671875 257.496094 L 116.242188 251.132812 C 103.660156 250.011719 93.378906 245.183594 87.289062 237.535156 C 81.90625 230.769531 79.910156 222.140625 81.359375 211.871094 C 82.394531 204.503906 85.9375 190.746094 90.199219 177.453125 C 92.921875 171.5 95.59375 164.847656 98.226562 158.292969 C 100.507812 152.609375 102.660156 147.242188 104.714844 142.6875 C 114.074219 121.984375 135.429688 122.125 136.417969 122.183594 C 136.582031 122.179688 136.734375 122.125 136.894531 122.101562 L 136.898438 122.160156 C 139.78125 121.796875 145.21875 121.46875 147.539062 122.078125 L 147.609375 121.816406 C 148.054688 122.042969 148.554688 122.195312 149.144531 122.1875 C 150.023438 122.09375 171.476562 121.9375 180.855469 142.6875 C 182.902344 147.25 185.058594 152.609375 187.339844 158.28125 C 189.847656 164.535156 192.398438 170.863281 194.988281 176.609375 L 194.449219 176.78125 C 199.476562 192.285156 202.621094 205.574219 203.507812 211.863281 C 204.960938 222.128906 202.96875 230.765625 197.585938 237.53125 C 191.5 245.1875 181.210938 250.019531 168.621094 251.136719 L 169.191406 257.5 C 183.546875 256.226562 195.417969 250.539062 202.605469 241.5 C 209.03125 233.421875 211.539062 222.863281 209.851562 210.96875 C 209.3125 207.160156 208.152344 201.78125 206.605469 195.710938 C 207.765625 196.640625 211.074219 198.328125 224.109375 199.558594 L 224.71875 193.199219 C 215.898438 192.367188 211.402344 191.21875 210.6875 190.785156 C 205.078125 185.234375 198.816406 169.648438 193.292969 155.894531 Z M 98.878906 140.054688 C 96.773438 144.742188 94.59375 150.164062 92.285156 155.90625 C 89.75 162.214844 87.0625 168.898438 84.367188 174.820312 L 84.320312 174.808594 C 84.28125 174.929688 84.246094 175.054688 84.203125 175.183594 C 81.074219 182.007812 77.949219 187.769531 75.042969 190.648438 C 72.050781 192.589844 52.792969 194.191406 44.777344 193.910156 C 46.035156 190.445312 47.121094 185.601562 48.460938 179.628906 C 52.976562 159.453125 59.808594 128.96875 81.335938 117.140625 C 93.1875 110.621094 108.53125 110.574219 126.941406 116.988281 C 118.246094 119.0625 105.8125 124.722656 98.878906 140.054688 Z M 338.769531 222.515625 L 333.707031 218.613281 L 326.386719 228.050781 L 326.375 228.042969 L 326.304688 228.136719 L 314.34375 218.902344 L 320.609375 210.832031 C 323.796875 206.722656 323.035156 200.792969 318.773438 197.496094 C 316.773438 195.953125 314.273438 195.269531 311.792969 195.601562 C 309.761719 195.859375 307.933594 196.769531 306.480469 198.15625 L 254.640625 158.136719 C 253.324219 157.121094 251.695312 156.699219 250.046875 156.882812 C 248.398438 157.089844 246.925781 157.929688 245.90625 159.238281 L 242.351562 163.820312 L 233.9375 157.324219 C 230.894531 154.976562 226.664062 155.226562 223.902344 157.703125 L 202.207031 140.949219 L 198.285156 146 L 219.972656 162.75 C 219.242188 164.152344 218.941406 165.738281 219.144531 167.34375 C 219.40625 169.417969 220.46875 171.261719 222.125 172.539062 L 230.539062 179.039062 L 226.984375 183.621094 C 225.96875 184.933594 225.523438 186.5625 225.734375 188.203125 C 225.941406 189.847656 226.789062 191.3125 228.097656 192.324219 L 279.9375 232.351562 C 277.703125 236.347656 278.636719 241.5 282.507812 244.496094 C 284.183594 245.789062 286.195312 246.476562 288.28125 246.476562 C 288.679688 246.476562 289.085938 246.453125 289.492188 246.402344 C 291.996094 246.082031 294.226562 244.8125 295.773438 242.820312 L 302.046875 234.730469 L 314.011719 243.964844 L 306.609375 253.519531 L 311.671875 257.421875 L 319 247.96875 L 327.441406 237.089844 L 327.453125 237.097656 Z M 226.042969 167.492188 C 225.636719 167.175781 225.527344 166.765625 225.5 166.542969 C 225.472656 166.328125 225.472656 165.894531 225.789062 165.488281 L 228.003906 162.636719 C 228.488281 162.011719 229.394531 161.898438 230.011719 162.382812 L 238.429688 168.878906 L 234.464844 173.992188 Z M 250.710938 163.183594 L 302.449219 203.121094 L 283.753906 227.21875 L 278.960938 223.542969 L 283.09375 218.21875 L 278.027344 214.304688 L 273.886719 219.640625 L 268.566406 215.554688 L 276.785156 204.960938 L 271.71875 201.046875 L 263.492188 211.65625 L 258.167969 207.566406 L 262.339844 202.1875 L 257.277344 198.273438 L 253.09375 203.667969 L 248.273438 199.964844 L 256.535156 189.324219 L 251.472656 185.410156 L 243.203125 196.066406 L 232.074219 187.527344 Z M 290.710938 238.917969 C 290.21875 239.558594 289.5 239.964844 288.695312 240.070312 C 287.898438 240.179688 287.085938 239.953125 286.292969 239.339844 C 284.96875 238.316406 284.730469 236.40625 285.753906 235.085938 L 310.578125 203.089844 C 311.074219 202.445312 311.789062 202.035156 312.597656 201.9375 C 312.722656 201.921875 312.851562 201.914062 312.972656 201.914062 C 313.652344 201.914062 314.328125 202.148438 314.992188 202.660156 C 316.316406 203.6875 316.558594 205.597656 315.535156 206.917969 Z M 317.933594 238.921875 L 305.976562 229.683594 L 310.421875 223.957031 L 322.378906 233.1875 Z M 317.933594 238.921875 " fill-opacity="1" fill-rule="nonzero"/></g></svg>