<svg xmlns="http://www.w3.org/2000/svg" xmlns:xlink="http://www.w3.org/1999/xlink" width="500" zoomAndPan="magnify" viewBox="0 0 375 374.999991" height="500" preserveAspectRatio="xMidYMid meet" version="1.0"><defs><clipPath id="c1a7637915"><path d="M 59 55 L 320 55 L 320 322.605469 L 59 322.605469 Z M 59 55 " clip-rule="nonzero"/></clipPath></defs><path fill="#febfcb" d="M 187.5 0 C 83.945312 0 0 83.945312 0 187.5 C 0 291.054688 83.945312 375 187.5 375 C 291.054688 375 375 291.054688 375 187.5 C 375 83.945312 291.054688 0 187.5 0 " fill-opacity="1" fill-rule="nonzero"/><path fill="#ffffff" d="M 197 320 C 191.710938 305.429688 190.390625 290.855469 185.101562 280.257812 C 179.8125 269.664062 169.238281 269.664062 145.445312 273.636719 C 121.652344 277.609375 111.078125 267.011719 101.824219 255.085938 C 92.570312 243.164062 91.25 221.96875 97.859375 216.667969 C 104.46875 211.367188 122.976562 206.070312 133.550781 202.097656 C 144.125 198.125 142.804688 195.476562 145.449219 171.632812 C 148.09375 147.789062 161.3125 134.539062 174.53125 126.589844 C 187.75 118.636719 193.039062 100.09375 193.039062 100.09375 L 197.003906 106.71875 L 203.613281 98.773438 L 204.933594 106.71875 L 215.507812 101.417969 C 215.507812 101.417969 204.933594 119.964844 227.40625 126.589844 C 249.878906 133.210938 267.0625 153.082031 282.925781 176.925781 C 298.789062 200.769531 317.292969 235.214844 317.292969 235.214844 C 284.242188 306.753906 197 320 197 320 Z M 197 320 " fill-opacity="1" fill-rule="nonzero"/><path fill="#fdf5d8" d="M 250.8125 301.433594 C 222.300781 316.148438 197 320 197 320 C 191.710938 305.429688 190.390625 290.855469 185.101562 280.257812 C 179.8125 269.664062 169.238281 269.664062 145.445312 273.636719 C 125.726562 276.929688 115.09375 270.210938 106.757812 261.03125 C 119.554688 264.289062 135.136719 265.390625 151.511719 259.976562 C 192.371094 246.472656 217.480469 267.671875 229.382812 286.214844 C 233.511719 292.65625 241.78125 297.652344 250.8125 301.433594 Z M 289.914062 189.777344 L 280.941406 178.921875 L 216.671875 198.3125 C 216.671875 198.3125 249.21875 241.179688 275.65625 227.929688 C 302.09375 214.683594 289.914062 189.777344 289.914062 189.777344 Z M 194.949219 153.503906 L 149.382812 155.210938 L 145.976562 166.734375 L 195.015625 163.023438 Z M 194.949219 153.503906 " fill-opacity="1" fill-rule="nonzero"/><path fill="#ffffff" d="M 128.921875 107.382812 L 135.53125 111.359375 C 135.53125 111.359375 172.542969 86.1875 183.117188 80.890625 C 193.691406 75.59375 204.261719 80.890625 204.261719 80.890625 L 150.070312 119.308594 L 206.910156 159.050781 C 206.910156 159.050781 188.398438 161.699219 176.507812 157.726562 C 164.605469 153.753906 128.921875 129.910156 128.921875 129.910156 L 122.3125 133.882812 L 118.347656 125.9375 L 126.277344 117.992188 L 122.3125 115.339844 Z M 128.921875 107.382812 " fill-opacity="1" fill-rule="nonzero"/><path fill="#e5c928" d="M 141.296875 115.949219 L 196.390625 78.722656 C 201.046875 79.277344 204.269531 80.882812 204.269531 80.882812 L 150.074219 119.304688 L 153.269531 121.539062 Z M 141.296875 115.949219 " fill-opacity="1" fill-rule="nonzero"/><g clip-path="url(#c1a7637915)"><path fill="#995d1f" d="M 319.617188 233.960938 C 319.429688 233.617188 300.871094 199.132812 285.121094 175.460938 C 283.953125 173.699219 282.75 171.925781 281.523438 170.152344 C 278.21875 163 268.695312 151.503906 258.113281 142.070312 C 249.382812 133.933594 239.5 127.394531 228.144531 124.050781 C 221.984375 122.230469 218.058594 119.335938 216.480469 115.445312 C 214.066406 109.496094 217.765625 102.792969 217.796875 102.738281 C 218.375 101.726562 218.226562 100.449219 217.421875 99.605469 C 216.617188 98.753906 215.359375 98.53125 214.316406 99.054688 L 206.941406 102.75 L 206.210938 98.339844 C 206.039062 97.316406 205.289062 96.488281 204.296875 96.214844 C 203.304688 95.941406 202.234375 96.28125 201.574219 97.078125 L 197.347656 102.160156 L 195.296875 98.738281 C 194.753906 97.832031 193.722656 97.34375 192.6875 97.476562 C 191.644531 97.617188 190.777344 98.359375 190.488281 99.371094 C 190.441406 99.550781 185.304688 117.023438 173.164062 124.328125 C 170.695312 125.808594 168.378906 127.386719 166.203125 129.066406 L 151.855469 120.253906 L 206.429688 82.414062 C 207.230469 81.855469 207.664062 80.90625 207.558594 79.941406 C 207.445312 78.972656 206.8125 78.140625 205.910156 77.777344 C 205.316406 77.539062 191.3125 72.066406 179.734375 79.316406 C 170.089844 85.359375 139.371094 105.941406 134.195312 109.40625 L 128.316406 105.796875 C 128.117188 105.671875 127.902344 105.589844 127.683594 105.523438 C 127.007812 103.726562 126.558594 101.039062 127.453125 97.445312 C 129.242188 90.273438 127.453125 74.144531 113.144531 63.390625 C 98.839844 52.640625 73.8125 52.628906 64.867188 66.964844 C 55.929688 81.300781 63.082031 92.058594 75.597656 99.226562 C 86.386719 105.40625 113.117188 115.582031 120.28125 118.265625 L 121.230469 118.898438 L 117.882812 121.585938 C 114.910156 123.265625 82.238281 141.785156 71.40625 150.480469 C 60.050781 159.59375 54.605469 171.429688 65.761719 184.316406 C 76.917969 197.199219 101.867188 193.269531 114.4375 180.300781 C 127.011719 167.335938 126.269531 150.980469 123.363281 144.113281 C 122.027344 140.957031 121.945312 138.386719 122.246094 136.519531 C 122.265625 136.519531 122.289062 136.523438 122.304688 136.523438 C 122.792969 136.523438 123.28125 136.390625 123.726562 136.105469 L 129.230469 132.59375 C 134.808594 136.21875 142.5 141.074219 151.023438 146.046875 C 146.621094 153.464844 143.859375 161.902344 142.8125 171.335938 C 142.449219 174.566406 142.167969 177.40625 141.914062 179.914062 C 140.316406 195.808594 140.222656 196.757812 132.609375 199.613281 C 129.953125 200.613281 126.769531 201.703125 123.394531 202.859375 C 113.125 206.378906 101.480469 210.359375 96.195312 214.601562 C 87.96875 221.195312 89.878906 244.023438 99.726562 256.714844 C 109.199219 268.917969 120.558594 280.476562 145.871094 276.246094 C 170.996094 272.050781 178.574219 273.117188 182.726562 281.441406 C 185.523438 287.042969 187.214844 294.054688 189.007812 301.472656 C 190.527344 307.757812 192.097656 314.265625 194.503906 320.902344 C 194.886719 321.957031 195.890625 322.644531 196.988281 322.644531 C 197.121094 322.644531 197.253906 322.632812 197.386719 322.617188 C 198.292969 322.480469 219.878906 319.105469 245.871094 306.832031 C 269.9375 295.460938 302.277344 274.003906 319.683594 236.328125 C 320.039062 235.570312 320.011719 234.695312 319.617188 233.960938 Z M 114.769531 91.796875 C 111.078125 99.332031 99.355469 101.144531 88.582031 95.84375 C 77.808594 90.542969 72.074219 80.140625 75.761719 72.605469 C 79.457031 65.070312 91.179688 63.257812 101.953125 68.558594 C 112.726562 73.855469 118.464844 84.261719 114.769531 91.796875 Z M 99.878906 178.765625 C 88.941406 183.976562 77.136719 182.003906 73.511719 174.359375 C 69.878906 166.714844 75.800781 156.289062 86.730469 151.078125 C 97.664062 145.863281 109.46875 147.835938 113.097656 155.484375 C 116.726562 163.125 110.804688 173.546875 99.878906 178.765625 Z M 175.886719 128.859375 C 185.359375 123.164062 190.9375 112.640625 193.617188 106.222656 L 194.726562 108.078125 C 195.164062 108.8125 195.933594 109.289062 196.789062 109.355469 C 197.652344 109.417969 198.476562 109.066406 199.023438 108.414062 L 201.941406 104.902344 L 202.316406 107.152344 C 202.457031 107.980469 202.976562 108.695312 203.726562 109.078125 C 204.472656 109.460938 205.355469 109.460938 206.109375 109.089844 L 210.828125 106.730469 C 210.191406 109.8125 210.046875 113.628906 211.558594 117.398438 C 213.421875 122.03125 217.355469 125.554688 223.230469 127.925781 C 210.152344 132.707031 205.277344 141.191406 205.011719 152.894531 L 171.101562 132.0625 C 172.625 130.957031 174.199219 129.878906 175.886719 128.859375 Z M 129.242188 126.273438 C 127.492188 125.117188 126.78125 122.855469 127.566406 120.894531 L 128.074219 119.625 C 128.539062 118.464844 128.121094 117.132812 127.085938 116.4375 L 125.324219 115.257812 L 127.734375 111.636719 L 134.949219 116.0625 C 134.703125 116.035156 134.464844 115.992188 134.214844 115.992188 C 130.933594 115.992188 128.265625 118.664062 128.265625 121.953125 C 128.265625 125.242188 130.933594 127.917969 134.214844 127.917969 C 137.5 127.917969 140.164062 125.242188 140.164062 121.953125 C 140.164062 120.738281 139.792969 119.605469 139.167969 118.660156 L 202.773438 157.726562 C 197.308594 158.878906 187.253906 159.144531 173.070312 152.042969 C 155.960938 143.46875 138.269531 132.21875 129.242188 126.273438 Z M 134.871094 121.953125 C 134.871094 122.320312 134.578125 122.617188 134.210938 122.617188 C 133.84375 122.617188 133.550781 122.320312 133.550781 121.953125 C 133.550781 121.585938 133.84375 121.292969 134.210938 121.292969 C 134.578125 121.292969 134.871094 121.585938 134.871094 121.953125 Z M 182.539062 83.796875 C 187.96875 80.402344 194.332031 80.578125 198.703125 81.324219 L 146.9375 117.214844 L 139.164062 112.441406 C 147.746094 106.691406 173.839844 89.246094 182.539062 83.796875 Z M 122.367188 130.699219 L 120.382812 126.367188 L 122.273438 124.847656 C 122.671875 126.484375 123.480469 127.996094 124.652344 129.238281 Z M 198.746094 316.988281 C 196.839844 311.332031 195.476562 305.699219 194.15625 300.230469 C 192.292969 292.503906 190.527344 285.210938 187.46875 279.070312 C 183.503906 271.125 176.800781 268.5 167.167969 268.5 C 161.003906 268.5 153.628906 269.574219 145.011719 271.019531 C 122.554688 274.769531 112.753906 264.855469 103.910156 253.457031 C 101.597656 250.480469 99.867188 246.96875 98.652344 243.335938 C 104.695312 235.234375 106.425781 221.695312 106.914062 214.640625 C 112.308594 212.257812 119.167969 209.90625 125.113281 207.871094 C 128.523438 206.703125 131.742188 205.597656 134.472656 204.578125 C 145.15625 200.558594 145.542969 196.695312 147.179688 180.445312 C 147.429688 177.949219 147.710938 175.125 148.074219 171.921875 C 149.046875 163.136719 151.542969 155.417969 155.5625 148.652344 C 160.503906 151.453125 165.621094 154.234375 170.699219 156.777344 C 181.300781 162.089844 189.953125 163.636719 196.441406 163.636719 C 200.292969 163.636719 203.375 163.089844 205.648438 162.460938 C 206.679688 169.886719 208.84375 178.261719 211.542969 187.527344 C 220.796875 219.324219 247.234375 227.269531 268.382812 217.996094 C 282.847656 211.648438 286.804688 198.492188 285.738281 186.140625 C 298.351562 206.082031 311.351562 229.808594 314.332031 235.300781 C 284.769531 297.511719 212.171875 314.371094 198.746094 316.988281 Z M 149.410156 198.785156 C 149.410156 196.226562 151.484375 194.152344 154.035156 194.152344 C 156.589844 194.152344 158.65625 196.230469 158.65625 198.785156 C 158.65625 201.347656 156.582031 203.421875 154.035156 203.421875 C 151.484375 203.425781 149.410156 201.347656 149.410156 198.785156 Z M 159.851562 251.953125 C 155.492188 265.050781 145.285156 268.113281 144.851562 268.234375 C 144.605469 268.304688 144.363281 268.339844 144.125 268.339844 C 142.972656 268.339844 141.917969 267.578125 141.585938 266.417969 C 141.1875 265.015625 141.988281 263.554688 143.386719 263.144531 C 143.746094 263.03125 151.40625 260.59375 154.835938 250.273438 C 155.296875 248.886719 156.800781 248.136719 158.179688 248.601562 C 159.5625 249.0625 160.308594 250.5625 159.851562 251.953125 Z M 159.851562 251.953125 " fill-opacity="1" fill-rule="nonzero"/></g></svg>