<svg xmlns="http://www.w3.org/2000/svg" xmlns:xlink="http://www.w3.org/1999/xlink" width="500" zoomAndPan="magnify" viewBox="0 0 375 374.999991" height="500" preserveAspectRatio="xMidYMid meet" version="1.0"><defs><clipPath id="f72f98d6d9"><path d="M 90.734375 265.449219 L 262.980469 265.449219 L 262.980469 337.484375 L 90.734375 337.484375 Z M 90.734375 265.449219 " clip-rule="nonzero"/></clipPath><clipPath id="801d61023c"><path d="M 142.847656 125.699219 L 274.484375 125.699219 L 274.484375 266.726562 L 142.847656 266.726562 Z M 142.847656 125.699219 " clip-rule="nonzero"/></clipPath><clipPath id="ad1824a2cf"><path d="M 119 37.5 L 243 37.5 L 243 154 L 119 154 Z M 119 37.5 " clip-rule="nonzero"/></clipPath></defs><path fill="#469469" d="M 187.5 0 C 83.945312 0 0 83.945312 0 187.5 C 0 291.054688 83.945312 375 187.5 375 C 291.054688 375 375 291.054688 375 187.5 C 375 83.945312 291.054688 0 187.5 0 " fill-opacity="1" fill-rule="nonzero"/><g clip-path="url(#f72f98d6d9)"><path fill="#ffffff" d="M 260.339844 273.164062 C 257.933594 269.835938 254.191406 267.789062 250.078125 267.539062 C 249.757812 267.519531 249.433594 267.511719 249.117188 267.515625 C 246.289062 267.546875 243.582031 268.433594 241.292969 270.085938 L 241.257812 270.113281 L 220.851562 284.730469 C 220.265625 285.160156 219.878906 285.792969 219.761719 286.515625 C 219.648438 287.246094 219.820312 287.972656 220.253906 288.570312 C 220.769531 289.285156 221.605469 289.710938 222.484375 289.710938 L 222.511719 289.707031 C 223.085938 289.703125 223.632812 289.523438 224.089844 289.191406 L 224.21875 289.097656 C 224.289062 289.050781 224.347656 289.007812 224.40625 288.964844 L 224.441406 288.9375 L 244.507812 274.5625 C 245.878906 273.574219 247.496094 273.046875 249.183594 273.027344 C 249.375 273.027344 249.566406 273.03125 249.757812 273.042969 C 252.210938 273.191406 254.445312 274.414062 255.882812 276.402344 C 257.164062 278.164062 257.675781 280.324219 257.335938 282.484375 C 256.996094 284.632812 255.84375 286.519531 254.097656 287.800781 L 254.074219 287.816406 L 203.996094 324.097656 C 203.386719 324.546875 202.699219 324.910156 201.941406 325.179688 C 201.105469 325.480469 200.21875 325.636719 199.304688 325.644531 C 199.03125 325.648438 198.773438 325.636719 198.53125 325.617188 L 198.460938 325.609375 C 198.4375 325.609375 198.414062 325.605469 198.394531 325.601562 L 147.023438 313.058594 C 146.878906 313.019531 146.78125 313 146.683594 312.984375 C 146.003906 312.886719 145.300781 312.84375 144.597656 312.847656 C 141.777344 312.875 139.070312 313.769531 136.769531 315.433594 L 133.464844 317.832031 C 133.371094 317.902344 133.25 317.929688 133.136719 317.910156 C 133.023438 317.890625 132.917969 317.828125 132.847656 317.734375 L 111.675781 288.503906 C 111.53125 288.308594 111.574219 288.03125 111.773438 287.886719 L 130.339844 274.199219 C 133.136719 272.167969 136.421875 271.074219 139.847656 271.039062 C 141.140625 271.03125 142.382812 271.207031 143.875 271.617188 C 144.140625 271.691406 153.714844 274.367188 156.640625 275.1875 L 201.175781 287.644531 C 205.425781 288.828125 208.003906 293.226562 206.917969 297.453125 C 206.386719 299.519531 205.066406 301.253906 203.203125 302.335938 C 201.976562 303.046875 200.585938 303.429688 199.171875 303.445312 C 198.449219 303.449219 197.722656 303.363281 197.019531 303.183594 L 196.910156 303.15625 L 166.664062 296.121094 C 166.476562 296.078125 166.261719 296.054688 166.050781 296.058594 C 164.769531 296.070312 163.679688 296.957031 163.398438 298.214844 C 163.226562 298.984375 163.394531 299.792969 163.855469 300.433594 C 164.25 300.980469 164.824219 301.359375 165.46875 301.503906 L 195.742188 308.542969 C 196.894531 308.832031 198.070312 308.96875 199.242188 308.957031 C 201.59375 308.933594 203.917969 308.292969 205.964844 307.105469 C 209.117188 305.277344 211.347656 302.339844 212.25 298.828125 C 214.078125 291.703125 209.761719 284.300781 202.621094 282.324219 L 158.089844 269.855469 L 156.960938 269.539062 C 156.125 269.300781 155.035156 268.988281 153.777344 268.621094 L 153.726562 268.609375 C 149.964844 267.519531 144.808594 266.03125 143.398438 265.804688 C 142.109375 265.601562 140.960938 265.507812 139.785156 265.519531 C 135.21875 265.566406 130.832031 267.027344 127.101562 269.738281 L 108.539062 283.421875 C 108.445312 283.492188 108.324219 283.519531 108.210938 283.503906 C 108.09375 283.484375 107.992188 283.421875 107.921875 283.324219 L 105.484375 279.960938 C 105 279.292969 104.246094 278.878906 103.417969 278.828125 C 103.351562 278.824219 103.289062 278.820312 103.226562 278.824219 C 102.65625 278.828125 102.113281 279.007812 101.648438 279.339844 L 91.816406 286.460938 C 91.128906 286.976562 90.722656 287.808594 90.734375 288.6875 C 90.746094 290.136719 91.890625 291.34375 93.335938 291.429688 C 93.398438 291.433594 93.464844 291.433594 93.527344 291.433594 C 94.160156 291.429688 94.75 291.21875 95.238281 290.824219 L 95.296875 290.777344 L 102.285156 285.691406 C 102.363281 285.636719 102.453125 285.605469 102.546875 285.605469 C 102.570312 285.605469 102.59375 285.609375 102.617188 285.613281 C 102.730469 285.628906 102.835938 285.695312 102.902344 285.789062 L 132.757812 326.996094 C 132.902344 327.195312 132.855469 327.46875 132.660156 327.613281 L 126.238281 332.292969 C 126.226562 332.304688 126.214844 332.308594 126.207031 332.316406 L 126.171875 332.335938 C 126.015625 332.429688 125.867188 332.542969 125.734375 332.667969 C 125.152344 333.199219 124.828125 333.953125 124.835938 334.738281 C 124.851562 336.1875 125.992188 337.390625 127.4375 337.480469 C 127.5 337.484375 127.566406 337.484375 127.628906 337.484375 C 128.21875 337.476562 128.773438 337.292969 129.234375 336.953125 L 138.492188 330.195312 C 139.710938 329.300781 139.980469 327.574219 139.09375 326.347656 L 136.601562 322.914062 C 136.535156 322.816406 136.503906 322.699219 136.523438 322.585938 C 136.542969 322.46875 136.605469 322.367188 136.699219 322.296875 L 139.988281 319.90625 C 141.359375 318.917969 142.972656 318.382812 144.660156 318.367188 C 145.011719 318.363281 145.363281 318.382812 145.707031 318.421875 C 145.714844 318.425781 145.726562 318.425781 145.734375 318.429688 L 145.878906 318.453125 C 145.886719 318.457031 145.894531 318.457031 145.902344 318.457031 L 197.304688 331.011719 L 197.378906 331.027344 C 197.394531 331.03125 197.417969 331.035156 197.4375 331.035156 L 197.535156 331.054688 C 197.558594 331.058594 197.574219 331.0625 197.59375 331.066406 L 197.707031 331.082031 C 198.242188 331.140625 198.792969 331.167969 199.339844 331.160156 C 200.878906 331.144531 202.378906 330.878906 203.800781 330.371094 C 205.011719 329.9375 206.167969 329.328125 207.230469 328.558594 L 257.347656 292.25 C 260.273438 290.109375 262.199219 286.949219 262.769531 283.351562 C 263.34375 279.734375 262.480469 276.117188 260.339844 273.164062 " fill-opacity="1" fill-rule="nonzero"/></g><path fill="#ffffff" d="M 120.730469 258.84375 C 121.285156 258.84375 121.816406 258.679688 122.277344 258.367188 C 123.527344 257.511719 123.851562 255.796875 123 254.542969 C 119 248.664062 115.804688 242.289062 113.503906 235.601562 C 111.207031 228.925781 109.804688 221.945312 109.335938 214.855469 C 109.328125 214.738281 109.402344 214.632812 109.515625 214.601562 C 109.625 214.570312 109.742188 214.621094 109.796875 214.722656 C 111.320312 217.554688 112.675781 219.738281 113.820312 221.214844 C 117.191406 225.59375 120.367188 227.175781 123.167969 228.574219 C 125.644531 229.808594 127.601562 230.785156 129.671875 233.644531 C 131.328125 235.9375 131.390625 238.917969 131.5 243.859375 C 131.558594 246.601562 131.632812 250.015625 132.042969 254.035156 C 132.1875 255.445312 133.359375 256.507812 134.773438 256.507812 C 134.867188 256.507812 134.960938 256.503906 135.058594 256.492188 C 135.785156 256.417969 136.445312 256.0625 136.90625 255.492188 C 137.371094 254.921875 137.585938 254.207031 137.511719 253.476562 C 137.121094 249.675781 137.054688 246.523438 136.992188 243.742188 C 136.878906 238.355469 136.785156 234.101562 134.125 230.417969 C 131.261719 226.460938 128.261719 224.964844 125.617188 223.648438 C 123.019531 222.351562 120.773438 221.230469 118.171875 217.851562 L 118.164062 217.839844 C 114.515625 213.144531 109.339844 201.070312 109.285156 200.949219 C 108.886719 200.011719 108.003906 199.375 106.988281 199.289062 C 106.984375 199.289062 106.984375 199.289062 106.980469 199.289062 L 106.972656 199.289062 C 106.9375 199.285156 106.902344 199.285156 106.871094 199.28125 C 106.824219 199.28125 106.78125 199.28125 106.738281 199.28125 C 105.320312 199.28125 104.132812 200.359375 104.003906 201.785156 C 103.777344 204.328125 103.664062 206.914062 103.664062 209.480469 C 103.664062 226.761719 108.777344 243.414062 118.457031 257.640625 C 118.96875 258.394531 119.820312 258.84375 120.730469 258.84375 " fill-opacity="1" fill-rule="nonzero"/><g clip-path="url(#801d61023c)"><path fill="#ffffff" d="M 274.476562 203 C 273.777344 193.679688 271.582031 184.609375 267.949219 176.039062 C 264.421875 167.71875 259.613281 160.027344 253.652344 153.191406 C 247.722656 146.386719 240.804688 140.589844 233.089844 135.960938 C 225.21875 131.238281 216.699219 127.839844 207.761719 125.855469 C 207.042969 125.699219 206.308594 125.828125 205.691406 126.222656 C 205.070312 126.617188 204.644531 127.230469 204.484375 127.949219 C 204.324219 128.667969 204.457031 129.402344 204.851562 130.023438 C 205.246094 130.640625 205.855469 131.070312 206.574219 131.230469 C 214.394531 132.964844 221.902344 135.886719 228.886719 139.917969 C 235.695312 143.847656 241.902344 148.765625 247.328125 154.53125 C 252.734375 160.28125 257.261719 166.761719 260.785156 173.792969 C 264.375 180.960938 266.855469 188.574219 268.15625 196.421875 C 268.171875 196.527344 268.121094 196.628906 268.023438 196.679688 C 267.929688 196.726562 267.8125 196.707031 267.738281 196.632812 C 267.253906 196.140625 266.757812 195.609375 266.269531 195.058594 C 266.257812 195.046875 266.25 195.035156 266.242188 195.023438 C 266.078125 194.75 265.871094 194.507812 265.621094 194.308594 C 265.609375 194.300781 265.601562 194.289062 265.589844 194.277344 C 263.488281 191.8125 261.558594 189.113281 259.691406 186.5 C 257.148438 182.949219 254.75 179.589844 252.308594 177.402344 C 248.066406 173.59375 244.617188 174.375 242.472656 175.699219 C 242.421875 175.730469 242.375 175.761719 242.328125 175.796875 C 240.820312 176.863281 240.210938 178.5625 240.65625 180.453125 C 240.910156 181.53125 241.476562 182.570312 242.023438 183.574219 C 242.789062 184.976562 243.457031 186.296875 243.230469 186.996094 C 243.152344 187.242188 242.789062 187.902344 241.101562 188.714844 C 239.476562 189.5 236.757812 190.808594 232.992188 190.515625 C 228.929688 190.207031 227.085938 187.359375 224.925781 183.371094 C 224.21875 182.0625 223.546875 180.820312 222.726562 179.875 C 220.898438 177.75 218.910156 177.851562 217.886719 178.101562 C 216.691406 178.394531 214.667969 179.53125 214.535156 183.894531 C 214.4375 187.164062 215.367188 191.078125 217.019531 194.363281 C 219.210938 198.714844 222.457031 201.660156 226.410156 202.878906 C 229.480469 203.828125 232.136719 203.660156 234.078125 203.539062 C 235.921875 203.421875 236.710938 203.414062 237.113281 203.816406 C 237.464844 204.167969 237.484375 204.398438 237.476562 204.621094 C 237.464844 204.96875 237.316406 205.605469 236.691406 206.667969 C 235.453125 208.757812 233.128906 211.21875 230.667969 213.828125 C 227.363281 217.324219 223.945312 220.941406 222.203125 224.660156 C 221.027344 227.175781 221.019531 229.945312 221.011719 232.386719 C 221.007812 233.34375 221.007812 234.246094 220.933594 235.058594 C 220.660156 238.203125 219.929688 239.921875 218.148438 241.632812 C 217.394531 242.355469 216.558594 243.027344 215.671875 243.742188 C 214.21875 244.914062 212.71875 246.125 211.421875 247.679688 C 209.953125 249.433594 208.957031 251.367188 207.992188 253.238281 C 207.539062 254.117188 207.113281 254.941406 206.652344 255.730469 C 205.089844 258.394531 203.015625 259.976562 199.925781 260.855469 C 198.023438 261.394531 196.5 261.277344 195.273438 260.488281 C 192.945312 259 191.265625 255.050781 190.273438 248.75 C 189.828125 245.914062 189.574219 242.992188 189.332031 240.164062 C 188.777344 233.683594 188.203125 226.984375 185.273438 220.488281 C 181.257812 211.566406 174.1875 206.417969 165.882812 206.367188 C 163.851562 206.355469 161.910156 206.886719 160.195312 207.363281 C 158.042969 207.957031 156.195312 208.46875 154.671875 207.902344 C 151.066406 206.558594 149.535156 203.007812 148.886719 200.265625 C 148.054688 196.75 148.199219 192.472656 149.265625 189.109375 C 151.4375 182.269531 156.398438 176.316406 163.605469 171.890625 L 163.644531 171.867188 C 167.164062 169.628906 172.128906 167.542969 176.925781 166.289062 C 182.253906 164.894531 185.023438 165.113281 185.820312 165.460938 C 185.855469 165.476562 185.886719 165.503906 185.914062 165.53125 C 186.316406 166.035156 186.375 166.375 186.503906 167.117188 C 186.695312 168.230469 186.988281 169.910156 188.636719 171.875 C 189.703125 173.144531 191.636719 174.632812 194.800781 174.535156 C 196.652344 174.476562 198.425781 173.910156 199.992188 173.410156 C 200.253906 173.328125 200.507812 173.246094 200.757812 173.167969 C 202.773438 172.546875 204.597656 173.296875 206.703125 174.167969 C 208.179688 174.777344 210.015625 175.535156 211.917969 175.535156 C 213.519531 175.535156 214.9375 175.011719 216.25 173.933594 C 218.328125 172.234375 218.835938 169.179688 217.566406 165.964844 C 216.585938 163.472656 214.703125 161.222656 212.261719 159.628906 C 209.421875 157.777344 205.984375 156.925781 202.324219 157.167969 C 201.589844 157.21875 200.921875 157.546875 200.4375 158.101562 C 199.953125 158.65625 199.714844 159.363281 199.761719 160.097656 C 199.863281 161.609375 201.175781 162.761719 202.6875 162.660156 C 207.976562 162.308594 210.671875 165.175781 211.582031 166.425781 C 212.679688 167.921875 212.820312 169.167969 212.746094 169.613281 C 212.734375 169.679688 212.695312 169.734375 212.644531 169.773438 C 211.984375 170.234375 211.300781 170.113281 208.796875 169.078125 C 206.371094 168.078125 203.042969 166.707031 199.140625 167.910156 C 198.875 167.992188 198.601562 168.078125 198.328125 168.167969 C 195.3125 169.125 193.789062 169.457031 192.84375 168.335938 C 192.148438 167.507812 192.066406 167.035156 191.917969 166.175781 C 191.726562 165.066406 191.464844 163.542969 189.972656 161.820312 C 188.757812 160.410156 186.769531 159.71875 183.902344 159.707031 C 181.832031 159.695312 179.339844 160.039062 176.488281 160.726562 C 170.878906 162.078125 164.984375 164.5 160.71875 167.207031 C 152.375 172.332031 146.605469 179.328125 144.03125 187.441406 C 142.65625 191.769531 142.472656 197.035156 143.539062 201.535156 C 144.894531 207.257812 148.167969 211.351562 152.757812 213.058594 C 155.941406 214.246094 158.976562 213.410156 161.648438 212.667969 C 163.140625 212.257812 164.546875 211.871094 165.804688 211.871094 L 165.84375 211.871094 C 174.152344 211.921875 178.445312 218.710938 180.265625 222.75 C 182.804688 228.390625 183.316406 234.339844 183.855469 240.632812 C 184.109375 243.558594 184.367188 246.578125 184.84375 249.605469 C 185.652344 254.734375 187.304688 261.921875 192.3125 265.125 C 193.9375 266.167969 195.765625 266.695312 197.746094 266.695312 C 198.914062 266.695312 200.152344 266.511719 201.429688 266.148438 C 205.859375 264.886719 209.117188 262.390625 211.390625 258.519531 C 211.929688 257.601562 212.410156 256.667969 212.875 255.765625 C 213.742188 254.085938 214.558594 252.5 215.636719 251.210938 C 216.589844 250.070312 217.816406 249.082031 219.117188 248.03125 C 220.054688 247.273438 221.023438 246.492188 221.949219 245.609375 C 225.394531 242.304688 226.136719 238.664062 226.410156 235.535156 C 226.5 234.492188 226.503906 233.429688 226.507812 232.402344 C 226.511719 230.347656 226.519531 228.410156 227.179688 226.996094 C 228.546875 224.082031 231.652344 220.792969 234.660156 217.609375 C 237.339844 214.769531 239.871094 212.089844 241.421875 209.464844 C 242.40625 207.800781 242.910156 206.285156 242.96875 204.835938 C 243.042969 202.984375 242.359375 201.285156 241 199.921875 C 238.804688 197.726562 236.109375 197.894531 233.734375 198.046875 C 231.964844 198.15625 230.136719 198.269531 228.03125 197.621094 C 224.679688 196.585938 222.71875 193.632812 221.664062 191.339844 C 221.113281 190.136719 220.6875 188.863281 220.402344 187.554688 C 220.378906 187.4375 220.441406 187.316406 220.554688 187.273438 C 220.667969 187.230469 220.796875 187.277344 220.855469 187.382812 C 221.625 188.738281 222.695312 190.496094 224.179688 192.03125 C 226.492188 194.417969 229.316406 195.757812 232.574219 196.003906 C 237.808594 196.40625 241.644531 194.5625 243.484375 193.675781 C 246.136719 192.398438 247.808594 190.71875 248.464844 188.683594 C 249.429688 185.675781 247.9375 182.9375 246.847656 180.9375 L 246.710938 180.691406 C 246.660156 180.597656 246.675781 180.480469 246.75 180.40625 C 246.824219 180.328125 246.9375 180.304688 247.03125 180.351562 C 247.5 180.570312 248.023438 180.945312 248.640625 181.5 C 250.632812 183.285156 252.863281 186.40625 255.222656 189.707031 C 257.136719 192.378906 259.113281 195.144531 261.3125 197.742188 C 261.34375 197.773438 261.359375 197.816406 261.367188 197.859375 C 261.726562 200.039062 262.226562 205.515625 262.226562 209.480469 C 262.226562 224.910156 257.488281 239.667969 248.519531 252.148438 C 247.632812 253.378906 247.914062 255.101562 249.144531 255.988281 C 249.613281 256.328125 250.167969 256.507812 250.746094 256.507812 C 251.628906 256.507812 252.464844 256.082031 252.980469 255.363281 C 257.683594 248.820312 261.332031 241.628906 263.832031 234 C 266.414062 226.109375 267.722656 217.859375 267.722656 209.480469 C 267.722656 208.023438 267.65625 206.222656 267.53125 204.273438 C 267.527344 204.179688 267.574219 204.089844 267.660156 204.042969 C 267.742188 203.996094 267.84375 204.003906 267.921875 204.058594 C 268.757812 204.660156 269.597656 205.191406 270.421875 205.636719 C 271.632812 206.292969 273.152344 205.941406 273.957031 204.824219 C 273.96875 204.808594 273.980469 204.792969 273.992188 204.773438 L 274.007812 204.753906 C 274.359375 204.226562 274.523438 203.625 274.476562 203 " fill-opacity="1" fill-rule="nonzero"/></g><path fill="#ffffff" d="M 117.191406 174.039062 C 119.996094 168.320312 123.492188 162.9375 127.578125 158.039062 C 131.683594 153.117188 136.398438 148.679688 141.589844 144.84375 C 141.65625 144.796875 141.742188 144.785156 141.820312 144.8125 C 141.898438 144.839844 141.957031 144.910156 141.972656 144.992188 C 142.148438 145.792969 142.386719 147.300781 142.058594 148.386719 C 139.765625 155.894531 134.960938 159.484375 129.394531 163.640625 C 126.851562 165.542969 124.222656 167.507812 121.769531 169.9375 C 120.363281 171.332031 118.960938 172.804688 117.59375 174.316406 C 117.542969 174.367188 117.476562 174.394531 117.410156 174.394531 C 117.363281 174.394531 117.316406 174.382812 117.273438 174.351562 C 117.171875 174.285156 117.136719 174.152344 117.191406 174.039062 Z M 107.289062 193.511719 C 107.621094 193.644531 107.964844 193.714844 108.316406 193.714844 C 109.273438 193.714844 110.175781 193.203125 110.671875 192.386719 C 110.726562 192.292969 116.363281 183.042969 125.636719 173.851562 C 127.816406 171.691406 130.179688 169.921875 132.683594 168.054688 C 138.492188 163.714844 144.496094 159.226562 147.3125 149.996094 C 147.363281 149.835938 147.40625 149.664062 147.453125 149.480469 C 147.464844 149.421875 147.5 149.375 147.546875 149.339844 C 154.984375 143.988281 163.210938 140.25 172.003906 138.222656 C 173.480469 137.882812 174.40625 136.402344 174.066406 134.921875 C 173.902344 134.207031 173.46875 133.597656 172.84375 133.207031 C 172.222656 132.816406 171.484375 132.695312 170.769531 132.859375 C 162.472656 134.773438 154.617188 138.105469 147.414062 142.769531 C 147.347656 142.8125 147.265625 142.820312 147.195312 142.792969 C 147.121094 142.765625 147.066406 142.707031 147.042969 142.632812 C 146.476562 140.679688 145.671875 139.277344 144.714844 138.570312 C 143.609375 137.753906 142.1875 137.707031 141.09375 138.453125 C 132.238281 144.480469 124.664062 152.011719 118.585938 160.84375 C 112.40625 169.824219 108.050781 179.753906 105.640625 190.351562 C 105.339844 191.675781 106.035156 193.003906 107.289062 193.511719 " fill-opacity="1" fill-rule="nonzero"/><g clip-path="url(#ad1824a2cf)"><path fill="#ffffff" d="M 129.425781 99.511719 C 133.238281 105.488281 137.558594 112.265625 143.050781 117.8125 C 145.660156 120.449219 148.75 122.5625 152.234375 124.097656 C 153.542969 124.671875 154.902344 125.160156 156.273438 125.550781 C 158.6875 126.234375 161.203125 126.625 163.753906 126.714844 C 164.492188 126.742188 165.199219 126.476562 165.742188 125.972656 C 166.285156 125.464844 166.597656 124.777344 166.625 124.035156 C 166.648438 123.292969 166.386719 122.585938 165.878906 122.042969 C 165.375 121.5 164.6875 121.1875 163.949219 121.160156 C 157.515625 120.933594 151.335938 118.289062 146.992188 113.898438 C 141.917969 108.773438 137.765625 102.265625 134.101562 96.523438 C 131.839844 92.972656 129.703125 89.621094 127.496094 86.800781 C 127.445312 86.734375 127.429688 86.652344 127.453125 86.574219 C 127.476562 86.496094 127.535156 86.4375 127.613281 86.414062 C 135.574219 83.863281 143.765625 83.035156 151.296875 84.015625 C 158.890625 85.003906 165.402344 87.78125 170.128906 92.046875 C 173.046875 94.679688 175.167969 97.785156 176.429688 101.28125 C 177.6875 104.761719 178.097656 108.636719 177.648438 112.800781 C 177.636719 112.894531 177.570312 112.976562 177.480469 113.007812 C 177.386719 113.035156 177.285156 113.007812 177.222656 112.9375 C 176.472656 112.089844 175.699219 111.265625 174.917969 110.496094 C 171.480469 107.09375 167.488281 104.167969 163.046875 101.804688 C 162.632812 101.582031 162.1875 101.476562 161.746094 101.476562 C 160.753906 101.476562 159.792969 102.011719 159.292969 102.949219 C 158.574219 104.304688 159.089844 105.988281 160.4375 106.710938 C 167.878906 110.671875 173.5 116.007812 178.132812 123.5 C 182.351562 130.324219 184.433594 137.324219 185.4375 141.996094 C 186.511719 147 186.617188 150.351562 186.621094 150.492188 C 186.621094 150.496094 186.621094 150.5 186.621094 150.503906 C 186.582031 151.84375 187.078125 152.894531 188.019531 153.460938 C 188.859375 153.960938 189.941406 153.976562 190.777344 153.496094 C 191.6875 152.976562 192.183594 151.980469 192.171875 150.703125 C 192.125 146.027344 192.796875 141.382812 193.53125 137.0625 C 194.132812 133.496094 194.941406 129.914062 195.929688 126.410156 C 196.390625 124.78125 196.898438 123.144531 197.4375 121.542969 C 198.363281 118.796875 199.421875 116.054688 200.582031 113.390625 C 200.628906 113.292969 200.726562 113.234375 200.832031 113.246094 C 206.929688 113.820312 212.742188 112.949219 218.109375 110.652344 C 223.816406 108.207031 228.761719 104.28125 232.804688 98.988281 C 238.378906 91.691406 241.777344 82.371094 242.625 72.03125 C 243.515625 61.230469 241.519531 49.914062 236.855469 39.300781 C 236.476562 38.4375 235.691406 37.828125 234.761719 37.675781 C 233.828125 37.527344 232.894531 37.851562 232.261719 38.554688 C 229.074219 42.070312 223.804688 45.703125 218.226562 49.546875 C 211.398438 54.257812 203.65625 59.59375 197.414062 66.234375 C 194.472656 69.363281 192.152344 73.027344 190.523438 77.125 C 188.820312 81.394531 187.957031 85.925781 187.953125 90.585938 C 187.953125 91.328125 188.242188 92.027344 188.765625 92.550781 C 189.289062 93.074219 189.984375 93.363281 190.726562 93.363281 C 190.726562 93.363281 190.726562 93.363281 190.730469 93.363281 C 191.46875 93.363281 192.164062 93.074219 192.691406 92.550781 C 193.214844 92.027344 193.503906 91.332031 193.503906 90.585938 C 193.507812 82.902344 196.40625 75.414062 201.453125 70.042969 C 207.289062 63.832031 214.773438 58.675781 221.375 54.125 C 225.664062 51.167969 229.71875 48.375 233.019531 45.519531 C 233.082031 45.46875 233.164062 45.445312 233.242188 45.46875 C 233.320312 45.488281 233.382812 45.546875 233.410156 45.621094 C 240.007812 63.777344 238.082031 82.929688 228.398438 95.613281 C 225.273438 99.699219 221.546875 102.828125 217.324219 104.910156 C 213.113281 106.980469 208.496094 107.972656 203.605469 107.847656 C 203.519531 107.84375 203.441406 107.796875 203.398438 107.726562 C 203.355469 107.652344 203.351562 107.5625 203.390625 107.488281 C 207.480469 99.570312 212.648438 92.214844 218.746094 85.621094 C 219.785156 84.5 219.71875 82.738281 218.59375 81.695312 C 217.472656 80.652344 215.710938 80.722656 214.675781 81.84375 C 209.71875 87.203125 205.308594 93.09375 201.574219 99.355469 C 197.742188 105.769531 194.582031 112.640625 192.179688 119.765625 C 191.609375 121.453125 191.074219 123.179688 190.589844 124.898438 C 189.929688 127.234375 189.339844 129.632812 188.835938 132.03125 C 188.816406 132.140625 188.722656 132.21875 188.613281 132.226562 C 188.503906 132.234375 188.402344 132.167969 188.367188 132.0625 C 186.890625 127.972656 185.035156 124.105469 182.851562 120.574219 C 182.632812 120.21875 182.394531 119.84375 182.125 119.429688 C 182.089844 119.371094 182.078125 119.300781 182.09375 119.234375 C 185.292969 106.722656 182.363281 95.601562 173.84375 87.917969 C 170.894531 85.257812 167.351562 83.082031 163.316406 81.453125 C 159.382812 79.863281 155.058594 78.820312 150.457031 78.355469 C 141.015625 77.402344 130.988281 78.914062 121.453125 82.726562 C 120.578125 83.078125 119.945312 83.839844 119.761719 84.765625 C 119.578125 85.695312 119.871094 86.640625 120.550781 87.300781 C 123.414062 90.085938 126.332031 94.664062 129.425781 99.511719 " fill-opacity="1" fill-rule="nonzero"/></g></svg>