<svg xmlns="http://www.w3.org/2000/svg" xmlns:xlink="http://www.w3.org/1999/xlink" width="500" zoomAndPan="magnify" viewBox="0 0 375 374.999991" height="500" preserveAspectRatio="xMidYMid meet" version="1.0"><defs><clipPath id="c899aa0f40"><path d="M 29.6875 76 L 345.4375 76 L 345.4375 337.558594 L 29.6875 337.558594 Z M 29.6875 76 " clip-rule="nonzero"/></clipPath></defs><path fill="#469469" d="M 187.5 0 C 83.945312 0 0 83.945312 0 187.5 C 0 291.054688 83.945312 375 187.5 375 C 291.054688 375 375 291.054688 375 187.5 C 375 83.945312 291.054688 0 187.5 0 " fill-opacity="1" fill-rule="nonzero"/><path fill="#fffcf7" d="M 146.480469 152 C 147.152344 152.277344 147.789062 152.617188 148.394531 153.023438 C 148.996094 153.425781 149.554688 153.882812 150.066406 154.394531 C 150.582031 154.910156 151.039062 155.46875 151.441406 156.070312 C 151.847656 156.675781 152.1875 157.3125 152.464844 157.980469 C 152.742188 158.652344 152.953125 159.34375 153.09375 160.054688 C 153.234375 160.765625 153.304688 161.484375 153.304688 162.210938 C 153.304688 162.9375 153.234375 163.65625 153.09375 164.367188 C 152.953125 165.082031 152.742188 165.769531 152.464844 166.441406 C 152.1875 167.113281 151.847656 167.75 151.441406 168.351562 C 151.039062 168.957031 150.582031 169.515625 150.066406 170.027344 C 149.554688 170.539062 148.996094 171 148.394531 171.402344 C 147.789062 171.804688 147.152344 172.144531 146.480469 172.421875 C 145.8125 172.703125 145.121094 172.910156 144.40625 173.050781 C 143.695312 173.195312 142.976562 173.265625 142.25 173.265625 C 141.527344 173.265625 140.808594 173.195312 140.09375 173.050781 C 139.382812 172.910156 138.691406 172.703125 138.019531 172.421875 C 137.351562 172.144531 136.714844 171.804688 136.109375 171.402344 C 135.507812 171 134.949219 170.539062 134.433594 170.027344 C 133.921875 169.515625 133.464844 168.957031 133.058594 168.351562 C 132.65625 167.75 132.316406 167.113281 132.039062 166.441406 C 131.761719 165.769531 131.550781 165.082031 131.410156 164.367188 C 131.269531 163.65625 131.195312 162.9375 131.195312 162.210938 C 131.195312 161.484375 131.269531 160.765625 131.410156 160.054688 C 131.550781 159.34375 131.761719 158.652344 132.039062 157.980469 C 132.316406 157.3125 132.65625 156.675781 133.058594 156.070312 C 133.464844 155.46875 133.921875 154.910156 134.433594 154.394531 C 134.949219 153.882812 135.507812 153.425781 136.109375 153.023438 C 136.714844 152.617188 137.351562 152.277344 138.019531 152 C 138.691406 151.722656 139.382812 151.511719 140.09375 151.371094 C 140.808594 151.230469 141.527344 151.160156 142.25 151.160156 C 142.976562 151.160156 143.695312 151.230469 144.40625 151.371094 C 145.121094 151.511719 145.8125 151.722656 146.480469 152 Z M 146.480469 152 " fill-opacity="1" fill-rule="nonzero"/><path fill="#fffcf7" d="M 243.792969 160.445312 C 243.910156 161.160156 243.957031 161.882812 243.929688 162.609375 C 243.902344 163.332031 243.808594 164.046875 243.640625 164.753906 C 243.472656 165.460938 243.238281 166.144531 242.9375 166.804688 C 242.636719 167.464844 242.273438 168.089844 241.847656 168.679688 C 241.425781 169.265625 240.945312 169.808594 240.414062 170.304688 C 239.882812 170.796875 239.308594 171.234375 238.691406 171.617188 C 238.074219 172 237.425781 172.316406 236.746094 172.570312 C 236.066406 172.824219 235.367188 173.007812 234.652344 173.125 C 233.933594 173.242188 233.214844 173.285156 232.488281 173.261719 C 231.761719 173.234375 231.046875 173.136719 230.339844 172.972656 C 229.636719 172.804688 228.953125 172.570312 228.292969 172.269531 C 227.628906 171.96875 227.007812 171.605469 226.417969 171.179688 C 225.828125 170.757812 225.285156 170.277344 224.792969 169.746094 C 224.296875 169.214844 223.859375 168.640625 223.476562 168.023438 C 223.097656 167.40625 222.777344 166.757812 222.523438 166.078125 C 222.269531 165.398438 222.085938 164.699219 221.96875 163.984375 C 221.855469 163.269531 221.808594 162.546875 221.835938 161.820312 C 221.859375 161.097656 221.957031 160.378906 222.125 159.675781 C 222.289062 158.96875 222.523438 158.285156 222.824219 157.625 C 223.128906 156.964844 223.488281 156.339844 223.914062 155.75 C 224.339844 155.164062 224.816406 154.621094 225.347656 154.125 C 225.878906 153.632812 226.453125 153.195312 227.070312 152.8125 C 227.6875 152.429688 228.335938 152.113281 229.015625 151.859375 C 229.695312 151.605469 230.394531 151.421875 231.113281 151.304688 C 231.828125 151.1875 232.550781 151.144531 233.273438 151.167969 C 234 151.195312 234.714844 151.289062 235.421875 151.457031 C 236.128906 151.625 236.8125 151.859375 237.472656 152.160156 C 238.132812 152.460938 238.757812 152.824219 239.347656 153.25 C 239.933594 153.671875 240.476562 154.152344 240.972656 154.683594 C 241.464844 155.210938 241.902344 155.785156 242.285156 156.40625 C 242.667969 157.023438 242.984375 157.671875 243.238281 158.351562 C 243.492188 159.03125 243.675781 159.730469 243.792969 160.445312 Z M 243.792969 160.445312 " fill-opacity="1" fill-rule="nonzero"/><g clip-path="url(#c899aa0f40)"><path fill="#fffcf7" d="M 307.03125 105.226562 L 272.726562 96.367188 C 266.410156 81.941406 250.941406 73.804688 235.367188 76.929688 C 203.648438 83.296875 171.476562 83.304688 139.761719 76.949219 L 139.578125 76.910156 C 123.984375 73.792969 108.503906 81.957031 102.207031 96.410156 L 68.101562 105.222656 C 45.488281 111.0625 29.695312 131.457031 29.695312 154.8125 C 29.695312 160.246094 31.246094 165.535156 34.179688 170.101562 L 81.746094 244.113281 C 83.921875 247.503906 87.476562 249.609375 91.488281 249.902344 C 91.808594 249.925781 92.125 249.933594 92.4375 249.933594 C 96.097656 249.933594 99.535156 248.378906 101.96875 245.582031 L 116.527344 228.871094 C 117.351562 227.925781 117.253906 226.492188 116.308594 225.667969 C 115.363281 224.847656 113.929688 224.941406 113.105469 225.890625 L 98.542969 242.601562 C 96.84375 244.554688 94.386719 245.5625 91.8125 245.375 C 89.234375 245.1875 86.957031 243.832031 85.558594 241.660156 L 73.800781 223.375 C 74.410156 222.964844 74.988281 222.480469 75.5 221.910156 L 84.914062 211.515625 C 86.171875 210.128906 86.984375 208.394531 87.230469 206.53125 L 89.277344 191.332031 C 89.84375 187.15625 87.523438 183.128906 83.632812 181.523438 L 67.300781 174.78125 C 64.699219 173.703125 62.730469 171.511719 61.9375 168.808594 L 55.992188 148.46875 C 55.375 146.347656 54.019531 144.527344 52.171875 143.3125 L 42.394531 136.902344 C 41.183594 136.105469 39.820312 135.625 38.421875 135.464844 C 44.128906 122.9375 55.246094 113.222656 69.226562 109.609375 L 100.269531 101.589844 C 97.546875 109.863281 96.222656 118.464844 96.328125 127.222656 L 96.59375 149.058594 C 96.84375 168.089844 103.359375 186.890625 114.945312 201.988281 C 125.945312 216.320312 132.121094 234.160156 132.363281 252.222656 C 132.523438 264.628906 137.511719 276.234375 146.40625 284.894531 C 150.738281 289.113281 155.75 292.382812 161.175781 294.613281 L 160.875 294.613281 L 160.875 314.046875 C 160.875 326.894531 171.296875 337.308594 184.140625 337.308594 L 190.960938 337.308594 C 203.8125 337.308594 214.222656 326.890625 214.222656 314.046875 L 214.222656 295.339844 C 221.082031 293.011719 227.351562 289.09375 232.554688 283.761719 C 241.214844 274.871094 245.894531 263.140625 245.734375 250.730469 C 245.492188 232.671875 251.210938 214.675781 261.820312 200.054688 C 273.003906 184.652344 279.019531 165.691406 278.773438 146.691406 L 278.78125 126.71875 C 278.78125 118.117188 277.398438 109.667969 274.675781 101.550781 L 296.222656 107.121094 L 300.933594 123.574219 C 301.707031 126.277344 301.214844 129.1875 299.585938 131.484375 L 287.339844 148.773438 C 286.0625 150.574219 285.472656 152.765625 285.671875 154.960938 L 286.722656 166.605469 C 286.976562 169.414062 288.492188 171.953125 290.847656 173.507812 L 304.175781 182.3125 C 307.023438 184.191406 310.679688 184.355469 313.6875 182.742188 L 318.980469 179.886719 C 322.597656 177.9375 324.496094 173.839844 323.652344 169.816406 L 320.574219 155.230469 C 319.976562 152.410156 320.730469 149.472656 322.601562 147.289062 L 335.238281 132.527344 C 338.871094 139.195312 340.898438 146.8125 340.898438 154.808594 C 340.898438 159.371094 339.597656 163.804688 337.132812 167.644531 L 289.570312 241.65625 C 288.167969 243.828125 285.894531 245.183594 283.3125 245.371094 C 280.738281 245.558594 278.28125 244.546875 276.582031 242.59375 L 262.019531 225.882812 C 261.195312 224.9375 259.765625 224.839844 258.816406 225.664062 C 257.871094 226.484375 257.773438 227.917969 258.597656 228.863281 L 273.160156 245.578125 C 275.597656 248.371094 279.027344 249.925781 282.691406 249.925781 C 283 249.925781 283.320312 249.914062 283.636719 249.894531 C 287.648438 249.601562 291.203125 247.488281 293.382812 244.105469 L 340.945312 170.09375 C 343.882812 165.523438 345.433594 160.234375 345.433594 154.808594 C 345.4375 131.464844 329.644531 111.070312 307.03125 105.226562 Z M 274.25 146.730469 C 274.488281 164.789062 268.769531 182.785156 258.164062 197.40625 C 246.980469 212.808594 240.960938 231.769531 241.207031 250.800781 C 241.359375 261.996094 237.128906 272.585938 229.316406 280.609375 C 221.503906 288.636719 211.027344 293.132812 199.832031 293.277344 L 189.832031 293.40625 L 189.832031 272.03125 C 191.503906 271.585938 193.023438 270.660156 194.183594 269.324219 L 212.179688 248.546875 C 214.449219 245.925781 214.96875 242.335938 213.523438 239.179688 C 212.085938 236.023438 209.03125 234.0625 205.5625 234.0625 L 169.566406 234.0625 C 166.097656 234.0625 163.042969 236.023438 161.601562 239.179688 C 160.164062 242.335938 160.675781 245.921875 162.945312 248.546875 L 180.945312 269.324219 C 182.097656 270.660156 183.621094 271.585938 185.292969 272.03125 L 185.292969 293.464844 L 179.394531 293.542969 C 179.207031 293.542969 179.023438 293.550781 178.835938 293.550781 C 155.96875 293.550781 137.21875 275.097656 136.914062 252.171875 C 136.660156 233.136719 130.144531 214.335938 118.566406 199.238281 C 107.574219 184.90625 101.390625 167.066406 101.148438 149.011719 L 100.882812 127.179688 C 100.769531 117.628906 102.453125 108.269531 105.902344 99.355469 C 111.011719 86.148438 124.800781 78.585938 138.691406 81.363281 L 138.871094 81.402344 C 171.1875 87.875 203.953125 87.867188 236.269531 81.382812 C 250.15625 78.597656 263.953125 86.164062 269.066406 99.375 L 269.238281 99.808594 C 272.574219 108.429688 274.269531 117.488281 274.261719 126.730469 Z M 187.5625 267.804688 C 186.335938 267.804688 185.175781 267.273438 184.378906 266.355469 L 166.382812 245.578125 C 165.273438 244.292969 165.027344 242.609375 165.734375 241.066406 C 166.441406 239.523438 167.871094 238.601562 169.566406 238.601562 L 205.5625 238.601562 C 207.261719 238.601562 208.691406 239.523438 209.394531 241.066406 C 210.09375 242.609375 209.855469 244.292969 208.746094 245.578125 L 190.746094 266.355469 C 189.949219 267.273438 188.789062 267.804688 187.5625 267.804688 Z M 187.5625 267.804688 " fill-opacity="1" fill-rule="nonzero"/></g><path fill="#fffcf7" d="M 283.441406 269.570312 L 266.972656 265.84375 C 265.75 265.5625 264.535156 266.335938 264.257812 267.554688 C 263.980469 268.777344 264.75 269.992188 265.96875 270.269531 L 282.4375 273.996094 C 282.605469 274.035156 282.773438 274.054688 282.941406 274.054688 C 283.980469 274.054688 284.914062 273.34375 285.152344 272.285156 C 285.433594 271.066406 284.667969 269.847656 283.441406 269.570312 Z M 283.441406 269.570312 " fill-opacity="1" fill-rule="nonzero"/><path fill="#fffcf7" d="M 235.398438 306.398438 C 234.875 305.261719 233.523438 304.765625 232.382812 305.289062 C 231.25 305.8125 230.75 307.164062 231.277344 308.304688 L 238.355469 323.628906 C 238.738281 324.457031 239.5625 324.945312 240.417969 324.945312 C 240.734375 324.945312 241.058594 324.878906 241.371094 324.738281 C 242.503906 324.210938 243.003906 322.863281 242.480469 321.722656 Z M 235.398438 306.398438 " fill-opacity="1" fill-rule="nonzero"/><path fill="#fffcf7" d="M 108.152344 265.847656 L 91.683594 269.574219 C 90.457031 269.855469 89.695312 271.066406 89.972656 272.292969 C 90.210938 273.347656 91.144531 274.0625 92.183594 274.0625 C 92.351562 274.0625 92.519531 274.042969 92.6875 274.003906 L 109.15625 270.277344 C 110.382812 269.996094 111.148438 268.785156 110.867188 267.558594 C 110.582031 266.339844 109.371094 265.570312 108.152344 265.847656 Z M 108.152344 265.847656 " fill-opacity="1" fill-rule="nonzero"/><path fill="#fffcf7" d="M 142.742188 305.289062 C 141.601562 304.765625 140.257812 305.261719 139.726562 306.398438 L 132.648438 321.722656 C 132.121094 322.855469 132.613281 324.207031 133.757812 324.738281 C 134.066406 324.878906 134.386719 324.945312 134.710938 324.945312 C 135.566406 324.945312 136.386719 324.457031 136.769531 323.628906 L 143.851562 308.304688 C 144.375 307.164062 143.875 305.8125 142.742188 305.289062 Z M 142.742188 305.289062 " fill-opacity="1" fill-rule="nonzero"/></svg>