<svg xmlns="http://www.w3.org/2000/svg" xmlns:xlink="http://www.w3.org/1999/xlink" width="500" zoomAndPan="magnify" viewBox="0 0 375 374.999991" height="500" preserveAspectRatio="xMidYMid meet" version="1.0"><defs><clipPath id="dc32877b38"><path d="M 49.226562 37.5 L 242 37.5 L 242 291 L 49.226562 291 Z M 49.226562 37.5 " clip-rule="nonzero"/></clipPath><clipPath id="6a9397d5ef"><path d="M 71 53 L 337 53 L 337 350.25 L 71 350.25 Z M 71 53 " clip-rule="nonzero"/></clipPath></defs><path fill="#febfcb" d="M 187.5 0 C 83.945312 0 0 83.945312 0 187.5 C 0 291.054688 83.945312 375 187.5 375 C 291.054688 375 375 291.054688 375 187.5 C 375 83.945312 291.054688 0 187.5 0 " fill-opacity="1" fill-rule="nonzero"/><path fill="#ffffff" d="M 245.855469 222.480469 L 215.300781 221.019531 L 210.933594 215.195312 C 210.933594 215.195312 215.300781 206.457031 209.476562 186.066406 C 203.648438 165.679688 178.921875 172.957031 178.921875 172.957031 L 190.558594 216.652344 L 183.28125 223.9375 L 145.449219 219.566406 C 145.449219 219.566406 117.804688 221.027344 103.257812 221.027344 C 88.707031 221.027344 88.707031 222.484375 81.429688 216.652344 C 74.152344 210.820312 72.703125 184.609375 84.339844 158.394531 C 95.980469 132.179688 132.355469 124.894531 141.082031 117.609375 C 149.8125 110.324219 178.914062 59.347656 178.914062 59.347656 C 178.914062 59.347656 215.289062 53.523438 250.210938 66.632812 C 285.132812 79.742188 305.5 119.070312 305.5 119.070312 C 305.5 119.070312 279.3125 155.480469 277.855469 171.503906 C 276.398438 187.527344 279.3125 196.265625 258.941406 213.742188 Z M 245.855469 222.480469 " fill-opacity="1" fill-rule="nonzero"/><path fill="#fdf5d8" d="M 305.507812 119.0625 C 305.507812 119.0625 279.320312 155.472656 277.863281 171.496094 C 276.402344 187.519531 279.320312 196.257812 258.945312 213.734375 L 245.847656 222.472656 L 215.292969 221.011719 L 210.925781 215.1875 C 210.925781 215.1875 212.40625 212.179688 212.488281 205.648438 C 230.058594 205.46875 250.566406 201.484375 254.578125 184.601562 C 259.238281 165.015625 280.007812 126.90625 294.347656 102.03125 C 301.628906 111.574219 305.507812 119.0625 305.507812 119.0625 Z M 185.894531 203.441406 L 183.550781 194.996094 C 183.8125 217.035156 144.003906 207.914062 144.003906 207.914062 L 142.546875 193.351562 C 132.359375 221.027344 103.261719 207.914062 103.261719 207.914062 L 100.355469 196.265625 C 97.648438 208.902344 86.558594 212.027344 78.515625 212.574219 C 79.335938 214.367188 80.316406 215.753906 81.4375 216.652344 C 88.714844 222.480469 88.714844 221.027344 103.261719 221.027344 C 117.8125 221.027344 145.457031 219.566406 145.457031 219.566406 L 183.289062 223.9375 L 190.566406 216.652344 L 187.101562 203.660156 C 186.324219 203.523438 185.894531 203.441406 185.894531 203.441406 Z M 185.894531 203.441406 " fill-opacity="1" fill-rule="nonzero"/><g clip-path="url(#dc32877b38)"><path fill="#ffffff" d="M 213.84375 276.367188 C 219.664062 295.304688 200.746094 289.476562 200.746094 289.476562 L 196.378906 247.242188 L 189.101562 244.328125 C 189.101562 244.328125 184.734375 248.699219 164.367188 247.242188 C 144 245.78125 141.089844 238.503906 141.089844 232.675781 C 141.089844 226.851562 140.535156 221.511719 140.535156 221.511719 L 183.28125 223.9375 L 190.558594 216.652344 L 178.507812 175.761719 C 178.507812 175.761719 199.371094 167.074219 207.335938 183.855469 C 215.300781 200.636719 210.933594 215.199219 210.933594 215.199219 L 218.210938 229.765625 L 240.035156 225.390625 L 241.496094 239.957031 L 212.398438 247.242188 C 212.390625 247.242188 208.023438 257.433594 213.84375 276.367188 Z M 94.535156 37.5 C 94.535156 37.5 91.625 57.890625 75.617188 57.890625 C 75.617188 57.890625 93.078125 60.800781 93.078125 78.277344 C 93.078125 78.277344 95.984375 59.34375 111.992188 59.34375 C 112 59.347656 94.535156 57.890625 94.535156 37.5 Z M 68.347656 73.910156 C 68.347656 73.910156 65.4375 94.300781 49.429688 94.300781 C 49.429688 94.300781 66.890625 97.214844 66.890625 114.691406 C 66.890625 114.691406 69.800781 95.753906 85.804688 95.753906 C 85.804688 95.761719 68.347656 94.300781 68.347656 73.910156 Z M 119.269531 73.910156 C 119.269531 73.910156 116.359375 94.300781 100.355469 94.300781 C 100.355469 94.300781 117.8125 97.214844 117.8125 114.691406 C 117.8125 114.691406 120.722656 95.753906 136.726562 95.753906 C 136.726562 95.761719 119.269531 94.300781 119.269531 73.910156 Z M 119.269531 73.910156 " fill-opacity="1" fill-rule="nonzero"/></g><path fill="#e5c928" d="M 241.488281 239.957031 L 212.390625 247.242188 C 212.390625 247.242188 213.199219 267.40625 214.25 280.625 C 215.300781 293.84375 206.570312 292.390625 206.570312 292.390625 L 197.84375 272 L 194.933594 248.699219 C 194.933594 248.699219 190.566406 244.328125 189.113281 239.960938 C 189.113281 239.960938 193.480469 247.246094 206.570312 241.421875 C 219.667969 235.597656 242.945312 234.136719 242.945312 234.136719 Z M 141.09375 232.671875 C 141.09375 232.671875 151.28125 248.695312 169.371094 248.597656 C 187.457031 248.503906 189.109375 244.320312 189.109375 244.320312 L 184.738281 235.582031 Z M 200.753906 215.195312 L 189.765625 172.238281 L 178.925781 172.957031 L 190.566406 216.652344 Z M 200.753906 215.195312 " fill-opacity="1" fill-rule="nonzero"/><g clip-path="url(#6a9397d5ef)"><path fill="#995d1f" d="M 112.722656 198.445312 C 121.453125 198.445312 121.453125 213.007812 114.183594 213.007812 C 106.910156 213.007812 106.90625 198.445312 112.722656 198.445312 Z M 159.285156 213.007812 C 166.5625 213.007812 166.5625 198.445312 157.828125 198.445312 C 152.007812 198.445312 152.007812 213.007812 159.285156 213.007812 Z M 336.617188 253.851562 C 336.214844 258.769531 333.707031 263.265625 329.726562 266.183594 C 326.726562 268.382812 323.207031 269.464844 319.691406 269.464844 C 315.457031 269.464844 311.230469 267.890625 307.9375 264.800781 C 302.617188 259.796875 294.046875 253.039062 283.433594 249.25 C 269.71875 244.347656 255.949219 245.660156 248.960938 246.882812 C 245.832031 247.425781 242.78125 246.152344 240.941406 243.753906 C 231.5625 244.8125 224.136719 246.71875 216.980469 248.566406 C 215.996094 248.820312 215.046875 249.0625 214.085938 249.304688 C 213.988281 257.164062 215.210938 263.992188 215.984375 267.476562 C 219.941406 266.980469 223.71875 269.300781 224.953125 273.167969 C 227.125 279.929688 232.363281 292.746094 243.074219 302.613281 C 251.363281 310.257812 261.328125 314.710938 268.222656 317.101562 C 276.015625 319.804688 280.789062 327.65625 279.570312 335.769531 C 278.835938 340.652344 276.027344 344.964844 271.863281 347.605469 C 269.09375 349.359375 265.917969 350.261719 262.695312 350.261719 C 261.027344 350.261719 259.355469 350.019531 257.722656 349.53125 C 248.875 346.867188 235.394531 341.226562 221.453125 329.492188 C 201.496094 312.710938 194.640625 291.933594 192.328125 281.039062 C 191.566406 277.4375 193.257812 273.875 196.269531 272.097656 C 193.679688 263.371094 193.429688 254.105469 193.46875 250.007812 C 192.34375 249.566406 191.273438 249.03125 190.261719 248.394531 C 187.542969 249.230469 179.691406 251.363281 170.496094 251.363281 C 163.996094 251.363281 156.835938 250.292969 150.359375 246.933594 C 137.550781 240.28125 137.210938 229.453125 138.300781 223.191406 L 92.351562 223.191406 C 86.21875 223.191406 81.035156 220.042969 77.363281 214.097656 C 69.105469 200.71875 70.066406 175.351562 79.558594 156.347656 C 90.019531 135.402344 116.144531 125.175781 130.183594 119.679688 C 133.964844 118.203125 137.535156 116.800781 138.617188 115.992188 C 142.089844 113.382812 160.304688 83.726562 175.671875 57.144531 C 176.105469 56.390625 176.851562 55.875 177.703125 55.726562 C 223.09375 48.027344 256.324219 65.058594 276.199219 80.707031 C 297.683594 97.617188 308.316406 116.097656 308.761719 116.875 C 309.289062 117.808594 309.261719 118.953125 308.695312 119.859375 C 308.410156 120.316406 279.957031 166.066406 278.574219 182.644531 C 277.480469 195.8125 273.902344 205.128906 267.535156 211.167969 C 276.441406 211.496094 286.546875 213.238281 297.140625 217.578125 C 310.480469 223.039062 322.441406 230.9375 331.730469 240.410156 C 335.242188 243.996094 337.015625 248.886719 336.617188 253.851562 Z M 206.761719 211.703125 C 207.597656 211.980469 208.378906 212.328125 209.125 212.722656 C 209.773438 205.613281 209.925781 191.109375 202.117188 181.324219 C 194.367188 171.632812 185.429688 174.558594 181.613281 176.5 L 192.070312 212.957031 C 196.730469 210.714844 202.183594 210.171875 206.761719 211.703125 Z M 92.351562 217.378906 L 101.53125 217.378906 C 94.527344 193.398438 102.421875 174.792969 102.78125 173.976562 C 103.421875 172.503906 105.136719 171.828125 106.613281 172.472656 C 108.082031 173.117188 108.757812 174.832031 108.113281 176.304688 C 108.007812 176.558594 100.390625 194.742188 107.613281 217.378906 L 140.371094 217.378906 C 140.835938 216.953125 141.421875 216.691406 142.050781 216.636719 C 135.421875 193.007812 143.164062 174.785156 143.519531 173.976562 C 144.164062 172.503906 145.875 171.828125 147.355469 172.472656 C 148.824219 173.117188 149.5 174.832031 148.855469 176.304688 C 148.75 176.558594 141.195312 194.582031 148.257812 217.085938 L 183.957031 220.171875 C 184.796875 218.808594 185.808594 217.546875 187.007812 216.417969 L 175.40625 175.945312 C 175.0625 174.746094 175.515625 173.46875 176.535156 172.753906 C 176.699219 172.636719 193.476562 161.183594 206.660156 177.691406 C 217.738281 191.554688 215.238281 212.257812 214.46875 217.074219 C 214.695312 217.34375 214.925781 217.617188 215.140625 217.890625 L 235.992188 217.890625 C 237.058594 216.214844 238.710938 214.902344 240.761719 214.320312 C 244.652344 213.226562 249.980469 212.066406 256.335938 211.492188 C 266.339844 207.464844 271.429688 198.394531 272.78125 182.1875 C 274.144531 165.832031 297.683594 126.710938 302.820312 118.328125 C 299.890625 113.683594 289.703125 98.722656 272.4375 85.175781 C 245.265625 63.855469 214.175781 55.816406 180.027344 61.273438 C 173.332031 72.828125 147.882812 116.339844 142.113281 120.667969 C 140.402344 121.957031 137.179688 123.210938 132.308594 125.125 C 119.003906 130.332031 94.230469 140.03125 84.773438 158.96875 C 78.527344 171.472656 76.28125 187.328125 78.332031 199.496094 C 78.96875 198.839844 79.757812 198.445312 80.710938 198.445312 C 88.84375 198.445312 89.394531 211.0625 83.5625 212.804688 C 85.964844 215.832031 88.90625 217.378906 92.351562 217.378906 Z M 218.632812 223.714844 C 218.90625 224.320312 219.140625 224.886719 219.34375 225.410156 C 221.628906 224.753906 223.992188 224.195312 226.226562 223.714844 Z M 185.179688 243.730469 C 182.539062 240.167969 181.105469 235.609375 181.105469 230.484375 C 181.105469 228.867188 181.28125 227.304688 181.621094 225.820312 L 147.15625 222.84375 C 147.148438 222.84375 147.148438 222.847656 147.144531 222.847656 C 146.824219 222.957031 146.5 223.015625 146.183594 223.015625 C 145.699219 223.015625 145.246094 222.863281 144.828125 222.644531 L 144.316406 222.601562 C 143.164062 226.710938 142.03125 236.0625 153.046875 241.777344 C 164.144531 247.539062 178.269531 245.359375 185.179688 243.730469 Z M 208.253906 250.734375 C 208.144531 250.757812 208.035156 250.785156 207.929688 250.808594 C 205.789062 251.289062 203.699219 251.523438 201.6875 251.523438 C 200.878906 251.523438 200.085938 251.472656 199.308594 251.394531 C 199.347656 255.628906 199.753906 263.367188 201.859375 270.472656 L 210.265625 268.65625 C 209.46875 265.054688 208.308594 258.464844 208.253906 250.734375 Z M 238.738281 238.152344 L 235.886719 227.882812 C 232.117188 228.457031 224.476562 229.769531 218.402344 231.796875 C 217.632812 232.050781 216.792969 231.984375 216.078125 231.585938 C 215.363281 231.199219 214.855469 230.527344 214.65625 229.738281 C 214.632812 229.644531 212.003906 219.59375 204.921875 217.226562 C 201.082031 215.945312 196.277344 216.78125 192.609375 219.34375 C 192.328125 219.695312 191.960938 219.976562 191.535156 220.164062 C 189.261719 222.097656 186.929688 225.328125 186.929688 230.492188 C 186.929688 235.699219 188.714844 239.886719 192.082031 242.589844 C 195.714844 245.507812 200.898438 246.414062 206.667969 245.125 C 209.589844 244.476562 212.472656 243.730469 215.523438 242.9375 C 222.171875 241.21875 229.632812 239.300781 238.738281 238.152344 Z M 210.207031 231.21875 C 210.207031 236.4375 205.96875 240.683594 200.753906 240.683594 C 195.539062 240.683594 191.296875 236.4375 191.296875 231.21875 C 191.296875 225.996094 195.539062 221.753906 200.753906 221.753906 C 205.96875 221.753906 210.207031 225.996094 210.207031 231.21875 Z M 204.386719 231.21875 C 204.386719 229.210938 202.757812 227.578125 200.753906 227.578125 C 198.746094 227.578125 197.117188 229.210938 197.117188 231.21875 C 197.117188 233.226562 198.746094 234.855469 200.753906 234.855469 C 202.757812 234.855469 204.386719 233.226562 204.386719 231.21875 Z M 204.386719 231.21875 " fill-opacity="1" fill-rule="nonzero"/></g></svg>