<svg xmlns="http://www.w3.org/2000/svg" xmlns:xlink="http://www.w3.org/1999/xlink" width="500" zoomAndPan="magnify" viewBox="0 0 375 374.999991" height="500" preserveAspectRatio="xMidYMid meet" version="1.0"><defs><g/><clipPath id="06aad0bf52"><path d="M 9.050781 82.050781 L 204.050781 82.050781 L 204.050781 277.050781 L 9.050781 277.050781 Z M 9.050781 82.050781 " clip-rule="nonzero"/></clipPath><clipPath id="d9cf6aedd1"><path d="M 57.371094 109 L 175.949219 109 L 175.949219 277.050781 L 57.371094 277.050781 Z M 57.371094 109 " clip-rule="nonzero"/></clipPath><clipPath id="f831841d43"><path d="M 204.09375 179.535156 C 204.09375 125.679688 160.4375 82.023438 106.582031 82.023438 C 52.726562 82.023438 9.070312 125.679688 9.070312 179.535156 C 9.070312 233.390625 52.726562 277.046875 106.582031 277.046875 C 160.4375 277.046875 204.09375 233.390625 204.09375 179.535156 " clip-rule="nonzero"/></clipPath><clipPath id="4a53395c1b"><path d="M 58 126.875 L 64.488281 126.875 L 64.488281 141 L 58 141 Z M 58 126.875 " clip-rule="nonzero"/></clipPath><clipPath id="0e0e17cd00"><path d="M 204.09375 179.535156 C 204.09375 125.679688 160.4375 82.023438 106.582031 82.023438 C 52.726562 82.023438 9.070312 125.679688 9.070312 179.535156 C 9.070312 233.390625 52.726562 277.046875 106.582031 277.046875 C 160.4375 277.046875 204.09375 233.390625 204.09375 179.535156 " clip-rule="nonzero"/></clipPath><clipPath id="428e1dd597"><path d="M 91.167969 99.601562 L 96.503906 99.601562 L 96.503906 114.421875 L 91.167969 114.421875 Z M 91.167969 99.601562 " clip-rule="nonzero"/></clipPath><clipPath id="f2cf4ef451"><path d="M 204.09375 179.535156 C 204.09375 125.679688 160.4375 82.023438 106.582031 82.023438 C 52.726562 82.023438 9.070312 125.679688 9.070312 179.535156 C 9.070312 233.390625 52.726562 277.046875 106.582031 277.046875 C 160.4375 277.046875 204.09375 233.390625 204.09375 179.535156 " clip-rule="nonzero"/></clipPath><clipPath id="44d99ec86d"><path d="M 122 100.195312 L 127.332031 100.195312 L 127.332031 115.609375 L 122 115.609375 Z M 122 100.195312 " clip-rule="nonzero"/></clipPath><clipPath id="ffefed6e2e"><path d="M 204.09375 179.535156 C 204.09375 125.679688 160.4375 82.023438 106.582031 82.023438 C 52.726562 82.023438 9.070312 125.679688 9.070312 179.535156 C 9.070312 233.390625 52.726562 277.046875 106.582031 277.046875 C 160.4375 277.046875 204.09375 233.390625 204.09375 179.535156 " clip-rule="nonzero"/></clipPath><clipPath id="1e3993c576"><path d="M 153 131.023438 L 159.941406 131.023438 L 159.941406 145.847656 L 153 145.847656 Z M 153 131.023438 " clip-rule="nonzero"/></clipPath><clipPath id="f54615fa26"><path d="M 204.09375 179.535156 C 204.09375 125.679688 160.4375 82.023438 106.582031 82.023438 C 52.726562 82.023438 9.070312 125.679688 9.070312 179.535156 C 9.070312 233.390625 52.726562 277.046875 106.582031 277.046875 C 160.4375 277.046875 204.09375 233.390625 204.09375 179.535156 " clip-rule="nonzero"/></clipPath><clipPath id="c037751039"><path d="M 57.371094 147.03125 L 154 147.03125 L 154 218.769531 L 57.371094 218.769531 Z M 57.371094 147.03125 " clip-rule="nonzero"/></clipPath><clipPath id="c04c07455a"><path d="M 204.09375 179.535156 C 204.09375 125.679688 160.4375 82.023438 106.582031 82.023438 C 52.726562 82.023438 9.070312 125.679688 9.070312 179.535156 C 9.070312 233.390625 52.726562 277.046875 106.582031 277.046875 C 160.4375 277.046875 204.09375 233.390625 204.09375 179.535156 " clip-rule="nonzero"/></clipPath><clipPath id="1c813e2550"><path d="M 60 179.046875 L 149.863281 179.046875 L 149.863281 277.050781 L 60 277.050781 Z M 60 179.046875 " clip-rule="nonzero"/></clipPath><clipPath id="d8e0224c44"><path d="M 204.09375 179.535156 C 204.09375 125.679688 160.4375 82.023438 106.582031 82.023438 C 52.726562 82.023438 9.070312 125.679688 9.070312 179.535156 C 9.070312 233.390625 52.726562 277.046875 106.582031 277.046875 C 160.4375 277.046875 204.09375 233.390625 204.09375 179.535156 " clip-rule="nonzero"/></clipPath><clipPath id="1e627b02bc"><path d="M 47.292969 107.902344 L 165.871094 107.902344 L 165.871094 217.585938 L 47.292969 217.585938 Z M 47.292969 107.902344 " clip-rule="nonzero"/></clipPath><clipPath id="e15a860f88"><path d="M 204.09375 179.535156 C 204.09375 125.679688 160.4375 82.023438 106.582031 82.023438 C 52.726562 82.023438 9.070312 125.679688 9.070312 179.535156 C 9.070312 233.390625 52.726562 277.046875 106.582031 277.046875 C 160.4375 277.046875 204.09375 233.390625 204.09375 179.535156 " clip-rule="nonzero"/></clipPath><clipPath id="d1d191c0c9"><path d="M 76.9375 155.332031 L 136.226562 155.332031 L 136.226562 203.355469 L 76.9375 203.355469 Z M 76.9375 155.332031 " clip-rule="nonzero"/></clipPath><clipPath id="69b55b1aad"><path d="M 204.09375 179.535156 C 204.09375 125.679688 160.4375 82.023438 106.582031 82.023438 C 52.726562 82.023438 9.070312 125.679688 9.070312 179.535156 C 9.070312 233.390625 52.726562 277.046875 106.582031 277.046875 C 160.4375 277.046875 204.09375 233.390625 204.09375 179.535156 " clip-rule="nonzero"/></clipPath><clipPath id="fd4c3264bb"><path d="M 110.730469 122.128906 L 135 122.128906 L 135 150.589844 L 110.730469 150.589844 Z M 110.730469 122.128906 " clip-rule="nonzero"/></clipPath><clipPath id="c9cdd7332c"><path d="M 204.09375 179.535156 C 204.09375 125.679688 160.4375 82.023438 106.582031 82.023438 C 52.726562 82.023438 9.070312 125.679688 9.070312 179.535156 C 9.070312 233.390625 52.726562 277.046875 106.582031 277.046875 C 160.4375 277.046875 204.09375 233.390625 204.09375 179.535156 " clip-rule="nonzero"/></clipPath><clipPath id="5fcfd1f7c2"><path d="M 131.484375 146.4375 L 151.640625 146.4375 L 151.640625 169.5625 L 131.484375 169.5625 Z M 131.484375 146.4375 " clip-rule="nonzero"/></clipPath><clipPath id="65163856c4"><path d="M 204.09375 179.535156 C 204.09375 125.679688 160.4375 82.023438 106.582031 82.023438 C 52.726562 82.023438 9.070312 125.679688 9.070312 179.535156 C 9.070312 233.390625 52.726562 277.046875 106.582031 277.046875 C 160.4375 277.046875 204.09375 233.390625 204.09375 179.535156 " clip-rule="nonzero"/></clipPath><clipPath id="1f897a8aa6"><path d="M 62 146.4375 L 81.679688 146.4375 L 81.679688 169.5625 L 62 169.5625 Z M 62 146.4375 " clip-rule="nonzero"/></clipPath><clipPath id="493c29e0e4"><path d="M 204.09375 179.535156 C 204.09375 125.679688 160.4375 82.023438 106.582031 82.023438 C 52.726562 82.023438 9.070312 125.679688 9.070312 179.535156 C 9.070312 233.390625 52.726562 277.046875 106.582031 277.046875 C 160.4375 277.046875 204.09375 233.390625 204.09375 179.535156 " clip-rule="nonzero"/></clipPath><clipPath id="1162edd1df"><path d="M 83.457031 122.128906 L 107.175781 122.128906 L 107.175781 150.589844 L 83.457031 150.589844 Z M 83.457031 122.128906 " clip-rule="nonzero"/></clipPath><clipPath id="1cd5f059a3"><path d="M 204.09375 179.535156 C 204.09375 125.679688 160.4375 82.023438 106.582031 82.023438 C 52.726562 82.023438 9.070312 125.679688 9.070312 179.535156 C 9.070312 233.390625 52.726562 277.046875 106.582031 277.046875 C 160.4375 277.046875 204.09375 233.390625 204.09375 179.535156 " clip-rule="nonzero"/></clipPath><clipPath id="1a7308e276"><path d="M 79 158 L 133.855469 158 L 133.855469 201.578125 L 79 201.578125 Z M 79 158 " clip-rule="nonzero"/></clipPath><clipPath id="f00d5f46e5"><path d="M 204.09375 179.535156 C 204.09375 125.679688 160.4375 82.023438 106.582031 82.023438 C 52.726562 82.023438 9.070312 125.679688 9.070312 179.535156 C 9.070312 233.390625 52.726562 277.046875 106.582031 277.046875 C 160.4375 277.046875 204.09375 233.390625 204.09375 179.535156 " clip-rule="nonzero"/></clipPath><clipPath id="b02deccb11"><path d="M 113.101562 124.503906 L 132.667969 124.503906 L 132.667969 148 L 113.101562 148 Z M 113.101562 124.503906 " clip-rule="nonzero"/></clipPath><clipPath id="5ed806ebbb"><path d="M 204.09375 179.535156 C 204.09375 125.679688 160.4375 82.023438 106.582031 82.023438 C 52.726562 82.023438 9.070312 125.679688 9.070312 179.535156 C 9.070312 233.390625 52.726562 277.046875 106.582031 277.046875 C 160.4375 277.046875 204.09375 233.390625 204.09375 179.535156 " clip-rule="nonzero"/></clipPath><clipPath id="f24c2484c0"><path d="M 133.261719 148.808594 L 149 148.808594 L 149 167.78125 L 133.261719 167.78125 Z M 133.261719 148.808594 " clip-rule="nonzero"/></clipPath><clipPath id="28a5a1ee62"><path d="M 204.09375 179.535156 C 204.09375 125.679688 160.4375 82.023438 106.582031 82.023438 C 52.726562 82.023438 9.070312 125.679688 9.070312 179.535156 C 9.070312 233.390625 52.726562 277.046875 106.582031 277.046875 C 160.4375 277.046875 204.09375 233.390625 204.09375 179.535156 " clip-rule="nonzero"/></clipPath><clipPath id="6c2d514ee2"><path d="M 64 148.808594 L 79.308594 148.808594 L 79.308594 167.78125 L 64 167.78125 Z M 64 148.808594 " clip-rule="nonzero"/></clipPath><clipPath id="edc37fca6a"><path d="M 204.09375 179.535156 C 204.09375 125.679688 160.4375 82.023438 106.582031 82.023438 C 52.726562 82.023438 9.070312 125.679688 9.070312 179.535156 C 9.070312 233.390625 52.726562 277.046875 106.582031 277.046875 C 160.4375 277.046875 204.09375 233.390625 204.09375 179.535156 " clip-rule="nonzero"/></clipPath><clipPath id="6c9bedd8fb"><path d="M 85.238281 124.503906 L 104.804688 124.503906 L 104.804688 148 L 85.238281 148 Z M 85.238281 124.503906 " clip-rule="nonzero"/></clipPath><clipPath id="6d447520f3"><path d="M 204.09375 179.535156 C 204.09375 125.679688 160.4375 82.023438 106.582031 82.023438 C 52.726562 82.023438 9.070312 125.679688 9.070312 179.535156 C 9.070312 233.390625 52.726562 277.046875 106.582031 277.046875 C 160.4375 277.046875 204.09375 233.390625 204.09375 179.535156 " clip-rule="nonzero"/></clipPath><clipPath id="d18dcdcefe"><path d="M 88.203125 163.039062 L 108.359375 163.039062 L 108.359375 179 L 88.203125 179 Z M 88.203125 163.039062 " clip-rule="nonzero"/></clipPath><clipPath id="cc2e83297d"><path d="M 204.09375 179.535156 C 204.09375 125.679688 160.4375 82.023438 106.582031 82.023438 C 52.726562 82.023438 9.070312 125.679688 9.070312 179.535156 C 9.070312 233.390625 52.726562 277.046875 106.582031 277.046875 C 160.4375 277.046875 204.09375 233.390625 204.09375 179.535156 " clip-rule="nonzero"/></clipPath><clipPath id="c938e10092"><path d="M 91.417969 178.785156 C 90.332031 178.785156 89.449219 178.386719 88.839844 177.453125 C 86.984375 174.605469 89.675781 169.558594 94.851562 166.179688 C 97.730469 164.300781 100.769531 163.332031 103.222656 163.332031 C 105.183594 163.332031 106.765625 163.949219 107.589844 165.214844 C 109.449219 168.0625 105.425781 171.445312 100.246094 174.824219 C 96.765625 177.09375 93.652344 178.785156 91.417969 178.785156 " clip-rule="nonzero"/></clipPath><clipPath id="b1d9da91b6"><path d="M 67.449219 151.183594 L 73 151.183594 L 73 156.519531 L 67.449219 156.519531 Z M 67.449219 151.183594 " clip-rule="nonzero"/></clipPath><clipPath id="4d475f3bb4"><path d="M 204.09375 179.535156 C 204.09375 125.679688 160.4375 82.023438 106.582031 82.023438 C 52.726562 82.023438 9.070312 125.679688 9.070312 179.535156 C 9.070312 233.390625 52.726562 277.046875 106.582031 277.046875 C 160.4375 277.046875 204.09375 233.390625 204.09375 179.535156 " clip-rule="nonzero"/></clipPath><clipPath id="d3899c92dd"><path d="M 136.226562 150 L 142 150 L 142 155.332031 L 136.226562 155.332031 Z M 136.226562 150 " clip-rule="nonzero"/></clipPath><clipPath id="fbff139b8f"><path d="M 204.09375 179.535156 C 204.09375 125.679688 160.4375 82.023438 106.582031 82.023438 C 52.726562 82.023438 9.070312 125.679688 9.070312 179.535156 C 9.070312 233.390625 52.726562 277.046875 106.582031 277.046875 C 160.4375 277.046875 204.09375 233.390625 204.09375 179.535156 " clip-rule="nonzero"/></clipPath><clipPath id="2102c24cf7"><path d="M 89.386719 127 L 95.910156 127 L 95.910156 132.800781 L 89.386719 132.800781 Z M 89.386719 127 " clip-rule="nonzero"/></clipPath><clipPath id="62f410d79a"><path d="M 204.09375 179.535156 C 204.09375 125.679688 160.4375 82.023438 106.582031 82.023438 C 52.726562 82.023438 9.070312 125.679688 9.070312 179.535156 C 9.070312 233.390625 52.726562 277.046875 106.582031 277.046875 C 160.4375 277.046875 204.09375 233.390625 204.09375 179.535156 " clip-rule="nonzero"/></clipPath><clipPath id="7938715cc9"><path d="M 116.066406 126.28125 L 122.589844 126.28125 L 122.589844 132 L 116.066406 132 Z M 116.066406 126.28125 " clip-rule="nonzero"/></clipPath><clipPath id="4c184fa0a7"><path d="M 204.09375 179.535156 C 204.09375 125.679688 160.4375 82.023438 106.582031 82.023438 C 52.726562 82.023438 9.070312 125.679688 9.070312 179.535156 C 9.070312 233.390625 52.726562 277.046875 106.582031 277.046875 C 160.4375 277.046875 204.09375 233.390625 204.09375 179.535156 " clip-rule="nonzero"/></clipPath><clipPath id="89dcd84ee6"><path d="M 81.679688 179.046875 L 89 179.046875 L 89 186.753906 L 81.679688 186.753906 Z M 81.679688 179.046875 " clip-rule="nonzero"/></clipPath><clipPath id="13448170aa"><path d="M 204.09375 179.535156 C 204.09375 125.679688 160.4375 82.023438 106.582031 82.023438 C 52.726562 82.023438 9.070312 125.679688 9.070312 179.535156 C 9.070312 233.390625 52.726562 277.046875 106.582031 277.046875 C 160.4375 277.046875 204.09375 233.390625 204.09375 179.535156 " clip-rule="nonzero"/></clipPath><clipPath id="5441930ba6"><path d="M 85.238281 214.027344 L 123 214.027344 L 123 222 L 85.238281 222 Z M 85.238281 214.027344 " clip-rule="nonzero"/></clipPath><clipPath id="aef1c8c00b"><path d="M 204.09375 179.535156 C 204.09375 125.679688 160.4375 82.023438 106.582031 82.023438 C 52.726562 82.023438 9.070312 125.679688 9.070312 179.535156 C 9.070312 233.390625 52.726562 277.046875 106.582031 277.046875 C 160.4375 277.046875 204.09375 233.390625 204.09375 179.535156 " clip-rule="nonzero"/></clipPath></defs><g fill="#e16e17" fill-opacity="1"><g transform="translate(204.389087, 211.66824)"><g><path d="M 39.90625 -43.164062 C 39.90625 -48.863281 39.90625 -54.5625 39.90625 -60.265625 C 39.90625 -64.472656 39.632812 -68.542969 39.496094 -72.617188 C 39.363281 -74.925781 39.226562 -77.230469 39.089844 -79.402344 C 39.089844 -82.253906 38.683594 -84.96875 38.140625 -87.820312 C 37.734375 -89.855469 37.054688 -91.617188 35.15625 -92.839844 C 34.746094 -93.113281 34.203125 -93.382812 33.660156 -93.382812 C 32.03125 -93.382812 30.402344 -93.519531 28.910156 -93.382812 C 26.195312 -93.113281 23.480469 -92.570312 21.308594 -90.941406 C 19.953125 -89.988281 18.730469 -89.175781 17.375 -88.226562 C 16.832031 -87.820312 16.289062 -87.546875 15.746094 -87.140625 C 13.707031 -85.511719 11.539062 -83.882812 9.5 -82.390625 C 9.230469 -82.117188 9.09375 -81.980469 8.824219 -81.710938 C 8.144531 -80.488281 7.328125 -79.402344 6.921875 -78.046875 C 6.378906 -76.28125 5.835938 -74.515625 5.699219 -72.753906 C 5.429688 -70.988281 5.429688 -69.085938 5.566406 -67.324219 C 5.835938 -65.558594 6.785156 -64.335938 8.550781 -63.929688 C 9.773438 -63.65625 10.996094 -63.523438 12.214844 -64.199219 C 13.300781 -65.015625 14.386719 -65.695312 15.472656 -66.371094 C 16.695312 -67.1875 17.78125 -68.136719 19.003906 -68.816406 C 20.222656 -69.496094 21.175781 -69.222656 21.582031 -68 C 21.851562 -67.324219 21.988281 -66.644531 21.988281 -65.828125 C 22.125 -57.550781 22.261719 -49.136719 22.394531 -40.855469 C 22.53125 -35.425781 22.667969 -29.996094 22.667969 -24.703125 C 22.667969 -18.460938 22.53125 -12.082031 22.667969 -5.835938 C 22.667969 -3.257812 23.210938 -0.679688 25.652344 1.085938 C 25.652344 1.085938 25.789062 1.222656 25.925781 1.355469 C 26.332031 1.898438 27.011719 2.035156 27.824219 2.035156 C 30.269531 2.035156 32.847656 2.035156 35.289062 2.035156 C 35.699219 2.035156 36.105469 1.898438 36.511719 1.765625 C 37.867188 1.222656 38.683594 0.269531 39.089844 -1.222656 C 39.496094 -3.121094 39.769531 -4.886719 39.769531 -6.921875 C 39.769531 -12.214844 39.90625 -17.507812 39.90625 -22.9375 C 39.90625 -29.726562 39.90625 -36.375 39.90625 -43.164062 Z M 39.90625 -43.164062 "/></g></g></g><g fill="#e16e17" fill-opacity="1"><g transform="translate(250.664303, 211.66824)"><g><path d="M 57.550781 -40.3125 C 57.820312 -44.382812 57.957031 -48.320312 57.6875 -52.390625 C 57.414062 -56.601562 57.007812 -60.808594 56.328125 -65.015625 C 55.921875 -67.867188 54.972656 -70.714844 54.15625 -73.566406 C 53.75 -74.925781 53.207031 -76.144531 52.527344 -77.367188 C 51.578125 -79.132812 50.898438 -81.03125 49.949219 -82.796875 C 49.679688 -83.476562 49.542969 -84.019531 49.136719 -84.5625 C 47.640625 -86.867188 46.011719 -89.039062 44.25 -90.941406 C 43.976562 -91.347656 43.570312 -91.617188 43.296875 -91.753906 C 41.535156 -92.570312 39.90625 -93.246094 38.277344 -94.0625 C 37.734375 -94.199219 37.191406 -94.332031 36.648438 -94.332031 C 35.5625 -94.46875 34.476562 -94.605469 33.527344 -94.742188 C 32.167969 -94.742188 30.8125 -94.742188 29.453125 -94.332031 C 25.246094 -93.113281 21.445312 -91.074219 18.050781 -88.496094 C 16.152344 -87.140625 14.523438 -85.511719 13.300781 -83.476562 C 9.773438 -77.503906 7.058594 -71.125 5.699219 -64.199219 C 5.292969 -62.4375 5.15625 -60.671875 4.886719 -58.90625 C 4.613281 -56.464844 4.070312 -53.886719 3.800781 -51.441406 C 3.394531 -47.777344 3.257812 -44.113281 3.527344 -40.582031 C 3.800781 -36.375 4.34375 -32.167969 4.75 -27.960938 C 4.886719 -26.058594 5.292969 -24.023438 5.566406 -22.125 C 5.699219 -20.359375 6.652344 -18.867188 7.328125 -17.238281 C 8.414062 -14.386719 9.910156 -11.671875 12.082031 -9.367188 C 14.386719 -6.921875 16.558594 -4.480469 19.410156 -2.441406 C 19.679688 -2.308594 19.953125 -2.035156 20.222656 -1.898438 C 21.308594 -1.492188 22.394531 -1.085938 23.480469 -0.679688 C 24.976562 -0.269531 26.601562 0.269531 28.230469 0.40625 C 32.441406 0.8125 36.648438 0.40625 40.855469 -0.8125 C 41.667969 -1.085938 42.484375 -1.628906 43.164062 -2.035156 C 44.25 -2.714844 45.199219 -3.394531 46.148438 -4.070312 C 47.371094 -5.023438 48.726562 -6.109375 49.8125 -7.328125 C 52.257812 -10.316406 53.75 -13.84375 54.972656 -17.375 C 55.648438 -19.273438 56.191406 -21.308594 56.464844 -23.347656 C 56.871094 -25.789062 57.007812 -28.367188 57.144531 -30.8125 C 57.414062 -34.070312 57.414062 -37.191406 57.550781 -40.3125 Z M 40.992188 -52.390625 C 41.125 -48.59375 41.261719 -44.65625 41.125 -40.855469 C 41.125 -37.597656 40.992188 -34.476562 40.175781 -31.355469 C 39.90625 -30.539062 39.769531 -29.589844 39.632812 -28.773438 C 39.363281 -26.332031 38.277344 -24.023438 37.460938 -21.71875 C 37.328125 -21.308594 36.785156 -20.765625 36.375 -20.632812 C 35.15625 -19.953125 33.933594 -19.410156 32.574219 -19.003906 C 32.167969 -18.730469 31.488281 -18.867188 30.945312 -18.867188 C 30.402344 -18.867188 29.859375 -18.867188 29.316406 -18.867188 C 27.28125 -19.136719 25.789062 -19.953125 24.703125 -21.851562 C 23.753906 -23.753906 23.347656 -25.789062 22.804688 -27.960938 C 21.988281 -30.675781 21.851562 -33.390625 21.988281 -36.242188 C 21.988281 -40.3125 21.988281 -44.382812 22.125 -48.457031 C 22.394531 -54.429688 23.210938 -60.128906 24.976562 -65.828125 C 25.515625 -67.730469 26.46875 -69.496094 27.144531 -71.257812 C 27.824219 -72.480469 29.046875 -73.023438 30.402344 -73.296875 C 30.945312 -73.429688 31.625 -73.566406 32.167969 -73.429688 C 32.710938 -73.429688 33.253906 -73.296875 33.796875 -73.023438 C 35.15625 -72.34375 35.96875 -71.125 36.785156 -70.039062 C 38.410156 -67.730469 39.496094 -65.152344 39.769531 -62.4375 C 40.3125 -59.042969 40.855469 -55.785156 40.992188 -52.390625 Z M 40.992188 -52.390625 "/></g></g></g><g fill="#e16e17" fill-opacity="1"><g transform="translate(312.681213, 211.66824)"><g><path d="M 39.90625 -43.164062 C 39.90625 -48.863281 39.90625 -54.5625 39.90625 -60.265625 C 39.90625 -64.472656 39.632812 -68.542969 39.496094 -72.617188 C 39.363281 -74.925781 39.226562 -77.230469 39.089844 -79.402344 C 39.089844 -82.253906 38.683594 -84.96875 38.140625 -87.820312 C 37.734375 -89.855469 37.054688 -91.617188 35.15625 -92.839844 C 34.746094 -93.113281 34.203125 -93.382812 33.660156 -93.382812 C 32.03125 -93.382812 30.402344 -93.519531 28.910156 -93.382812 C 26.195312 -93.113281 23.480469 -92.570312 21.308594 -90.941406 C 19.953125 -89.988281 18.730469 -89.175781 17.375 -88.226562 C 16.832031 -87.820312 16.289062 -87.546875 15.746094 -87.140625 C 13.707031 -85.511719 11.539062 -83.882812 9.5 -82.390625 C 9.230469 -82.117188 9.09375 -81.980469 8.824219 -81.710938 C 8.144531 -80.488281 7.328125 -79.402344 6.921875 -78.046875 C 6.378906 -76.28125 5.835938 -74.515625 5.699219 -72.753906 C 5.429688 -70.988281 5.429688 -69.085938 5.566406 -67.324219 C 5.835938 -65.558594 6.785156 -64.335938 8.550781 -63.929688 C 9.773438 -63.65625 10.996094 -63.523438 12.214844 -64.199219 C 13.300781 -65.015625 14.386719 -65.695312 15.472656 -66.371094 C 16.695312 -67.1875 17.78125 -68.136719 19.003906 -68.816406 C 20.222656 -69.496094 21.175781 -69.222656 21.582031 -68 C 21.851562 -67.324219 21.988281 -66.644531 21.988281 -65.828125 C 22.125 -57.550781 22.261719 -49.136719 22.394531 -40.855469 C 22.53125 -35.425781 22.667969 -29.996094 22.667969 -24.703125 C 22.667969 -18.460938 22.53125 -12.082031 22.667969 -5.835938 C 22.667969 -3.257812 23.210938 -0.679688 25.652344 1.085938 C 25.652344 1.085938 25.789062 1.222656 25.925781 1.355469 C 26.332031 1.898438 27.011719 2.035156 27.824219 2.035156 C 30.269531 2.035156 32.847656 2.035156 35.289062 2.035156 C 35.699219 2.035156 36.105469 1.898438 36.511719 1.765625 C 37.867188 1.222656 38.683594 0.269531 39.089844 -1.222656 C 39.496094 -3.121094 39.769531 -4.886719 39.769531 -6.921875 C 39.769531 -12.214844 39.90625 -17.507812 39.90625 -22.9375 C 39.90625 -29.726562 39.90625 -36.375 39.90625 -43.164062 Z M 39.90625 -43.164062 "/></g></g></g><g fill="#995d1f" fill-opacity="1"><g transform="translate(196.115099, 255.097558)"><g><path d="M 6.855469 -7.414062 L 18.65625 -7.414062 L 20.660156 -0.933594 C 20.894531 -0.09375 21.78125 0.464844 22.480469 0.464844 C 23.597656 0.464844 24.4375 -0.28125 24.4375 -1.398438 C 24.4375 -1.585938 24.390625 -1.957031 24.34375 -2.097656 L 15.25 -30.875 C 14.785156 -32.320312 14.179688 -33.347656 12.777344 -33.347656 C 11.425781 -33.347656 10.773438 -32.273438 10.355469 -30.875 L 1.257812 -2.097656 C 1.210938 -1.957031 1.164062 -1.585938 1.164062 -1.398438 C 1.164062 -0.28125 2.050781 0.464844 3.125 0.464844 C 3.777344 0.464844 4.617188 -0.09375 4.898438 -0.933594 Z M 12.777344 -26.863281 L 17.582031 -11.054688 L 7.976562 -11.054688 Z M 12.777344 -26.863281 "/></g></g></g><g fill="#995d1f" fill-opacity="1"><g transform="translate(224.051855, 255.097558)"><g><path d="M 12.5 -12.125 C 18.890625 -12.125 22.992188 -15.808594 22.992188 -22.433594 C 22.992188 -27.890625 20.242188 -32.878906 12.5 -32.878906 L 5.644531 -32.878906 C 4.429688 -32.878906 3.40625 -31.855469 3.40625 -30.640625 L 3.40625 -1.492188 C 3.40625 -0.417969 4.289062 0.464844 5.269531 0.464844 C 6.296875 0.464844 7.136719 -0.464844 7.136719 -1.492188 L 7.136719 -12.125 Z M 7.136719 -29.242188 L 12.5 -29.242188 C 18.003906 -29.242188 19.261719 -25.835938 19.261719 -22.480469 C 19.261719 -17.910156 16.929688 -15.765625 12.5 -15.765625 L 7.136719 -15.765625 Z M 7.136719 -29.242188 "/></g></g></g><g fill="#995d1f" fill-opacity="1"><g transform="translate(251.102488, 255.097558)"><g><path d="M 6.855469 -7.414062 L 18.65625 -7.414062 L 20.660156 -0.933594 C 20.894531 -0.09375 21.78125 0.464844 22.480469 0.464844 C 23.597656 0.464844 24.4375 -0.28125 24.4375 -1.398438 C 24.4375 -1.585938 24.390625 -1.957031 24.34375 -2.097656 L 15.25 -30.875 C 14.785156 -32.320312 14.179688 -33.347656 12.777344 -33.347656 C 11.425781 -33.347656 10.773438 -32.273438 10.355469 -30.875 L 1.257812 -2.097656 C 1.210938 -1.957031 1.164062 -1.585938 1.164062 -1.398438 C 1.164062 -0.28125 2.050781 0.464844 3.125 0.464844 C 3.777344 0.464844 4.617188 -0.09375 4.898438 -0.933594 Z M 12.777344 -26.863281 L 17.582031 -11.054688 L 7.976562 -11.054688 Z M 12.777344 -26.863281 "/></g></g></g><g fill="#995d1f" fill-opacity="1"><g transform="translate(279.039242, 255.097558)"><g><path d="M 9.375 -1.398438 C 9.375 -0.417969 10.214844 0.464844 11.238281 0.464844 C 12.265625 0.464844 13.105469 -0.417969 13.105469 -1.398438 L 13.105469 -29.242188 L 19.449219 -29.242188 C 20.472656 -29.242188 21.359375 -30.082031 21.359375 -31.0625 C 21.359375 -32.085938 20.429688 -32.878906 19.449219 -32.878906 L 3.03125 -32.878906 C 2.003906 -32.878906 1.164062 -31.855469 1.164062 -31.0625 C 1.164062 -30.082031 1.957031 -29.242188 3.03125 -29.242188 L 9.375 -29.242188 Z M 9.375 -1.398438 "/></g></g></g><g fill="#995d1f" fill-opacity="1"><g transform="translate(303.897816, 255.097558)"><g><path d="M 3.40625 -1.398438 C 3.40625 -0.417969 4.242188 0.464844 5.269531 0.464844 C 6.296875 0.464844 7.136719 -0.417969 7.136719 -1.398438 L 7.136719 -31.480469 C 7.136719 -32.460938 6.296875 -33.347656 5.269531 -33.347656 C 4.242188 -33.347656 3.40625 -32.460938 3.40625 -31.480469 Z M 3.40625 -1.398438 "/></g></g></g><g fill="#995d1f" fill-opacity="1"><g transform="translate(316.816797, 255.097558)"><g><path d="M 9.375 -1.398438 C 9.375 -0.417969 10.214844 0.464844 11.238281 0.464844 C 12.265625 0.464844 13.105469 -0.417969 13.105469 -1.398438 L 13.105469 -29.242188 L 19.449219 -29.242188 C 20.472656 -29.242188 21.359375 -30.082031 21.359375 -31.0625 C 21.359375 -32.085938 20.429688 -32.878906 19.449219 -32.878906 L 3.03125 -32.878906 C 2.003906 -32.878906 1.164062 -31.855469 1.164062 -31.0625 C 1.164062 -30.082031 1.957031 -29.242188 3.03125 -29.242188 L 9.375 -29.242188 Z M 9.375 -1.398438 "/></g></g></g><g fill="#995d1f" fill-opacity="1"><g transform="translate(341.675363, 255.097558)"><g><path d="M 6.855469 -7.414062 L 18.65625 -7.414062 L 20.660156 -0.933594 C 20.894531 -0.09375 21.78125 0.464844 22.480469 0.464844 C 23.597656 0.464844 24.4375 -0.28125 24.4375 -1.398438 C 24.4375 -1.585938 24.390625 -1.957031 24.34375 -2.097656 L 15.25 -30.875 C 14.785156 -32.320312 14.179688 -33.347656 12.777344 -33.347656 C 11.425781 -33.347656 10.773438 -32.273438 10.355469 -30.875 L 1.257812 -2.097656 C 1.210938 -1.957031 1.164062 -1.585938 1.164062 -1.398438 C 1.164062 -0.28125 2.050781 0.464844 3.125 0.464844 C 3.777344 0.464844 4.617188 -0.09375 4.898438 -0.933594 Z M 12.777344 -26.863281 L 17.582031 -11.054688 L 7.976562 -11.054688 Z M 12.777344 -26.863281 "/></g></g></g><g clip-path="url(#06aad0bf52)"><path fill="#31aec0" d="M 204.09375 179.535156 C 204.09375 125.679688 160.4375 82.023438 106.582031 82.023438 C 52.726562 82.023438 9.070312 125.679688 9.070312 179.535156 C 9.070312 233.390625 52.726562 277.046875 106.582031 277.046875 C 160.4375 277.046875 204.09375 233.390625 204.09375 179.535156 " fill-opacity="1" fill-rule="nonzero"/></g><g clip-path="url(#d9cf6aedd1)"><g clip-path="url(#f831841d43)"><path fill="#069db3" d="M 174.226562 160.246094 C 173.078125 156.75 171 153.1875 168.195312 150.1875 C 170.050781 144.886719 170.484375 138.558594 167.742188 140.761719 C 166.164062 142.027344 165.035156 144.601562 164.300781 146.84375 C 162.433594 145.515625 160.410156 144.390625 158.15625 143.695312 C 158.136719 143.390625 158.175781 143.09375 158.140625 142.792969 C 157.90625 140.425781 157.371094 138.113281 156.585938 136 C 153.71875 128.121094 146.605469 119.742188 137.058594 117.65625 C 136.824219 112.632812 135.378906 108.007812 133.679688 110.652344 C 132.636719 112.273438 132.371094 114.882812 132.359375 117.164062 C 130.8125 117.179688 129.273438 117.34375 127.773438 117.6875 C 124.605469 118.414062 121.726562 119.898438 119.183594 121.847656 C 116.488281 119.707031 113.3125 118.113281 109.554688 117.492188 C 108.4375 117.304688 107.328125 117.230469 106.226562 117.214844 C 106.050781 112.042969 104.582031 107.101562 102.835938 109.820312 C 101.582031 111.765625 101.441406 115.140625 101.539062 117.660156 C 93.902344 119.152344 87.03125 124.429688 83.324219 132.035156 C 81.832031 135.105469 80.714844 138.828125 80.289062 142.78125 C 77.941406 142.835938 75.757812 143.363281 73.710938 144.140625 C 72.378906 138.898438 69.585938 133.898438 68.484375 137.085938 C 67.585938 139.6875 68.679688 143.871094 69.453125 146.257812 C 64.292969 149.65625 60.601562 155.054688 58.902344 160.222656 C 58.238281 162.230469 57.832031 164.324219 57.695312 166.394531 C 57.320312 171.886719 58.777344 177.300781 61.804688 181.640625 C 63.546875 184.152344 65.8125 186.144531 68.34375 187.691406 C 68.101562 189.15625 67.746094 190.59375 67.746094 192.101562 C 67.746094 201.234375 72.476562 209.476562 80.023438 215.800781 L 70.0625 288.21875 L 159.4375 288.21875 L 149.824219 218.339844 C 151.421875 216.851562 152.882812 215.238281 154.144531 213.449219 C 160.136719 207.472656 163.8125 200.136719 163.8125 192.101562 C 163.8125 190.882812 163.492188 189.730469 163.332031 188.546875 C 166.46875 186.933594 169.242188 184.632812 171.316406 181.652344 C 174.339844 177.300781 175.800781 171.886719 175.429688 166.4375 C 175.289062 164.324219 174.882812 162.230469 174.226562 160.246094 " fill-opacity="1" fill-rule="nonzero"/></g></g><g clip-path="url(#4a53395c1b)"><g clip-path="url(#0e0e17cd00)"><path fill="#d2d5d8" d="M 60.117188 138.941406 C 60.117188 138.941406 57.195312 131.722656 58.503906 127.933594 C 59.8125 124.144531 63.53125 131.914062 64.324219 137.917969 C 65.117188 143.921875 60.117188 138.941406 60.117188 138.941406 " fill-opacity="1" fill-rule="nonzero"/></g></g><g clip-path="url(#428e1dd597)"><g clip-path="url(#f2cf4ef451)"><path fill="#d2d5d8" d="M 91.820312 111.742188 C 91.820312 111.742188 90.6875 104.039062 92.855469 100.667969 C 95.023438 97.292969 96.800781 105.722656 96.152344 111.742188 C 95.503906 117.765625 91.820312 111.742188 91.820312 111.742188 " fill-opacity="1" fill-rule="nonzero"/></g></g><g clip-path="url(#44d99ec86d)"><g clip-path="url(#ffefed6e2e)"><path fill="#d2d5d8" d="M 122.664062 112.578125 C 122.664062 112.578125 121.53125 104.875 123.699219 101.503906 C 125.867188 98.128906 127.640625 106.558594 126.996094 112.578125 C 126.347656 118.601562 122.664062 112.578125 122.664062 112.578125 " fill-opacity="1" fill-rule="nonzero"/></g></g><g clip-path="url(#1e3993c576)"><g clip-path="url(#f54615fa26)"><path fill="#d2d5d8" d="M 153.261719 141.785156 C 153.261719 141.785156 154.632812 134.117188 157.757812 131.609375 C 160.886719 129.097656 159.890625 137.65625 157.367188 143.160156 C 154.839844 148.664062 153.261719 141.785156 153.261719 141.785156 " fill-opacity="1" fill-rule="nonzero"/></g></g><g clip-path="url(#c037751039)"><g clip-path="url(#c04c07455a)"><path fill="#725f63" d="M 153.832031 182.953125 C 153.832031 202.726562 132.328125 218.757812 105.796875 218.757812 C 79.273438 218.757812 57.765625 202.726562 57.765625 182.953125 C 57.765625 163.175781 79.273438 147.144531 105.796875 147.144531 C 132.328125 147.144531 153.832031 163.175781 153.832031 182.953125 " fill-opacity="1" fill-rule="nonzero"/></g></g><g clip-path="url(#1c813e2550)"><g clip-path="url(#d8e0224c44)"><path fill="#725f63" d="M 149.457031 279.070312 L 60.078125 279.070312 L 73.773438 179.535156 L 135.765625 179.535156 L 149.457031 279.070312 " fill-opacity="1" fill-rule="nonzero"/></g></g><g clip-path="url(#1e627b02bc)"><g clip-path="url(#e15a860f88)"><path fill="#725f63" d="M 164.246094 151.09375 C 161.984375 144.226562 156.203125 137.019531 148.171875 134.542969 C 148.15625 134.242188 148.191406 133.941406 148.160156 133.636719 C 147.921875 131.273438 147.394531 128.960938 146.605469 126.847656 C 143.304688 117.765625 134.363281 107.992188 122.554688 107.992188 C 120.953125 107.992188 119.347656 108.179688 117.792969 108.535156 C 114.621094 109.265625 111.746094 110.75 109.199219 112.699219 C 106.503906 110.558594 103.332031 108.964844 99.574219 108.339844 C 98.339844 108.136719 97.117188 108.035156 95.902344 108.035156 C 86.589844 108.035156 77.742188 113.855469 73.339844 122.882812 C 71.851562 125.953125 70.734375 129.671875 70.3125 133.628906 C 59.496094 133.890625 51.648438 142.78125 48.921875 151.070312 C 48.257812 153.082031 47.847656 155.171875 47.714844 157.246094 C 47.335938 162.734375 48.796875 168.152344 51.824219 172.488281 C 54.734375 176.683594 58.992188 179.601562 63.761719 181.019531 C 63.46875 182.816406 63.308594 184.640625 63.308594 186.496094 C 63.308594 203.636719 77.257812 217.574219 94.394531 217.574219 C 98.617188 217.574219 102.761719 216.710938 106.570312 215.082031 C 110.386719 216.710938 114.53125 217.574219 118.75 217.574219 C 135.886719 217.574219 149.839844 203.636719 149.839844 186.496094 C 149.839844 184.644531 149.675781 182.820312 149.386719 181.023438 C 154.160156 179.609375 158.417969 176.691406 161.332031 172.5 C 164.359375 168.152344 165.820312 162.734375 165.449219 157.285156 C 165.308594 155.171875 164.898438 153.082031 164.246094 151.09375 " fill-opacity="1" fill-rule="nonzero"/></g></g><g clip-path="url(#d1d191c0c9)"><g clip-path="url(#69b55b1aad)"><path fill="#665155" d="M 118.148438 203.328125 C 113.894531 203.328125 109.820312 201.835938 106.574219 199.109375 C 103.328125 201.835938 99.253906 203.328125 94.996094 203.328125 C 85.0625 203.328125 76.984375 195.253906 76.984375 185.324219 C 76.984375 181.527344 76.984375 171.433594 96.808594 158.628906 C 99.730469 156.738281 103.101562 155.742188 106.574219 155.742188 C 110.054688 155.742188 113.433594 156.742188 116.355469 158.628906 C 136.164062 171.441406 136.164062 181.527344 136.164062 185.324219 C 136.164062 195.253906 128.085938 203.328125 118.148438 203.328125 " fill-opacity="1" fill-rule="nonzero"/></g></g><g clip-path="url(#fd4c3264bb)"><g clip-path="url(#c9cdd7332c)"><path fill="#665155" d="M 122.972656 150.300781 C 120.878906 150.300781 118.871094 149.699219 117.148438 148.554688 C 112.164062 145.25 110.710938 138.761719 110.992188 134.214844 C 111.289062 129.3125 114.425781 123.707031 119.835938 122.460938 C 120.464844 122.316406 121.117188 122.242188 121.765625 122.242188 C 127.136719 122.242188 131.960938 127.5625 133.78125 132.574219 C 134.207031 133.699219 134.492188 134.941406 134.628906 136.246094 C 134.945312 139.429688 134.230469 142.542969 132.628906 145.023438 C 130.511719 148.277344 126.8125 150.300781 122.972656 150.300781 " fill-opacity="1" fill-rule="nonzero"/></g></g><g clip-path="url(#5fcfd1f7c2)"><g clip-path="url(#65163856c4)"><path fill="#665155" d="M 141.335938 169.535156 C 139.515625 169.535156 137.765625 168.980469 136.277344 167.9375 C 132.285156 165.101562 131.265625 159.800781 131.601562 156.113281 C 131.976562 152.113281 134.703125 147.597656 139.199219 146.703125 C 139.652344 146.609375 140.113281 146.5625 140.609375 146.5625 C 145.125 146.5625 149.042969 151.058594 150.433594 155.28125 C 150.757812 156.25 150.957031 157.265625 151.019531 158.300781 C 151.199219 160.910156 150.53125 163.441406 149.152344 165.429688 C 147.394531 167.960938 144.402344 169.535156 141.335938 169.535156 " fill-opacity="1" fill-rule="nonzero"/></g></g><g clip-path="url(#1f897a8aa6)"><g clip-path="url(#493c29e0e4)"><path fill="#665155" d="M 71.820312 169.535156 C 68.753906 169.535156 65.761719 167.957031 64.003906 165.425781 C 62.625 163.441406 61.957031 160.910156 62.136719 158.300781 C 62.199219 157.265625 62.398438 156.25 62.722656 155.277344 C 64.113281 151.054688 68.03125 146.5625 72.550781 146.5625 C 73.046875 146.5625 73.503906 146.609375 73.964844 146.703125 C 78.453125 147.597656 81.179688 152.113281 81.554688 156.109375 C 81.890625 159.800781 80.871094 165.101562 76.878906 167.9375 C 75.390625 168.980469 73.640625 169.535156 71.820312 169.535156 " fill-opacity="1" fill-rule="nonzero"/></g></g><g clip-path="url(#1162edd1df)"><g clip-path="url(#1cd5f059a3)"><path fill="#665155" d="M 94.628906 150.1875 C 90.941406 150.1875 87.558594 148.441406 85.585938 145.503906 C 82.230469 140.566406 83.378906 134.007812 85.371094 129.894531 C 87.21875 126.105469 91.355469 122.28125 96.429688 122.28125 C 96.964844 122.28125 97.488281 122.324219 98.019531 122.414062 C 104.652344 123.519531 107.292969 131.660156 107.050781 137.089844 C 107.007812 138.335938 106.800781 139.589844 106.429688 140.804688 C 105.507812 143.867188 103.660156 146.476562 101.226562 148.152344 C 99.289062 149.484375 97.007812 150.1875 94.628906 150.1875 " fill-opacity="1" fill-rule="nonzero"/></g></g><g clip-path="url(#1a7308e276)"><g clip-path="url(#f00d5f46e5)"><path fill="#febfcb" d="M 106.578125 158.046875 C 109.542969 158.046875 112.511719 158.886719 115.097656 160.570312 C 133.847656 172.695312 133.847656 181.875 133.847656 185.324219 C 133.847656 193.996094 126.816406 201.019531 118.15625 201.019531 C 113.5625 201.019531 109.445312 199.050781 106.578125 195.917969 C 103.703125 199.050781 99.582031 201.019531 94.992188 201.019531 C 86.332031 201.019531 79.296875 193.996094 79.296875 185.324219 C 79.296875 181.867188 79.296875 172.691406 98.058594 160.5625 C 100.65625 158.886719 103.613281 158.046875 106.578125 158.046875 " fill-opacity="1" fill-rule="nonzero"/></g></g><g clip-path="url(#b02deccb11)"><g clip-path="url(#5ed806ebbb)"><path fill="#febfcb" d="M 132.332031 136.480469 C 132.582031 139.023438 132.074219 141.632812 130.6875 143.765625 C 128.066406 147.796875 122.519531 149.34375 118.425781 146.632812 C 114.566406 144.078125 113.027344 138.757812 113.292969 134.347656 C 113.542969 130.257812 116.105469 125.691406 120.347656 124.710938 C 125.488281 123.523438 130.066406 129.101562 131.621094 133.363281 C 131.984375 134.363281 132.222656 135.417969 132.332031 136.480469 " fill-opacity="1" fill-rule="nonzero"/></g></g><g clip-path="url(#f24c2484c0)"><g clip-path="url(#28a5a1ee62)"><path fill="#febfcb" d="M 148.722656 158.457031 C 148.859375 160.449219 148.398438 162.472656 147.261719 164.105469 C 145.117188 167.195312 140.746094 168.269531 137.613281 166.050781 C 134.660156 163.960938 133.585938 159.765625 133.902344 156.328125 C 134.195312 153.140625 136.308594 149.628906 139.644531 148.96875 C 143.695312 148.167969 147.132812 152.632812 148.242188 156 C 148.503906 156.792969 148.667969 157.621094 148.722656 158.457031 " fill-opacity="1" fill-rule="nonzero"/></g></g><g clip-path="url(#6c2d514ee2)"><g clip-path="url(#edc37fca6a)"><path fill="#febfcb" d="M 64.433594 158.457031 C 64.296875 160.449219 64.761719 162.472656 65.890625 164.105469 C 68.039062 167.195312 72.410156 168.269531 75.542969 166.050781 C 78.496094 163.960938 79.570312 159.765625 79.253906 156.328125 C 78.960938 153.140625 76.847656 149.628906 73.507812 148.96875 C 69.464844 148.167969 66.023438 152.632812 64.914062 156 C 64.652344 156.792969 64.492188 157.621094 64.433594 158.457031 " fill-opacity="1" fill-rule="nonzero"/></g></g><g clip-path="url(#6c9bedd8fb)"><g clip-path="url(#6d447520f3)"><path fill="#febfcb" d="M 104.222656 140.140625 C 103.484375 142.585938 102.015625 144.804688 99.921875 146.25 C 95.960938 148.972656 90.238281 148.285156 87.496094 144.214844 C 84.902344 140.378906 85.511719 134.871094 87.445312 130.902344 C 89.234375 127.214844 93.347656 123.972656 97.640625 124.6875 C 102.847656 125.554688 104.949219 132.457031 104.757812 136.988281 C 104.710938 138.054688 104.53125 139.117188 104.222656 140.140625 " fill-opacity="1" fill-rule="nonzero"/></g></g><g clip-path="url(#d18dcdcefe)"><g clip-path="url(#cc2e83297d)"><g clip-path="url(#c938e10092)"><path fill="#fed8df" d="M 86.984375 178.785156 L 109.449219 178.785156 L 109.449219 163.332031 L 86.984375 163.332031 Z M 86.984375 178.785156 " fill-opacity="1" fill-rule="nonzero"/></g></g></g><g clip-path="url(#b1d9da91b6)"><g clip-path="url(#4d475f3bb4)"><path fill="#fed8df" d="M 69.46875 156.132812 C 68.800781 156.132812 68.203125 155.886719 67.84375 155.390625 C 67.136719 154.425781 67.613281 152.878906 68.902344 151.9375 C 69.539062 151.480469 70.25 151.25 70.890625 151.25 C 71.558594 151.25 72.15625 151.5 72.515625 151.992188 C 73.21875 152.960938 72.746094 154.507812 71.457031 155.445312 C 70.820312 155.90625 70.109375 156.132812 69.46875 156.132812 " fill-opacity="1" fill-rule="nonzero"/></g></g><g clip-path="url(#d3899c92dd)"><g clip-path="url(#fbff139b8f)"><path fill="#fed8df" d="M 138.464844 155.171875 C 137.792969 155.171875 137.199219 154.921875 136.839844 154.429688 C 136.136719 153.460938 136.609375 151.917969 137.898438 150.976562 C 138.535156 150.515625 139.242188 150.289062 139.886719 150.289062 C 140.554688 150.289062 141.152344 150.535156 141.511719 151.027344 C 142.21875 151.996094 141.742188 153.542969 140.449219 154.480469 C 139.816406 154.941406 139.105469 155.171875 138.464844 155.171875 " fill-opacity="1" fill-rule="nonzero"/></g></g><g clip-path="url(#2102c24cf7)"><g clip-path="url(#62f410d79a)"><path fill="#fed8df" d="M 91.253906 132.433594 C 90.609375 132.433594 90.070312 132.222656 89.757812 131.792969 C 89.054688 130.824219 89.757812 129.109375 91.332031 127.964844 C 92.207031 127.328125 93.164062 127.003906 93.964844 127.003906 C 94.605469 127.003906 95.144531 127.214844 95.460938 127.644531 C 96.164062 128.613281 95.457031 130.324219 93.882812 131.472656 C 93.011719 132.105469 92.050781 132.433594 91.253906 132.433594 " fill-opacity="1" fill-rule="nonzero"/></g></g><g clip-path="url(#7938715cc9)"><g clip-path="url(#4c184fa0a7)"><path fill="#fed8df" d="M 117.863281 131.832031 C 117.222656 131.832031 116.679688 131.621094 116.367188 131.191406 C 115.664062 130.222656 116.371094 128.507812 117.945312 127.363281 C 118.820312 126.726562 119.777344 126.402344 120.578125 126.402344 C 121.21875 126.402344 121.757812 126.613281 122.070312 127.042969 C 122.773438 128.011719 122.066406 129.726562 120.496094 130.867188 C 119.621094 131.503906 118.664062 131.832031 117.863281 131.832031 " fill-opacity="1" fill-rule="nonzero"/></g></g><g clip-path="url(#89dcd84ee6)"><g clip-path="url(#13448170aa)"><path fill="#fed8df" d="M 84.714844 186.53125 C 83.917969 186.53125 83.164062 186.257812 82.601562 185.695312 C 81.332031 184.425781 81.53125 182.167969 83.050781 180.652344 C 83.894531 179.804688 84.972656 179.371094 85.980469 179.371094 C 86.777344 179.371094 87.53125 179.644531 88.09375 180.207031 C 89.363281 181.476562 89.164062 183.734375 87.644531 185.25 C 86.800781 186.09375 85.722656 186.53125 84.714844 186.53125 " fill-opacity="1" fill-rule="nonzero"/></g></g><g clip-path="url(#5441930ba6)"><g clip-path="url(#aef1c8c00b)"><path fill="#665155" d="M 122.832031 218.261719 C 122.832031 220.304688 114.535156 221.964844 104.296875 221.964844 C 94.0625 221.964844 85.769531 220.304688 85.769531 218.261719 C 85.769531 216.214844 94.0625 214.558594 104.296875 214.558594 C 114.535156 214.558594 122.832031 216.214844 122.832031 218.261719 " fill-opacity="1" fill-rule="nonzero"/></g></g></svg>