<svg width="10" height="10" viewBox="0 0 158 155" fill="none" xmlns="http://www.w3.org/2000/svg">
<path d="M44.1818 68.3703C44.1818 63.9424 44.1818 59.5096 44.1818 55.0769C44.1818 51.8037 43.9713 48.6381 43.8636 45.4725C43.7608 43.6769 43.653 41.8862 43.5453 40.1982C43.5453 37.977 43.232 35.8682 42.811 33.6518C42.4927 32.0666 41.964 30.7016 40.4854 29.7475C40.1672 29.5371 39.7462 29.3267 39.3251 29.3267C38.0571 29.3267 36.7891 29.2191 35.6288 29.3267C33.5138 29.5371 31.4037 29.9579 29.7146 31.2251C28.6571 31.9639 27.7073 32.595 26.6547 33.3338C26.2288 33.6518 25.8077 33.8622 25.3867 34.1802C23.8004 35.4474 22.1114 36.7147 20.5251 37.8742C20.3146 38.0846 20.2118 38.1922 20.0013 38.4026C19.4725 39.3518 18.8361 40.1982 18.5227 41.2502C18.0968 42.625 17.6758 43.995 17.5681 45.3649C17.3624 46.7397 17.3624 48.2173 17.4652 49.5873C17.6758 50.9621 18.415 51.9113 19.7859 52.2244C20.7406 52.4397 21.6903 52.5425 22.6401 52.0189C23.4822 51.3829 24.3292 50.8545 25.1713 50.3261C26.126 49.6949 26.968 48.9561 27.9227 48.4277C28.8676 47.8993 29.6118 48.1097 29.9251 49.0638C30.1357 49.5873 30.2434 50.1157 30.2434 50.7517C30.3511 57.1856 30.4539 63.7271 30.5567 70.1659C30.6644 74.3883 30.7721 78.6106 30.7721 82.7254C30.7721 87.5789 30.6644 92.5401 30.7721 97.3936C30.7721 99.3996 31.1932 101.401 33.0927 102.776C33.0927 102.776 33.2004 102.883 33.3082 102.986C33.6215 103.407 34.1502 103.514 34.7818 103.514C36.6863 103.514 38.6936 103.514 40.5883 103.514C40.9114 103.514 41.2247 103.407 41.5429 103.304C42.5955 102.883 43.232 102.14 43.5453 100.98C43.8636 99.5073 44.0741 98.1324 44.0741 96.5521C44.0741 92.4325 44.1818 88.3177 44.1818 84.0953C44.1818 78.821 44.1818 73.6495 44.1818 68.3703Z" fill="white"/>
<path d="M93.9136 70.5867C94.1193 67.426 94.227 64.3632 94.0165 61.1976C93.8059 57.9244 93.4877 54.6512 92.959 51.3829C92.6456 49.1665 91.9064 46.9501 91.2699 44.7338C90.9566 43.6769 90.5306 42.7278 90.0019 41.7786C89.2626 40.4037 88.7339 38.931 87.9995 37.5562C87.789 37.0278 87.6813 36.607 87.363 36.1862C86.2027 34.3906 84.9347 32.7027 83.5639 31.2251C83.3484 30.907 83.0351 30.7016 82.8197 30.5939C81.4538 29.9579 80.1857 29.4344 78.9177 28.7983C78.4967 28.6907 78.0707 28.5879 77.6497 28.5879C76.8027 28.4803 75.9606 28.3775 75.2214 28.2699C74.1639 28.2699 73.1113 28.2699 72.0538 28.5879C68.7784 29.5371 65.8214 31.1223 63.1825 33.1234C61.704 34.1803 60.4359 35.4475 59.4861 37.0278C56.7396 41.6709 54.6295 46.6321 53.572 52.0189C53.2538 53.384 53.146 54.7588 52.9404 56.1337C52.725 58.032 52.304 60.0332 52.0934 61.9364C51.7801 64.7839 51.6724 67.6315 51.8829 70.3812C52.0934 73.6495 52.5145 76.9227 52.8327 80.191C52.9404 81.6735 53.2538 83.2538 53.4692 84.7314C53.572 86.1013 54.3113 87.2609 54.84 88.5281C55.6821 90.7445 56.8473 92.8581 58.5364 94.6488C60.3282 96.5521 62.0173 98.4504 64.24 100.036C64.4456 100.138 64.661 100.349 64.8716 100.456C65.7136 100.77 66.5606 101.088 67.4027 101.401C68.5679 101.724 69.831 102.14 71.0991 102.247C74.3744 102.565 77.6497 102.247 80.9201 101.298C81.5566 101.088 82.1881 100.667 82.7169 100.349C83.5639 99.8204 84.3031 99.292 85.0424 98.7685C85.9922 98.0248 87.0448 97.1832 87.8918 96.2341C89.7914 93.91 90.9566 91.1701 91.9064 88.4205C92.4302 86.9478 92.8561 85.3625 93.0667 83.7773C93.3849 81.879 93.4877 79.8779 93.5954 77.9746C93.8059 75.4402 93.8059 73.0134 93.9136 70.5867ZM81.0278 61.1976C81.1306 64.1479 81.2383 67.2107 81.1306 70.1659C81.1306 72.7003 81.0278 75.1271 80.3914 77.5538C80.1857 78.1899 80.078 78.9238 79.9703 79.5598C79.7598 81.4582 78.9177 83.2538 78.2813 85.0445C78.1784 85.3625 77.7574 85.7882 77.4392 85.8909C76.4894 86.4194 75.5396 86.8401 74.4821 87.1582C74.1639 87.3685 73.6351 87.2609 73.2141 87.2609C72.7881 87.2609 72.3671 87.2609 71.946 87.2609C70.3598 87.0505 69.1995 86.4194 68.3574 84.9418C67.6181 83.4642 67.2999 81.879 66.8789 80.191C66.2424 78.0822 66.1396 75.9686 66.2424 73.7522C66.2424 70.5867 66.2424 67.426 66.3501 64.2555C66.5606 59.6124 67.1971 55.1796 68.5679 50.7517C68.989 49.2693 69.7282 47.8993 70.257 46.5294C70.7857 45.5802 71.7355 45.1545 72.7881 44.9441C73.2141 44.8414 73.7428 44.7338 74.1639 44.8414C74.5849 44.8414 75.0108 44.9441 75.4319 45.1545C76.4894 45.6829 77.1209 46.6321 77.7574 47.4785C79.0205 49.2693 79.8626 51.2753 80.078 53.384C80.4991 56.0261 80.9201 58.5605 81.0278 61.1976Z" fill="white"/>
<path d="M128.434 68.3703C128.434 63.9424 128.434 59.5096 128.434 55.0769C128.434 51.8037 128.219 48.6381 128.116 45.4725C128.013 43.6769 127.905 41.8862 127.798 40.1982C127.798 37.977 127.484 35.8682 127.058 33.6518C126.745 32.0666 126.216 30.7016 124.738 29.7475C124.42 29.5371 123.999 29.3267 123.573 29.3267C122.305 29.3267 121.041 29.2191 119.876 29.3267C117.766 29.5371 115.656 29.9579 113.962 31.2251C112.909 31.9639 111.96 32.595 110.902 33.3338C110.481 33.6518 110.06 33.8622 109.639 34.1802C108.048 35.4474 106.364 36.7147 104.777 37.8742C104.567 38.0846 104.459 38.1922 104.254 38.4026C103.725 39.3518 103.088 40.1982 102.77 41.2502C102.349 42.625 101.928 43.995 101.82 45.3649C101.61 46.7397 101.61 48.2173 101.718 49.5873C101.928 50.9621 102.667 51.9113 104.038 52.2244C104.988 52.4397 105.943 52.5425 106.888 52.0189C107.735 51.3829 108.582 50.8545 109.424 50.3261C110.373 49.6949 111.22 48.9561 112.17 48.4277C113.12 47.8993 113.859 48.1097 114.177 49.0638C114.388 49.5873 114.491 50.1157 114.491 50.7517C114.599 57.1856 114.706 63.7271 114.809 70.1659C114.917 74.3883 115.02 78.6106 115.02 82.7254C115.02 87.5789 114.917 92.5401 115.02 97.3936C115.02 99.3996 115.445 101.401 117.345 102.776C117.345 102.776 117.448 102.883 117.556 102.986C117.874 103.407 118.403 103.514 119.034 103.514C120.934 103.514 122.941 103.514 124.841 103.514C125.159 103.514 125.477 103.407 125.79 103.304C126.848 102.883 127.484 102.14 127.798 100.98C128.116 99.5073 128.326 98.1324 128.326 96.5521C128.326 92.4325 128.434 88.3177 128.434 84.0953C128.434 78.821 128.434 73.6495 128.434 68.3703Z" fill="white"/>
<path d="M12.0308 129.935H21.2105L22.7723 134.974C22.9534 135.625 23.6437 136.06 24.1872 136.06C25.0586 136.06 25.7098 135.478 25.7098 134.612C25.7098 134.465 25.6755 134.177 25.6363 134.069L18.5619 111.695C18.1996 110.57 17.7296 109.772 16.6378 109.772C15.5852 109.772 15.0809 110.604 14.7529 111.695L7.67842 134.069C7.63925 134.177 7.60498 134.465 7.60498 134.612C7.60498 135.478 8.29529 136.06 9.12758 136.06C9.63675 136.06 10.2879 135.625 10.5082 134.974L12.0308 129.935ZM16.6378 114.812L20.3782 127.102H12.9023L16.6378 114.812Z" fill="white"/>
<path d="M38.1599 126.27C43.1291 126.27 46.3212 123.408 46.3212 118.256C46.3212 114.014 44.1818 110.134 38.1599 110.134H32.8234C31.8785 110.134 31.0805 110.932 31.0805 111.876V134.539C31.0805 135.375 31.7708 136.06 32.5346 136.06C33.3326 136.06 33.9837 135.336 33.9837 134.539V126.27H38.1599ZM33.9837 112.962H38.1599C42.4388 112.962 43.418 115.609 43.418 118.222C43.418 121.774 41.6016 123.442 38.1599 123.442H33.9837V112.962Z" fill="white"/>
<path d="M54.8106 129.935H63.9903L65.5521 134.974C65.7332 135.625 66.4235 136.06 66.967 136.06C67.8384 136.06 68.4896 135.478 68.4896 134.612C68.4896 134.465 68.4553 134.177 68.4161 134.069L61.3416 111.695C60.9793 110.57 60.5093 109.772 59.4176 109.772C58.365 109.772 57.8607 110.604 57.5327 111.695L50.4582 134.069C50.419 134.177 50.3848 134.465 50.3848 134.612C50.3848 135.478 51.0751 136.06 51.9074 136.06C52.4165 136.06 53.0677 135.625 53.288 134.974L54.8106 129.935ZM59.4176 114.812L63.158 127.102H55.6821L59.4176 114.812Z" fill="white"/>
<path d="M78.5064 134.612C78.5064 135.375 79.1625 136.06 79.9556 136.06C80.7585 136.06 81.4097 135.375 81.4097 134.612V112.962H86.3447C87.1427 112.962 87.833 112.311 87.833 111.548C87.833 110.751 87.1084 110.134 86.3447 110.134H73.5714C72.7734 110.134 72.1174 110.932 72.1174 111.548C72.1174 112.311 72.7342 112.962 73.5714 112.962H78.5064V134.612Z" fill="white"/>
<path d="M93.2037 134.612C93.2037 135.375 93.8549 136.06 94.6529 136.06C95.4509 136.06 96.107 135.375 96.107 134.612V111.22C96.107 110.462 95.4509 109.772 94.6529 109.772C93.8549 109.772 93.2037 110.462 93.2037 111.22V134.612Z" fill="white"/>
<path d="M107.896 134.612C107.896 135.375 108.552 136.06 109.345 136.06C110.148 136.06 110.799 135.375 110.799 134.612V112.962H115.734C116.532 112.962 117.223 112.311 117.223 111.548C117.223 110.751 116.498 110.134 115.734 110.134H102.961C102.163 110.134 101.512 110.932 101.512 111.548C101.512 112.311 102.129 112.962 102.961 112.962H107.896V134.612Z" fill="white"/>
<path d="M125.276 129.935H134.456L136.018 134.974C136.199 135.625 136.889 136.06 137.433 136.06C138.304 136.06 138.955 135.478 138.955 134.612C138.955 134.465 138.921 134.177 138.882 134.069L131.807 111.695C131.445 110.57 130.975 109.772 129.883 109.772C128.831 109.772 128.326 110.604 127.998 111.695L120.924 134.069C120.885 134.177 120.85 134.465 120.85 134.612C120.85 135.478 121.541 136.06 122.373 136.06C122.882 136.06 123.533 135.625 123.754 134.974L125.276 129.935ZM129.883 114.812L133.624 127.102H126.148L129.883 114.812Z" fill="white"/>
</svg>
