<svg xmlns="http://www.w3.org/2000/svg" xmlns:xlink="http://www.w3.org/1999/xlink" width="300" zoomAndPan="magnify" viewBox="0 0 224.87999 123.750003" height="165" preserveAspectRatio="xMidYMid meet" version="1.0"><defs><clipPath id="c5b540bf33"><path d="M 1.664062 0.921875 L 122.710938 0.921875 L 122.710938 121.96875 L 1.664062 121.96875 Z M 1.664062 0.921875 " clip-rule="nonzero"/></clipPath><clipPath id="61ba5d4123"><path d="M 31.660156 17.648438 L 105 17.648438 L 105 121.96875 L 31.660156 121.96875 Z M 31.660156 17.648438 " clip-rule="nonzero"/></clipPath><clipPath id="d7c94613e6"><path d="M 122.738281 61.433594 C 122.738281 28.003906 95.636719 0.90625 62.207031 0.90625 C 28.777344 0.90625 1.675781 28.003906 1.675781 61.433594 C 1.675781 94.863281 28.777344 121.964844 62.207031 121.964844 C 95.636719 121.964844 122.738281 94.863281 122.738281 61.433594 " clip-rule="nonzero"/></clipPath><clipPath id="bda7eb1c1f"><path d="M 32.050781 28.746094 L 36.078125 28.746094 L 36.078125 37.515625 L 32.050781 37.515625 Z M 32.050781 28.746094 " clip-rule="nonzero"/></clipPath><clipPath id="9674acd6ec"><path d="M 122.738281 61.433594 C 122.738281 28.003906 95.636719 0.90625 62.207031 0.90625 C 28.777344 0.90625 1.675781 28.003906 1.675781 61.433594 C 1.675781 94.863281 28.777344 121.964844 62.207031 121.964844 C 95.636719 121.964844 122.738281 94.863281 122.738281 61.433594 " clip-rule="nonzero"/></clipPath><clipPath id="5d91bd3800"><path d="M 52.636719 12 L 55.949219 12 L 55.949219 21.015625 L 52.636719 21.015625 Z M 52.636719 12 " clip-rule="nonzero"/></clipPath><clipPath id="d9cc6c7f40"><path d="M 122.738281 61.433594 C 122.738281 28.003906 95.636719 0.90625 62.207031 0.90625 C 28.777344 0.90625 1.675781 28.003906 1.675781 61.433594 C 1.675781 94.863281 28.777344 121.964844 62.207031 121.964844 C 95.636719 121.964844 122.738281 94.863281 122.738281 61.433594 " clip-rule="nonzero"/></clipPath><clipPath id="7b8ed625b9"><path d="M 72 12.183594 L 75 12.183594 L 75 21.753906 L 72 21.753906 Z M 72 12.183594 " clip-rule="nonzero"/></clipPath><clipPath id="d7c66f1242"><path d="M 122.738281 61.433594 C 122.738281 28.003906 95.636719 0.90625 62.207031 0.90625 C 28.777344 0.90625 1.675781 28.003906 1.675781 61.433594 C 1.675781 94.863281 28.777344 121.964844 62.207031 121.964844 C 95.636719 121.964844 122.738281 94.863281 122.738281 61.433594 " clip-rule="nonzero"/></clipPath><clipPath id="a0b7bb256b"><path d="M 91.019531 31.320312 L 95.328125 31.320312 L 95.328125 40.523438 L 91.019531 40.523438 Z M 91.019531 31.320312 " clip-rule="nonzero"/></clipPath><clipPath id="7615824633"><path d="M 122.738281 61.433594 C 122.738281 28.003906 95.636719 0.90625 62.207031 0.90625 C 28.777344 0.90625 1.675781 28.003906 1.675781 61.433594 C 1.675781 94.863281 28.777344 121.964844 62.207031 121.964844 C 95.636719 121.964844 122.738281 94.863281 122.738281 61.433594 " clip-rule="nonzero"/></clipPath><clipPath id="01818c28c9"><path d="M 31.660156 41.257812 L 91.640625 41.257812 L 91.640625 85.789062 L 31.660156 85.789062 Z M 31.660156 41.257812 " clip-rule="nonzero"/></clipPath><clipPath id="71db089188"><path d="M 122.738281 61.433594 C 122.738281 28.003906 95.636719 0.90625 62.207031 0.90625 C 28.777344 0.90625 1.675781 28.003906 1.675781 61.433594 C 1.675781 94.863281 28.777344 121.964844 62.207031 121.964844 C 95.636719 121.964844 122.738281 94.863281 122.738281 61.433594 " clip-rule="nonzero"/></clipPath><clipPath id="cf8a244a71"><path d="M 33.292969 61.132812 L 89 61.132812 L 89 121.96875 L 33.292969 121.96875 Z M 33.292969 61.132812 " clip-rule="nonzero"/></clipPath><clipPath id="52cf672378"><path d="M 122.738281 61.433594 C 122.738281 28.003906 95.636719 0.90625 62.207031 0.90625 C 28.777344 0.90625 1.675781 28.003906 1.675781 61.433594 C 1.675781 94.863281 28.777344 121.964844 62.207031 121.964844 C 95.636719 121.964844 122.738281 94.863281 122.738281 61.433594 " clip-rule="nonzero"/></clipPath><clipPath id="dcc7419715"><path d="M 25.402344 17 L 99 17 L 99 85.054688 L 25.402344 85.054688 Z M 25.402344 17 " clip-rule="nonzero"/></clipPath><clipPath id="6811b5f0b6"><path d="M 122.738281 61.433594 C 122.738281 28.003906 95.636719 0.90625 62.207031 0.90625 C 28.777344 0.90625 1.675781 28.003906 1.675781 61.433594 C 1.675781 94.863281 28.777344 121.964844 62.207031 121.964844 C 95.636719 121.964844 122.738281 94.863281 122.738281 61.433594 " clip-rule="nonzero"/></clipPath><clipPath id="4a8b4c98ee"><path d="M 43.804688 46.410156 L 80.609375 46.410156 L 80.609375 76.222656 L 43.804688 76.222656 Z M 43.804688 46.410156 " clip-rule="nonzero"/></clipPath><clipPath id="f5754381a7"><path d="M 122.738281 61.433594 C 122.738281 28.003906 95.636719 0.90625 62.207031 0.90625 C 28.777344 0.90625 1.675781 28.003906 1.675781 61.433594 C 1.675781 94.863281 28.777344 121.964844 62.207031 121.964844 C 95.636719 121.964844 122.738281 94.863281 122.738281 61.433594 " clip-rule="nonzero"/></clipPath><clipPath id="b65bcc8162"><path d="M 64.78125 25.800781 L 79.847656 25.800781 L 79.847656 43.46875 L 64.78125 43.46875 Z M 64.78125 25.800781 " clip-rule="nonzero"/></clipPath><clipPath id="a01751afba"><path d="M 122.738281 61.433594 C 122.738281 28.003906 95.636719 0.90625 62.207031 0.90625 C 28.777344 0.90625 1.675781 28.003906 1.675781 61.433594 C 1.675781 94.863281 28.777344 121.964844 62.207031 121.964844 C 95.636719 121.964844 122.738281 94.863281 122.738281 61.433594 " clip-rule="nonzero"/></clipPath><clipPath id="29a8c2099d"><path d="M 77.664062 40.890625 L 90 40.890625 L 90 55.242188 L 77.664062 55.242188 Z M 77.664062 40.890625 " clip-rule="nonzero"/></clipPath><clipPath id="65a6f985af"><path d="M 122.738281 61.433594 C 122.738281 28.003906 95.636719 0.90625 62.207031 0.90625 C 28.777344 0.90625 1.675781 28.003906 1.675781 61.433594 C 1.675781 94.863281 28.777344 121.964844 62.207031 121.964844 C 95.636719 121.964844 122.738281 94.863281 122.738281 61.433594 " clip-rule="nonzero"/></clipPath><clipPath id="6636cb6cd3"><path d="M 34.53125 40.890625 L 46.75 40.890625 L 46.75 55.242188 L 34.53125 55.242188 Z M 34.53125 40.890625 " clip-rule="nonzero"/></clipPath><clipPath id="3888bf5a91"><path d="M 122.738281 61.433594 C 122.738281 28.003906 95.636719 0.90625 62.207031 0.90625 C 28.777344 0.90625 1.675781 28.003906 1.675781 61.433594 C 1.675781 94.863281 28.777344 121.964844 62.207031 121.964844 C 95.636719 121.964844 122.738281 94.863281 122.738281 61.433594 " clip-rule="nonzero"/></clipPath><clipPath id="bfb05b70c6"><path d="M 47.851562 25.800781 L 62.574219 25.800781 L 62.574219 43.46875 L 47.851562 43.46875 Z M 47.851562 25.800781 " clip-rule="nonzero"/></clipPath><clipPath id="5eb65c8395"><path d="M 122.738281 61.433594 C 122.738281 28.003906 95.636719 0.90625 62.207031 0.90625 C 28.777344 0.90625 1.675781 28.003906 1.675781 61.433594 C 1.675781 94.863281 28.777344 121.964844 62.207031 121.964844 C 95.636719 121.964844 122.738281 94.863281 122.738281 61.433594 " clip-rule="nonzero"/></clipPath><clipPath id="cb8d2d2fc9"><path d="M 45.085938 48.066406 L 79.136719 48.066406 L 79.136719 75 L 45.085938 75 Z M 45.085938 48.066406 " clip-rule="nonzero"/></clipPath><clipPath id="17a408dd29"><path d="M 122.738281 61.433594 C 122.738281 28.003906 95.636719 0.90625 62.207031 0.90625 C 28.777344 0.90625 1.675781 28.003906 1.675781 61.433594 C 1.675781 94.863281 28.777344 121.964844 62.207031 121.964844 C 95.636719 121.964844 122.738281 94.863281 122.738281 61.433594 " clip-rule="nonzero"/></clipPath><clipPath id="7a22012cb1"><path d="M 66.253906 27.273438 L 78.398438 27.273438 L 78.398438 41.859375 L 66.253906 41.859375 Z M 66.253906 27.273438 " clip-rule="nonzero"/></clipPath><clipPath id="54c8167a4d"><path d="M 122.738281 61.433594 C 122.738281 28.003906 95.636719 0.90625 62.207031 0.90625 C 28.777344 0.90625 1.675781 28.003906 1.675781 61.433594 C 1.675781 94.863281 28.777344 121.964844 62.207031 121.964844 C 95.636719 121.964844 122.738281 94.863281 122.738281 61.433594 " clip-rule="nonzero"/></clipPath><clipPath id="e93d98848e"><path d="M 79 42.359375 L 88.539062 42.359375 L 88.539062 54 L 79 54 Z M 79 42.359375 " clip-rule="nonzero"/></clipPath><clipPath id="71bd2b9287"><path d="M 122.738281 61.433594 C 122.738281 28.003906 95.636719 0.90625 62.207031 0.90625 C 28.777344 0.90625 1.675781 28.003906 1.675781 61.433594 C 1.675781 94.863281 28.777344 121.964844 62.207031 121.964844 C 95.636719 121.964844 122.738281 94.863281 122.738281 61.433594 " clip-rule="nonzero"/></clipPath><clipPath id="b764189714"><path d="M 36 42.359375 L 45.277344 42.359375 L 45.277344 54 L 36 54 Z M 36 42.359375 " clip-rule="nonzero"/></clipPath><clipPath id="b7bac85deb"><path d="M 122.738281 61.433594 C 122.738281 28.003906 95.636719 0.90625 62.207031 0.90625 C 28.777344 0.90625 1.675781 28.003906 1.675781 61.433594 C 1.675781 94.863281 28.777344 121.964844 62.207031 121.964844 C 95.636719 121.964844 122.738281 94.863281 122.738281 61.433594 " clip-rule="nonzero"/></clipPath><clipPath id="d27e190c29"><path d="M 49 27.273438 L 61.101562 27.273438 L 61.101562 41.859375 L 49 41.859375 Z M 49 27.273438 " clip-rule="nonzero"/></clipPath><clipPath id="7d07bf3d74"><path d="M 122.738281 61.433594 C 122.738281 28.003906 95.636719 0.90625 62.207031 0.90625 C 28.777344 0.90625 1.675781 28.003906 1.675781 61.433594 C 1.675781 94.863281 28.777344 121.964844 62.207031 121.964844 C 95.636719 121.964844 122.738281 94.863281 122.738281 61.433594 " clip-rule="nonzero"/></clipPath><clipPath id="891589cfe5"><path d="M 50.796875 51.195312 L 63.308594 51.195312 L 63.308594 61 L 50.796875 61 Z M 50.796875 51.195312 " clip-rule="nonzero"/></clipPath><clipPath id="9087880a18"><path d="M 122.738281 61.433594 C 122.738281 28.003906 95.636719 0.90625 62.207031 0.90625 C 28.777344 0.90625 1.675781 28.003906 1.675781 61.433594 C 1.675781 94.863281 28.777344 121.964844 62.207031 121.964844 C 95.636719 121.964844 122.738281 94.863281 122.738281 61.433594 " clip-rule="nonzero"/></clipPath><clipPath id="956d726e67"><path d="M 52.792969 60.96875 C 52.121094 60.96875 51.570312 60.722656 51.191406 60.140625 C 50.042969 58.375 51.710938 55.242188 54.925781 53.144531 C 56.710938 51.976562 58.597656 51.375 60.121094 51.375 C 61.339844 51.375 62.320312 51.757812 62.832031 52.546875 C 63.988281 54.3125 61.488281 56.414062 58.273438 58.511719 C 56.113281 59.917969 54.179688 60.96875 52.792969 60.96875 " clip-rule="nonzero"/></clipPath><clipPath id="c2b3ecaa97"><path d="M 37.914062 43.835938 L 41.359375 43.835938 L 41.359375 47 L 37.914062 47 Z M 37.914062 43.835938 " clip-rule="nonzero"/></clipPath><clipPath id="236d9cb5e7"><path d="M 122.738281 61.433594 C 122.738281 28.003906 95.636719 0.90625 62.207031 0.90625 C 28.777344 0.90625 1.675781 28.003906 1.675781 61.433594 C 1.675781 94.863281 28.777344 121.964844 62.207031 121.964844 C 95.636719 121.964844 122.738281 94.863281 122.738281 61.433594 " clip-rule="nonzero"/></clipPath><clipPath id="1ebfb7af7a"><path d="M 80.609375 43.101562 L 84.191406 43.101562 L 84.191406 46.410156 L 80.609375 46.410156 Z M 80.609375 43.101562 " clip-rule="nonzero"/></clipPath><clipPath id="3946038210"><path d="M 122.738281 61.433594 C 122.738281 28.003906 95.636719 0.90625 62.207031 0.90625 C 28.777344 0.90625 1.675781 28.003906 1.675781 61.433594 C 1.675781 94.863281 28.777344 121.964844 62.207031 121.964844 C 95.636719 121.964844 122.738281 94.863281 122.738281 61.433594 " clip-rule="nonzero"/></clipPath><clipPath id="2bcba09498"><path d="M 51.53125 28.824219 L 55.582031 28.824219 L 55.582031 32.425781 L 51.53125 32.425781 Z M 51.53125 28.824219 " clip-rule="nonzero"/></clipPath><clipPath id="512e6f91d2"><path d="M 122.738281 61.433594 C 122.738281 28.003906 95.636719 0.90625 62.207031 0.90625 C 28.777344 0.90625 1.675781 28.003906 1.675781 61.433594 C 1.675781 94.863281 28.777344 121.964844 62.207031 121.964844 C 95.636719 121.964844 122.738281 94.863281 122.738281 61.433594 " clip-rule="nonzero"/></clipPath><clipPath id="7bc19f6e6c"><path d="M 68.09375 28.378906 L 72 28.378906 L 72 31.925781 L 68.09375 31.925781 Z M 68.09375 28.378906 " clip-rule="nonzero"/></clipPath><clipPath id="5f999844f3"><path d="M 122.738281 61.433594 C 122.738281 28.003906 95.636719 0.90625 62.207031 0.90625 C 28.777344 0.90625 1.675781 28.003906 1.675781 61.433594 C 1.675781 94.863281 28.777344 121.964844 62.207031 121.964844 C 95.636719 121.964844 122.738281 94.863281 122.738281 61.433594 " clip-rule="nonzero"/></clipPath><clipPath id="82b2edc2c7"><path d="M 46.75 61.132812 L 51.292969 61.132812 L 51.292969 65.914062 L 46.75 65.914062 Z M 46.75 61.132812 " clip-rule="nonzero"/></clipPath><clipPath id="7479b8e410"><path d="M 122.738281 61.433594 C 122.738281 28.003906 95.636719 0.90625 62.207031 0.90625 C 28.777344 0.90625 1.675781 28.003906 1.675781 61.433594 C 1.675781 94.863281 28.777344 121.964844 62.207031 121.964844 C 95.636719 121.964844 122.738281 94.863281 122.738281 61.433594 " clip-rule="nonzero"/></clipPath><clipPath id="9869e2248a"><path d="M 49 83 L 72.398438 83 L 72.398438 87.792969 L 49 87.792969 Z M 49 83 " clip-rule="nonzero"/></clipPath><clipPath id="921e5d5017"><path d="M 122.738281 61.433594 C 122.738281 28.003906 95.636719 0.90625 62.207031 0.90625 C 28.777344 0.90625 1.675781 28.003906 1.675781 61.433594 C 1.675781 94.863281 28.777344 121.964844 62.207031 121.964844 C 95.636719 121.964844 122.738281 94.863281 122.738281 61.433594 " clip-rule="nonzero"/></clipPath></defs><path fill="#e16e17" d="M 147.691406 54.585938 C 147.691406 51.050781 147.691406 47.511719 147.691406 43.972656 C 147.691406 41.359375 147.523438 38.832031 147.4375 36.304688 C 147.355469 34.871094 147.269531 33.441406 147.183594 32.09375 C 147.183594 30.320312 146.933594 28.636719 146.597656 26.867188 C 146.34375 25.601562 145.921875 24.511719 144.742188 23.75 C 144.488281 23.582031 144.152344 23.414062 143.816406 23.414062 C 142.804688 23.414062 141.792969 23.328125 140.867188 23.414062 C 139.179688 23.582031 137.496094 23.917969 136.148438 24.929688 C 135.304688 25.519531 134.546875 26.023438 133.707031 26.613281 C 133.367188 26.867188 133.03125 27.035156 132.695312 27.289062 C 131.429688 28.300781 130.082031 29.3125 128.816406 30.238281 C 128.648438 30.40625 128.566406 30.492188 128.398438 30.660156 C 127.976562 31.417969 127.46875 32.09375 127.21875 32.933594 C 126.878906 34.03125 126.542969 35.125 126.457031 36.21875 C 126.292969 37.316406 126.292969 38.496094 126.375 39.589844 C 126.542969 40.6875 127.132812 41.445312 128.226562 41.695312 C 128.988281 41.867188 129.746094 41.949219 130.503906 41.53125 C 131.175781 41.023438 131.851562 40.601562 132.523438 40.179688 C 133.285156 39.675781 133.957031 39.085938 134.71875 38.664062 C 135.472656 38.242188 136.066406 38.410156 136.316406 39.171875 C 136.484375 39.589844 136.570312 40.011719 136.570312 40.519531 C 136.65625 45.65625 136.738281 50.878906 136.820312 56.019531 C 136.90625 59.390625 136.992188 62.761719 136.992188 66.046875 C 136.992188 69.921875 136.90625 73.882812 136.992188 77.757812 C 136.992188 79.359375 137.328125 80.957031 138.84375 82.054688 C 138.84375 82.054688 138.929688 82.140625 139.015625 82.222656 C 139.265625 82.558594 139.6875 82.644531 140.191406 82.644531 C 141.710938 82.644531 143.3125 82.644531 144.824219 82.644531 C 145.082031 82.644531 145.332031 82.558594 145.585938 82.476562 C 146.425781 82.140625 146.933594 81.546875 147.183594 80.621094 C 147.4375 79.445312 147.605469 78.347656 147.605469 77.085938 C 147.605469 73.796875 147.691406 70.511719 147.691406 67.140625 C 147.691406 62.929688 147.691406 58.800781 147.691406 54.585938 Z M 147.691406 54.585938 " fill-opacity="1" fill-rule="nonzero"/><path fill="#e16e17" d="M 187.371094 56.355469 C 187.535156 53.832031 187.621094 51.386719 187.453125 48.859375 C 187.285156 46.246094 187.03125 43.632812 186.609375 41.023438 C 186.359375 39.253906 185.769531 37.484375 185.261719 35.714844 C 185.011719 34.871094 184.671875 34.113281 184.25 33.355469 C 183.660156 32.257812 183.238281 31.082031 182.652344 29.984375 C 182.484375 29.5625 182.398438 29.226562 182.144531 28.890625 C 181.21875 27.457031 180.207031 26.109375 179.113281 24.929688 C 178.941406 24.675781 178.691406 24.511719 178.519531 24.425781 C 177.429688 23.917969 176.417969 23.5 175.40625 22.992188 C 175.070312 22.90625 174.730469 22.824219 174.394531 22.824219 C 173.71875 22.738281 173.046875 22.65625 172.457031 22.570312 C 171.613281 22.570312 170.773438 22.570312 169.929688 22.824219 C 167.316406 23.582031 164.957031 24.847656 162.851562 26.445312 C 161.671875 27.289062 160.660156 28.300781 159.902344 29.5625 C 157.710938 33.269531 156.027344 37.230469 155.183594 41.53125 C 154.929688 42.621094 154.84375 43.71875 154.679688 44.816406 C 154.507812 46.332031 154.171875 47.929688 154.003906 49.449219 C 153.753906 51.722656 153.667969 53.996094 153.835938 56.191406 C 154.003906 58.800781 154.339844 61.414062 154.59375 64.023438 C 154.679688 65.207031 154.929688 66.46875 155.101562 67.648438 C 155.183594 68.742188 155.773438 69.667969 156.195312 70.679688 C 156.867188 72.449219 157.796875 74.136719 159.144531 75.566406 C 160.574219 77.085938 161.921875 78.601562 163.695312 79.867188 C 163.859375 79.949219 164.03125 80.117188 164.199219 80.203125 C 164.871094 80.453125 165.546875 80.707031 166.21875 80.957031 C 167.148438 81.214844 168.15625 81.546875 169.167969 81.632812 C 171.78125 81.886719 174.394531 81.632812 177.003906 80.875 C 177.511719 80.707031 178.015625 80.371094 178.4375 80.117188 C 179.113281 79.695312 179.703125 79.273438 180.292969 78.855469 C 181.050781 78.261719 181.890625 77.589844 182.566406 76.832031 C 184.082031 74.976562 185.011719 72.789062 185.769531 70.59375 C 186.1875 69.417969 186.527344 68.152344 186.695312 66.886719 C 186.949219 65.371094 187.03125 63.773438 187.117188 62.253906 C 187.285156 60.230469 187.285156 58.292969 187.371094 56.355469 Z M 177.089844 48.859375 C 177.171875 51.214844 177.257812 53.660156 177.171875 56.019531 C 177.171875 58.042969 177.089844 59.980469 176.582031 61.917969 C 176.417969 62.425781 176.332031 63.011719 176.246094 63.519531 C 176.078125 65.035156 175.40625 66.46875 174.898438 67.898438 C 174.816406 68.152344 174.480469 68.492188 174.226562 68.574219 C 173.46875 68.996094 172.710938 69.332031 171.867188 69.585938 C 171.613281 69.753906 171.191406 69.667969 170.855469 69.667969 C 170.515625 69.667969 170.179688 69.667969 169.84375 69.667969 C 168.578125 69.5 167.652344 68.996094 166.980469 67.816406 C 166.390625 66.636719 166.136719 65.371094 165.800781 64.023438 C 165.292969 62.339844 165.210938 60.652344 165.292969 58.882812 C 165.292969 56.355469 165.292969 53.832031 165.378906 51.300781 C 165.546875 47.59375 166.054688 44.054688 167.148438 40.519531 C 167.484375 39.335938 168.074219 38.242188 168.496094 37.148438 C 168.917969 36.390625 169.675781 36.050781 170.515625 35.882812 C 170.855469 35.800781 171.277344 35.714844 171.613281 35.800781 C 171.949219 35.800781 172.289062 35.882812 172.625 36.050781 C 173.46875 36.472656 173.972656 37.230469 174.480469 37.90625 C 175.488281 39.335938 176.160156 40.9375 176.332031 42.621094 C 176.667969 44.730469 177.003906 46.753906 177.089844 48.859375 Z M 177.089844 48.859375 " fill-opacity="1" fill-rule="nonzero"/><path fill="#e16e17" d="M 214.914062 54.585938 C 214.914062 51.050781 214.914062 47.511719 214.914062 43.972656 C 214.914062 41.359375 214.742188 38.832031 214.660156 36.304688 C 214.578125 34.871094 214.492188 33.441406 214.40625 32.09375 C 214.40625 30.320312 214.15625 28.636719 213.816406 26.867188 C 213.566406 25.601562 213.144531 24.511719 211.964844 23.75 C 211.710938 23.582031 211.375 23.414062 211.035156 23.414062 C 210.023438 23.414062 209.015625 23.328125 208.085938 23.414062 C 206.402344 23.582031 204.71875 23.917969 203.367188 24.929688 C 202.527344 25.519531 201.769531 26.023438 200.925781 26.613281 C 200.589844 26.867188 200.253906 27.035156 199.917969 27.289062 C 198.648438 28.300781 197.304688 29.3125 196.039062 30.238281 C 195.871094 30.40625 195.785156 30.492188 195.621094 30.660156 C 195.199219 31.417969 194.691406 32.09375 194.4375 32.933594 C 194.101562 34.03125 193.765625 35.125 193.679688 36.21875 C 193.511719 37.316406 193.511719 38.496094 193.597656 39.589844 C 193.765625 40.6875 194.355469 41.445312 195.449219 41.695312 C 196.207031 41.867188 196.96875 41.949219 197.722656 41.53125 C 198.398438 41.023438 199.074219 40.601562 199.746094 40.179688 C 200.503906 39.675781 201.179688 39.085938 201.9375 38.664062 C 202.695312 38.242188 203.285156 38.410156 203.539062 39.171875 C 203.707031 39.589844 203.789062 40.011719 203.789062 40.519531 C 203.875 45.65625 203.960938 50.878906 204.042969 56.019531 C 204.128906 59.390625 204.210938 62.761719 204.210938 66.046875 C 204.210938 69.921875 204.128906 73.882812 204.210938 77.757812 C 204.210938 79.359375 204.550781 80.957031 206.066406 82.054688 C 206.066406 82.054688 206.148438 82.140625 206.234375 82.222656 C 206.488281 82.558594 206.910156 82.644531 207.414062 82.644531 C 208.929688 82.644531 210.53125 82.644531 212.046875 82.644531 C 212.300781 82.644531 212.554688 82.558594 212.804688 82.476562 C 213.648438 82.140625 214.15625 81.546875 214.40625 80.621094 C 214.660156 79.445312 214.828125 78.347656 214.828125 77.085938 C 214.828125 73.796875 214.914062 70.511719 214.914062 67.140625 C 214.914062 62.929688 214.914062 58.800781 214.914062 54.585938 Z M 214.914062 54.585938 " fill-opacity="1" fill-rule="nonzero"/><path fill="#995d1f" d="M 122.039062 103.738281 L 129.363281 103.738281 L 130.609375 107.761719 C 130.753906 108.28125 131.304688 108.628906 131.738281 108.628906 C 132.433594 108.628906 132.953125 108.164062 132.953125 107.472656 C 132.953125 107.355469 132.925781 107.125 132.894531 107.039062 L 127.25 89.175781 C 126.960938 88.277344 126.585938 87.640625 125.714844 87.640625 C 124.875 87.640625 124.472656 88.304688 124.210938 89.175781 L 118.566406 107.039062 C 118.535156 107.125 118.507812 107.355469 118.507812 107.472656 C 118.507812 108.164062 119.058594 108.628906 119.722656 108.628906 C 120.128906 108.628906 120.648438 108.28125 120.824219 107.761719 Z M 125.714844 91.664062 L 128.699219 101.476562 L 122.734375 101.476562 Z M 125.714844 91.664062 " fill-opacity="1" fill-rule="nonzero"/><path fill="#995d1f" d="M 142.886719 100.8125 C 146.851562 100.8125 149.398438 98.527344 149.398438 94.414062 C 149.398438 91.027344 147.691406 87.929688 142.886719 87.929688 L 138.628906 87.929688 C 137.875 87.929688 137.238281 88.566406 137.238281 89.320312 L 137.238281 107.414062 C 137.238281 108.082031 137.789062 108.628906 138.398438 108.628906 C 139.035156 108.628906 139.554688 108.050781 139.554688 107.414062 L 139.554688 100.8125 Z M 139.554688 90.1875 L 142.886719 90.1875 C 146.300781 90.1875 147.082031 92.300781 147.082031 94.386719 C 147.082031 97.222656 145.632812 98.554688 142.886719 98.554688 L 139.554688 98.554688 Z M 139.554688 90.1875 " fill-opacity="1" fill-rule="nonzero"/><path fill="#995d1f" d="M 156.171875 103.738281 L 163.496094 103.738281 L 164.742188 107.761719 C 164.886719 108.28125 165.4375 108.628906 165.871094 108.628906 C 166.566406 108.628906 167.085938 108.164062 167.085938 107.472656 C 167.085938 107.355469 167.058594 107.125 167.027344 107.039062 L 161.382812 89.175781 C 161.09375 88.277344 160.71875 87.640625 159.847656 87.640625 C 159.007812 87.640625 158.605469 88.304688 158.34375 89.175781 L 152.699219 107.039062 C 152.667969 107.125 152.640625 107.355469 152.640625 107.472656 C 152.640625 108.164062 153.191406 108.628906 153.855469 108.628906 C 154.261719 108.628906 154.78125 108.28125 154.957031 107.761719 Z M 159.847656 91.664062 L 162.832031 101.476562 L 156.867188 101.476562 Z M 159.847656 91.664062 " fill-opacity="1" fill-rule="nonzero"/><path fill="#995d1f" d="M 175.078125 107.472656 C 175.078125 108.082031 175.601562 108.628906 176.234375 108.628906 C 176.875 108.628906 177.394531 108.082031 177.394531 107.472656 L 177.394531 90.1875 L 181.332031 90.1875 C 181.96875 90.1875 182.519531 89.667969 182.519531 89.058594 C 182.519531 88.421875 181.941406 87.929688 181.332031 87.929688 L 171.140625 87.929688 C 170.503906 87.929688 169.980469 88.566406 169.980469 89.058594 C 169.980469 89.667969 170.472656 90.1875 171.140625 90.1875 L 175.078125 90.1875 Z M 175.078125 107.472656 " fill-opacity="1" fill-rule="nonzero"/><path fill="#995d1f" d="M 186.804688 107.472656 C 186.804688 108.082031 187.324219 108.628906 187.960938 108.628906 C 188.597656 108.628906 189.121094 108.082031 189.121094 107.472656 L 189.121094 88.796875 C 189.121094 88.191406 188.597656 87.640625 187.960938 87.640625 C 187.324219 87.640625 186.804688 88.191406 186.804688 88.796875 Z M 186.804688 107.472656 " fill-opacity="1" fill-rule="nonzero"/><path fill="#995d1f" d="M 198.527344 107.472656 C 198.527344 108.082031 199.050781 108.628906 199.683594 108.628906 C 200.324219 108.628906 200.84375 108.082031 200.84375 107.472656 L 200.84375 90.1875 L 204.78125 90.1875 C 205.417969 90.1875 205.96875 89.667969 205.96875 89.058594 C 205.96875 88.421875 205.390625 87.929688 204.78125 87.929688 L 194.589844 87.929688 C 193.953125 87.929688 193.433594 88.566406 193.433594 89.058594 C 193.433594 89.667969 193.925781 90.1875 194.589844 90.1875 L 198.527344 90.1875 Z M 198.527344 107.472656 " fill-opacity="1" fill-rule="nonzero"/><path fill="#995d1f" d="M 212.394531 103.738281 L 219.71875 103.738281 L 220.964844 107.761719 C 221.109375 108.28125 221.660156 108.628906 222.09375 108.628906 C 222.789062 108.628906 223.308594 108.164062 223.308594 107.472656 C 223.308594 107.355469 223.28125 107.125 223.25 107.039062 L 217.605469 89.175781 C 217.316406 88.277344 216.941406 87.640625 216.070312 87.640625 C 215.230469 87.640625 214.828125 88.304688 214.566406 89.175781 L 208.921875 107.039062 C 208.890625 107.125 208.863281 107.355469 208.863281 107.472656 C 208.863281 108.164062 209.414062 108.628906 210.078125 108.628906 C 210.484375 108.628906 211.003906 108.28125 211.179688 107.761719 Z M 216.070312 91.664062 L 219.054688 101.476562 L 213.089844 101.476562 Z M 216.070312 91.664062 " fill-opacity="1" fill-rule="nonzero"/><g clip-path="url(#c5b540bf33)"><path fill="#31aec0" d="M 122.738281 61.433594 C 122.738281 28.003906 95.636719 0.90625 62.207031 0.90625 C 28.777344 0.90625 1.675781 28.003906 1.675781 61.433594 C 1.675781 94.863281 28.777344 121.964844 62.207031 121.964844 C 95.636719 121.964844 122.738281 94.863281 122.738281 61.433594 " fill-opacity="1" fill-rule="nonzero"/></g><g clip-path="url(#61ba5d4123)"><g clip-path="url(#d7c94613e6)"><path fill="#069db3" d="M 104.195312 49.460938 C 103.484375 47.289062 102.195312 45.078125 100.453125 43.21875 C 101.605469 39.925781 101.875 36 100.171875 37.367188 C 99.191406 38.152344 98.492188 39.75 98.035156 41.140625 C 96.875 40.316406 95.621094 39.617188 94.222656 39.1875 C 94.210938 38.996094 94.234375 38.8125 94.210938 38.625 C 94.066406 37.15625 93.734375 35.722656 93.246094 34.410156 C 91.464844 29.519531 87.050781 24.316406 81.125 23.023438 C 80.980469 19.90625 80.082031 17.035156 79.027344 18.675781 C 78.378906 19.683594 78.214844 21.300781 78.207031 22.71875 C 77.246094 22.726562 76.292969 22.828125 75.359375 23.042969 C 73.394531 23.492188 71.609375 24.414062 70.027344 25.625 C 68.355469 24.296875 66.382812 23.308594 64.050781 22.921875 C 63.359375 22.804688 62.667969 22.757812 61.984375 22.75 C 61.875 19.539062 60.964844 16.472656 59.882812 18.160156 C 59.101562 19.367188 59.015625 21.460938 59.078125 23.027344 C 54.335938 23.953125 50.070312 27.226562 47.769531 31.949219 C 46.84375 33.855469 46.148438 36.164062 45.886719 38.621094 C 44.429688 38.652344 43.074219 38.980469 41.800781 39.464844 C 40.976562 36.210938 39.242188 33.105469 38.558594 35.085938 C 38 36.699219 38.679688 39.296875 39.160156 40.777344 C 35.957031 42.886719 33.664062 46.238281 32.609375 49.445312 C 32.199219 50.691406 31.945312 51.992188 31.859375 53.277344 C 31.628906 56.6875 32.53125 60.046875 34.410156 62.742188 C 35.492188 64.300781 36.898438 65.539062 38.46875 66.496094 C 38.320312 67.40625 38.097656 68.300781 38.097656 69.234375 C 38.097656 74.902344 41.035156 80.019531 45.71875 83.945312 L 39.539062 128.898438 L 95.015625 128.898438 L 89.050781 85.523438 C 90.039062 84.597656 90.949219 83.597656 91.730469 82.488281 C 95.449219 78.777344 97.730469 74.222656 97.730469 69.234375 C 97.730469 68.480469 97.535156 67.761719 97.433594 67.027344 C 99.382812 66.027344 101.101562 64.597656 102.390625 62.75 C 104.265625 60.046875 105.175781 56.6875 104.945312 53.304688 C 104.855469 51.992188 104.605469 50.691406 104.195312 49.460938 " fill-opacity="1" fill-rule="nonzero"/></g></g><g clip-path="url(#bda7eb1c1f)"><g clip-path="url(#9674acd6ec)"><path fill="#d2d5d8" d="M 33.363281 36.234375 C 33.363281 36.234375 31.550781 31.753906 32.363281 29.402344 C 33.175781 27.050781 35.484375 31.875 35.976562 35.601562 C 36.46875 39.328125 33.363281 36.234375 33.363281 36.234375 " fill-opacity="1" fill-rule="nonzero"/></g></g><g clip-path="url(#5d91bd3800)"><g clip-path="url(#d9cc6c7f40)"><path fill="#d2d5d8" d="M 53.042969 19.351562 C 53.042969 19.351562 52.339844 14.570312 53.6875 12.476562 C 55.03125 10.382812 56.136719 15.617188 55.734375 19.351562 C 55.328125 23.089844 53.042969 19.351562 53.042969 19.351562 " fill-opacity="1" fill-rule="nonzero"/></g></g><g clip-path="url(#7b8ed625b9)"><g clip-path="url(#d7c66f1242)"><path fill="#d2d5d8" d="M 72.191406 19.871094 C 72.191406 19.871094 71.488281 15.089844 72.832031 12.996094 C 74.179688 10.902344 75.277344 16.132812 74.878906 19.871094 C 74.476562 23.609375 72.191406 19.871094 72.191406 19.871094 " fill-opacity="1" fill-rule="nonzero"/></g></g><g clip-path="url(#a0b7bb256b)"><g clip-path="url(#7615824633)"><path fill="#d2d5d8" d="M 91.183594 38 C 91.183594 38 92.035156 33.242188 93.972656 31.683594 C 95.917969 30.125 95.296875 35.4375 93.730469 38.855469 C 92.164062 42.269531 91.183594 38 91.183594 38 " fill-opacity="1" fill-rule="nonzero"/></g></g><g clip-path="url(#01818c28c9)"><g clip-path="url(#71db089188)"><path fill="#725f63" d="M 91.535156 63.554688 C 91.535156 75.832031 78.1875 85.78125 61.71875 85.78125 C 45.253906 85.78125 31.902344 75.832031 31.902344 63.554688 C 31.902344 51.28125 45.253906 41.328125 61.71875 41.328125 C 78.1875 41.328125 91.535156 51.28125 91.535156 63.554688 " fill-opacity="1" fill-rule="nonzero"/></g></g><g clip-path="url(#cf8a244a71)"><g clip-path="url(#52cf672378)"><path fill="#725f63" d="M 88.820312 123.21875 L 33.339844 123.21875 L 41.839844 61.433594 L 80.324219 61.433594 L 88.820312 123.21875 " fill-opacity="1" fill-rule="nonzero"/></g></g><g clip-path="url(#dcc7419715)"><g clip-path="url(#6811b5f0b6)"><path fill="#725f63" d="M 98 43.78125 C 96.597656 39.515625 93.007812 35.042969 88.023438 33.503906 C 88.015625 33.320312 88.035156 33.132812 88.015625 32.941406 C 87.867188 31.476562 87.539062 30.039062 87.050781 28.730469 C 85.003906 23.089844 79.453125 17.023438 72.121094 17.023438 C 71.128906 17.023438 70.132812 17.140625 69.164062 17.363281 C 67.195312 17.816406 65.414062 18.738281 63.832031 19.945312 C 62.15625 18.617188 60.1875 17.628906 57.855469 17.242188 C 57.089844 17.113281 56.332031 17.050781 55.578125 17.050781 C 49.796875 17.050781 44.304688 20.664062 41.570312 26.269531 C 40.648438 28.171875 39.953125 30.480469 39.691406 32.9375 C 32.976562 33.101562 28.105469 38.621094 26.414062 43.765625 C 26.003906 45.015625 25.746094 46.3125 25.664062 47.597656 C 25.429688 51.003906 26.335938 54.367188 28.214844 57.058594 C 30.023438 59.664062 32.664062 61.476562 35.625 62.355469 C 35.445312 63.472656 35.34375 64.605469 35.34375 65.753906 C 35.34375 76.394531 44.003906 85.046875 54.640625 85.046875 C 57.261719 85.046875 59.835938 84.511719 62.199219 83.5 C 64.570312 84.511719 67.140625 85.046875 69.761719 85.046875 C 80.398438 85.046875 89.058594 76.394531 89.058594 65.753906 C 89.058594 64.605469 88.957031 63.472656 88.777344 62.359375 C 91.742188 61.480469 94.382812 59.667969 96.191406 57.066406 C 98.070312 54.367188 98.980469 51.003906 98.75 47.621094 C 98.660156 46.3125 98.40625 45.015625 98 43.78125 " fill-opacity="1" fill-rule="nonzero"/></g></g><g clip-path="url(#4a8b4c98ee)"><g clip-path="url(#f5754381a7)"><path fill="#665155" d="M 69.386719 76.203125 C 66.746094 76.203125 64.21875 75.277344 62.203125 73.585938 C 60.1875 75.277344 57.65625 76.203125 55.015625 76.203125 C 48.847656 76.203125 43.835938 71.191406 43.835938 65.027344 C 43.835938 62.671875 43.835938 56.40625 56.140625 48.457031 C 57.953125 47.285156 60.046875 46.664062 62.203125 46.664062 C 64.363281 46.664062 66.460938 47.285156 68.273438 48.457031 C 80.570312 56.410156 80.570312 62.671875 80.570312 65.027344 C 80.570312 71.191406 75.554688 76.203125 69.386719 76.203125 " fill-opacity="1" fill-rule="nonzero"/></g></g><g clip-path="url(#b65bcc8162)"><g clip-path="url(#a01751afba)"><path fill="#665155" d="M 72.382812 43.289062 C 71.082031 43.289062 69.835938 42.914062 68.765625 42.203125 C 65.671875 40.152344 64.769531 36.125 64.945312 33.300781 C 65.128906 30.257812 67.074219 26.78125 70.433594 26.007812 C 70.824219 25.917969 71.230469 25.871094 71.632812 25.871094 C 74.964844 25.871094 77.960938 29.171875 79.089844 32.285156 C 79.355469 32.980469 79.53125 33.753906 79.617188 34.5625 C 79.8125 36.539062 79.371094 38.472656 78.375 40.011719 C 77.0625 42.03125 74.765625 43.289062 72.382812 43.289062 " fill-opacity="1" fill-rule="nonzero"/></g></g><g clip-path="url(#29a8c2099d)"><g clip-path="url(#65a6f985af)"><path fill="#665155" d="M 83.78125 55.226562 C 82.648438 55.226562 81.5625 54.882812 80.640625 54.234375 C 78.160156 52.476562 77.527344 49.183594 77.738281 46.894531 C 77.96875 44.414062 79.664062 41.609375 82.453125 41.054688 C 82.734375 40.996094 83.019531 40.96875 83.328125 40.96875 C 86.132812 40.96875 88.5625 43.757812 89.425781 46.378906 C 89.628906 46.980469 89.753906 47.609375 89.792969 48.253906 C 89.902344 49.875 89.488281 51.445312 88.632812 52.679688 C 87.539062 54.25 85.683594 55.226562 83.78125 55.226562 " fill-opacity="1" fill-rule="nonzero"/></g></g><g clip-path="url(#6636cb6cd3)"><g clip-path="url(#3888bf5a91)"><path fill="#665155" d="M 40.628906 55.226562 C 38.726562 55.226562 36.867188 54.246094 35.777344 52.675781 C 34.921875 51.445312 34.507812 49.875 34.617188 48.253906 C 34.65625 47.609375 34.78125 46.980469 34.980469 46.375 C 35.84375 43.753906 38.277344 40.96875 41.082031 40.96875 C 41.390625 40.96875 41.671875 40.996094 41.960938 41.054688 C 44.746094 41.609375 46.4375 44.414062 46.671875 46.894531 C 46.878906 49.183594 46.246094 52.476562 43.769531 54.234375 C 42.84375 54.882812 41.757812 55.226562 40.628906 55.226562 " fill-opacity="1" fill-rule="nonzero"/></g></g><g clip-path="url(#bfb05b70c6)"><g clip-path="url(#5eb65c8395)"><path fill="#665155" d="M 54.785156 43.21875 C 52.496094 43.21875 50.398438 42.132812 49.171875 40.308594 C 47.089844 37.246094 47.804688 33.171875 49.039062 30.621094 C 50.1875 28.269531 52.753906 25.894531 55.90625 25.894531 C 56.238281 25.894531 56.5625 25.921875 56.890625 25.976562 C 61.007812 26.664062 62.648438 31.714844 62.496094 35.085938 C 62.472656 35.859375 62.34375 36.636719 62.113281 37.394531 C 61.539062 39.292969 60.394531 40.914062 58.882812 41.953125 C 57.679688 42.78125 56.261719 43.21875 54.785156 43.21875 " fill-opacity="1" fill-rule="nonzero"/></g></g><g clip-path="url(#cb8d2d2fc9)"><g clip-path="url(#17a408dd29)"><path fill="#febfcb" d="M 62.203125 48.097656 C 64.042969 48.097656 65.886719 48.617188 67.492188 49.664062 C 79.132812 57.1875 79.132812 62.886719 79.132812 65.027344 C 79.132812 70.410156 74.765625 74.769531 69.390625 74.769531 C 66.539062 74.769531 63.984375 73.546875 62.203125 71.605469 C 60.417969 73.546875 57.863281 74.769531 55.011719 74.769531 C 49.636719 74.769531 45.269531 70.410156 45.269531 65.027344 C 45.269531 62.882812 45.269531 57.1875 56.914062 49.65625 C 58.527344 48.617188 60.363281 48.097656 62.203125 48.097656 " fill-opacity="1" fill-rule="nonzero"/></g></g><g clip-path="url(#7a22012cb1)"><g clip-path="url(#54c8167a4d)"><path fill="#febfcb" d="M 78.191406 34.707031 C 78.347656 36.285156 78.03125 37.90625 77.171875 39.230469 C 75.542969 41.734375 72.101562 42.691406 69.558594 41.011719 C 67.164062 39.425781 66.207031 36.121094 66.371094 33.382812 C 66.527344 30.847656 68.117188 28.011719 70.75 27.402344 C 73.941406 26.664062 76.785156 30.128906 77.75 32.773438 C 77.976562 33.394531 78.121094 34.050781 78.191406 34.707031 " fill-opacity="1" fill-rule="nonzero"/></g></g><g clip-path="url(#e93d98848e)"><g clip-path="url(#71bd2b9287)"><path fill="#febfcb" d="M 88.367188 48.351562 C 88.449219 49.585938 88.164062 50.84375 87.457031 51.855469 C 86.128906 53.773438 83.414062 54.441406 81.46875 53.0625 C 79.636719 51.765625 78.96875 49.164062 79.164062 47.027344 C 79.347656 45.050781 80.660156 42.871094 82.730469 42.460938 C 85.246094 41.964844 87.378906 44.734375 88.066406 46.824219 C 88.230469 47.316406 88.332031 47.832031 88.367188 48.351562 " fill-opacity="1" fill-rule="nonzero"/></g></g><g clip-path="url(#b764189714)"><g clip-path="url(#b7bac85deb)"><path fill="#febfcb" d="M 36.042969 48.351562 C 35.957031 49.585938 36.246094 50.84375 36.949219 51.855469 C 38.28125 53.773438 40.996094 54.441406 42.9375 53.0625 C 44.773438 51.765625 45.4375 49.164062 45.242188 47.027344 C 45.0625 45.050781 43.75 42.871094 41.675781 42.460938 C 39.167969 41.964844 37.03125 44.734375 36.339844 46.824219 C 36.179688 47.316406 36.078125 47.832031 36.042969 48.351562 " fill-opacity="1" fill-rule="nonzero"/></g></g><g clip-path="url(#d27e190c29)"><g clip-path="url(#7d07bf3d74)"><path fill="#febfcb" d="M 60.742188 36.980469 C 60.285156 38.5 59.371094 39.875 58.074219 40.773438 C 55.613281 42.464844 52.0625 42.035156 50.359375 39.507812 C 48.75 37.128906 49.128906 33.710938 50.328125 31.246094 C 51.4375 28.957031 53.992188 26.945312 56.65625 27.386719 C 59.886719 27.925781 61.191406 32.210938 61.074219 35.023438 C 61.046875 35.6875 60.933594 36.34375 60.742188 36.980469 " fill-opacity="1" fill-rule="nonzero"/></g></g><g clip-path="url(#891589cfe5)"><g clip-path="url(#9087880a18)"><g clip-path="url(#956d726e67)"><path fill="#fed8df" d="M 50.042969 60.96875 L 63.988281 60.96875 L 63.988281 51.375 L 50.042969 51.375 Z M 50.042969 60.96875 " fill-opacity="1" fill-rule="nonzero"/></g></g></g><g clip-path="url(#c2b3ecaa97)"><g clip-path="url(#236d9cb5e7)"><path fill="#fed8df" d="M 39.167969 46.90625 C 38.753906 46.90625 38.382812 46.753906 38.160156 46.445312 C 37.722656 45.847656 38.015625 44.886719 38.816406 44.304688 C 39.210938 44.019531 39.652344 43.875 40.050781 43.875 C 40.464844 43.875 40.835938 44.03125 41.058594 44.335938 C 41.496094 44.9375 41.203125 45.898438 40.402344 46.480469 C 40.007812 46.765625 39.566406 46.90625 39.167969 46.90625 " fill-opacity="1" fill-rule="nonzero"/></g></g><g clip-path="url(#1ebfb7af7a)"><g clip-path="url(#3946038210)"><path fill="#fed8df" d="M 81.996094 46.3125 C 81.582031 46.3125 81.210938 46.15625 80.988281 45.851562 C 80.550781 45.25 80.847656 44.292969 81.644531 43.707031 C 82.042969 43.421875 82.480469 43.28125 82.878906 43.28125 C 83.296875 43.28125 83.667969 43.433594 83.890625 43.738281 C 84.328125 44.339844 84.03125 45.300781 83.230469 45.882812 C 82.835938 46.167969 82.394531 46.3125 81.996094 46.3125 " fill-opacity="1" fill-rule="nonzero"/></g></g><g clip-path="url(#2bcba09498)"><g clip-path="url(#512e6f91d2)"><path fill="#fed8df" d="M 52.691406 32.195312 C 52.292969 32.195312 51.957031 32.066406 51.761719 31.796875 C 51.328125 31.199219 51.761719 30.132812 52.742188 29.421875 C 53.285156 29.027344 53.878906 28.824219 54.375 28.824219 C 54.773438 28.824219 55.105469 28.957031 55.304688 29.222656 C 55.738281 29.824219 55.300781 30.886719 54.324219 31.601562 C 53.78125 31.992188 53.1875 32.195312 52.691406 32.195312 " fill-opacity="1" fill-rule="nonzero"/></g></g><g clip-path="url(#7bc19f6e6c)"><g clip-path="url(#5f999844f3)"><path fill="#fed8df" d="M 69.210938 31.824219 C 68.8125 31.824219 68.476562 31.691406 68.28125 31.425781 C 67.84375 30.824219 68.28125 29.757812 69.261719 29.050781 C 69.804688 28.652344 70.398438 28.453125 70.894531 28.453125 C 71.292969 28.453125 71.628906 28.582031 71.820312 28.851562 C 72.257812 29.453125 71.820312 30.515625 70.84375 31.222656 C 70.300781 31.621094 69.707031 31.824219 69.210938 31.824219 " fill-opacity="1" fill-rule="nonzero"/></g></g><g clip-path="url(#82b2edc2c7)"><g clip-path="url(#7479b8e410)"><path fill="#fed8df" d="M 48.632812 65.777344 C 48.136719 65.777344 47.671875 65.609375 47.320312 65.257812 C 46.53125 64.46875 46.65625 63.070312 47.601562 62.128906 C 48.125 61.601562 48.792969 61.332031 49.417969 61.332031 C 49.914062 61.332031 50.382812 61.503906 50.730469 61.851562 C 51.519531 62.640625 51.394531 64.042969 50.453125 64.980469 C 49.925781 65.503906 49.257812 65.777344 48.632812 65.777344 " fill-opacity="1" fill-rule="nonzero"/></g></g><g clip-path="url(#9869e2248a)"><g clip-path="url(#921e5d5017)"><path fill="#665155" d="M 72.292969 85.472656 C 72.292969 86.742188 67.144531 87.773438 60.789062 87.773438 C 54.433594 87.773438 49.289062 86.742188 49.289062 85.472656 C 49.289062 84.203125 54.433594 83.175781 60.789062 83.175781 C 67.144531 83.175781 72.292969 84.203125 72.292969 85.472656 " fill-opacity="1" fill-rule="nonzero"/></g></g></svg>